<?xml version="1.0" encoding="utf-8" standalone="no"?>
<!DOCTYPE svg PUBLIC "-//W3C//DTD SVG 1.1//EN"
  "http://www.w3.org/Graphics/SVG/1.1/DTD/svg11.dtd">
<svg xmlns:xlink="http://www.w3.org/1999/xlink" width="460.8pt" height="345.6pt" viewBox="0 0 460.8 345.6" xmlns="http://www.w3.org/2000/svg" version="1.1">
 <metadata>
  <rdf:RDF xmlns:dc="http://purl.org/dc/elements/1.1/" xmlns:cc="http://creativecommons.org/ns#" xmlns:rdf="http://www.w3.org/1999/02/22-rdf-syntax-ns#">
   <cc:Work>
    <dc:type rdf:resource="http://purl.org/dc/dcmitype/StillImage"/>
    <dc:date>2023-12-23T21:11:45.724389</dc:date>
    <dc:format>image/svg+xml</dc:format>
    <dc:creator>
     <cc:Agent>
      <dc:title>Matplotlib v3.8.1, https://matplotlib.org/</dc:title>
     </cc:Agent>
    </dc:creator>
   </cc:Work>
  </rdf:RDF>
 </metadata>
 <defs>
  <style type="text/css">*{stroke-linejoin: round; stroke-linecap: butt}</style>
 </defs>
 <g id="figure_1">
  <g id="patch_1">
   <path d="M 0 345.6 
L 460.8 345.6 
L 460.8 0 
L 0 0 
z
" style="fill: #ffffff"/>
  </g>
  <g id="axes_1">
   <g id="patch_2">
    <path d="M 57.6 307.584 
L 414.72 307.584 
L 414.72 41.472 
L 57.6 41.472 
z
" style="fill: #ffffff"/>
   </g>
   <g id="matplotlib.axis_1">
    <g id="xtick_1">
     <g id="line2d_1">
      <path d="M 57.6 307.584 
L 57.6 41.472 
" clip-path="url(#p5b8544701b)" style="fill: none; stroke: #b0b0b0; stroke-width: 0.8; stroke-linecap: square"/>
     </g>
     <g id="line2d_2">
      <defs>
       <path id="meb26948e76" d="M 0 0 
L 0 3.5 
" style="stroke: #000000; stroke-width: 0.8"/>
      </defs>
      <g>
       <use xlink:href="#meb26948e76" x="57.6" y="307.584" style="stroke: #000000; stroke-width: 0.8"/>
      </g>
     </g>
     <g id="text_1">
      <!-- −1.00 -->
      <g transform="translate(42.277344 322.182437) scale(0.1 -0.1)">
       <defs>
        <path id="DejaVuSans-2212" d="M 678 2272 
L 4684 2272 
L 4684 1741 
L 678 1741 
L 678 2272 
z
" transform="scale(0.015625)"/>
        <path id="DejaVuSans-31" d="M 794 531 
L 1825 531 
L 1825 4091 
L 703 3866 
L 703 4441 
L 1819 4666 
L 2450 4666 
L 2450 531 
L 3481 531 
L 3481 0 
L 794 0 
L 794 531 
z
" transform="scale(0.015625)"/>
        <path id="DejaVuSans-2e" d="M 684 794 
L 1344 794 
L 1344 0 
L 684 0 
L 684 794 
z
" transform="scale(0.015625)"/>
        <path id="DejaVuSans-30" d="M 2034 4250 
Q 1547 4250 1301 3770 
Q 1056 3291 1056 2328 
Q 1056 1369 1301 889 
Q 1547 409 2034 409 
Q 2525 409 2770 889 
Q 3016 1369 3016 2328 
Q 3016 3291 2770 3770 
Q 2525 4250 2034 4250 
z
M 2034 4750 
Q 2819 4750 3233 4129 
Q 3647 3509 3647 2328 
Q 3647 1150 3233 529 
Q 2819 -91 2034 -91 
Q 1250 -91 836 529 
Q 422 1150 422 2328 
Q 422 3509 836 4129 
Q 1250 4750 2034 4750 
z
" transform="scale(0.015625)"/>
       </defs>
       <use xlink:href="#DejaVuSans-2212"/>
       <use xlink:href="#DejaVuSans-31" x="83.789062"/>
       <use xlink:href="#DejaVuSans-2e" x="147.412109"/>
       <use xlink:href="#DejaVuSans-30" x="179.199219"/>
       <use xlink:href="#DejaVuSans-30" x="242.822266"/>
      </g>
     </g>
    </g>
    <g id="xtick_2">
     <g id="line2d_3">
      <path d="M 102.24 307.584 
L 102.24 41.472 
" clip-path="url(#p5b8544701b)" style="fill: none; stroke: #b0b0b0; stroke-width: 0.8; stroke-linecap: square"/>
     </g>
     <g id="line2d_4">
      <g>
       <use xlink:href="#meb26948e76" x="102.24" y="307.584" style="stroke: #000000; stroke-width: 0.8"/>
      </g>
     </g>
     <g id="text_2">
      <!-- −0.75 -->
      <g transform="translate(86.917344 322.182437) scale(0.1 -0.1)">
       <defs>
        <path id="DejaVuSans-37" d="M 525 4666 
L 3525 4666 
L 3525 4397 
L 1831 0 
L 1172 0 
L 2766 4134 
L 525 4134 
L 525 4666 
z
" transform="scale(0.015625)"/>
        <path id="DejaVuSans-35" d="M 691 4666 
L 3169 4666 
L 3169 4134 
L 1269 4134 
L 1269 2991 
Q 1406 3038 1543 3061 
Q 1681 3084 1819 3084 
Q 2600 3084 3056 2656 
Q 3513 2228 3513 1497 
Q 3513 744 3044 326 
Q 2575 -91 1722 -91 
Q 1428 -91 1123 -41 
Q 819 9 494 109 
L 494 744 
Q 775 591 1075 516 
Q 1375 441 1709 441 
Q 2250 441 2565 725 
Q 2881 1009 2881 1497 
Q 2881 1984 2565 2268 
Q 2250 2553 1709 2553 
Q 1456 2553 1204 2497 
Q 953 2441 691 2322 
L 691 4666 
z
" transform="scale(0.015625)"/>
       </defs>
       <use xlink:href="#DejaVuSans-2212"/>
       <use xlink:href="#DejaVuSans-30" x="83.789062"/>
       <use xlink:href="#DejaVuSans-2e" x="147.412109"/>
       <use xlink:href="#DejaVuSans-37" x="179.199219"/>
       <use xlink:href="#DejaVuSans-35" x="242.822266"/>
      </g>
     </g>
    </g>
    <g id="xtick_3">
     <g id="line2d_5">
      <path d="M 146.88 307.584 
L 146.88 41.472 
" clip-path="url(#p5b8544701b)" style="fill: none; stroke: #b0b0b0; stroke-width: 0.8; stroke-linecap: square"/>
     </g>
     <g id="line2d_6">
      <g>
       <use xlink:href="#meb26948e76" x="146.88" y="307.584" style="stroke: #000000; stroke-width: 0.8"/>
      </g>
     </g>
     <g id="text_3">
      <!-- −0.50 -->
      <g transform="translate(131.557344 322.182437) scale(0.1 -0.1)">
       <use xlink:href="#DejaVuSans-2212"/>
       <use xlink:href="#DejaVuSans-30" x="83.789062"/>
       <use xlink:href="#DejaVuSans-2e" x="147.412109"/>
       <use xlink:href="#DejaVuSans-35" x="179.199219"/>
       <use xlink:href="#DejaVuSans-30" x="242.822266"/>
      </g>
     </g>
    </g>
    <g id="xtick_4">
     <g id="line2d_7">
      <path d="M 191.52 307.584 
L 191.52 41.472 
" clip-path="url(#p5b8544701b)" style="fill: none; stroke: #b0b0b0; stroke-width: 0.8; stroke-linecap: square"/>
     </g>
     <g id="line2d_8">
      <g>
       <use xlink:href="#meb26948e76" x="191.52" y="307.584" style="stroke: #000000; stroke-width: 0.8"/>
      </g>
     </g>
     <g id="text_4">
      <!-- −0.25 -->
      <g transform="translate(176.197344 322.182437) scale(0.1 -0.1)">
       <defs>
        <path id="DejaVuSans-32" d="M 1228 531 
L 3431 531 
L 3431 0 
L 469 0 
L 469 531 
Q 828 903 1448 1529 
Q 2069 2156 2228 2338 
Q 2531 2678 2651 2914 
Q 2772 3150 2772 3378 
Q 2772 3750 2511 3984 
Q 2250 4219 1831 4219 
Q 1534 4219 1204 4116 
Q 875 4013 500 3803 
L 500 4441 
Q 881 4594 1212 4672 
Q 1544 4750 1819 4750 
Q 2544 4750 2975 4387 
Q 3406 4025 3406 3419 
Q 3406 3131 3298 2873 
Q 3191 2616 2906 2266 
Q 2828 2175 2409 1742 
Q 1991 1309 1228 531 
z
" transform="scale(0.015625)"/>
       </defs>
       <use xlink:href="#DejaVuSans-2212"/>
       <use xlink:href="#DejaVuSans-30" x="83.789062"/>
       <use xlink:href="#DejaVuSans-2e" x="147.412109"/>
       <use xlink:href="#DejaVuSans-32" x="179.199219"/>
       <use xlink:href="#DejaVuSans-35" x="242.822266"/>
      </g>
     </g>
    </g>
    <g id="xtick_5">
     <g id="line2d_9">
      <path d="M 236.16 307.584 
L 236.16 41.472 
" clip-path="url(#p5b8544701b)" style="fill: none; stroke: #b0b0b0; stroke-width: 0.8; stroke-linecap: square"/>
     </g>
     <g id="line2d_10">
      <g>
       <use xlink:href="#meb26948e76" x="236.16" y="307.584" style="stroke: #000000; stroke-width: 0.8"/>
      </g>
     </g>
     <g id="text_5">
      <!-- 0.00 -->
      <g transform="translate(225.027187 322.182437) scale(0.1 -0.1)">
       <use xlink:href="#DejaVuSans-30"/>
       <use xlink:href="#DejaVuSans-2e" x="63.623047"/>
       <use xlink:href="#DejaVuSans-30" x="95.410156"/>
       <use xlink:href="#DejaVuSans-30" x="159.033203"/>
      </g>
     </g>
    </g>
    <g id="xtick_6">
     <g id="line2d_11">
      <path d="M 280.8 307.584 
L 280.8 41.472 
" clip-path="url(#p5b8544701b)" style="fill: none; stroke: #b0b0b0; stroke-width: 0.8; stroke-linecap: square"/>
     </g>
     <g id="line2d_12">
      <g>
       <use xlink:href="#meb26948e76" x="280.8" y="307.584" style="stroke: #000000; stroke-width: 0.8"/>
      </g>
     </g>
     <g id="text_6">
      <!-- 0.25 -->
      <g transform="translate(269.667188 322.182437) scale(0.1 -0.1)">
       <use xlink:href="#DejaVuSans-30"/>
       <use xlink:href="#DejaVuSans-2e" x="63.623047"/>
       <use xlink:href="#DejaVuSans-32" x="95.410156"/>
       <use xlink:href="#DejaVuSans-35" x="159.033203"/>
      </g>
     </g>
    </g>
    <g id="xtick_7">
     <g id="line2d_13">
      <path d="M 325.44 307.584 
L 325.44 41.472 
" clip-path="url(#p5b8544701b)" style="fill: none; stroke: #b0b0b0; stroke-width: 0.8; stroke-linecap: square"/>
     </g>
     <g id="line2d_14">
      <g>
       <use xlink:href="#meb26948e76" x="325.44" y="307.584" style="stroke: #000000; stroke-width: 0.8"/>
      </g>
     </g>
     <g id="text_7">
      <!-- 0.50 -->
      <g transform="translate(314.307187 322.182437) scale(0.1 -0.1)">
       <use xlink:href="#DejaVuSans-30"/>
       <use xlink:href="#DejaVuSans-2e" x="63.623047"/>
       <use xlink:href="#DejaVuSans-35" x="95.410156"/>
       <use xlink:href="#DejaVuSans-30" x="159.033203"/>
      </g>
     </g>
    </g>
    <g id="xtick_8">
     <g id="line2d_15">
      <path d="M 370.08 307.584 
L 370.08 41.472 
" clip-path="url(#p5b8544701b)" style="fill: none; stroke: #b0b0b0; stroke-width: 0.8; stroke-linecap: square"/>
     </g>
     <g id="line2d_16">
      <g>
       <use xlink:href="#meb26948e76" x="370.08" y="307.584" style="stroke: #000000; stroke-width: 0.8"/>
      </g>
     </g>
     <g id="text_8">
      <!-- 0.75 -->
      <g transform="translate(358.947188 322.182437) scale(0.1 -0.1)">
       <use xlink:href="#DejaVuSans-30"/>
       <use xlink:href="#DejaVuSans-2e" x="63.623047"/>
       <use xlink:href="#DejaVuSans-37" x="95.410156"/>
       <use xlink:href="#DejaVuSans-35" x="159.033203"/>
      </g>
     </g>
    </g>
    <g id="xtick_9">
     <g id="line2d_17">
      <path d="M 414.72 307.584 
L 414.72 41.472 
" clip-path="url(#p5b8544701b)" style="fill: none; stroke: #b0b0b0; stroke-width: 0.8; stroke-linecap: square"/>
     </g>
     <g id="line2d_18">
      <g>
       <use xlink:href="#meb26948e76" x="414.72" y="307.584" style="stroke: #000000; stroke-width: 0.8"/>
      </g>
     </g>
     <g id="text_9">
      <!-- 1.00 -->
      <g transform="translate(403.587188 322.182437) scale(0.1 -0.1)">
       <use xlink:href="#DejaVuSans-31"/>
       <use xlink:href="#DejaVuSans-2e" x="63.623047"/>
       <use xlink:href="#DejaVuSans-30" x="95.410156"/>
       <use xlink:href="#DejaVuSans-30" x="159.033203"/>
      </g>
     </g>
    </g>
    <g id="text_10">
     <!-- x -->
     <g transform="translate(233.200625 335.860562) scale(0.1 -0.1)">
      <defs>
       <path id="DejaVuSans-78" d="M 3513 3500 
L 2247 1797 
L 3578 0 
L 2900 0 
L 1881 1375 
L 863 0 
L 184 0 
L 1544 1831 
L 300 3500 
L 978 3500 
L 1906 2253 
L 2834 3500 
L 3513 3500 
z
" transform="scale(0.015625)"/>
      </defs>
      <use xlink:href="#DejaVuSans-78"/>
     </g>
    </g>
   </g>
   <g id="matplotlib.axis_2">
    <g id="ytick_1">
     <g id="line2d_19">
      <path d="M 57.6 280.9728 
L 414.72 280.9728 
" clip-path="url(#p5b8544701b)" style="fill: none; stroke: #b0b0b0; stroke-width: 0.8; stroke-linecap: square"/>
     </g>
     <g id="line2d_20">
      <defs>
       <path id="m13fc680f3b" d="M 0 0 
L -3.5 0 
" style="stroke: #000000; stroke-width: 0.8"/>
      </defs>
      <g>
       <use xlink:href="#m13fc680f3b" x="57.6" y="280.9728" style="stroke: #000000; stroke-width: 0.8"/>
      </g>
     </g>
     <g id="text_11">
      <!-- −4 -->
      <g transform="translate(35.857813 284.772019) scale(0.1 -0.1)">
       <defs>
        <path id="DejaVuSans-34" d="M 2419 4116 
L 825 1625 
L 2419 1625 
L 2419 4116 
z
M 2253 4666 
L 3047 4666 
L 3047 1625 
L 3713 1625 
L 3713 1100 
L 3047 1100 
L 3047 0 
L 2419 0 
L 2419 1100 
L 313 1100 
L 313 1709 
L 2253 4666 
z
" transform="scale(0.015625)"/>
       </defs>
       <use xlink:href="#DejaVuSans-2212"/>
       <use xlink:href="#DejaVuSans-34" x="83.789062"/>
      </g>
     </g>
    </g>
    <g id="ytick_2">
     <g id="line2d_21">
      <path d="M 57.6 227.7504 
L 414.72 227.7504 
" clip-path="url(#p5b8544701b)" style="fill: none; stroke: #b0b0b0; stroke-width: 0.8; stroke-linecap: square"/>
     </g>
     <g id="line2d_22">
      <g>
       <use xlink:href="#m13fc680f3b" x="57.6" y="227.7504" style="stroke: #000000; stroke-width: 0.8"/>
      </g>
     </g>
     <g id="text_12">
      <!-- −2 -->
      <g transform="translate(35.857813 231.549619) scale(0.1 -0.1)">
       <use xlink:href="#DejaVuSans-2212"/>
       <use xlink:href="#DejaVuSans-32" x="83.789062"/>
      </g>
     </g>
    </g>
    <g id="ytick_3">
     <g id="line2d_23">
      <path d="M 57.6 174.528 
L 414.72 174.528 
" clip-path="url(#p5b8544701b)" style="fill: none; stroke: #b0b0b0; stroke-width: 0.8; stroke-linecap: square"/>
     </g>
     <g id="line2d_24">
      <g>
       <use xlink:href="#m13fc680f3b" x="57.6" y="174.528" style="stroke: #000000; stroke-width: 0.8"/>
      </g>
     </g>
     <g id="text_13">
      <!-- 0 -->
      <g transform="translate(44.2375 178.327219) scale(0.1 -0.1)">
       <use xlink:href="#DejaVuSans-30"/>
      </g>
     </g>
    </g>
    <g id="ytick_4">
     <g id="line2d_25">
      <path d="M 57.6 121.3056 
L 414.72 121.3056 
" clip-path="url(#p5b8544701b)" style="fill: none; stroke: #b0b0b0; stroke-width: 0.8; stroke-linecap: square"/>
     </g>
     <g id="line2d_26">
      <g>
       <use xlink:href="#m13fc680f3b" x="57.6" y="121.3056" style="stroke: #000000; stroke-width: 0.8"/>
      </g>
     </g>
     <g id="text_14">
      <!-- 2 -->
      <g transform="translate(44.2375 125.104819) scale(0.1 -0.1)">
       <use xlink:href="#DejaVuSans-32"/>
      </g>
     </g>
    </g>
    <g id="ytick_5">
     <g id="line2d_27">
      <path d="M 57.6 68.0832 
L 414.72 68.0832 
" clip-path="url(#p5b8544701b)" style="fill: none; stroke: #b0b0b0; stroke-width: 0.8; stroke-linecap: square"/>
     </g>
     <g id="line2d_28">
      <g>
       <use xlink:href="#m13fc680f3b" x="57.6" y="68.0832" style="stroke: #000000; stroke-width: 0.8"/>
      </g>
     </g>
     <g id="text_15">
      <!-- 4 -->
      <g transform="translate(44.2375 71.882419) scale(0.1 -0.1)">
       <use xlink:href="#DejaVuSans-34"/>
      </g>
     </g>
    </g>
    <g id="text_16">
     <!-- y -->
     <g transform="translate(29.778125 177.487375) rotate(-90) scale(0.1 -0.1)">
      <defs>
       <path id="DejaVuSans-79" d="M 2059 -325 
Q 1816 -950 1584 -1140 
Q 1353 -1331 966 -1331 
L 506 -1331 
L 506 -850 
L 844 -850 
Q 1081 -850 1212 -737 
Q 1344 -625 1503 -206 
L 1606 56 
L 191 3500 
L 800 3500 
L 1894 763 
L 2988 3500 
L 3597 3500 
L 2059 -325 
z
" transform="scale(0.015625)"/>
      </defs>
      <use xlink:href="#DejaVuSans-79"/>
     </g>
    </g>
   </g>
   <g id="line2d_29">
    <path d="M 57.6 201.1392 
L 58.672432 203.717454 
L 59.744865 205.800631 
L 60.817297 207.412915 
L 61.88973 208.578489 
L 62.962162 209.321538 
L 63.677117 209.594111 
L 64.392072 209.696808 
L 65.107027 209.636797 
L 66.179459 209.257375 
L 67.251892 208.552164 
L 68.324324 207.545348 
L 69.396757 206.261112 
L 70.826667 204.159054 
L 72.256577 201.664123 
L 74.043964 198.080313 
L 76.188829 193.245318 
L 79.048649 186.209437 
L 85.483243 170.152287 
L 87.628108 165.41814 
L 89.415495 161.947259 
L 90.845405 159.561579 
L 92.275315 157.585581 
L 93.347748 156.40692 
L 94.42018 155.515134 
L 95.492613 154.934237 
L 96.565045 154.672723 
L 97.637477 154.711372 
L 98.70991 155.028092 
L 99.782342 155.600791 
L 100.854775 156.40738 
L 102.284685 157.808476 
L 103.714595 159.533736 
L 105.501982 162.066394 
L 107.646847 165.522168 
L 110.864144 171.189748 
L 115.153874 178.723676 
L 117.656216 182.647113 
L 119.443604 185.101455 
L 121.230991 187.190726 
L 122.660901 188.554835 
L 124.090811 189.609087 
L 125.163243 190.176056 
L 126.235676 190.535388 
L 127.308108 190.672792 
L 128.380541 190.57398 
L 129.452973 190.224662 
L 130.525405 189.610547 
L 131.597838 188.717347 
L 132.67027 187.530771 
L 133.742703 186.04256 
L 135.172613 183.634037 
L 136.96 180.062289 
L 139.104865 175.174612 
L 143.037117 165.429277 
L 145.896937 158.553684 
L 148.041802 153.983657 
L 149.471712 151.377328 
L 150.901622 149.223456 
L 151.974054 147.956134 
L 153.046486 147.003579 
L 154.118919 146.345389 
L 155.191351 145.958677 
L 156.263784 145.820557 
L 157.336216 145.908145 
L 158.408649 146.198555 
L 159.838559 146.861713 
L 161.268468 147.79051 
L 163.055856 149.24242 
L 165.558198 151.628267 
L 170.92036 156.870345 
L 173.422703 158.882664 
L 177.354955 161.691762 
L 180.92973 164.349358 
L 183.074595 166.202278 
L 185.219459 168.377842 
L 187.006847 170.513347 
L 188.794234 173.00715 
L 190.581622 175.903807 
L 193.083964 180.468069 
L 199.161081 191.822145 
L 200.948468 194.639822 
L 202.378378 196.548798 
L 203.808288 198.073448 
L 204.880721 198.921677 
L 205.953153 199.483289 
L 207.025586 199.728097 
L 207.740541 199.700394 
L 208.455495 199.510524 
L 209.527928 198.930122 
L 210.60036 198.02393 
L 211.672793 196.824692 
L 213.102703 194.826455 
L 214.532613 192.443074 
L 216.32 189.04048 
L 218.822342 183.758214 
L 224.541982 171.49501 
L 226.329369 168.202939 
L 227.759279 165.93201 
L 229.189189 164.017003 
L 230.619099 162.458276 
L 232.049009 161.25583 
L 233.478919 160.409664 
L 234.551351 160.008849 
L 235.623784 159.808441 
L 236.696216 159.808441 
L 237.768649 160.008849 
L 238.841081 160.409664 
L 239.913514 161.010887 
L 241.343423 162.124264 
L 242.773333 163.59392 
L 244.203243 165.419857 
L 245.633153 167.602073 
L 247.420541 170.802273 
L 249.565405 175.155476 
L 257.787387 192.443074 
L 259.574775 195.365154 
L 261.004685 197.254978 
L 262.077117 198.360171 
L 263.14955 199.161405 
L 264.221982 199.625935 
L 264.936937 199.734082 
L 265.651892 199.683558 
L 266.724324 199.329795 
L 267.796757 198.66929 
L 268.869189 197.732229 
L 270.299099 196.10479 
L 271.729009 194.110911 
L 273.516396 191.212262 
L 276.018739 186.646157 
L 282.095856 175.294319 
L 283.883243 172.476797 
L 285.670631 170.059535 
L 287.458018 167.988368 
L 289.602883 165.8739 
L 291.747748 164.064502 
L 294.607568 161.944284 
L 300.327207 157.768813 
L 302.472072 155.903878 
L 305.331892 153.077149 
L 308.906667 149.563114 
L 310.694054 148.057859 
L 312.123964 147.071128 
L 313.553874 146.336474 
L 314.626306 145.983543 
L 315.698739 145.825805 
L 316.771171 145.886146 
L 317.843604 146.187451 
L 318.916036 146.752606 
L 319.988468 147.604496 
L 321.060901 148.765746 
L 322.133333 150.238469 
L 323.563243 152.629302 
L 325.350631 156.183677 
L 327.495495 161.057455 
L 331.07027 169.904351 
L 334.287568 177.684385 
L 336.432432 182.272101 
L 337.862342 184.894434 
L 339.292252 187.067681 
L 340.364685 188.355124 
L 341.437117 189.344529 
L 342.50955 190.050084 
L 343.581982 190.48608 
L 344.654414 190.666807 
L 345.726847 190.606553 
L 346.799279 190.319609 
L 347.871712 189.820265 
L 349.301622 188.84877 
L 350.731532 187.55895 
L 352.161441 185.984677 
L 353.948829 183.668424 
L 356.093694 180.465245 
L 358.596036 176.288548 
L 366.818018 162.066394 
L 368.605405 159.533736 
L 370.035315 157.808476 
L 371.465225 156.40738 
L 372.537658 155.600791 
L 373.61009 155.028092 
L 374.682523 154.711372 
L 375.754955 154.672723 
L 376.827387 154.934237 
L 377.89982 155.515134 
L 378.972252 156.40692 
L 380.044685 157.585581 
L 381.474595 159.561579 
L 382.904505 161.947259 
L 384.691892 165.41814 
L 386.836757 170.152287 
L 389.696577 177.112532 
L 396.846126 194.911013 
L 398.990991 199.569586 
L 400.778378 202.957115 
L 402.208288 205.262775 
L 403.638198 207.1469 
L 404.710631 208.248876 
L 405.783063 209.057309 
L 406.855495 209.548014 
L 407.57045 209.686693 
L 408.285405 209.666246 
L 409.00036 209.479507 
L 409.715315 209.119309 
L 410.43027 208.578489 
L 411.502703 207.412915 
L 412.575135 205.800631 
L 413.647568 203.717454 
L 414.72 201.1392 
L 414.72 201.1392 
" clip-path="url(#p5b8544701b)" style="fill: none; stroke-dasharray: 18.5,8; stroke-dashoffset: 0; stroke: #1f77b4; stroke-width: 5"/>
   </g>
   <g id="line2d_30">
    <path d="M 57.6 201.1392 
L 66.528 195.950016 
L 75.456 191.026944 
L 84.384 186.369984 
L 93.312 181.979136 
L 102.24 177.8544 
L 111.168 173.995776 
L 120.096 170.403264 
L 129.024 167.076864 
L 137.952 164.016576 
L 146.88 161.2224 
L 155.808 158.694336 
L 164.736 156.432384 
L 173.664 154.436544 
L 182.592 152.706816 
L 191.52 151.2432 
L 200.448 150.045696 
L 209.376 149.114304 
L 218.304 148.449024 
L 227.232 148.049856 
L 236.16 147.9168 
L 245.088 148.049856 
L 254.016 148.449024 
L 262.944 149.114304 
L 271.872 150.045696 
L 280.8 151.2432 
L 289.728 152.706816 
L 298.656 154.436544 
L 307.584 156.432384 
L 316.512 158.694336 
L 325.44 161.2224 
L 334.368 164.016576 
L 343.296 167.076864 
L 352.224 170.403264 
L 361.152 173.995776 
L 370.08 177.8544 
L 379.008 181.979136 
L 387.936 186.369984 
L 396.864 191.026944 
L 405.792 195.950016 
L 412.9344 200.080074 
L 412.9344 200.080074 
" clip-path="url(#p5b8544701b)" style="fill: none; stroke: #ff7f0e; stroke-width: 1.5; stroke-linecap: square"/>
   </g>
   <g id="line2d_31">
    <path d="M 57.6 201.1392 
L 66.528 196.760826 
L 75.456 192.606984 
L 84.384 188.677674 
L 93.312 184.972896 
L 102.24 181.49265 
L 111.168 178.236936 
L 120.096 175.205754 
L 129.024 172.399104 
L 137.952 169.816986 
L 146.88 167.4594 
L 155.808 165.326346 
L 164.736 163.417824 
L 173.664 161.733834 
L 182.592 160.274376 
L 191.52 159.03945 
L 200.448 158.029056 
L 209.376 157.243194 
L 218.304 156.681864 
L 227.232 156.345066 
L 236.16 156.2328 
L 245.088 156.345066 
L 254.016 156.681864 
L 262.944 157.243194 
L 271.872 158.029056 
L 280.8 159.03945 
L 289.728 160.274376 
L 298.656 161.733834 
L 307.584 163.417824 
L 316.512 165.326346 
L 325.44 167.4594 
L 334.368 169.816986 
L 343.296 172.399104 
L 352.224 175.205754 
L 361.152 178.236936 
L 370.08 181.49265 
L 379.008 184.972896 
L 387.936 188.677674 
L 396.864 192.606984 
L 405.792 196.760826 
L 412.9344 200.245563 
L 412.9344 200.245563 
" clip-path="url(#p5b8544701b)" style="fill: none; stroke: #2ca02c; stroke-width: 1.5; stroke-linecap: square"/>
   </g>
   <g id="line2d_32">
    <path d="M 57.6 201.1392 
L 64.7424 201.230696 
L 73.6704 201.106698 
L 82.5984 200.755718 
L 93.312 200.088989 
L 105.8112 199.050975 
L 120.096 197.63271 
L 177.2352 191.675487 
L 191.52 190.551789 
L 204.0192 189.78944 
L 216.5184 189.260459 
L 229.0176 188.982158 
L 239.7312 188.950148 
L 250.4448 189.109778 
L 262.944 189.532958 
L 275.4432 190.197947 
L 287.9424 191.082659 
L 302.2272 192.323367 
L 320.0832 194.130553 
L 368.2944 199.213148 
L 380.7936 200.216262 
L 391.5072 200.842193 
L 400.4352 201.150927 
L 409.3632 201.224716 
L 412.9344 201.179309 
L 412.9344 201.179309 
" clip-path="url(#p5b8544701b)" style="fill: none; stroke: #d62728; stroke-width: 1.5; stroke-linecap: square"/>
   </g>
   <g id="line2d_33">
    <path d="M 57.6 201.1392 
L 62.9568 200.912372 
L 68.3136 200.501173 
L 73.6704 199.894355 
L 79.0272 199.085578 
L 84.384 198.072972 
L 89.7408 196.858717 
L 95.0976 195.448637 
L 100.4544 193.851803 
L 107.5968 191.453187 
L 114.7392 188.77914 
L 121.8816 185.871173 
L 130.8096 181.978583 
L 143.3088 176.226935 
L 164.736 166.314379 
L 173.664 162.448821 
L 180.8064 159.567914 
L 187.9488 156.924672 
L 195.0912 154.560649 
L 200.448 152.99328 
L 205.8048 151.617574 
L 211.1616 150.445529 
L 216.5184 149.487335 
L 221.8752 148.7513 
L 227.232 148.243796 
L 232.5888 147.969207 
L 237.9456 147.929905 
L 243.3024 148.126228 
L 248.6592 148.556482 
L 254.016 149.21695 
L 259.3728 150.10192 
L 264.7296 151.203722 
L 270.0864 152.512787 
L 275.4432 154.017709 
L 280.8 155.705335 
L 287.9424 158.213886 
L 295.0848 160.981422 
L 302.2272 163.964291 
L 311.1552 167.923223 
L 325.44 174.553988 
L 341.5104 181.978583 
L 350.4384 185.871173 
L 357.5808 188.77914 
L 364.7232 191.453187 
L 371.8656 193.851803 
L 377.2224 195.448637 
L 382.5792 196.858717 
L 387.936 198.072972 
L 393.2928 199.085578 
L 398.6496 199.894355 
L 404.0064 200.501173 
L 409.3632 200.912372 
L 412.9344 201.083166 
L 412.9344 201.083166 
" clip-path="url(#p5b8544701b)" style="fill: none; stroke: #9467bd; stroke-width: 1.5; stroke-linecap: square"/>
   </g>
   <g id="line2d_34">
    <path d="M 57.6 201.1392 
L 57.600801 346.6 
M 72.601743 346.6 
L 72.631311 -1 
M 87.323407 -1 
L 87.581724 346.6 
M 101.356699 346.6 
L 102.24 147.998316 
L 103.243391 -1 
M 113.6482 -1 
L 114.7392 66.007107 
L 116.5248 161.000487 
L 118.3104 233.171137 
L 120.096 279.619235 
L 121.8816 301.471579 
L 123.6672 302.560603 
L 125.4528 288.182748 
L 127.2384 264.050902 
L 130.8096 206.959962 
L 132.5952 181.679169 
L 134.3808 161.657353 
L 136.1664 147.739643 
L 137.952 139.817343 
L 139.7376 137.085755 
L 141.5232 138.316166 
L 143.3088 142.108721 
L 146.88 152.135447 
L 148.6656 156.33342 
L 150.4512 159.159069 
L 152.2368 160.400913 
L 154.0224 160.13052 
L 155.808 158.634837 
L 157.5936 156.336904 
L 161.1648 151.236409 
L 162.9504 149.290331 
L 164.736 148.159932 
L 166.5216 147.998229 
L 168.3072 148.828501 
L 170.0928 150.5591 
L 171.8784 153.009728 
L 173.664 155.944596 
L 177.2352 162.257056 
L 179.0208 165.191243 
L 180.8064 167.77107 
L 182.592 169.929675 
L 184.3776 171.673933 
L 186.1632 173.076818 
L 191.52 176.6093 
L 193.3056 178.080971 
L 195.0912 179.912012 
L 196.8768 182.161053 
L 198.6624 184.823284 
L 202.2336 191.034637 
L 205.8048 197.264203 
L 207.5904 199.80826 
L 209.376 201.644247 
L 211.1616 202.553312 
L 212.9472 202.363781 
L 214.7328 200.968968 
L 216.5184 198.340109 
L 218.304 194.533278 
L 220.0896 189.689694 
L 221.8752 184.029302 
L 229.0176 159.524854 
L 230.8032 154.687625 
L 232.5888 151.004884 
L 234.3744 148.700872 
L 236.16 147.9168 
L 237.9456 148.700872 
L 239.7312 151.004884 
L 241.5168 154.687625 
L 243.3024 159.524854 
L 245.088 165.225086 
L 250.4448 184.029302 
L 252.2304 189.689694 
L 254.016 194.533278 
L 255.8016 198.340109 
L 257.5872 200.968968 
L 259.3728 202.363781 
L 261.1584 202.553312 
L 262.944 201.644247 
L 264.7296 199.80826 
L 266.5152 197.264203 
L 270.0864 191.034637 
L 273.6576 184.823284 
L 275.4432 182.161053 
L 277.2288 179.912012 
L 279.0144 178.080971 
L 280.8 176.6093 
L 284.3712 174.262404 
L 286.1568 173.076818 
L 287.9424 171.673933 
L 289.728 169.929675 
L 291.5136 167.77107 
L 293.2992 165.191243 
L 295.0848 162.257056 
L 300.4416 153.009728 
L 302.2272 150.5591 
L 304.0128 148.828501 
L 305.7984 147.998229 
L 307.584 148.159932 
L 309.3696 149.290331 
L 311.1552 151.236409 
L 316.512 158.634837 
L 318.2976 160.13052 
L 320.0832 160.400913 
L 321.8688 159.159069 
L 323.6544 156.33342 
L 325.44 152.135447 
L 329.0112 142.108721 
L 330.7968 138.316166 
L 332.5824 137.085755 
L 334.368 139.817343 
L 336.1536 147.739643 
L 337.9392 161.657353 
L 339.7248 181.679169 
L 341.5104 206.959962 
L 345.0816 264.050902 
L 346.8672 288.182748 
L 348.6528 302.560603 
L 350.4384 301.471579 
L 352.224 279.619235 
L 354.0096 233.171137 
L 355.7952 161.000487 
L 357.5808 66.007107 
L 358.6718 -1 
M 369.076609 -1 
L 370.08 147.998316 
L 370.963301 346.6 
M 384.738276 346.6 
L 384.996593 -1 
M 399.688689 -1 
L 399.718257 346.6 
L 399.718257 346.6 
" clip-path="url(#p5b8544701b)" style="fill: none; stroke: #8c564b; stroke-width: 1.5; stroke-linecap: square"/>
   </g>
   <g id="patch_3">
    <path d="M 57.6 307.584 
L 57.6 41.472 
" style="fill: none; stroke: #000000; stroke-width: 0.8; stroke-linejoin: miter; stroke-linecap: square"/>
   </g>
   <g id="patch_4">
    <path d="M 414.72 307.584 
L 414.72 41.472 
" style="fill: none; stroke: #000000; stroke-width: 0.8; stroke-linejoin: miter; stroke-linecap: square"/>
   </g>
   <g id="patch_5">
    <path d="M 57.6 307.584 
L 414.72 307.584 
" style="fill: none; stroke: #000000; stroke-width: 0.8; stroke-linejoin: miter; stroke-linecap: square"/>
   </g>
   <g id="patch_6">
    <path d="M 57.6 41.472 
L 414.72 41.472 
" style="fill: none; stroke: #000000; stroke-width: 0.8; stroke-linejoin: miter; stroke-linecap: square"/>
   </g>
   <g id="text_17">
    <!-- Wielomiany interpolacyjne dla funkcji -->
    <g transform="translate(123.610313 19.008375) scale(0.12 -0.12)">
     <defs>
      <path id="DejaVuSans-57" d="M 213 4666 
L 850 4666 
L 1831 722 
L 2809 4666 
L 3519 4666 
L 4500 722 
L 5478 4666 
L 6119 4666 
L 4947 0 
L 4153 0 
L 3169 4050 
L 2175 0 
L 1381 0 
L 213 4666 
z
" transform="scale(0.015625)"/>
      <path id="DejaVuSans-69" d="M 603 3500 
L 1178 3500 
L 1178 0 
L 603 0 
L 603 3500 
z
M 603 4863 
L 1178 4863 
L 1178 4134 
L 603 4134 
L 603 4863 
z
" transform="scale(0.015625)"/>
      <path id="DejaVuSans-65" d="M 3597 1894 
L 3597 1613 
L 953 1613 
Q 991 1019 1311 708 
Q 1631 397 2203 397 
Q 2534 397 2845 478 
Q 3156 559 3463 722 
L 3463 178 
Q 3153 47 2828 -22 
Q 2503 -91 2169 -91 
Q 1331 -91 842 396 
Q 353 884 353 1716 
Q 353 2575 817 3079 
Q 1281 3584 2069 3584 
Q 2775 3584 3186 3129 
Q 3597 2675 3597 1894 
z
M 3022 2063 
Q 3016 2534 2758 2815 
Q 2500 3097 2075 3097 
Q 1594 3097 1305 2825 
Q 1016 2553 972 2059 
L 3022 2063 
z
" transform="scale(0.015625)"/>
      <path id="DejaVuSans-6c" d="M 603 4863 
L 1178 4863 
L 1178 0 
L 603 0 
L 603 4863 
z
" transform="scale(0.015625)"/>
      <path id="DejaVuSans-6f" d="M 1959 3097 
Q 1497 3097 1228 2736 
Q 959 2375 959 1747 
Q 959 1119 1226 758 
Q 1494 397 1959 397 
Q 2419 397 2687 759 
Q 2956 1122 2956 1747 
Q 2956 2369 2687 2733 
Q 2419 3097 1959 3097 
z
M 1959 3584 
Q 2709 3584 3137 3096 
Q 3566 2609 3566 1747 
Q 3566 888 3137 398 
Q 2709 -91 1959 -91 
Q 1206 -91 779 398 
Q 353 888 353 1747 
Q 353 2609 779 3096 
Q 1206 3584 1959 3584 
z
" transform="scale(0.015625)"/>
      <path id="DejaVuSans-6d" d="M 3328 2828 
Q 3544 3216 3844 3400 
Q 4144 3584 4550 3584 
Q 5097 3584 5394 3201 
Q 5691 2819 5691 2113 
L 5691 0 
L 5113 0 
L 5113 2094 
Q 5113 2597 4934 2840 
Q 4756 3084 4391 3084 
Q 3944 3084 3684 2787 
Q 3425 2491 3425 1978 
L 3425 0 
L 2847 0 
L 2847 2094 
Q 2847 2600 2669 2842 
Q 2491 3084 2119 3084 
Q 1678 3084 1418 2786 
Q 1159 2488 1159 1978 
L 1159 0 
L 581 0 
L 581 3500 
L 1159 3500 
L 1159 2956 
Q 1356 3278 1631 3431 
Q 1906 3584 2284 3584 
Q 2666 3584 2933 3390 
Q 3200 3197 3328 2828 
z
" transform="scale(0.015625)"/>
      <path id="DejaVuSans-61" d="M 2194 1759 
Q 1497 1759 1228 1600 
Q 959 1441 959 1056 
Q 959 750 1161 570 
Q 1363 391 1709 391 
Q 2188 391 2477 730 
Q 2766 1069 2766 1631 
L 2766 1759 
L 2194 1759 
z
M 3341 1997 
L 3341 0 
L 2766 0 
L 2766 531 
Q 2569 213 2275 61 
Q 1981 -91 1556 -91 
Q 1019 -91 701 211 
Q 384 513 384 1019 
Q 384 1609 779 1909 
Q 1175 2209 1959 2209 
L 2766 2209 
L 2766 2266 
Q 2766 2663 2505 2880 
Q 2244 3097 1772 3097 
Q 1472 3097 1187 3025 
Q 903 2953 641 2809 
L 641 3341 
Q 956 3463 1253 3523 
Q 1550 3584 1831 3584 
Q 2591 3584 2966 3190 
Q 3341 2797 3341 1997 
z
" transform="scale(0.015625)"/>
      <path id="DejaVuSans-6e" d="M 3513 2113 
L 3513 0 
L 2938 0 
L 2938 2094 
Q 2938 2591 2744 2837 
Q 2550 3084 2163 3084 
Q 1697 3084 1428 2787 
Q 1159 2491 1159 1978 
L 1159 0 
L 581 0 
L 581 3500 
L 1159 3500 
L 1159 2956 
Q 1366 3272 1645 3428 
Q 1925 3584 2291 3584 
Q 2894 3584 3203 3211 
Q 3513 2838 3513 2113 
z
" transform="scale(0.015625)"/>
      <path id="DejaVuSans-20" transform="scale(0.015625)"/>
      <path id="DejaVuSans-74" d="M 1172 4494 
L 1172 3500 
L 2356 3500 
L 2356 3053 
L 1172 3053 
L 1172 1153 
Q 1172 725 1289 603 
Q 1406 481 1766 481 
L 2356 481 
L 2356 0 
L 1766 0 
Q 1100 0 847 248 
Q 594 497 594 1153 
L 594 3053 
L 172 3053 
L 172 3500 
L 594 3500 
L 594 4494 
L 1172 4494 
z
" transform="scale(0.015625)"/>
      <path id="DejaVuSans-72" d="M 2631 2963 
Q 2534 3019 2420 3045 
Q 2306 3072 2169 3072 
Q 1681 3072 1420 2755 
Q 1159 2438 1159 1844 
L 1159 0 
L 581 0 
L 581 3500 
L 1159 3500 
L 1159 2956 
Q 1341 3275 1631 3429 
Q 1922 3584 2338 3584 
Q 2397 3584 2469 3576 
Q 2541 3569 2628 3553 
L 2631 2963 
z
" transform="scale(0.015625)"/>
      <path id="DejaVuSans-70" d="M 1159 525 
L 1159 -1331 
L 581 -1331 
L 581 3500 
L 1159 3500 
L 1159 2969 
Q 1341 3281 1617 3432 
Q 1894 3584 2278 3584 
Q 2916 3584 3314 3078 
Q 3713 2572 3713 1747 
Q 3713 922 3314 415 
Q 2916 -91 2278 -91 
Q 1894 -91 1617 61 
Q 1341 213 1159 525 
z
M 3116 1747 
Q 3116 2381 2855 2742 
Q 2594 3103 2138 3103 
Q 1681 3103 1420 2742 
Q 1159 2381 1159 1747 
Q 1159 1113 1420 752 
Q 1681 391 2138 391 
Q 2594 391 2855 752 
Q 3116 1113 3116 1747 
z
" transform="scale(0.015625)"/>
      <path id="DejaVuSans-63" d="M 3122 3366 
L 3122 2828 
Q 2878 2963 2633 3030 
Q 2388 3097 2138 3097 
Q 1578 3097 1268 2742 
Q 959 2388 959 1747 
Q 959 1106 1268 751 
Q 1578 397 2138 397 
Q 2388 397 2633 464 
Q 2878 531 3122 666 
L 3122 134 
Q 2881 22 2623 -34 
Q 2366 -91 2075 -91 
Q 1284 -91 818 406 
Q 353 903 353 1747 
Q 353 2603 823 3093 
Q 1294 3584 2113 3584 
Q 2378 3584 2631 3529 
Q 2884 3475 3122 3366 
z
" transform="scale(0.015625)"/>
      <path id="DejaVuSans-6a" d="M 603 3500 
L 1178 3500 
L 1178 -63 
Q 1178 -731 923 -1031 
Q 669 -1331 103 -1331 
L -116 -1331 
L -116 -844 
L 38 -844 
Q 366 -844 484 -692 
Q 603 -541 603 -63 
L 603 3500 
z
M 603 4863 
L 1178 4863 
L 1178 4134 
L 603 4134 
L 603 4863 
z
" transform="scale(0.015625)"/>
      <path id="DejaVuSans-64" d="M 2906 2969 
L 2906 4863 
L 3481 4863 
L 3481 0 
L 2906 0 
L 2906 525 
Q 2725 213 2448 61 
Q 2172 -91 1784 -91 
Q 1150 -91 751 415 
Q 353 922 353 1747 
Q 353 2572 751 3078 
Q 1150 3584 1784 3584 
Q 2172 3584 2448 3432 
Q 2725 3281 2906 2969 
z
M 947 1747 
Q 947 1113 1208 752 
Q 1469 391 1925 391 
Q 2381 391 2643 752 
Q 2906 1113 2906 1747 
Q 2906 2381 2643 2742 
Q 2381 3103 1925 3103 
Q 1469 3103 1208 2742 
Q 947 2381 947 1747 
z
" transform="scale(0.015625)"/>
      <path id="DejaVuSans-66" d="M 2375 4863 
L 2375 4384 
L 1825 4384 
Q 1516 4384 1395 4259 
Q 1275 4134 1275 3809 
L 1275 3500 
L 2222 3500 
L 2222 3053 
L 1275 3053 
L 1275 0 
L 697 0 
L 697 3053 
L 147 3053 
L 147 3500 
L 697 3500 
L 697 3744 
Q 697 4328 969 4595 
Q 1241 4863 1831 4863 
L 2375 4863 
z
" transform="scale(0.015625)"/>
      <path id="DejaVuSans-75" d="M 544 1381 
L 544 3500 
L 1119 3500 
L 1119 1403 
Q 1119 906 1312 657 
Q 1506 409 1894 409 
Q 2359 409 2629 706 
Q 2900 1003 2900 1516 
L 2900 3500 
L 3475 3500 
L 3475 0 
L 2900 0 
L 2900 538 
Q 2691 219 2414 64 
Q 2138 -91 1772 -91 
Q 1169 -91 856 284 
Q 544 659 544 1381 
z
M 1991 3584 
L 1991 3584 
z
" transform="scale(0.015625)"/>
      <path id="DejaVuSans-6b" d="M 581 4863 
L 1159 4863 
L 1159 1991 
L 2875 3500 
L 3609 3500 
L 1753 1863 
L 3688 0 
L 2938 0 
L 1159 1709 
L 1159 0 
L 581 0 
L 581 4863 
z
" transform="scale(0.015625)"/>
     </defs>
     <use xlink:href="#DejaVuSans-57"/>
     <use xlink:href="#DejaVuSans-69" x="96.626953"/>
     <use xlink:href="#DejaVuSans-65" x="124.410156"/>
     <use xlink:href="#DejaVuSans-6c" x="185.933594"/>
     <use xlink:href="#DejaVuSans-6f" x="213.716797"/>
     <use xlink:href="#DejaVuSans-6d" x="274.898438"/>
     <use xlink:href="#DejaVuSans-69" x="372.310547"/>
     <use xlink:href="#DejaVuSans-61" x="400.09375"/>
     <use xlink:href="#DejaVuSans-6e" x="461.373047"/>
     <use xlink:href="#DejaVuSans-79" x="524.751953"/>
     <use xlink:href="#DejaVuSans-20" x="583.931641"/>
     <use xlink:href="#DejaVuSans-69" x="615.71875"/>
     <use xlink:href="#DejaVuSans-6e" x="643.501953"/>
     <use xlink:href="#DejaVuSans-74" x="706.880859"/>
     <use xlink:href="#DejaVuSans-65" x="746.089844"/>
     <use xlink:href="#DejaVuSans-72" x="807.613281"/>
     <use xlink:href="#DejaVuSans-70" x="848.726562"/>
     <use xlink:href="#DejaVuSans-6f" x="912.203125"/>
     <use xlink:href="#DejaVuSans-6c" x="973.384766"/>
     <use xlink:href="#DejaVuSans-61" x="1001.167969"/>
     <use xlink:href="#DejaVuSans-63" x="1062.447266"/>
     <use xlink:href="#DejaVuSans-79" x="1117.427734"/>
     <use xlink:href="#DejaVuSans-6a" x="1176.607422"/>
     <use xlink:href="#DejaVuSans-6e" x="1204.390625"/>
     <use xlink:href="#DejaVuSans-65" x="1267.769531"/>
     <use xlink:href="#DejaVuSans-20" x="1329.292969"/>
     <use xlink:href="#DejaVuSans-64" x="1361.080078"/>
     <use xlink:href="#DejaVuSans-6c" x="1424.556641"/>
     <use xlink:href="#DejaVuSans-61" x="1452.339844"/>
     <use xlink:href="#DejaVuSans-20" x="1513.619141"/>
     <use xlink:href="#DejaVuSans-66" x="1545.40625"/>
     <use xlink:href="#DejaVuSans-75" x="1580.611328"/>
     <use xlink:href="#DejaVuSans-6e" x="1643.990234"/>
     <use xlink:href="#DejaVuSans-6b" x="1707.369141"/>
     <use xlink:href="#DejaVuSans-63" x="1765.279297"/>
     <use xlink:href="#DejaVuSans-6a" x="1820.259766"/>
     <use xlink:href="#DejaVuSans-69" x="1848.042969"/>
    </g>
    <!-- $f(x)=\cos(\pi5x) + sin(\pi3x)$ i siatki $x_i=-1 + 2\frac{i}{n+1}$ -->
    <g transform="translate(91.86 35.472) scale(0.12 -0.12)">
     <defs>
      <path id="DejaVuSans-Oblique-66" d="M 3059 4863 
L 2969 4384 
L 2419 4384 
Q 2106 4384 1964 4261 
Q 1822 4138 1753 3809 
L 1691 3500 
L 2638 3500 
L 2553 3053 
L 1606 3053 
L 1013 0 
L 434 0 
L 1031 3053 
L 481 3053 
L 563 3500 
L 1113 3500 
L 1159 3744 
Q 1278 4363 1576 4613 
Q 1875 4863 2516 4863 
L 3059 4863 
z
" transform="scale(0.015625)"/>
      <path id="DejaVuSans-28" d="M 1984 4856 
Q 1566 4138 1362 3434 
Q 1159 2731 1159 2009 
Q 1159 1288 1364 580 
Q 1569 -128 1984 -844 
L 1484 -844 
Q 1016 -109 783 600 
Q 550 1309 550 2009 
Q 550 2706 781 3412 
Q 1013 4119 1484 4856 
L 1984 4856 
z
" transform="scale(0.015625)"/>
      <path id="DejaVuSans-Oblique-78" d="M 3841 3500 
L 2234 1784 
L 3219 0 
L 2559 0 
L 1819 1388 
L 531 0 
L -166 0 
L 1556 1844 
L 641 3500 
L 1300 3500 
L 1972 2234 
L 3144 3500 
L 3841 3500 
z
" transform="scale(0.015625)"/>
      <path id="DejaVuSans-29" d="M 513 4856 
L 1013 4856 
Q 1481 4119 1714 3412 
Q 1947 2706 1947 2009 
Q 1947 1309 1714 600 
Q 1481 -109 1013 -844 
L 513 -844 
Q 928 -128 1133 580 
Q 1338 1288 1338 2009 
Q 1338 2731 1133 3434 
Q 928 4138 513 4856 
z
" transform="scale(0.015625)"/>
      <path id="DejaVuSans-3d" d="M 678 2906 
L 4684 2906 
L 4684 2381 
L 678 2381 
L 678 2906 
z
M 678 1631 
L 4684 1631 
L 4684 1100 
L 678 1100 
L 678 1631 
z
" transform="scale(0.015625)"/>
      <path id="DejaVuSans-73" d="M 2834 3397 
L 2834 2853 
Q 2591 2978 2328 3040 
Q 2066 3103 1784 3103 
Q 1356 3103 1142 2972 
Q 928 2841 928 2578 
Q 928 2378 1081 2264 
Q 1234 2150 1697 2047 
L 1894 2003 
Q 2506 1872 2764 1633 
Q 3022 1394 3022 966 
Q 3022 478 2636 193 
Q 2250 -91 1575 -91 
Q 1294 -91 989 -36 
Q 684 19 347 128 
L 347 722 
Q 666 556 975 473 
Q 1284 391 1588 391 
Q 1994 391 2212 530 
Q 2431 669 2431 922 
Q 2431 1156 2273 1281 
Q 2116 1406 1581 1522 
L 1381 1569 
Q 847 1681 609 1914 
Q 372 2147 372 2553 
Q 372 3047 722 3315 
Q 1072 3584 1716 3584 
Q 2034 3584 2315 3537 
Q 2597 3491 2834 3397 
z
" transform="scale(0.015625)"/>
      <path id="DejaVuSans-Oblique-3c0" d="M 584 3500 
L 3938 3500 
L 3825 2925 
L 3384 2925 
L 2966 775 
Q 2922 550 2981 450 
Q 3038 353 3209 353 
Q 3256 353 3325 363 
Q 3397 369 3419 372 
L 3338 -44 
Q 3222 -84 3103 -103 
Q 2981 -122 2866 -122 
Q 2491 -122 2388 81 
Q 2284 288 2391 838 
L 2797 2925 
L 1506 2925 
L 938 0 
L 350 0 
L 919 2925 
L 472 2925 
L 584 3500 
z
" transform="scale(0.015625)"/>
      <path id="DejaVuSans-2b" d="M 2944 4013 
L 2944 2272 
L 4684 2272 
L 4684 1741 
L 2944 1741 
L 2944 0 
L 2419 0 
L 2419 1741 
L 678 1741 
L 678 2272 
L 2419 2272 
L 2419 4013 
L 2944 4013 
z
" transform="scale(0.015625)"/>
      <path id="DejaVuSans-Oblique-73" d="M 3200 3397 
L 3091 2853 
Q 2863 2978 2609 3040 
Q 2356 3103 2088 3103 
Q 1634 3103 1373 2948 
Q 1113 2794 1113 2528 
Q 1113 2219 1719 2053 
Q 1766 2041 1788 2034 
L 1972 1978 
Q 2547 1819 2739 1644 
Q 2931 1469 2931 1166 
Q 2931 609 2489 259 
Q 2047 -91 1331 -91 
Q 1053 -91 747 -37 
Q 441 16 72 128 
L 184 722 
Q 500 559 806 475 
Q 1113 391 1394 391 
Q 1816 391 2080 572 
Q 2344 753 2344 1031 
Q 2344 1331 1650 1516 
L 1591 1531 
L 1394 1581 
Q 956 1697 753 1886 
Q 550 2075 550 2369 
Q 550 2928 970 3256 
Q 1391 3584 2113 3584 
Q 2397 3584 2667 3537 
Q 2938 3491 3200 3397 
z
" transform="scale(0.015625)"/>
      <path id="DejaVuSans-Oblique-69" d="M 1172 4863 
L 1747 4863 
L 1606 4134 
L 1031 4134 
L 1172 4863 
z
M 909 3500 
L 1484 3500 
L 800 0 
L 225 0 
L 909 3500 
z
" transform="scale(0.015625)"/>
      <path id="DejaVuSans-Oblique-6e" d="M 3566 2113 
L 3156 0 
L 2578 0 
L 2988 2091 
Q 3016 2238 3031 2350 
Q 3047 2463 3047 2528 
Q 3047 2791 2881 2937 
Q 2716 3084 2419 3084 
Q 1956 3084 1622 2776 
Q 1288 2469 1184 1941 
L 800 0 
L 225 0 
L 903 3500 
L 1478 3500 
L 1363 2950 
Q 1603 3253 1940 3418 
Q 2278 3584 2650 3584 
Q 3113 3584 3367 3334 
Q 3622 3084 3622 2631 
Q 3622 2519 3608 2391 
Q 3594 2263 3566 2113 
z
" transform="scale(0.015625)"/>
      <path id="DejaVuSans-33" d="M 2597 2516 
Q 3050 2419 3304 2112 
Q 3559 1806 3559 1356 
Q 3559 666 3084 287 
Q 2609 -91 1734 -91 
Q 1441 -91 1130 -33 
Q 819 25 488 141 
L 488 750 
Q 750 597 1062 519 
Q 1375 441 1716 441 
Q 2309 441 2620 675 
Q 2931 909 2931 1356 
Q 2931 1769 2642 2001 
Q 2353 2234 1838 2234 
L 1294 2234 
L 1294 2753 
L 1863 2753 
Q 2328 2753 2575 2939 
Q 2822 3125 2822 3475 
Q 2822 3834 2567 4026 
Q 2313 4219 1838 4219 
Q 1578 4219 1281 4162 
Q 984 4106 628 3988 
L 628 4550 
Q 988 4650 1302 4700 
Q 1616 4750 1894 4750 
Q 2613 4750 3031 4423 
Q 3450 4097 3450 3541 
Q 3450 3153 3228 2886 
Q 3006 2619 2597 2516 
z
" transform="scale(0.015625)"/>
     </defs>
     <use xlink:href="#DejaVuSans-Oblique-66" transform="translate(0 0.014063)"/>
     <use xlink:href="#DejaVuSans-28" transform="translate(35.205078 0.014063)"/>
     <use xlink:href="#DejaVuSans-Oblique-78" transform="translate(74.21875 0.014063)"/>
     <use xlink:href="#DejaVuSans-29" transform="translate(133.398438 0.014063)"/>
     <use xlink:href="#DejaVuSans-3d" transform="translate(191.894531 0.014063)"/>
     <use xlink:href="#DejaVuSans-63" transform="translate(295.166016 0.014063)"/>
     <use xlink:href="#DejaVuSans-6f" transform="translate(350.146484 0.014063)"/>
     <use xlink:href="#DejaVuSans-73" transform="translate(411.328125 0.014063)"/>
     <use xlink:href="#DejaVuSans-28" transform="translate(463.427734 0.014063)"/>
     <use xlink:href="#DejaVuSans-Oblique-3c0" transform="translate(502.441406 0.014063)"/>
     <use xlink:href="#DejaVuSans-35" transform="translate(562.646484 0.014063)"/>
     <use xlink:href="#DejaVuSans-Oblique-78" transform="translate(626.269531 0.014063)"/>
     <use xlink:href="#DejaVuSans-29" transform="translate(685.449219 0.014063)"/>
     <use xlink:href="#DejaVuSans-2b" transform="translate(743.945312 0.014063)"/>
     <use xlink:href="#DejaVuSans-Oblique-73" transform="translate(847.216797 0.014063)"/>
     <use xlink:href="#DejaVuSans-Oblique-69" transform="translate(899.316406 0.014063)"/>
     <use xlink:href="#DejaVuSans-Oblique-6e" transform="translate(927.099609 0.014063)"/>
     <use xlink:href="#DejaVuSans-28" transform="translate(990.478516 0.014063)"/>
     <use xlink:href="#DejaVuSans-Oblique-3c0" transform="translate(1029.492188 0.014063)"/>
     <use xlink:href="#DejaVuSans-33" transform="translate(1089.697266 0.014063)"/>
     <use xlink:href="#DejaVuSans-Oblique-78" transform="translate(1153.320312 0.014063)"/>
     <use xlink:href="#DejaVuSans-29" transform="translate(1212.5 0.014063)"/>
     <use xlink:href="#DejaVuSans-20" transform="translate(1251.513672 0.014063)"/>
     <use xlink:href="#DejaVuSans-69" transform="translate(1283.300781 0.014063)"/>
     <use xlink:href="#DejaVuSans-20" transform="translate(1311.083984 0.014063)"/>
     <use xlink:href="#DejaVuSans-73" transform="translate(1342.871094 0.014063)"/>
     <use xlink:href="#DejaVuSans-69" transform="translate(1394.970703 0.014063)"/>
     <use xlink:href="#DejaVuSans-61" transform="translate(1422.753906 0.014063)"/>
     <use xlink:href="#DejaVuSans-74" transform="translate(1484.033203 0.014063)"/>
     <use xlink:href="#DejaVuSans-6b" transform="translate(1523.242188 0.014063)"/>
     <use xlink:href="#DejaVuSans-69" transform="translate(1581.152344 0.014063)"/>
     <use xlink:href="#DejaVuSans-20" transform="translate(1608.935547 0.014063)"/>
     <use xlink:href="#DejaVuSans-Oblique-78" transform="translate(1640.722656 0.014063)"/>
     <use xlink:href="#DejaVuSans-Oblique-69" transform="translate(1699.902344 -16.392187) scale(0.7)"/>
     <use xlink:href="#DejaVuSans-3d" transform="translate(1741.567383 0.014063)"/>
     <use xlink:href="#DejaVuSans-2212" transform="translate(1864.321289 0.014063)"/>
     <use xlink:href="#DejaVuSans-31" transform="translate(1967.592773 0.014063)"/>
     <use xlink:href="#DejaVuSans-2b" transform="translate(2050.698242 0.014063)"/>
     <use xlink:href="#DejaVuSans-32" transform="translate(2153.969727 0.014063)"/>
     <use xlink:href="#DejaVuSans-Oblique-69" transform="translate(2295.592773 43.810938) scale(0.7)"/>
     <use xlink:href="#DejaVuSans-Oblique-6e" transform="translate(2217.592773 -38.473437) scale(0.7)"/>
     <use xlink:href="#DejaVuSans-2b" transform="translate(2275.595703 -38.473437) scale(0.7)"/>
     <use xlink:href="#DejaVuSans-31" transform="translate(2347.885742 -38.473437) scale(0.7)"/>
     <path d="M 2217.592773 18.810937 
L 2217.592773 25.060937 
L 2392.421875 25.060937 
L 2392.421875 18.810937 
L 2217.592773 18.810937 
z
"/>
    </g>
   </g>
   <g id="legend_1">
    <g id="patch_7">
     <path d="M 148.744375 302.584 
L 323.575625 302.584 
Q 325.575625 302.584 325.575625 300.584 
L 325.575625 212.124625 
Q 325.575625 210.124625 323.575625 210.124625 
L 148.744375 210.124625 
Q 146.744375 210.124625 146.744375 212.124625 
L 146.744375 300.584 
Q 146.744375 302.584 148.744375 302.584 
z
" style="fill: #ffffff; opacity: 0.8; stroke: #cccccc; stroke-linejoin: miter"/>
    </g>
    <g id="line2d_35">
     <path d="M 150.744375 218.223062 
L 160.744375 218.223062 
L 170.744375 218.223062 
" style="fill: none; stroke-dasharray: 18.5,8; stroke-dashoffset: 0; stroke: #1f77b4; stroke-width: 5"/>
    </g>
    <g id="text_18">
     <!-- Dokladny wykres z biblioteki -->
     <g transform="translate(178.744375 221.723062) scale(0.1 -0.1)">
      <defs>
       <path id="DejaVuSans-44" d="M 1259 4147 
L 1259 519 
L 2022 519 
Q 2988 519 3436 956 
Q 3884 1394 3884 2338 
Q 3884 3275 3436 3711 
Q 2988 4147 2022 4147 
L 1259 4147 
z
M 628 4666 
L 1925 4666 
Q 3281 4666 3915 4102 
Q 4550 3538 4550 2338 
Q 4550 1131 3912 565 
Q 3275 0 1925 0 
L 628 0 
L 628 4666 
z
" transform="scale(0.015625)"/>
       <path id="DejaVuSans-77" d="M 269 3500 
L 844 3500 
L 1563 769 
L 2278 3500 
L 2956 3500 
L 3675 769 
L 4391 3500 
L 4966 3500 
L 4050 0 
L 3372 0 
L 2619 2869 
L 1863 0 
L 1184 0 
L 269 3500 
z
" transform="scale(0.015625)"/>
       <path id="DejaVuSans-7a" d="M 353 3500 
L 3084 3500 
L 3084 2975 
L 922 459 
L 3084 459 
L 3084 0 
L 275 0 
L 275 525 
L 2438 3041 
L 353 3041 
L 353 3500 
z
" transform="scale(0.015625)"/>
       <path id="DejaVuSans-62" d="M 3116 1747 
Q 3116 2381 2855 2742 
Q 2594 3103 2138 3103 
Q 1681 3103 1420 2742 
Q 1159 2381 1159 1747 
Q 1159 1113 1420 752 
Q 1681 391 2138 391 
Q 2594 391 2855 752 
Q 3116 1113 3116 1747 
z
M 1159 2969 
Q 1341 3281 1617 3432 
Q 1894 3584 2278 3584 
Q 2916 3584 3314 3078 
Q 3713 2572 3713 1747 
Q 3713 922 3314 415 
Q 2916 -91 2278 -91 
Q 1894 -91 1617 61 
Q 1341 213 1159 525 
L 1159 0 
L 581 0 
L 581 4863 
L 1159 4863 
L 1159 2969 
z
" transform="scale(0.015625)"/>
      </defs>
      <use xlink:href="#DejaVuSans-44"/>
      <use xlink:href="#DejaVuSans-6f" x="77.001953"/>
      <use xlink:href="#DejaVuSans-6b" x="138.183594"/>
      <use xlink:href="#DejaVuSans-6c" x="196.09375"/>
      <use xlink:href="#DejaVuSans-61" x="223.876953"/>
      <use xlink:href="#DejaVuSans-64" x="285.15625"/>
      <use xlink:href="#DejaVuSans-6e" x="348.632812"/>
      <use xlink:href="#DejaVuSans-79" x="412.011719"/>
      <use xlink:href="#DejaVuSans-20" x="471.191406"/>
      <use xlink:href="#DejaVuSans-77" x="502.978516"/>
      <use xlink:href="#DejaVuSans-79" x="584.765625"/>
      <use xlink:href="#DejaVuSans-6b" x="643.945312"/>
      <use xlink:href="#DejaVuSans-72" x="701.855469"/>
      <use xlink:href="#DejaVuSans-65" x="740.71875"/>
      <use xlink:href="#DejaVuSans-73" x="802.242188"/>
      <use xlink:href="#DejaVuSans-20" x="854.341797"/>
      <use xlink:href="#DejaVuSans-7a" x="886.128906"/>
      <use xlink:href="#DejaVuSans-20" x="938.619141"/>
      <use xlink:href="#DejaVuSans-62" x="970.40625"/>
      <use xlink:href="#DejaVuSans-69" x="1033.882812"/>
      <use xlink:href="#DejaVuSans-62" x="1061.666016"/>
      <use xlink:href="#DejaVuSans-6c" x="1125.142578"/>
      <use xlink:href="#DejaVuSans-69" x="1152.925781"/>
      <use xlink:href="#DejaVuSans-6f" x="1180.708984"/>
      <use xlink:href="#DejaVuSans-74" x="1241.890625"/>
      <use xlink:href="#DejaVuSans-65" x="1281.099609"/>
      <use xlink:href="#DejaVuSans-6b" x="1342.623047"/>
      <use xlink:href="#DejaVuSans-69" x="1400.533203"/>
     </g>
    </g>
    <g id="line2d_36">
     <path d="M 150.744375 232.901187 
L 160.744375 232.901187 
L 170.744375 232.901187 
" style="fill: none; stroke: #ff7f0e; stroke-width: 1.5; stroke-linecap: square"/>
    </g>
    <g id="text_19">
     <!-- W_3(x) -->
     <g transform="translate(178.744375 236.401187) scale(0.1 -0.1)">
      <defs>
       <path id="DejaVuSans-5f" d="M 3263 -1063 
L 3263 -1509 
L -63 -1509 
L -63 -1063 
L 3263 -1063 
z
" transform="scale(0.015625)"/>
      </defs>
      <use xlink:href="#DejaVuSans-57"/>
      <use xlink:href="#DejaVuSans-5f" x="98.876953"/>
      <use xlink:href="#DejaVuSans-33" x="148.876953"/>
      <use xlink:href="#DejaVuSans-28" x="212.5"/>
      <use xlink:href="#DejaVuSans-78" x="251.513672"/>
      <use xlink:href="#DejaVuSans-29" x="310.693359"/>
     </g>
    </g>
    <g id="line2d_37">
     <path d="M 150.744375 247.857437 
L 160.744375 247.857437 
L 170.744375 247.857437 
" style="fill: none; stroke: #2ca02c; stroke-width: 1.5; stroke-linecap: square"/>
    </g>
    <g id="text_20">
     <!-- W_4(x) -->
     <g transform="translate(178.744375 251.357437) scale(0.1 -0.1)">
      <use xlink:href="#DejaVuSans-57"/>
      <use xlink:href="#DejaVuSans-5f" x="98.876953"/>
      <use xlink:href="#DejaVuSans-34" x="148.876953"/>
      <use xlink:href="#DejaVuSans-28" x="212.5"/>
      <use xlink:href="#DejaVuSans-78" x="251.513672"/>
      <use xlink:href="#DejaVuSans-29" x="310.693359"/>
     </g>
    </g>
    <g id="line2d_38">
     <path d="M 150.744375 262.813688 
L 160.744375 262.813688 
L 170.744375 262.813688 
" style="fill: none; stroke: #d62728; stroke-width: 1.5; stroke-linecap: square"/>
    </g>
    <g id="text_21">
     <!-- W_6(x) -->
     <g transform="translate(178.744375 266.313688) scale(0.1 -0.1)">
      <defs>
       <path id="DejaVuSans-36" d="M 2113 2584 
Q 1688 2584 1439 2293 
Q 1191 2003 1191 1497 
Q 1191 994 1439 701 
Q 1688 409 2113 409 
Q 2538 409 2786 701 
Q 3034 994 3034 1497 
Q 3034 2003 2786 2293 
Q 2538 2584 2113 2584 
z
M 3366 4563 
L 3366 3988 
Q 3128 4100 2886 4159 
Q 2644 4219 2406 4219 
Q 1781 4219 1451 3797 
Q 1122 3375 1075 2522 
Q 1259 2794 1537 2939 
Q 1816 3084 2150 3084 
Q 2853 3084 3261 2657 
Q 3669 2231 3669 1497 
Q 3669 778 3244 343 
Q 2819 -91 2113 -91 
Q 1303 -91 875 529 
Q 447 1150 447 2328 
Q 447 3434 972 4092 
Q 1497 4750 2381 4750 
Q 2619 4750 2861 4703 
Q 3103 4656 3366 4563 
z
" transform="scale(0.015625)"/>
      </defs>
      <use xlink:href="#DejaVuSans-57"/>
      <use xlink:href="#DejaVuSans-5f" x="98.876953"/>
      <use xlink:href="#DejaVuSans-36" x="148.876953"/>
      <use xlink:href="#DejaVuSans-28" x="212.5"/>
      <use xlink:href="#DejaVuSans-78" x="251.513672"/>
      <use xlink:href="#DejaVuSans-29" x="310.693359"/>
     </g>
    </g>
    <g id="line2d_39">
     <path d="M 150.744375 277.769937 
L 160.744375 277.769937 
L 170.744375 277.769937 
" style="fill: none; stroke: #9467bd; stroke-width: 1.5; stroke-linecap: square"/>
    </g>
    <g id="text_22">
     <!-- W_7(x) -->
     <g transform="translate(178.744375 281.269937) scale(0.1 -0.1)">
      <use xlink:href="#DejaVuSans-57"/>
      <use xlink:href="#DejaVuSans-5f" x="98.876953"/>
      <use xlink:href="#DejaVuSans-37" x="148.876953"/>
      <use xlink:href="#DejaVuSans-28" x="212.5"/>
      <use xlink:href="#DejaVuSans-78" x="251.513672"/>
      <use xlink:href="#DejaVuSans-29" x="310.693359"/>
     </g>
    </g>
    <g id="line2d_40">
     <path d="M 150.744375 292.726187 
L 160.744375 292.726187 
L 170.744375 292.726187 
" style="fill: none; stroke: #8c564b; stroke-width: 1.5; stroke-linecap: square"/>
    </g>
    <g id="text_23">
     <!-- W_25(x) -->
     <g transform="translate(178.744375 296.226187) scale(0.1 -0.1)">
      <use xlink:href="#DejaVuSans-57"/>
      <use xlink:href="#DejaVuSans-5f" x="98.876953"/>
      <use xlink:href="#DejaVuSans-32" x="148.876953"/>
      <use xlink:href="#DejaVuSans-35" x="212.5"/>
      <use xlink:href="#DejaVuSans-28" x="276.123047"/>
      <use xlink:href="#DejaVuSans-78" x="315.136719"/>
      <use xlink:href="#DejaVuSans-29" x="374.316406"/>
     </g>
    </g>
   </g>
  </g>
 </g>
 <defs>
  <clipPath id="p5b8544701b">
   <rect x="57.6" y="41.472" width="357.12" height="266.112"/>
  </clipPath>
 </defs>
</svg>
