<?xml version="1.0" encoding="utf-8" standalone="no"?>
<!DOCTYPE svg PUBLIC "-//W3C//DTD SVG 1.1//EN"
  "http://www.w3.org/Graphics/SVG/1.1/DTD/svg11.dtd">
<svg xmlns:xlink="http://www.w3.org/1999/xlink" width="460.8pt" height="345.6pt" viewBox="0 0 460.8 345.6" xmlns="http://www.w3.org/2000/svg" version="1.1">
 <metadata>
  <rdf:RDF xmlns:dc="http://purl.org/dc/elements/1.1/" xmlns:cc="http://creativecommons.org/ns#" xmlns:rdf="http://www.w3.org/1999/02/22-rdf-syntax-ns#">
   <cc:Work>
    <dc:type rdf:resource="http://purl.org/dc/dcmitype/StillImage"/>
    <dc:date>2023-12-23T21:11:46.183051</dc:date>
    <dc:format>image/svg+xml</dc:format>
    <dc:creator>
     <cc:Agent>
      <dc:title>Matplotlib v3.8.1, https://matplotlib.org/</dc:title>
     </cc:Agent>
    </dc:creator>
   </cc:Work>
  </rdf:RDF>
 </metadata>
 <defs>
  <style type="text/css">*{stroke-linejoin: round; stroke-linecap: butt}</style>
 </defs>
 <g id="figure_1">
  <g id="patch_1">
   <path d="M 0 345.6 
L 460.8 345.6 
L 460.8 0 
L 0 0 
z
" style="fill: #ffffff"/>
  </g>
  <g id="axes_1">
   <g id="patch_2">
    <path d="M 57.6 307.584 
L 414.72 307.584 
L 414.72 41.472 
L 57.6 41.472 
z
" style="fill: #ffffff"/>
   </g>
   <g id="matplotlib.axis_1">
    <g id="xtick_1">
     <g id="line2d_1">
      <path d="M 57.6 307.584 
L 57.6 41.472 
" clip-path="url(#p24d5156d15)" style="fill: none; stroke: #b0b0b0; stroke-width: 0.8; stroke-linecap: square"/>
     </g>
     <g id="line2d_2">
      <defs>
       <path id="ma662b31860" d="M 0 0 
L 0 3.5 
" style="stroke: #000000; stroke-width: 0.8"/>
      </defs>
      <g>
       <use xlink:href="#ma662b31860" x="57.6" y="307.584" style="stroke: #000000; stroke-width: 0.8"/>
      </g>
     </g>
     <g id="text_1">
      <!-- −1.00 -->
      <g transform="translate(42.277344 322.182437) scale(0.1 -0.1)">
       <defs>
        <path id="DejaVuSans-2212" d="M 678 2272 
L 4684 2272 
L 4684 1741 
L 678 1741 
L 678 2272 
z
" transform="scale(0.015625)"/>
        <path id="DejaVuSans-31" d="M 794 531 
L 1825 531 
L 1825 4091 
L 703 3866 
L 703 4441 
L 1819 4666 
L 2450 4666 
L 2450 531 
L 3481 531 
L 3481 0 
L 794 0 
L 794 531 
z
" transform="scale(0.015625)"/>
        <path id="DejaVuSans-2e" d="M 684 794 
L 1344 794 
L 1344 0 
L 684 0 
L 684 794 
z
" transform="scale(0.015625)"/>
        <path id="DejaVuSans-30" d="M 2034 4250 
Q 1547 4250 1301 3770 
Q 1056 3291 1056 2328 
Q 1056 1369 1301 889 
Q 1547 409 2034 409 
Q 2525 409 2770 889 
Q 3016 1369 3016 2328 
Q 3016 3291 2770 3770 
Q 2525 4250 2034 4250 
z
M 2034 4750 
Q 2819 4750 3233 4129 
Q 3647 3509 3647 2328 
Q 3647 1150 3233 529 
Q 2819 -91 2034 -91 
Q 1250 -91 836 529 
Q 422 1150 422 2328 
Q 422 3509 836 4129 
Q 1250 4750 2034 4750 
z
" transform="scale(0.015625)"/>
       </defs>
       <use xlink:href="#DejaVuSans-2212"/>
       <use xlink:href="#DejaVuSans-31" x="83.789062"/>
       <use xlink:href="#DejaVuSans-2e" x="147.412109"/>
       <use xlink:href="#DejaVuSans-30" x="179.199219"/>
       <use xlink:href="#DejaVuSans-30" x="242.822266"/>
      </g>
     </g>
    </g>
    <g id="xtick_2">
     <g id="line2d_3">
      <path d="M 102.24 307.584 
L 102.24 41.472 
" clip-path="url(#p24d5156d15)" style="fill: none; stroke: #b0b0b0; stroke-width: 0.8; stroke-linecap: square"/>
     </g>
     <g id="line2d_4">
      <g>
       <use xlink:href="#ma662b31860" x="102.24" y="307.584" style="stroke: #000000; stroke-width: 0.8"/>
      </g>
     </g>
     <g id="text_2">
      <!-- −0.75 -->
      <g transform="translate(86.917344 322.182437) scale(0.1 -0.1)">
       <defs>
        <path id="DejaVuSans-37" d="M 525 4666 
L 3525 4666 
L 3525 4397 
L 1831 0 
L 1172 0 
L 2766 4134 
L 525 4134 
L 525 4666 
z
" transform="scale(0.015625)"/>
        <path id="DejaVuSans-35" d="M 691 4666 
L 3169 4666 
L 3169 4134 
L 1269 4134 
L 1269 2991 
Q 1406 3038 1543 3061 
Q 1681 3084 1819 3084 
Q 2600 3084 3056 2656 
Q 3513 2228 3513 1497 
Q 3513 744 3044 326 
Q 2575 -91 1722 -91 
Q 1428 -91 1123 -41 
Q 819 9 494 109 
L 494 744 
Q 775 591 1075 516 
Q 1375 441 1709 441 
Q 2250 441 2565 725 
Q 2881 1009 2881 1497 
Q 2881 1984 2565 2268 
Q 2250 2553 1709 2553 
Q 1456 2553 1204 2497 
Q 953 2441 691 2322 
L 691 4666 
z
" transform="scale(0.015625)"/>
       </defs>
       <use xlink:href="#DejaVuSans-2212"/>
       <use xlink:href="#DejaVuSans-30" x="83.789062"/>
       <use xlink:href="#DejaVuSans-2e" x="147.412109"/>
       <use xlink:href="#DejaVuSans-37" x="179.199219"/>
       <use xlink:href="#DejaVuSans-35" x="242.822266"/>
      </g>
     </g>
    </g>
    <g id="xtick_3">
     <g id="line2d_5">
      <path d="M 146.88 307.584 
L 146.88 41.472 
" clip-path="url(#p24d5156d15)" style="fill: none; stroke: #b0b0b0; stroke-width: 0.8; stroke-linecap: square"/>
     </g>
     <g id="line2d_6">
      <g>
       <use xlink:href="#ma662b31860" x="146.88" y="307.584" style="stroke: #000000; stroke-width: 0.8"/>
      </g>
     </g>
     <g id="text_3">
      <!-- −0.50 -->
      <g transform="translate(131.557344 322.182437) scale(0.1 -0.1)">
       <use xlink:href="#DejaVuSans-2212"/>
       <use xlink:href="#DejaVuSans-30" x="83.789062"/>
       <use xlink:href="#DejaVuSans-2e" x="147.412109"/>
       <use xlink:href="#DejaVuSans-35" x="179.199219"/>
       <use xlink:href="#DejaVuSans-30" x="242.822266"/>
      </g>
     </g>
    </g>
    <g id="xtick_4">
     <g id="line2d_7">
      <path d="M 191.52 307.584 
L 191.52 41.472 
" clip-path="url(#p24d5156d15)" style="fill: none; stroke: #b0b0b0; stroke-width: 0.8; stroke-linecap: square"/>
     </g>
     <g id="line2d_8">
      <g>
       <use xlink:href="#ma662b31860" x="191.52" y="307.584" style="stroke: #000000; stroke-width: 0.8"/>
      </g>
     </g>
     <g id="text_4">
      <!-- −0.25 -->
      <g transform="translate(176.197344 322.182437) scale(0.1 -0.1)">
       <defs>
        <path id="DejaVuSans-32" d="M 1228 531 
L 3431 531 
L 3431 0 
L 469 0 
L 469 531 
Q 828 903 1448 1529 
Q 2069 2156 2228 2338 
Q 2531 2678 2651 2914 
Q 2772 3150 2772 3378 
Q 2772 3750 2511 3984 
Q 2250 4219 1831 4219 
Q 1534 4219 1204 4116 
Q 875 4013 500 3803 
L 500 4441 
Q 881 4594 1212 4672 
Q 1544 4750 1819 4750 
Q 2544 4750 2975 4387 
Q 3406 4025 3406 3419 
Q 3406 3131 3298 2873 
Q 3191 2616 2906 2266 
Q 2828 2175 2409 1742 
Q 1991 1309 1228 531 
z
" transform="scale(0.015625)"/>
       </defs>
       <use xlink:href="#DejaVuSans-2212"/>
       <use xlink:href="#DejaVuSans-30" x="83.789062"/>
       <use xlink:href="#DejaVuSans-2e" x="147.412109"/>
       <use xlink:href="#DejaVuSans-32" x="179.199219"/>
       <use xlink:href="#DejaVuSans-35" x="242.822266"/>
      </g>
     </g>
    </g>
    <g id="xtick_5">
     <g id="line2d_9">
      <path d="M 236.16 307.584 
L 236.16 41.472 
" clip-path="url(#p24d5156d15)" style="fill: none; stroke: #b0b0b0; stroke-width: 0.8; stroke-linecap: square"/>
     </g>
     <g id="line2d_10">
      <g>
       <use xlink:href="#ma662b31860" x="236.16" y="307.584" style="stroke: #000000; stroke-width: 0.8"/>
      </g>
     </g>
     <g id="text_5">
      <!-- 0.00 -->
      <g transform="translate(225.027187 322.182437) scale(0.1 -0.1)">
       <use xlink:href="#DejaVuSans-30"/>
       <use xlink:href="#DejaVuSans-2e" x="63.623047"/>
       <use xlink:href="#DejaVuSans-30" x="95.410156"/>
       <use xlink:href="#DejaVuSans-30" x="159.033203"/>
      </g>
     </g>
    </g>
    <g id="xtick_6">
     <g id="line2d_11">
      <path d="M 280.8 307.584 
L 280.8 41.472 
" clip-path="url(#p24d5156d15)" style="fill: none; stroke: #b0b0b0; stroke-width: 0.8; stroke-linecap: square"/>
     </g>
     <g id="line2d_12">
      <g>
       <use xlink:href="#ma662b31860" x="280.8" y="307.584" style="stroke: #000000; stroke-width: 0.8"/>
      </g>
     </g>
     <g id="text_6">
      <!-- 0.25 -->
      <g transform="translate(269.667188 322.182437) scale(0.1 -0.1)">
       <use xlink:href="#DejaVuSans-30"/>
       <use xlink:href="#DejaVuSans-2e" x="63.623047"/>
       <use xlink:href="#DejaVuSans-32" x="95.410156"/>
       <use xlink:href="#DejaVuSans-35" x="159.033203"/>
      </g>
     </g>
    </g>
    <g id="xtick_7">
     <g id="line2d_13">
      <path d="M 325.44 307.584 
L 325.44 41.472 
" clip-path="url(#p24d5156d15)" style="fill: none; stroke: #b0b0b0; stroke-width: 0.8; stroke-linecap: square"/>
     </g>
     <g id="line2d_14">
      <g>
       <use xlink:href="#ma662b31860" x="325.44" y="307.584" style="stroke: #000000; stroke-width: 0.8"/>
      </g>
     </g>
     <g id="text_7">
      <!-- 0.50 -->
      <g transform="translate(314.307187 322.182437) scale(0.1 -0.1)">
       <use xlink:href="#DejaVuSans-30"/>
       <use xlink:href="#DejaVuSans-2e" x="63.623047"/>
       <use xlink:href="#DejaVuSans-35" x="95.410156"/>
       <use xlink:href="#DejaVuSans-30" x="159.033203"/>
      </g>
     </g>
    </g>
    <g id="xtick_8">
     <g id="line2d_15">
      <path d="M 370.08 307.584 
L 370.08 41.472 
" clip-path="url(#p24d5156d15)" style="fill: none; stroke: #b0b0b0; stroke-width: 0.8; stroke-linecap: square"/>
     </g>
     <g id="line2d_16">
      <g>
       <use xlink:href="#ma662b31860" x="370.08" y="307.584" style="stroke: #000000; stroke-width: 0.8"/>
      </g>
     </g>
     <g id="text_8">
      <!-- 0.75 -->
      <g transform="translate(358.947188 322.182437) scale(0.1 -0.1)">
       <use xlink:href="#DejaVuSans-30"/>
       <use xlink:href="#DejaVuSans-2e" x="63.623047"/>
       <use xlink:href="#DejaVuSans-37" x="95.410156"/>
       <use xlink:href="#DejaVuSans-35" x="159.033203"/>
      </g>
     </g>
    </g>
    <g id="xtick_9">
     <g id="line2d_17">
      <path d="M 414.72 307.584 
L 414.72 41.472 
" clip-path="url(#p24d5156d15)" style="fill: none; stroke: #b0b0b0; stroke-width: 0.8; stroke-linecap: square"/>
     </g>
     <g id="line2d_18">
      <g>
       <use xlink:href="#ma662b31860" x="414.72" y="307.584" style="stroke: #000000; stroke-width: 0.8"/>
      </g>
     </g>
     <g id="text_9">
      <!-- 1.00 -->
      <g transform="translate(403.587188 322.182437) scale(0.1 -0.1)">
       <use xlink:href="#DejaVuSans-31"/>
       <use xlink:href="#DejaVuSans-2e" x="63.623047"/>
       <use xlink:href="#DejaVuSans-30" x="95.410156"/>
       <use xlink:href="#DejaVuSans-30" x="159.033203"/>
      </g>
     </g>
    </g>
    <g id="text_10">
     <!-- x -->
     <g transform="translate(233.200625 335.860562) scale(0.1 -0.1)">
      <defs>
       <path id="DejaVuSans-78" d="M 3513 3500 
L 2247 1797 
L 3578 0 
L 2900 0 
L 1881 1375 
L 863 0 
L 184 0 
L 1544 1831 
L 300 3500 
L 978 3500 
L 1906 2253 
L 2834 3500 
L 3513 3500 
z
" transform="scale(0.015625)"/>
      </defs>
      <use xlink:href="#DejaVuSans-78"/>
     </g>
    </g>
   </g>
   <g id="matplotlib.axis_2">
    <g id="ytick_1">
     <g id="line2d_19">
      <path d="M 57.6 280.9728 
L 414.72 280.9728 
" clip-path="url(#p24d5156d15)" style="fill: none; stroke: #b0b0b0; stroke-width: 0.8; stroke-linecap: square"/>
     </g>
     <g id="line2d_20">
      <defs>
       <path id="mf2ab632deb" d="M 0 0 
L -3.5 0 
" style="stroke: #000000; stroke-width: 0.8"/>
      </defs>
      <g>
       <use xlink:href="#mf2ab632deb" x="57.6" y="280.9728" style="stroke: #000000; stroke-width: 0.8"/>
      </g>
     </g>
     <g id="text_11">
      <!-- −4 -->
      <g transform="translate(35.857813 284.772019) scale(0.1 -0.1)">
       <defs>
        <path id="DejaVuSans-34" d="M 2419 4116 
L 825 1625 
L 2419 1625 
L 2419 4116 
z
M 2253 4666 
L 3047 4666 
L 3047 1625 
L 3713 1625 
L 3713 1100 
L 3047 1100 
L 3047 0 
L 2419 0 
L 2419 1100 
L 313 1100 
L 313 1709 
L 2253 4666 
z
" transform="scale(0.015625)"/>
       </defs>
       <use xlink:href="#DejaVuSans-2212"/>
       <use xlink:href="#DejaVuSans-34" x="83.789062"/>
      </g>
     </g>
    </g>
    <g id="ytick_2">
     <g id="line2d_21">
      <path d="M 57.6 227.7504 
L 414.72 227.7504 
" clip-path="url(#p24d5156d15)" style="fill: none; stroke: #b0b0b0; stroke-width: 0.8; stroke-linecap: square"/>
     </g>
     <g id="line2d_22">
      <g>
       <use xlink:href="#mf2ab632deb" x="57.6" y="227.7504" style="stroke: #000000; stroke-width: 0.8"/>
      </g>
     </g>
     <g id="text_12">
      <!-- −2 -->
      <g transform="translate(35.857813 231.549619) scale(0.1 -0.1)">
       <use xlink:href="#DejaVuSans-2212"/>
       <use xlink:href="#DejaVuSans-32" x="83.789062"/>
      </g>
     </g>
    </g>
    <g id="ytick_3">
     <g id="line2d_23">
      <path d="M 57.6 174.528 
L 414.72 174.528 
" clip-path="url(#p24d5156d15)" style="fill: none; stroke: #b0b0b0; stroke-width: 0.8; stroke-linecap: square"/>
     </g>
     <g id="line2d_24">
      <g>
       <use xlink:href="#mf2ab632deb" x="57.6" y="174.528" style="stroke: #000000; stroke-width: 0.8"/>
      </g>
     </g>
     <g id="text_13">
      <!-- 0 -->
      <g transform="translate(44.2375 178.327219) scale(0.1 -0.1)">
       <use xlink:href="#DejaVuSans-30"/>
      </g>
     </g>
    </g>
    <g id="ytick_4">
     <g id="line2d_25">
      <path d="M 57.6 121.3056 
L 414.72 121.3056 
" clip-path="url(#p24d5156d15)" style="fill: none; stroke: #b0b0b0; stroke-width: 0.8; stroke-linecap: square"/>
     </g>
     <g id="line2d_26">
      <g>
       <use xlink:href="#mf2ab632deb" x="57.6" y="121.3056" style="stroke: #000000; stroke-width: 0.8"/>
      </g>
     </g>
     <g id="text_14">
      <!-- 2 -->
      <g transform="translate(44.2375 125.104819) scale(0.1 -0.1)">
       <use xlink:href="#DejaVuSans-32"/>
      </g>
     </g>
    </g>
    <g id="ytick_5">
     <g id="line2d_27">
      <path d="M 57.6 68.0832 
L 414.72 68.0832 
" clip-path="url(#p24d5156d15)" style="fill: none; stroke: #b0b0b0; stroke-width: 0.8; stroke-linecap: square"/>
     </g>
     <g id="line2d_28">
      <g>
       <use xlink:href="#mf2ab632deb" x="57.6" y="68.0832" style="stroke: #000000; stroke-width: 0.8"/>
      </g>
     </g>
     <g id="text_15">
      <!-- 4 -->
      <g transform="translate(44.2375 71.882419) scale(0.1 -0.1)">
       <use xlink:href="#DejaVuSans-34"/>
      </g>
     </g>
    </g>
    <g id="text_16">
     <!-- y -->
     <g transform="translate(29.778125 177.487375) rotate(-90) scale(0.1 -0.1)">
      <defs>
       <path id="DejaVuSans-79" d="M 2059 -325 
Q 1816 -950 1584 -1140 
Q 1353 -1331 966 -1331 
L 506 -1331 
L 506 -850 
L 844 -850 
Q 1081 -850 1212 -737 
Q 1344 -625 1503 -206 
L 1606 56 
L 191 3500 
L 800 3500 
L 1894 763 
L 2988 3500 
L 3597 3500 
L 2059 -325 
z
" transform="scale(0.015625)"/>
      </defs>
      <use xlink:href="#DejaVuSans-79"/>
     </g>
    </g>
   </g>
   <g id="line2d_29">
    <path d="M 62.076872 200.800466 
L 64.544346 199.930537 
L 69.831791 198.185431 
L 71.594273 197.347419 
L 73.356755 196.245891 
L 74.76674 195.12036 
L 76.176725 193.732618 
L 77.586711 192.041083 
L 78.996696 190.00417 
L 80.406681 187.580298 
L 81.816667 184.728136 
L 83.579148 180.582484 
L 86.046623 174.10009 
L 90.276579 162.925481 
L 92.03906 158.909774 
L 93.449046 156.214303 
L 94.506535 154.576295 
L 95.564024 153.325626 
L 96.269016 152.733052 
L 96.974009 152.350689 
L 97.679002 152.17828 
L 98.383994 152.203873 
L 99.088987 152.415204 
L 99.79398 152.800009 
L 100.851469 153.675651 
L 101.908958 154.872619 
L 103.318943 156.896875 
L 104.728928 159.320673 
L 106.843906 163.490883 
L 113.893833 178.038016 
L 115.303818 180.332348 
L 116.713804 182.244426 
L 118.123789 183.787302 
L 119.533775 184.97772 
L 120.94376 185.832422 
L 122.353745 186.368152 
L 123.763731 186.601652 
L 125.173716 186.549665 
L 126.583701 186.228934 
L 127.993687 185.656203 
L 129.403672 184.848213 
L 131.166154 183.532901 
L 132.928635 181.908861 
L 135.043613 179.598534 
L 137.158591 176.948956 
L 139.978562 173.016393 
L 144.208518 166.650917 
L 149.143467 159.290803 
L 151.963437 155.491309 
L 154.078415 152.982693 
L 155.840897 151.18081 
L 157.603379 149.69135 
L 159.013364 148.756187 
L 160.423349 148.06599 
L 161.833335 147.617676 
L 163.24332 147.405953 
L 164.653305 147.425526 
L 166.063291 147.671105 
L 167.473276 148.137396 
L 168.883261 148.819107 
L 170.293247 149.710944 
L 172.055728 151.113169 
L 173.81821 152.82511 
L 175.580692 154.83643 
L 177.69567 157.630639 
L 179.810648 160.823206 
L 181.925626 164.396267 
L 184.3931 169.02055 
L 187.565567 175.510271 
L 193.910501 188.612722 
L 196.377975 193.121789 
L 198.140457 195.950746 
L 199.902939 198.36311 
L 201.312924 199.939636 
L 202.722909 201.15797 
L 203.780398 201.812173 
L 204.837887 202.224829 
L 205.895376 202.378769 
L 206.952865 202.256822 
L 208.010354 201.841819 
L 209.067843 201.11659 
L 210.125332 200.065247 
L 211.182821 198.695815 
L 212.592807 196.425658 
L 214.002792 193.712779 
L 215.765274 189.807106 
L 217.880252 184.548368 
L 221.052719 175.988889 
L 225.635171 163.681357 
L 227.750149 158.612664 
L 229.512631 154.927578 
L 230.922616 152.431893 
L 232.332601 150.415129 
L 233.39009 149.259498 
L 234.44758 148.443047 
L 235.152572 148.101951 
L 235.857565 147.933758 
L 236.562558 147.946778 
L 237.26755 148.140071 
L 237.972543 148.505008 
L 239.030032 149.35486 
L 240.087521 150.541061 
L 241.14501 152.033703 
L 242.554995 154.448882 
L 243.964981 157.284776 
L 245.727462 161.31327 
L 248.194937 167.607792 
L 257.007345 190.857923 
L 258.769827 194.6276 
L 260.179812 197.206077 
L 261.589797 199.31907 
L 262.647286 200.555693 
L 263.704775 201.466061 
L 264.762264 202.056394 
L 265.819753 202.343849 
L 266.877242 202.345596 
L 267.934731 202.078804 
L 268.99222 201.560645 
L 270.049709 200.808289 
L 271.459695 199.470517 
L 272.86968 197.787619 
L 274.632162 195.260667 
L 276.394643 192.33754 
L 278.509621 188.418762 
L 281.682088 181.986033 
L 288.732015 167.46009 
L 291.199489 162.992493 
L 293.314467 159.56228 
L 295.429445 156.519365 
L 297.544423 153.8816 
L 299.306905 152.005832 
L 301.069387 150.434149 
L 302.831868 149.17688 
L 304.241854 148.404388 
L 305.651839 147.845023 
L 307.061824 147.504076 
L 308.47181 147.386837 
L 309.881795 147.498595 
L 311.29178 147.84464 
L 312.701766 148.430262 
L 314.111751 149.260561 
L 315.521736 150.329684 
L 317.284218 151.967354 
L 319.0467 153.896006 
L 321.161678 156.528476 
L 323.981648 160.445201 
L 328.211604 166.801874 
L 333.146553 174.174784 
L 335.966524 177.992928 
L 338.081502 180.522038 
L 340.19648 182.689109 
L 341.958961 184.177394 
L 343.721443 185.341956 
L 345.131428 186.018482 
L 346.541414 186.450035 
L 347.951399 186.619823 
L 349.361385 186.511049 
L 350.77137 186.106919 
L 352.181355 185.390637 
L 353.591341 184.345409 
L 355.001326 182.954441 
L 356.411311 181.200935 
L 357.821297 179.068162 
L 359.583778 175.895549 
L 361.698756 171.577194 
L 367.338698 159.769385 
L 369.101179 156.718425 
L 370.511165 154.727258 
L 371.568654 153.560694 
L 372.626143 152.72036 
L 373.331135 152.361866 
L 374.036128 152.179099 
L 374.741121 152.184353 
L 375.446113 152.389924 
L 376.151106 152.807329 
L 376.856099 153.433801 
L 377.913588 154.731838 
L 378.971077 156.412597 
L 380.381062 159.15703 
L 382.143544 163.219357 
L 384.611018 169.644714 
L 389.19347 181.728169 
L 390.955952 185.689166 
L 392.365937 188.363217 
L 393.775923 190.619196 
L 395.185908 192.505188 
L 396.595893 194.069276 
L 398.005879 195.359544 
L 399.76836 196.660573 
L 401.883338 197.888458 
L 404.350813 199.043638 
L 406.818287 199.955656 
L 409.285761 200.614891 
L 411.400739 200.97119 
L 413.515717 201.128153 
L 414.22071 201.135092 
L 414.22071 201.135092 
" clip-path="url(#p24d5156d15)" style="fill: none; stroke-dasharray: 18.5,8; stroke-dashoffset: 0; stroke: #1f77b4; stroke-width: 5"/>
   </g>
   <g id="line2d_30">
    <path d="M 57.6 206.250099 
L 66.528 200.342299 
L 75.456 194.737463 
L 84.384 189.435592 
L 93.312 184.436684 
L 102.24 179.740741 
L 111.168 175.347761 
L 120.096 171.257746 
L 129.024 167.470695 
L 136.1664 164.659188 
L 143.3088 162.041579 
L 150.4512 159.617866 
L 157.5936 157.38805 
L 164.736 155.352131 
L 171.8784 153.51011 
L 179.0208 151.861985 
L 186.1632 150.407757 
L 193.3056 149.147427 
L 200.448 148.080993 
L 207.5904 147.208457 
L 214.7328 146.529817 
L 221.8752 146.045074 
L 229.0176 145.754229 
L 236.16 145.65728 
L 243.3024 145.754229 
L 250.4448 146.045074 
L 257.5872 146.529817 
L 264.7296 147.208457 
L 271.872 148.080993 
L 279.0144 149.147427 
L 286.1568 150.407757 
L 293.2992 151.861985 
L 300.4416 153.51011 
L 307.584 155.352131 
L 314.7264 157.38805 
L 321.8688 159.617866 
L 329.0112 162.041579 
L 336.1536 164.659188 
L 343.296 167.470695 
L 350.4384 170.476099 
L 359.3664 174.505521 
L 368.2944 178.837908 
L 377.2224 183.473258 
L 386.1504 188.411573 
L 395.0784 193.652852 
L 404.0064 199.197095 
L 412.9344 205.044302 
L 412.9344 205.044302 
" clip-path="url(#p24d5156d15)" style="fill: none; stroke: #ff7f0e; stroke-width: 1.5; stroke-linecap: square"/>
   </g>
   <g id="line2d_31">
    <path d="M 59.322256 346.6 
L 62.9568 335.43834 
L 68.3136 319.699284 
L 73.6704 304.788212 
L 79.0272 290.685981 
L 84.384 277.373449 
L 89.7408 264.831473 
L 95.0976 253.040911 
L 100.4544 241.982619 
L 105.8112 231.637456 
L 111.168 221.986279 
L 114.7392 215.928256 
L 118.3104 210.164491 
L 121.8816 204.689312 
L 125.4528 199.497048 
L 129.024 194.582027 
L 132.5952 189.938577 
L 136.1664 185.561026 
L 139.7376 181.443702 
L 143.3088 177.580933 
L 146.88 173.967048 
L 150.4512 170.596375 
L 154.0224 167.463241 
L 157.5936 164.561975 
L 161.1648 161.886905 
L 164.736 159.432359 
L 168.3072 157.192665 
L 171.8784 155.162151 
L 175.4496 153.335146 
L 179.0208 151.705977 
L 182.592 150.268973 
L 186.1632 149.018462 
L 189.7344 147.948772 
L 193.3056 147.054231 
L 196.8768 146.329167 
L 200.448 145.767908 
L 204.0192 145.364783 
L 207.5904 145.114119 
L 212.9472 145.011582 
L 218.304 145.220179 
L 223.6608 145.720767 
L 229.0176 146.494204 
L 234.3744 147.521348 
L 239.7312 148.783056 
L 245.088 150.260185 
L 250.4448 151.933592 
L 257.5872 154.437039 
L 264.7296 157.210019 
L 271.872 160.207158 
L 280.8 164.199678 
L 293.2992 170.089776 
L 320.0832 182.839376 
L 329.0112 186.808977 
L 336.1536 189.781668 
L 343.296 192.524767 
L 350.4384 194.9929 
L 355.7952 196.636257 
L 361.152 198.080279 
L 366.5088 199.305824 
L 371.8656 200.29375 
L 377.2224 201.024912 
L 382.5792 201.48017 
L 387.936 201.640381 
L 393.2928 201.486401 
L 396.864 201.199744 
L 400.4352 200.759268 
L 404.0064 200.1593 
L 407.5776 199.394169 
L 411.1488 198.458202 
L 412.9344 197.924383 
L 412.9344 197.924383 
" clip-path="url(#p24d5156d15)" style="fill: none; stroke: #2ca02c; stroke-width: 1.5; stroke-linecap: square"/>
   </g>
   <g id="line2d_32">
    <path d="M 57.6 102.224293 
L 61.1712 110.643966 
L 64.7424 118.101734 
L 68.3136 124.668964 
L 71.8848 130.41382 
L 75.456 135.401326 
L 79.0272 139.693437 
L 82.5984 143.349105 
L 86.1696 146.424344 
L 89.7408 148.972302 
L 93.312 151.043323 
L 96.8832 152.685017 
L 100.4544 153.942326 
L 104.0256 154.857593 
L 107.5968 155.470625 
L 111.168 155.818767 
L 114.7392 155.936962 
L 118.3104 155.857823 
L 123.6672 155.434896 
L 129.024 154.72896 
L 136.1664 153.488792 
L 146.88 151.3179 
L 159.3792 148.822688 
L 166.5216 147.593558 
L 173.664 146.583263 
L 180.8064 145.827518 
L 187.9488 145.343537 
L 195.0912 145.132178 
L 202.2336 145.180099 
L 209.376 145.461901 
L 216.5184 145.942279 
L 225.4464 146.755834 
L 239.7312 148.320027 
L 254.016 149.837493 
L 262.944 150.582344 
L 270.0864 150.996306 
L 277.2288 151.212518 
L 284.3712 151.208758 
L 291.5136 150.975468 
L 298.656 150.517896 
L 305.7984 149.858251 
L 314.7264 148.814463 
L 336.1536 146.180321 
L 341.5104 145.764083 
L 346.8672 145.576494 
L 350.4384 145.619041 
L 354.0096 145.827114 
L 357.5808 146.230093 
L 361.152 146.859594 
L 364.7232 147.749534 
L 368.2944 148.936202 
L 371.8656 150.45832 
L 375.4368 152.357117 
L 379.008 154.676392 
L 382.5792 157.462583 
L 386.1504 160.764831 
L 389.7216 164.635052 
L 393.2928 169.127999 
L 396.864 174.301336 
L 400.4352 180.215696 
L 404.0064 186.934757 
L 407.5776 194.525304 
L 411.1488 203.057295 
L 412.9344 207.699081 
L 412.9344 207.699081 
" clip-path="url(#p24d5156d15)" style="fill: none; stroke: #d62728; stroke-width: 1.5; stroke-linecap: square"/>
   </g>
   <g id="line2d_33">
    <path d="M 57.6 207.6837 
L 61.1712 200.685312 
L 64.7424 194.601477 
L 68.3136 189.353721 
L 71.8848 184.868395 
L 75.456 181.076477 
L 79.0272 177.913378 
L 82.5984 175.318748 
L 86.1696 173.236288 
L 89.7408 171.613566 
L 93.312 170.401838 
L 96.8832 169.555872 
L 100.4544 169.033779 
L 104.0256 168.796843 
L 107.5968 168.809361 
L 111.168 169.038484 
L 114.7392 169.454061 
L 120.096 170.367313 
L 125.4528 171.555387 
L 132.5952 173.443923 
L 141.5232 176.097479 
L 164.736 183.183974 
L 173.664 185.629313 
L 180.8064 187.392486 
L 187.9488 188.961167 
L 195.0912 190.322401 
L 202.2336 191.468822 
L 209.376 192.396963 
L 216.5184 193.105836 
L 223.6608 193.595784 
L 230.8032 193.867602 
L 237.9456 193.92193 
L 245.088 193.75891 
L 252.2304 193.378128 
L 259.3728 192.778806 
L 266.5152 191.960282 
L 273.6576 190.922753 
L 280.8 189.668285 
L 287.9424 188.2021 
L 295.0848 186.534131 
L 304.0128 184.191287 
L 312.9408 181.611282 
L 327.2256 177.203717 
L 337.9392 173.955122 
L 345.0816 171.99973 
L 350.4384 170.736579 
L 355.7952 169.723049 
L 359.3664 169.224749 
L 362.9376 168.898793 
L 366.5088 168.774039 
L 370.08 168.881967 
L 373.6512 169.256834 
L 377.2224 169.935829 
L 380.7936 170.959235 
L 384.3648 172.370591 
L 387.936 174.216862 
L 391.5072 176.548616 
L 393.2928 177.913378 
L 395.0784 179.420194 
L 396.864 181.076477 
L 398.6496 182.889898 
L 400.4352 184.868395 
L 402.2208 187.020174 
L 404.0064 189.353721 
L 405.792 191.877803 
L 407.5776 194.601477 
L 409.3632 197.534096 
L 411.1488 200.685312 
L 412.9344 204.065088 
L 412.9344 204.065088 
" clip-path="url(#p24d5156d15)" style="fill: none; stroke: #9467bd; stroke-width: 1.5; stroke-linecap: square"/>
   </g>
   <g id="line2d_34">
    <path d="M 57.6 199.825625 
L 59.3856 202.23522 
L 61.1712 200.276793 
L 62.9568 199.269231 
L 64.7424 199.597826 
L 66.528 200.253106 
L 68.3136 200.326126 
L 70.0992 199.432965 
L 71.8848 197.653178 
L 73.6704 195.310388 
L 77.2416 190.248533 
L 82.5984 183.076906 
L 84.384 180.319042 
L 86.1696 177.093615 
L 87.9552 173.330293 
L 89.7408 169.073115 
L 95.0976 155.416391 
L 96.8832 151.620741 
L 98.6688 148.772051 
L 100.4544 147.151887 
L 102.24 146.95534 
L 104.0256 148.270765 
L 105.8112 151.071258 
L 107.5968 155.217605 
L 109.3824 160.471318 
L 111.168 166.515626 
L 116.5248 185.618661 
L 118.3104 191.050066 
L 120.096 195.473716 
L 121.8816 198.662681 
L 123.6672 200.472333 
L 125.4528 200.844521 
L 127.2384 199.805631 
L 129.024 197.459211 
L 130.8096 193.974181 
L 132.5952 189.569845 
L 134.3808 184.49898 
L 141.5232 162.820598 
L 143.3088 158.213608 
L 145.0944 154.270845 
L 146.88 151.081109 
L 148.6656 148.684721 
L 150.4512 147.076704 
L 152.2368 146.212463 
L 154.0224 146.015359 
L 155.808 146.385513 
L 157.5936 147.209181 
L 159.3792 148.368054 
L 162.9504 151.245926 
L 168.3072 155.706684 
L 171.8784 158.312611 
L 179.0208 163.279263 
L 180.8064 164.752021 
L 182.592 166.4158 
L 184.3776 168.303466 
L 186.1632 170.431425 
L 187.9488 172.796829 
L 191.52 178.125068 
L 196.8768 186.67407 
L 198.6624 189.318933 
L 200.448 191.691463 
L 202.2336 193.690855 
L 204.0192 195.225055 
L 205.8048 196.216173 
L 207.5904 196.605274 
L 209.376 196.356294 
L 211.1616 195.458862 
L 212.9472 193.929869 
L 214.7328 191.81368 
L 216.5184 189.180988 
L 218.304 186.126337 
L 221.8752 179.225397 
L 225.4464 172.179874 
L 227.232 168.958492 
L 229.0176 166.117565 
L 230.8032 163.774746 
L 232.5888 162.027586 
L 234.3744 160.949116 
L 236.16 160.584527 
L 237.9456 160.949116 
L 239.7312 162.027586 
L 241.5168 163.774746 
L 243.3024 166.117565 
L 245.088 168.958492 
L 246.8736 172.179874 
L 254.016 186.126337 
L 255.8016 189.180988 
L 257.5872 191.81368 
L 259.3728 193.929869 
L 261.1584 195.458862 
L 262.944 196.356294 
L 264.7296 196.605274 
L 266.5152 196.216173 
L 268.3008 195.225055 
L 270.0864 193.690855 
L 271.872 191.691463 
L 273.6576 189.318933 
L 277.2288 183.860713 
L 282.5856 175.376134 
L 284.3712 172.796829 
L 286.1568 170.431425 
L 287.9424 168.303466 
L 289.728 166.4158 
L 291.5136 164.752021 
L 293.2992 163.279263 
L 296.8704 160.717928 
L 302.2272 157.049627 
L 305.7984 154.277152 
L 312.9408 148.368054 
L 314.7264 147.209181 
L 316.512 146.385513 
L 318.2976 146.015359 
L 320.0832 146.212463 
L 321.8688 147.076704 
L 323.6544 148.684721 
L 325.44 151.081109 
L 327.2256 154.270845 
L 329.0112 158.213608 
L 330.7968 162.820598 
L 332.5824 167.95431 
L 339.7248 189.569845 
L 341.5104 193.974181 
L 343.296 197.459211 
L 345.0816 199.805631 
L 346.8672 200.844521 
L 348.6528 200.472333 
L 350.4384 198.662681 
L 352.224 195.473716 
L 354.0096 191.050066 
L 355.7952 185.618661 
L 359.3664 172.981802 
L 361.152 166.515626 
L 362.9376 160.471318 
L 364.7232 155.217605 
L 366.5088 151.071258 
L 368.2944 148.270765 
L 370.08 146.95534 
L 371.8656 147.151887 
L 373.6512 148.772051 
L 375.4368 151.620741 
L 377.2224 155.416391 
L 380.7936 164.483362 
L 382.5792 169.073115 
L 384.3648 173.330293 
L 386.1504 177.093615 
L 387.936 180.319042 
L 389.7216 183.076906 
L 400.4352 197.653178 
L 402.2208 199.432965 
L 404.0064 200.326126 
L 405.792 200.253106 
L 407.5776 199.597826 
L 409.3632 199.269231 
L 411.1488 200.276793 
L 412.9344 202.23522 
L 412.9344 202.23522 
" clip-path="url(#p24d5156d15)" style="fill: none; stroke: #8c564b; stroke-width: 1.5; stroke-linecap: square"/>
   </g>
   <g id="patch_3">
    <path d="M 57.6 307.584 
L 57.6 41.472 
" style="fill: none; stroke: #000000; stroke-width: 0.8; stroke-linejoin: miter; stroke-linecap: square"/>
   </g>
   <g id="patch_4">
    <path d="M 414.72 307.584 
L 414.72 41.472 
" style="fill: none; stroke: #000000; stroke-width: 0.8; stroke-linejoin: miter; stroke-linecap: square"/>
   </g>
   <g id="patch_5">
    <path d="M 57.6 307.584 
L 414.72 307.584 
" style="fill: none; stroke: #000000; stroke-width: 0.8; stroke-linejoin: miter; stroke-linecap: square"/>
   </g>
   <g id="patch_6">
    <path d="M 57.6 41.472 
L 414.72 41.472 
" style="fill: none; stroke: #000000; stroke-width: 0.8; stroke-linejoin: miter; stroke-linecap: square"/>
   </g>
   <g id="text_17">
    <!-- Wielomiany interpolacyjne dla funkcji -->
    <g transform="translate(123.610313 19.008375) scale(0.12 -0.12)">
     <defs>
      <path id="DejaVuSans-57" d="M 213 4666 
L 850 4666 
L 1831 722 
L 2809 4666 
L 3519 4666 
L 4500 722 
L 5478 4666 
L 6119 4666 
L 4947 0 
L 4153 0 
L 3169 4050 
L 2175 0 
L 1381 0 
L 213 4666 
z
" transform="scale(0.015625)"/>
      <path id="DejaVuSans-69" d="M 603 3500 
L 1178 3500 
L 1178 0 
L 603 0 
L 603 3500 
z
M 603 4863 
L 1178 4863 
L 1178 4134 
L 603 4134 
L 603 4863 
z
" transform="scale(0.015625)"/>
      <path id="DejaVuSans-65" d="M 3597 1894 
L 3597 1613 
L 953 1613 
Q 991 1019 1311 708 
Q 1631 397 2203 397 
Q 2534 397 2845 478 
Q 3156 559 3463 722 
L 3463 178 
Q 3153 47 2828 -22 
Q 2503 -91 2169 -91 
Q 1331 -91 842 396 
Q 353 884 353 1716 
Q 353 2575 817 3079 
Q 1281 3584 2069 3584 
Q 2775 3584 3186 3129 
Q 3597 2675 3597 1894 
z
M 3022 2063 
Q 3016 2534 2758 2815 
Q 2500 3097 2075 3097 
Q 1594 3097 1305 2825 
Q 1016 2553 972 2059 
L 3022 2063 
z
" transform="scale(0.015625)"/>
      <path id="DejaVuSans-6c" d="M 603 4863 
L 1178 4863 
L 1178 0 
L 603 0 
L 603 4863 
z
" transform="scale(0.015625)"/>
      <path id="DejaVuSans-6f" d="M 1959 3097 
Q 1497 3097 1228 2736 
Q 959 2375 959 1747 
Q 959 1119 1226 758 
Q 1494 397 1959 397 
Q 2419 397 2687 759 
Q 2956 1122 2956 1747 
Q 2956 2369 2687 2733 
Q 2419 3097 1959 3097 
z
M 1959 3584 
Q 2709 3584 3137 3096 
Q 3566 2609 3566 1747 
Q 3566 888 3137 398 
Q 2709 -91 1959 -91 
Q 1206 -91 779 398 
Q 353 888 353 1747 
Q 353 2609 779 3096 
Q 1206 3584 1959 3584 
z
" transform="scale(0.015625)"/>
      <path id="DejaVuSans-6d" d="M 3328 2828 
Q 3544 3216 3844 3400 
Q 4144 3584 4550 3584 
Q 5097 3584 5394 3201 
Q 5691 2819 5691 2113 
L 5691 0 
L 5113 0 
L 5113 2094 
Q 5113 2597 4934 2840 
Q 4756 3084 4391 3084 
Q 3944 3084 3684 2787 
Q 3425 2491 3425 1978 
L 3425 0 
L 2847 0 
L 2847 2094 
Q 2847 2600 2669 2842 
Q 2491 3084 2119 3084 
Q 1678 3084 1418 2786 
Q 1159 2488 1159 1978 
L 1159 0 
L 581 0 
L 581 3500 
L 1159 3500 
L 1159 2956 
Q 1356 3278 1631 3431 
Q 1906 3584 2284 3584 
Q 2666 3584 2933 3390 
Q 3200 3197 3328 2828 
z
" transform="scale(0.015625)"/>
      <path id="DejaVuSans-61" d="M 2194 1759 
Q 1497 1759 1228 1600 
Q 959 1441 959 1056 
Q 959 750 1161 570 
Q 1363 391 1709 391 
Q 2188 391 2477 730 
Q 2766 1069 2766 1631 
L 2766 1759 
L 2194 1759 
z
M 3341 1997 
L 3341 0 
L 2766 0 
L 2766 531 
Q 2569 213 2275 61 
Q 1981 -91 1556 -91 
Q 1019 -91 701 211 
Q 384 513 384 1019 
Q 384 1609 779 1909 
Q 1175 2209 1959 2209 
L 2766 2209 
L 2766 2266 
Q 2766 2663 2505 2880 
Q 2244 3097 1772 3097 
Q 1472 3097 1187 3025 
Q 903 2953 641 2809 
L 641 3341 
Q 956 3463 1253 3523 
Q 1550 3584 1831 3584 
Q 2591 3584 2966 3190 
Q 3341 2797 3341 1997 
z
" transform="scale(0.015625)"/>
      <path id="DejaVuSans-6e" d="M 3513 2113 
L 3513 0 
L 2938 0 
L 2938 2094 
Q 2938 2591 2744 2837 
Q 2550 3084 2163 3084 
Q 1697 3084 1428 2787 
Q 1159 2491 1159 1978 
L 1159 0 
L 581 0 
L 581 3500 
L 1159 3500 
L 1159 2956 
Q 1366 3272 1645 3428 
Q 1925 3584 2291 3584 
Q 2894 3584 3203 3211 
Q 3513 2838 3513 2113 
z
" transform="scale(0.015625)"/>
      <path id="DejaVuSans-20" transform="scale(0.015625)"/>
      <path id="DejaVuSans-74" d="M 1172 4494 
L 1172 3500 
L 2356 3500 
L 2356 3053 
L 1172 3053 
L 1172 1153 
Q 1172 725 1289 603 
Q 1406 481 1766 481 
L 2356 481 
L 2356 0 
L 1766 0 
Q 1100 0 847 248 
Q 594 497 594 1153 
L 594 3053 
L 172 3053 
L 172 3500 
L 594 3500 
L 594 4494 
L 1172 4494 
z
" transform="scale(0.015625)"/>
      <path id="DejaVuSans-72" d="M 2631 2963 
Q 2534 3019 2420 3045 
Q 2306 3072 2169 3072 
Q 1681 3072 1420 2755 
Q 1159 2438 1159 1844 
L 1159 0 
L 581 0 
L 581 3500 
L 1159 3500 
L 1159 2956 
Q 1341 3275 1631 3429 
Q 1922 3584 2338 3584 
Q 2397 3584 2469 3576 
Q 2541 3569 2628 3553 
L 2631 2963 
z
" transform="scale(0.015625)"/>
      <path id="DejaVuSans-70" d="M 1159 525 
L 1159 -1331 
L 581 -1331 
L 581 3500 
L 1159 3500 
L 1159 2969 
Q 1341 3281 1617 3432 
Q 1894 3584 2278 3584 
Q 2916 3584 3314 3078 
Q 3713 2572 3713 1747 
Q 3713 922 3314 415 
Q 2916 -91 2278 -91 
Q 1894 -91 1617 61 
Q 1341 213 1159 525 
z
M 3116 1747 
Q 3116 2381 2855 2742 
Q 2594 3103 2138 3103 
Q 1681 3103 1420 2742 
Q 1159 2381 1159 1747 
Q 1159 1113 1420 752 
Q 1681 391 2138 391 
Q 2594 391 2855 752 
Q 3116 1113 3116 1747 
z
" transform="scale(0.015625)"/>
      <path id="DejaVuSans-63" d="M 3122 3366 
L 3122 2828 
Q 2878 2963 2633 3030 
Q 2388 3097 2138 3097 
Q 1578 3097 1268 2742 
Q 959 2388 959 1747 
Q 959 1106 1268 751 
Q 1578 397 2138 397 
Q 2388 397 2633 464 
Q 2878 531 3122 666 
L 3122 134 
Q 2881 22 2623 -34 
Q 2366 -91 2075 -91 
Q 1284 -91 818 406 
Q 353 903 353 1747 
Q 353 2603 823 3093 
Q 1294 3584 2113 3584 
Q 2378 3584 2631 3529 
Q 2884 3475 3122 3366 
z
" transform="scale(0.015625)"/>
      <path id="DejaVuSans-6a" d="M 603 3500 
L 1178 3500 
L 1178 -63 
Q 1178 -731 923 -1031 
Q 669 -1331 103 -1331 
L -116 -1331 
L -116 -844 
L 38 -844 
Q 366 -844 484 -692 
Q 603 -541 603 -63 
L 603 3500 
z
M 603 4863 
L 1178 4863 
L 1178 4134 
L 603 4134 
L 603 4863 
z
" transform="scale(0.015625)"/>
      <path id="DejaVuSans-64" d="M 2906 2969 
L 2906 4863 
L 3481 4863 
L 3481 0 
L 2906 0 
L 2906 525 
Q 2725 213 2448 61 
Q 2172 -91 1784 -91 
Q 1150 -91 751 415 
Q 353 922 353 1747 
Q 353 2572 751 3078 
Q 1150 3584 1784 3584 
Q 2172 3584 2448 3432 
Q 2725 3281 2906 2969 
z
M 947 1747 
Q 947 1113 1208 752 
Q 1469 391 1925 391 
Q 2381 391 2643 752 
Q 2906 1113 2906 1747 
Q 2906 2381 2643 2742 
Q 2381 3103 1925 3103 
Q 1469 3103 1208 2742 
Q 947 2381 947 1747 
z
" transform="scale(0.015625)"/>
      <path id="DejaVuSans-66" d="M 2375 4863 
L 2375 4384 
L 1825 4384 
Q 1516 4384 1395 4259 
Q 1275 4134 1275 3809 
L 1275 3500 
L 2222 3500 
L 2222 3053 
L 1275 3053 
L 1275 0 
L 697 0 
L 697 3053 
L 147 3053 
L 147 3500 
L 697 3500 
L 697 3744 
Q 697 4328 969 4595 
Q 1241 4863 1831 4863 
L 2375 4863 
z
" transform="scale(0.015625)"/>
      <path id="DejaVuSans-75" d="M 544 1381 
L 544 3500 
L 1119 3500 
L 1119 1403 
Q 1119 906 1312 657 
Q 1506 409 1894 409 
Q 2359 409 2629 706 
Q 2900 1003 2900 1516 
L 2900 3500 
L 3475 3500 
L 3475 0 
L 2900 0 
L 2900 538 
Q 2691 219 2414 64 
Q 2138 -91 1772 -91 
Q 1169 -91 856 284 
Q 544 659 544 1381 
z
M 1991 3584 
L 1991 3584 
z
" transform="scale(0.015625)"/>
      <path id="DejaVuSans-6b" d="M 581 4863 
L 1159 4863 
L 1159 1991 
L 2875 3500 
L 3609 3500 
L 1753 1863 
L 3688 0 
L 2938 0 
L 1159 1709 
L 1159 0 
L 581 0 
L 581 4863 
z
" transform="scale(0.015625)"/>
     </defs>
     <use xlink:href="#DejaVuSans-57"/>
     <use xlink:href="#DejaVuSans-69" x="96.626953"/>
     <use xlink:href="#DejaVuSans-65" x="124.410156"/>
     <use xlink:href="#DejaVuSans-6c" x="185.933594"/>
     <use xlink:href="#DejaVuSans-6f" x="213.716797"/>
     <use xlink:href="#DejaVuSans-6d" x="274.898438"/>
     <use xlink:href="#DejaVuSans-69" x="372.310547"/>
     <use xlink:href="#DejaVuSans-61" x="400.09375"/>
     <use xlink:href="#DejaVuSans-6e" x="461.373047"/>
     <use xlink:href="#DejaVuSans-79" x="524.751953"/>
     <use xlink:href="#DejaVuSans-20" x="583.931641"/>
     <use xlink:href="#DejaVuSans-69" x="615.71875"/>
     <use xlink:href="#DejaVuSans-6e" x="643.501953"/>
     <use xlink:href="#DejaVuSans-74" x="706.880859"/>
     <use xlink:href="#DejaVuSans-65" x="746.089844"/>
     <use xlink:href="#DejaVuSans-72" x="807.613281"/>
     <use xlink:href="#DejaVuSans-70" x="848.726562"/>
     <use xlink:href="#DejaVuSans-6f" x="912.203125"/>
     <use xlink:href="#DejaVuSans-6c" x="973.384766"/>
     <use xlink:href="#DejaVuSans-61" x="1001.167969"/>
     <use xlink:href="#DejaVuSans-63" x="1062.447266"/>
     <use xlink:href="#DejaVuSans-79" x="1117.427734"/>
     <use xlink:href="#DejaVuSans-6a" x="1176.607422"/>
     <use xlink:href="#DejaVuSans-6e" x="1204.390625"/>
     <use xlink:href="#DejaVuSans-65" x="1267.769531"/>
     <use xlink:href="#DejaVuSans-20" x="1329.292969"/>
     <use xlink:href="#DejaVuSans-64" x="1361.080078"/>
     <use xlink:href="#DejaVuSans-6c" x="1424.556641"/>
     <use xlink:href="#DejaVuSans-61" x="1452.339844"/>
     <use xlink:href="#DejaVuSans-20" x="1513.619141"/>
     <use xlink:href="#DejaVuSans-66" x="1545.40625"/>
     <use xlink:href="#DejaVuSans-75" x="1580.611328"/>
     <use xlink:href="#DejaVuSans-6e" x="1643.990234"/>
     <use xlink:href="#DejaVuSans-6b" x="1707.369141"/>
     <use xlink:href="#DejaVuSans-63" x="1765.279297"/>
     <use xlink:href="#DejaVuSans-6a" x="1820.259766"/>
     <use xlink:href="#DejaVuSans-69" x="1848.042969"/>
    </g>
    <!-- $f(x)=\cos(\pi5x) + sin(\pi3x)$ i siatki $x_i=\cos(\pi\frac{2i+1}{2(n+1)})$ -->
    <g transform="translate(89.88 35.472) scale(0.12 -0.12)">
     <defs>
      <path id="DejaVuSans-Oblique-66" d="M 3059 4863 
L 2969 4384 
L 2419 4384 
Q 2106 4384 1964 4261 
Q 1822 4138 1753 3809 
L 1691 3500 
L 2638 3500 
L 2553 3053 
L 1606 3053 
L 1013 0 
L 434 0 
L 1031 3053 
L 481 3053 
L 563 3500 
L 1113 3500 
L 1159 3744 
Q 1278 4363 1576 4613 
Q 1875 4863 2516 4863 
L 3059 4863 
z
" transform="scale(0.015625)"/>
      <path id="DejaVuSans-28" d="M 1984 4856 
Q 1566 4138 1362 3434 
Q 1159 2731 1159 2009 
Q 1159 1288 1364 580 
Q 1569 -128 1984 -844 
L 1484 -844 
Q 1016 -109 783 600 
Q 550 1309 550 2009 
Q 550 2706 781 3412 
Q 1013 4119 1484 4856 
L 1984 4856 
z
" transform="scale(0.015625)"/>
      <path id="DejaVuSans-Oblique-78" d="M 3841 3500 
L 2234 1784 
L 3219 0 
L 2559 0 
L 1819 1388 
L 531 0 
L -166 0 
L 1556 1844 
L 641 3500 
L 1300 3500 
L 1972 2234 
L 3144 3500 
L 3841 3500 
z
" transform="scale(0.015625)"/>
      <path id="DejaVuSans-29" d="M 513 4856 
L 1013 4856 
Q 1481 4119 1714 3412 
Q 1947 2706 1947 2009 
Q 1947 1309 1714 600 
Q 1481 -109 1013 -844 
L 513 -844 
Q 928 -128 1133 580 
Q 1338 1288 1338 2009 
Q 1338 2731 1133 3434 
Q 928 4138 513 4856 
z
" transform="scale(0.015625)"/>
      <path id="DejaVuSans-3d" d="M 678 2906 
L 4684 2906 
L 4684 2381 
L 678 2381 
L 678 2906 
z
M 678 1631 
L 4684 1631 
L 4684 1100 
L 678 1100 
L 678 1631 
z
" transform="scale(0.015625)"/>
      <path id="DejaVuSans-73" d="M 2834 3397 
L 2834 2853 
Q 2591 2978 2328 3040 
Q 2066 3103 1784 3103 
Q 1356 3103 1142 2972 
Q 928 2841 928 2578 
Q 928 2378 1081 2264 
Q 1234 2150 1697 2047 
L 1894 2003 
Q 2506 1872 2764 1633 
Q 3022 1394 3022 966 
Q 3022 478 2636 193 
Q 2250 -91 1575 -91 
Q 1294 -91 989 -36 
Q 684 19 347 128 
L 347 722 
Q 666 556 975 473 
Q 1284 391 1588 391 
Q 1994 391 2212 530 
Q 2431 669 2431 922 
Q 2431 1156 2273 1281 
Q 2116 1406 1581 1522 
L 1381 1569 
Q 847 1681 609 1914 
Q 372 2147 372 2553 
Q 372 3047 722 3315 
Q 1072 3584 1716 3584 
Q 2034 3584 2315 3537 
Q 2597 3491 2834 3397 
z
" transform="scale(0.015625)"/>
      <path id="DejaVuSans-Oblique-3c0" d="M 584 3500 
L 3938 3500 
L 3825 2925 
L 3384 2925 
L 2966 775 
Q 2922 550 2981 450 
Q 3038 353 3209 353 
Q 3256 353 3325 363 
Q 3397 369 3419 372 
L 3338 -44 
Q 3222 -84 3103 -103 
Q 2981 -122 2866 -122 
Q 2491 -122 2388 81 
Q 2284 288 2391 838 
L 2797 2925 
L 1506 2925 
L 938 0 
L 350 0 
L 919 2925 
L 472 2925 
L 584 3500 
z
" transform="scale(0.015625)"/>
      <path id="DejaVuSans-2b" d="M 2944 4013 
L 2944 2272 
L 4684 2272 
L 4684 1741 
L 2944 1741 
L 2944 0 
L 2419 0 
L 2419 1741 
L 678 1741 
L 678 2272 
L 2419 2272 
L 2419 4013 
L 2944 4013 
z
" transform="scale(0.015625)"/>
      <path id="DejaVuSans-Oblique-73" d="M 3200 3397 
L 3091 2853 
Q 2863 2978 2609 3040 
Q 2356 3103 2088 3103 
Q 1634 3103 1373 2948 
Q 1113 2794 1113 2528 
Q 1113 2219 1719 2053 
Q 1766 2041 1788 2034 
L 1972 1978 
Q 2547 1819 2739 1644 
Q 2931 1469 2931 1166 
Q 2931 609 2489 259 
Q 2047 -91 1331 -91 
Q 1053 -91 747 -37 
Q 441 16 72 128 
L 184 722 
Q 500 559 806 475 
Q 1113 391 1394 391 
Q 1816 391 2080 572 
Q 2344 753 2344 1031 
Q 2344 1331 1650 1516 
L 1591 1531 
L 1394 1581 
Q 956 1697 753 1886 
Q 550 2075 550 2369 
Q 550 2928 970 3256 
Q 1391 3584 2113 3584 
Q 2397 3584 2667 3537 
Q 2938 3491 3200 3397 
z
" transform="scale(0.015625)"/>
      <path id="DejaVuSans-Oblique-69" d="M 1172 4863 
L 1747 4863 
L 1606 4134 
L 1031 4134 
L 1172 4863 
z
M 909 3500 
L 1484 3500 
L 800 0 
L 225 0 
L 909 3500 
z
" transform="scale(0.015625)"/>
      <path id="DejaVuSans-Oblique-6e" d="M 3566 2113 
L 3156 0 
L 2578 0 
L 2988 2091 
Q 3016 2238 3031 2350 
Q 3047 2463 3047 2528 
Q 3047 2791 2881 2937 
Q 2716 3084 2419 3084 
Q 1956 3084 1622 2776 
Q 1288 2469 1184 1941 
L 800 0 
L 225 0 
L 903 3500 
L 1478 3500 
L 1363 2950 
Q 1603 3253 1940 3418 
Q 2278 3584 2650 3584 
Q 3113 3584 3367 3334 
Q 3622 3084 3622 2631 
Q 3622 2519 3608 2391 
Q 3594 2263 3566 2113 
z
" transform="scale(0.015625)"/>
      <path id="DejaVuSans-33" d="M 2597 2516 
Q 3050 2419 3304 2112 
Q 3559 1806 3559 1356 
Q 3559 666 3084 287 
Q 2609 -91 1734 -91 
Q 1441 -91 1130 -33 
Q 819 25 488 141 
L 488 750 
Q 750 597 1062 519 
Q 1375 441 1716 441 
Q 2309 441 2620 675 
Q 2931 909 2931 1356 
Q 2931 1769 2642 2001 
Q 2353 2234 1838 2234 
L 1294 2234 
L 1294 2753 
L 1863 2753 
Q 2328 2753 2575 2939 
Q 2822 3125 2822 3475 
Q 2822 3834 2567 4026 
Q 2313 4219 1838 4219 
Q 1578 4219 1281 4162 
Q 984 4106 628 3988 
L 628 4550 
Q 988 4650 1302 4700 
Q 1616 4750 1894 4750 
Q 2613 4750 3031 4423 
Q 3450 4097 3450 3541 
Q 3450 3153 3228 2886 
Q 3006 2619 2597 2516 
z
" transform="scale(0.015625)"/>
     </defs>
     <use xlink:href="#DejaVuSans-Oblique-66" transform="translate(0 0.014063)"/>
     <use xlink:href="#DejaVuSans-28" transform="translate(35.205078 0.014063)"/>
     <use xlink:href="#DejaVuSans-Oblique-78" transform="translate(74.21875 0.014063)"/>
     <use xlink:href="#DejaVuSans-29" transform="translate(133.398438 0.014063)"/>
     <use xlink:href="#DejaVuSans-3d" transform="translate(191.894531 0.014063)"/>
     <use xlink:href="#DejaVuSans-63" transform="translate(295.166016 0.014063)"/>
     <use xlink:href="#DejaVuSans-6f" transform="translate(350.146484 0.014063)"/>
     <use xlink:href="#DejaVuSans-73" transform="translate(411.328125 0.014063)"/>
     <use xlink:href="#DejaVuSans-28" transform="translate(463.427734 0.014063)"/>
     <use xlink:href="#DejaVuSans-Oblique-3c0" transform="translate(502.441406 0.014063)"/>
     <use xlink:href="#DejaVuSans-35" transform="translate(562.646484 0.014063)"/>
     <use xlink:href="#DejaVuSans-Oblique-78" transform="translate(626.269531 0.014063)"/>
     <use xlink:href="#DejaVuSans-29" transform="translate(685.449219 0.014063)"/>
     <use xlink:href="#DejaVuSans-2b" transform="translate(743.945312 0.014063)"/>
     <use xlink:href="#DejaVuSans-Oblique-73" transform="translate(847.216797 0.014063)"/>
     <use xlink:href="#DejaVuSans-Oblique-69" transform="translate(899.316406 0.014063)"/>
     <use xlink:href="#DejaVuSans-Oblique-6e" transform="translate(927.099609 0.014063)"/>
     <use xlink:href="#DejaVuSans-28" transform="translate(990.478516 0.014063)"/>
     <use xlink:href="#DejaVuSans-Oblique-3c0" transform="translate(1029.492188 0.014063)"/>
     <use xlink:href="#DejaVuSans-33" transform="translate(1089.697266 0.014063)"/>
     <use xlink:href="#DejaVuSans-Oblique-78" transform="translate(1153.320312 0.014063)"/>
     <use xlink:href="#DejaVuSans-29" transform="translate(1212.5 0.014063)"/>
     <use xlink:href="#DejaVuSans-20" transform="translate(1251.513672 0.014063)"/>
     <use xlink:href="#DejaVuSans-69" transform="translate(1283.300781 0.014063)"/>
     <use xlink:href="#DejaVuSans-20" transform="translate(1311.083984 0.014063)"/>
     <use xlink:href="#DejaVuSans-73" transform="translate(1342.871094 0.014063)"/>
     <use xlink:href="#DejaVuSans-69" transform="translate(1394.970703 0.014063)"/>
     <use xlink:href="#DejaVuSans-61" transform="translate(1422.753906 0.014063)"/>
     <use xlink:href="#DejaVuSans-74" transform="translate(1484.033203 0.014063)"/>
     <use xlink:href="#DejaVuSans-6b" transform="translate(1523.242188 0.014063)"/>
     <use xlink:href="#DejaVuSans-69" transform="translate(1581.152344 0.014063)"/>
     <use xlink:href="#DejaVuSans-20" transform="translate(1608.935547 0.014063)"/>
     <use xlink:href="#DejaVuSans-Oblique-78" transform="translate(1640.722656 0.014063)"/>
     <use xlink:href="#DejaVuSans-Oblique-69" transform="translate(1699.902344 -16.392187) scale(0.7)"/>
     <use xlink:href="#DejaVuSans-3d" transform="translate(1741.567383 0.014063)"/>
     <use xlink:href="#DejaVuSans-63" transform="translate(1844.838867 0.014063)"/>
     <use xlink:href="#DejaVuSans-6f" transform="translate(1899.819336 0.014063)"/>
     <use xlink:href="#DejaVuSans-73" transform="translate(1961.000977 0.014063)"/>
     <use xlink:href="#DejaVuSans-28" transform="translate(2013.100586 0.014063)"/>
     <use xlink:href="#DejaVuSans-Oblique-3c0" transform="translate(2052.114258 0.014063)"/>
     <use xlink:href="#DejaVuSans-32" transform="translate(2152.319336 43.810938) scale(0.7)"/>
     <use xlink:href="#DejaVuSans-Oblique-69" transform="translate(2196.855469 43.810938) scale(0.7)"/>
     <use xlink:href="#DejaVuSans-2b" transform="translate(2229.941406 43.810938) scale(0.7)"/>
     <use xlink:href="#DejaVuSans-31" transform="translate(2302.231445 43.810938) scale(0.7)"/>
     <use xlink:href="#DejaVuSans-32" transform="translate(2112.319336 -40.551562) scale(0.7)"/>
     <use xlink:href="#DejaVuSans-28" transform="translate(2156.855469 -40.551562) scale(0.7)"/>
     <use xlink:href="#DejaVuSans-Oblique-6e" transform="translate(2184.165039 -40.551562) scale(0.7)"/>
     <use xlink:href="#DejaVuSans-2b" transform="translate(2242.167969 -40.551562) scale(0.7)"/>
     <use xlink:href="#DejaVuSans-31" transform="translate(2314.458008 -40.551562) scale(0.7)"/>
     <use xlink:href="#DejaVuSans-29" transform="translate(2358.994141 -40.551562) scale(0.7)"/>
     <use xlink:href="#DejaVuSans-29" transform="translate(2398.803711 0.014063)"/>
     <path d="M 2112.319336 18.810937 
L 2112.319336 25.060937 
L 2386.303711 25.060937 
L 2386.303711 18.810937 
L 2112.319336 18.810937 
z
"/>
    </g>
   </g>
   <g id="legend_1">
    <g id="patch_7">
     <path d="M 232.88875 138.931375 
L 407.72 138.931375 
Q 409.72 138.931375 409.72 136.931375 
L 409.72 48.472 
Q 409.72 46.472 407.72 46.472 
L 232.88875 46.472 
Q 230.88875 46.472 230.88875 48.472 
L 230.88875 136.931375 
Q 230.88875 138.931375 232.88875 138.931375 
z
" style="fill: #ffffff; opacity: 0.8; stroke: #cccccc; stroke-linejoin: miter"/>
    </g>
    <g id="line2d_35">
     <path d="M 234.88875 54.570438 
L 244.88875 54.570438 
L 254.88875 54.570438 
" style="fill: none; stroke-dasharray: 18.5,8; stroke-dashoffset: 0; stroke: #1f77b4; stroke-width: 5"/>
    </g>
    <g id="text_18">
     <!-- Dokladny wykres z biblioteki -->
     <g transform="translate(262.88875 58.070438) scale(0.1 -0.1)">
      <defs>
       <path id="DejaVuSans-44" d="M 1259 4147 
L 1259 519 
L 2022 519 
Q 2988 519 3436 956 
Q 3884 1394 3884 2338 
Q 3884 3275 3436 3711 
Q 2988 4147 2022 4147 
L 1259 4147 
z
M 628 4666 
L 1925 4666 
Q 3281 4666 3915 4102 
Q 4550 3538 4550 2338 
Q 4550 1131 3912 565 
Q 3275 0 1925 0 
L 628 0 
L 628 4666 
z
" transform="scale(0.015625)"/>
       <path id="DejaVuSans-77" d="M 269 3500 
L 844 3500 
L 1563 769 
L 2278 3500 
L 2956 3500 
L 3675 769 
L 4391 3500 
L 4966 3500 
L 4050 0 
L 3372 0 
L 2619 2869 
L 1863 0 
L 1184 0 
L 269 3500 
z
" transform="scale(0.015625)"/>
       <path id="DejaVuSans-7a" d="M 353 3500 
L 3084 3500 
L 3084 2975 
L 922 459 
L 3084 459 
L 3084 0 
L 275 0 
L 275 525 
L 2438 3041 
L 353 3041 
L 353 3500 
z
" transform="scale(0.015625)"/>
       <path id="DejaVuSans-62" d="M 3116 1747 
Q 3116 2381 2855 2742 
Q 2594 3103 2138 3103 
Q 1681 3103 1420 2742 
Q 1159 2381 1159 1747 
Q 1159 1113 1420 752 
Q 1681 391 2138 391 
Q 2594 391 2855 752 
Q 3116 1113 3116 1747 
z
M 1159 2969 
Q 1341 3281 1617 3432 
Q 1894 3584 2278 3584 
Q 2916 3584 3314 3078 
Q 3713 2572 3713 1747 
Q 3713 922 3314 415 
Q 2916 -91 2278 -91 
Q 1894 -91 1617 61 
Q 1341 213 1159 525 
L 1159 0 
L 581 0 
L 581 4863 
L 1159 4863 
L 1159 2969 
z
" transform="scale(0.015625)"/>
      </defs>
      <use xlink:href="#DejaVuSans-44"/>
      <use xlink:href="#DejaVuSans-6f" x="77.001953"/>
      <use xlink:href="#DejaVuSans-6b" x="138.183594"/>
      <use xlink:href="#DejaVuSans-6c" x="196.09375"/>
      <use xlink:href="#DejaVuSans-61" x="223.876953"/>
      <use xlink:href="#DejaVuSans-64" x="285.15625"/>
      <use xlink:href="#DejaVuSans-6e" x="348.632812"/>
      <use xlink:href="#DejaVuSans-79" x="412.011719"/>
      <use xlink:href="#DejaVuSans-20" x="471.191406"/>
      <use xlink:href="#DejaVuSans-77" x="502.978516"/>
      <use xlink:href="#DejaVuSans-79" x="584.765625"/>
      <use xlink:href="#DejaVuSans-6b" x="643.945312"/>
      <use xlink:href="#DejaVuSans-72" x="701.855469"/>
      <use xlink:href="#DejaVuSans-65" x="740.71875"/>
      <use xlink:href="#DejaVuSans-73" x="802.242188"/>
      <use xlink:href="#DejaVuSans-20" x="854.341797"/>
      <use xlink:href="#DejaVuSans-7a" x="886.128906"/>
      <use xlink:href="#DejaVuSans-20" x="938.619141"/>
      <use xlink:href="#DejaVuSans-62" x="970.40625"/>
      <use xlink:href="#DejaVuSans-69" x="1033.882812"/>
      <use xlink:href="#DejaVuSans-62" x="1061.666016"/>
      <use xlink:href="#DejaVuSans-6c" x="1125.142578"/>
      <use xlink:href="#DejaVuSans-69" x="1152.925781"/>
      <use xlink:href="#DejaVuSans-6f" x="1180.708984"/>
      <use xlink:href="#DejaVuSans-74" x="1241.890625"/>
      <use xlink:href="#DejaVuSans-65" x="1281.099609"/>
      <use xlink:href="#DejaVuSans-6b" x="1342.623047"/>
      <use xlink:href="#DejaVuSans-69" x="1400.533203"/>
     </g>
    </g>
    <g id="line2d_36">
     <path d="M 234.88875 69.248563 
L 244.88875 69.248563 
L 254.88875 69.248563 
" style="fill: none; stroke: #ff7f0e; stroke-width: 1.5; stroke-linecap: square"/>
    </g>
    <g id="text_19">
     <!-- W_3(x) -->
     <g transform="translate(262.88875 72.748563) scale(0.1 -0.1)">
      <defs>
       <path id="DejaVuSans-5f" d="M 3263 -1063 
L 3263 -1509 
L -63 -1509 
L -63 -1063 
L 3263 -1063 
z
" transform="scale(0.015625)"/>
      </defs>
      <use xlink:href="#DejaVuSans-57"/>
      <use xlink:href="#DejaVuSans-5f" x="98.876953"/>
      <use xlink:href="#DejaVuSans-33" x="148.876953"/>
      <use xlink:href="#DejaVuSans-28" x="212.5"/>
      <use xlink:href="#DejaVuSans-78" x="251.513672"/>
      <use xlink:href="#DejaVuSans-29" x="310.693359"/>
     </g>
    </g>
    <g id="line2d_37">
     <path d="M 234.88875 84.204813 
L 244.88875 84.204813 
L 254.88875 84.204813 
" style="fill: none; stroke: #2ca02c; stroke-width: 1.5; stroke-linecap: square"/>
    </g>
    <g id="text_20">
     <!-- W_4(x) -->
     <g transform="translate(262.88875 87.704813) scale(0.1 -0.1)">
      <use xlink:href="#DejaVuSans-57"/>
      <use xlink:href="#DejaVuSans-5f" x="98.876953"/>
      <use xlink:href="#DejaVuSans-34" x="148.876953"/>
      <use xlink:href="#DejaVuSans-28" x="212.5"/>
      <use xlink:href="#DejaVuSans-78" x="251.513672"/>
      <use xlink:href="#DejaVuSans-29" x="310.693359"/>
     </g>
    </g>
    <g id="line2d_38">
     <path d="M 234.88875 99.161063 
L 244.88875 99.161063 
L 254.88875 99.161063 
" style="fill: none; stroke: #d62728; stroke-width: 1.5; stroke-linecap: square"/>
    </g>
    <g id="text_21">
     <!-- W_6(x) -->
     <g transform="translate(262.88875 102.661063) scale(0.1 -0.1)">
      <defs>
       <path id="DejaVuSans-36" d="M 2113 2584 
Q 1688 2584 1439 2293 
Q 1191 2003 1191 1497 
Q 1191 994 1439 701 
Q 1688 409 2113 409 
Q 2538 409 2786 701 
Q 3034 994 3034 1497 
Q 3034 2003 2786 2293 
Q 2538 2584 2113 2584 
z
M 3366 4563 
L 3366 3988 
Q 3128 4100 2886 4159 
Q 2644 4219 2406 4219 
Q 1781 4219 1451 3797 
Q 1122 3375 1075 2522 
Q 1259 2794 1537 2939 
Q 1816 3084 2150 3084 
Q 2853 3084 3261 2657 
Q 3669 2231 3669 1497 
Q 3669 778 3244 343 
Q 2819 -91 2113 -91 
Q 1303 -91 875 529 
Q 447 1150 447 2328 
Q 447 3434 972 4092 
Q 1497 4750 2381 4750 
Q 2619 4750 2861 4703 
Q 3103 4656 3366 4563 
z
" transform="scale(0.015625)"/>
      </defs>
      <use xlink:href="#DejaVuSans-57"/>
      <use xlink:href="#DejaVuSans-5f" x="98.876953"/>
      <use xlink:href="#DejaVuSans-36" x="148.876953"/>
      <use xlink:href="#DejaVuSans-28" x="212.5"/>
      <use xlink:href="#DejaVuSans-78" x="251.513672"/>
      <use xlink:href="#DejaVuSans-29" x="310.693359"/>
     </g>
    </g>
    <g id="line2d_39">
     <path d="M 234.88875 114.117313 
L 244.88875 114.117313 
L 254.88875 114.117313 
" style="fill: none; stroke: #9467bd; stroke-width: 1.5; stroke-linecap: square"/>
    </g>
    <g id="text_22">
     <!-- W_7(x) -->
     <g transform="translate(262.88875 117.617313) scale(0.1 -0.1)">
      <use xlink:href="#DejaVuSans-57"/>
      <use xlink:href="#DejaVuSans-5f" x="98.876953"/>
      <use xlink:href="#DejaVuSans-37" x="148.876953"/>
      <use xlink:href="#DejaVuSans-28" x="212.5"/>
      <use xlink:href="#DejaVuSans-78" x="251.513672"/>
      <use xlink:href="#DejaVuSans-29" x="310.693359"/>
     </g>
    </g>
    <g id="line2d_40">
     <path d="M 234.88875 129.073563 
L 244.88875 129.073563 
L 254.88875 129.073563 
" style="fill: none; stroke: #8c564b; stroke-width: 1.5; stroke-linecap: square"/>
    </g>
    <g id="text_23">
     <!-- W_25(x) -->
     <g transform="translate(262.88875 132.573563) scale(0.1 -0.1)">
      <use xlink:href="#DejaVuSans-57"/>
      <use xlink:href="#DejaVuSans-5f" x="98.876953"/>
      <use xlink:href="#DejaVuSans-32" x="148.876953"/>
      <use xlink:href="#DejaVuSans-35" x="212.5"/>
      <use xlink:href="#DejaVuSans-28" x="276.123047"/>
      <use xlink:href="#DejaVuSans-78" x="315.136719"/>
      <use xlink:href="#DejaVuSans-29" x="374.316406"/>
     </g>
    </g>
   </g>
  </g>
 </g>
 <defs>
  <clipPath id="p24d5156d15">
   <rect x="57.6" y="41.472" width="357.12" height="266.112"/>
  </clipPath>
 </defs>
</svg>
