<?xml version="1.0" encoding="utf-8" standalone="no"?>
<!DOCTYPE svg PUBLIC "-//W3C//DTD SVG 1.1//EN"
  "http://www.w3.org/Graphics/SVG/1.1/DTD/svg11.dtd">
<svg xmlns:xlink="http://www.w3.org/1999/xlink" width="460.8pt" height="345.6pt" viewBox="0 0 460.8 345.6" xmlns="http://www.w3.org/2000/svg" version="1.1">
 <metadata>
  <rdf:RDF xmlns:dc="http://purl.org/dc/elements/1.1/" xmlns:cc="http://creativecommons.org/ns#" xmlns:rdf="http://www.w3.org/1999/02/22-rdf-syntax-ns#">
   <cc:Work>
    <dc:type rdf:resource="http://purl.org/dc/dcmitype/StillImage"/>
    <dc:date>2023-12-23T21:11:47.030585</dc:date>
    <dc:format>image/svg+xml</dc:format>
    <dc:creator>
     <cc:Agent>
      <dc:title>Matplotlib v3.8.1, https://matplotlib.org/</dc:title>
     </cc:Agent>
    </dc:creator>
   </cc:Work>
  </rdf:RDF>
 </metadata>
 <defs>
  <style type="text/css">*{stroke-linejoin: round; stroke-linecap: butt}</style>
 </defs>
 <g id="figure_1">
  <g id="patch_1">
   <path d="M 0 345.6 
L 460.8 345.6 
L 460.8 0 
L 0 0 
z
" style="fill: #ffffff"/>
  </g>
  <g id="axes_1">
   <g id="patch_2">
    <path d="M 57.6 307.584 
L 414.72 307.584 
L 414.72 41.472 
L 57.6 41.472 
z
" style="fill: #ffffff"/>
   </g>
   <g id="matplotlib.axis_1">
    <g id="xtick_1">
     <g id="line2d_1">
      <path d="M 57.6 307.584 
L 57.6 41.472 
" clip-path="url(#p94f4065456)" style="fill: none; stroke: #b0b0b0; stroke-width: 0.8; stroke-linecap: square"/>
     </g>
     <g id="line2d_2">
      <defs>
       <path id="m091c6a1f35" d="M 0 0 
L 0 3.5 
" style="stroke: #000000; stroke-width: 0.8"/>
      </defs>
      <g>
       <use xlink:href="#m091c6a1f35" x="57.6" y="307.584" style="stroke: #000000; stroke-width: 0.8"/>
      </g>
     </g>
     <g id="text_1">
      <!-- −1.00 -->
      <g transform="translate(42.277344 322.182437) scale(0.1 -0.1)">
       <defs>
        <path id="DejaVuSans-2212" d="M 678 2272 
L 4684 2272 
L 4684 1741 
L 678 1741 
L 678 2272 
z
" transform="scale(0.015625)"/>
        <path id="DejaVuSans-31" d="M 794 531 
L 1825 531 
L 1825 4091 
L 703 3866 
L 703 4441 
L 1819 4666 
L 2450 4666 
L 2450 531 
L 3481 531 
L 3481 0 
L 794 0 
L 794 531 
z
" transform="scale(0.015625)"/>
        <path id="DejaVuSans-2e" d="M 684 794 
L 1344 794 
L 1344 0 
L 684 0 
L 684 794 
z
" transform="scale(0.015625)"/>
        <path id="DejaVuSans-30" d="M 2034 4250 
Q 1547 4250 1301 3770 
Q 1056 3291 1056 2328 
Q 1056 1369 1301 889 
Q 1547 409 2034 409 
Q 2525 409 2770 889 
Q 3016 1369 3016 2328 
Q 3016 3291 2770 3770 
Q 2525 4250 2034 4250 
z
M 2034 4750 
Q 2819 4750 3233 4129 
Q 3647 3509 3647 2328 
Q 3647 1150 3233 529 
Q 2819 -91 2034 -91 
Q 1250 -91 836 529 
Q 422 1150 422 2328 
Q 422 3509 836 4129 
Q 1250 4750 2034 4750 
z
" transform="scale(0.015625)"/>
       </defs>
       <use xlink:href="#DejaVuSans-2212"/>
       <use xlink:href="#DejaVuSans-31" x="83.789062"/>
       <use xlink:href="#DejaVuSans-2e" x="147.412109"/>
       <use xlink:href="#DejaVuSans-30" x="179.199219"/>
       <use xlink:href="#DejaVuSans-30" x="242.822266"/>
      </g>
     </g>
    </g>
    <g id="xtick_2">
     <g id="line2d_3">
      <path d="M 102.24 307.584 
L 102.24 41.472 
" clip-path="url(#p94f4065456)" style="fill: none; stroke: #b0b0b0; stroke-width: 0.8; stroke-linecap: square"/>
     </g>
     <g id="line2d_4">
      <g>
       <use xlink:href="#m091c6a1f35" x="102.24" y="307.584" style="stroke: #000000; stroke-width: 0.8"/>
      </g>
     </g>
     <g id="text_2">
      <!-- −0.75 -->
      <g transform="translate(86.917344 322.182437) scale(0.1 -0.1)">
       <defs>
        <path id="DejaVuSans-37" d="M 525 4666 
L 3525 4666 
L 3525 4397 
L 1831 0 
L 1172 0 
L 2766 4134 
L 525 4134 
L 525 4666 
z
" transform="scale(0.015625)"/>
        <path id="DejaVuSans-35" d="M 691 4666 
L 3169 4666 
L 3169 4134 
L 1269 4134 
L 1269 2991 
Q 1406 3038 1543 3061 
Q 1681 3084 1819 3084 
Q 2600 3084 3056 2656 
Q 3513 2228 3513 1497 
Q 3513 744 3044 326 
Q 2575 -91 1722 -91 
Q 1428 -91 1123 -41 
Q 819 9 494 109 
L 494 744 
Q 775 591 1075 516 
Q 1375 441 1709 441 
Q 2250 441 2565 725 
Q 2881 1009 2881 1497 
Q 2881 1984 2565 2268 
Q 2250 2553 1709 2553 
Q 1456 2553 1204 2497 
Q 953 2441 691 2322 
L 691 4666 
z
" transform="scale(0.015625)"/>
       </defs>
       <use xlink:href="#DejaVuSans-2212"/>
       <use xlink:href="#DejaVuSans-30" x="83.789062"/>
       <use xlink:href="#DejaVuSans-2e" x="147.412109"/>
       <use xlink:href="#DejaVuSans-37" x="179.199219"/>
       <use xlink:href="#DejaVuSans-35" x="242.822266"/>
      </g>
     </g>
    </g>
    <g id="xtick_3">
     <g id="line2d_5">
      <path d="M 146.88 307.584 
L 146.88 41.472 
" clip-path="url(#p94f4065456)" style="fill: none; stroke: #b0b0b0; stroke-width: 0.8; stroke-linecap: square"/>
     </g>
     <g id="line2d_6">
      <g>
       <use xlink:href="#m091c6a1f35" x="146.88" y="307.584" style="stroke: #000000; stroke-width: 0.8"/>
      </g>
     </g>
     <g id="text_3">
      <!-- −0.50 -->
      <g transform="translate(131.557344 322.182437) scale(0.1 -0.1)">
       <use xlink:href="#DejaVuSans-2212"/>
       <use xlink:href="#DejaVuSans-30" x="83.789062"/>
       <use xlink:href="#DejaVuSans-2e" x="147.412109"/>
       <use xlink:href="#DejaVuSans-35" x="179.199219"/>
       <use xlink:href="#DejaVuSans-30" x="242.822266"/>
      </g>
     </g>
    </g>
    <g id="xtick_4">
     <g id="line2d_7">
      <path d="M 191.52 307.584 
L 191.52 41.472 
" clip-path="url(#p94f4065456)" style="fill: none; stroke: #b0b0b0; stroke-width: 0.8; stroke-linecap: square"/>
     </g>
     <g id="line2d_8">
      <g>
       <use xlink:href="#m091c6a1f35" x="191.52" y="307.584" style="stroke: #000000; stroke-width: 0.8"/>
      </g>
     </g>
     <g id="text_4">
      <!-- −0.25 -->
      <g transform="translate(176.197344 322.182437) scale(0.1 -0.1)">
       <defs>
        <path id="DejaVuSans-32" d="M 1228 531 
L 3431 531 
L 3431 0 
L 469 0 
L 469 531 
Q 828 903 1448 1529 
Q 2069 2156 2228 2338 
Q 2531 2678 2651 2914 
Q 2772 3150 2772 3378 
Q 2772 3750 2511 3984 
Q 2250 4219 1831 4219 
Q 1534 4219 1204 4116 
Q 875 4013 500 3803 
L 500 4441 
Q 881 4594 1212 4672 
Q 1544 4750 1819 4750 
Q 2544 4750 2975 4387 
Q 3406 4025 3406 3419 
Q 3406 3131 3298 2873 
Q 3191 2616 2906 2266 
Q 2828 2175 2409 1742 
Q 1991 1309 1228 531 
z
" transform="scale(0.015625)"/>
       </defs>
       <use xlink:href="#DejaVuSans-2212"/>
       <use xlink:href="#DejaVuSans-30" x="83.789062"/>
       <use xlink:href="#DejaVuSans-2e" x="147.412109"/>
       <use xlink:href="#DejaVuSans-32" x="179.199219"/>
       <use xlink:href="#DejaVuSans-35" x="242.822266"/>
      </g>
     </g>
    </g>
    <g id="xtick_5">
     <g id="line2d_9">
      <path d="M 236.16 307.584 
L 236.16 41.472 
" clip-path="url(#p94f4065456)" style="fill: none; stroke: #b0b0b0; stroke-width: 0.8; stroke-linecap: square"/>
     </g>
     <g id="line2d_10">
      <g>
       <use xlink:href="#m091c6a1f35" x="236.16" y="307.584" style="stroke: #000000; stroke-width: 0.8"/>
      </g>
     </g>
     <g id="text_5">
      <!-- 0.00 -->
      <g transform="translate(225.027187 322.182437) scale(0.1 -0.1)">
       <use xlink:href="#DejaVuSans-30"/>
       <use xlink:href="#DejaVuSans-2e" x="63.623047"/>
       <use xlink:href="#DejaVuSans-30" x="95.410156"/>
       <use xlink:href="#DejaVuSans-30" x="159.033203"/>
      </g>
     </g>
    </g>
    <g id="xtick_6">
     <g id="line2d_11">
      <path d="M 280.8 307.584 
L 280.8 41.472 
" clip-path="url(#p94f4065456)" style="fill: none; stroke: #b0b0b0; stroke-width: 0.8; stroke-linecap: square"/>
     </g>
     <g id="line2d_12">
      <g>
       <use xlink:href="#m091c6a1f35" x="280.8" y="307.584" style="stroke: #000000; stroke-width: 0.8"/>
      </g>
     </g>
     <g id="text_6">
      <!-- 0.25 -->
      <g transform="translate(269.667188 322.182437) scale(0.1 -0.1)">
       <use xlink:href="#DejaVuSans-30"/>
       <use xlink:href="#DejaVuSans-2e" x="63.623047"/>
       <use xlink:href="#DejaVuSans-32" x="95.410156"/>
       <use xlink:href="#DejaVuSans-35" x="159.033203"/>
      </g>
     </g>
    </g>
    <g id="xtick_7">
     <g id="line2d_13">
      <path d="M 325.44 307.584 
L 325.44 41.472 
" clip-path="url(#p94f4065456)" style="fill: none; stroke: #b0b0b0; stroke-width: 0.8; stroke-linecap: square"/>
     </g>
     <g id="line2d_14">
      <g>
       <use xlink:href="#m091c6a1f35" x="325.44" y="307.584" style="stroke: #000000; stroke-width: 0.8"/>
      </g>
     </g>
     <g id="text_7">
      <!-- 0.50 -->
      <g transform="translate(314.307187 322.182437) scale(0.1 -0.1)">
       <use xlink:href="#DejaVuSans-30"/>
       <use xlink:href="#DejaVuSans-2e" x="63.623047"/>
       <use xlink:href="#DejaVuSans-35" x="95.410156"/>
       <use xlink:href="#DejaVuSans-30" x="159.033203"/>
      </g>
     </g>
    </g>
    <g id="xtick_8">
     <g id="line2d_15">
      <path d="M 370.08 307.584 
L 370.08 41.472 
" clip-path="url(#p94f4065456)" style="fill: none; stroke: #b0b0b0; stroke-width: 0.8; stroke-linecap: square"/>
     </g>
     <g id="line2d_16">
      <g>
       <use xlink:href="#m091c6a1f35" x="370.08" y="307.584" style="stroke: #000000; stroke-width: 0.8"/>
      </g>
     </g>
     <g id="text_8">
      <!-- 0.75 -->
      <g transform="translate(358.947188 322.182437) scale(0.1 -0.1)">
       <use xlink:href="#DejaVuSans-30"/>
       <use xlink:href="#DejaVuSans-2e" x="63.623047"/>
       <use xlink:href="#DejaVuSans-37" x="95.410156"/>
       <use xlink:href="#DejaVuSans-35" x="159.033203"/>
      </g>
     </g>
    </g>
    <g id="xtick_9">
     <g id="line2d_17">
      <path d="M 414.72 307.584 
L 414.72 41.472 
" clip-path="url(#p94f4065456)" style="fill: none; stroke: #b0b0b0; stroke-width: 0.8; stroke-linecap: square"/>
     </g>
     <g id="line2d_18">
      <g>
       <use xlink:href="#m091c6a1f35" x="414.72" y="307.584" style="stroke: #000000; stroke-width: 0.8"/>
      </g>
     </g>
     <g id="text_9">
      <!-- 1.00 -->
      <g transform="translate(403.587188 322.182437) scale(0.1 -0.1)">
       <use xlink:href="#DejaVuSans-31"/>
       <use xlink:href="#DejaVuSans-2e" x="63.623047"/>
       <use xlink:href="#DejaVuSans-30" x="95.410156"/>
       <use xlink:href="#DejaVuSans-30" x="159.033203"/>
      </g>
     </g>
    </g>
    <g id="text_10">
     <!-- x -->
     <g transform="translate(233.200625 335.860562) scale(0.1 -0.1)">
      <defs>
       <path id="DejaVuSans-78" d="M 3513 3500 
L 2247 1797 
L 3578 0 
L 2900 0 
L 1881 1375 
L 863 0 
L 184 0 
L 1544 1831 
L 300 3500 
L 978 3500 
L 1906 2253 
L 2834 3500 
L 3513 3500 
z
" transform="scale(0.015625)"/>
      </defs>
      <use xlink:href="#DejaVuSans-78"/>
     </g>
    </g>
   </g>
   <g id="matplotlib.axis_2">
    <g id="ytick_1">
     <g id="line2d_19">
      <path d="M 57.6 280.9728 
L 414.72 280.9728 
" clip-path="url(#p94f4065456)" style="fill: none; stroke: #b0b0b0; stroke-width: 0.8; stroke-linecap: square"/>
     </g>
     <g id="line2d_20">
      <defs>
       <path id="mf6a7a9bc25" d="M 0 0 
L -3.5 0 
" style="stroke: #000000; stroke-width: 0.8"/>
      </defs>
      <g>
       <use xlink:href="#mf6a7a9bc25" x="57.6" y="280.9728" style="stroke: #000000; stroke-width: 0.8"/>
      </g>
     </g>
     <g id="text_11">
      <!-- −4 -->
      <g transform="translate(35.857813 284.772019) scale(0.1 -0.1)">
       <defs>
        <path id="DejaVuSans-34" d="M 2419 4116 
L 825 1625 
L 2419 1625 
L 2419 4116 
z
M 2253 4666 
L 3047 4666 
L 3047 1625 
L 3713 1625 
L 3713 1100 
L 3047 1100 
L 3047 0 
L 2419 0 
L 2419 1100 
L 313 1100 
L 313 1709 
L 2253 4666 
z
" transform="scale(0.015625)"/>
       </defs>
       <use xlink:href="#DejaVuSans-2212"/>
       <use xlink:href="#DejaVuSans-34" x="83.789062"/>
      </g>
     </g>
    </g>
    <g id="ytick_2">
     <g id="line2d_21">
      <path d="M 57.6 227.7504 
L 414.72 227.7504 
" clip-path="url(#p94f4065456)" style="fill: none; stroke: #b0b0b0; stroke-width: 0.8; stroke-linecap: square"/>
     </g>
     <g id="line2d_22">
      <g>
       <use xlink:href="#mf6a7a9bc25" x="57.6" y="227.7504" style="stroke: #000000; stroke-width: 0.8"/>
      </g>
     </g>
     <g id="text_12">
      <!-- −2 -->
      <g transform="translate(35.857813 231.549619) scale(0.1 -0.1)">
       <use xlink:href="#DejaVuSans-2212"/>
       <use xlink:href="#DejaVuSans-32" x="83.789062"/>
      </g>
     </g>
    </g>
    <g id="ytick_3">
     <g id="line2d_23">
      <path d="M 57.6 174.528 
L 414.72 174.528 
" clip-path="url(#p94f4065456)" style="fill: none; stroke: #b0b0b0; stroke-width: 0.8; stroke-linecap: square"/>
     </g>
     <g id="line2d_24">
      <g>
       <use xlink:href="#mf6a7a9bc25" x="57.6" y="174.528" style="stroke: #000000; stroke-width: 0.8"/>
      </g>
     </g>
     <g id="text_13">
      <!-- 0 -->
      <g transform="translate(44.2375 178.327219) scale(0.1 -0.1)">
       <use xlink:href="#DejaVuSans-30"/>
      </g>
     </g>
    </g>
    <g id="ytick_4">
     <g id="line2d_25">
      <path d="M 57.6 121.3056 
L 414.72 121.3056 
" clip-path="url(#p94f4065456)" style="fill: none; stroke: #b0b0b0; stroke-width: 0.8; stroke-linecap: square"/>
     </g>
     <g id="line2d_26">
      <g>
       <use xlink:href="#mf6a7a9bc25" x="57.6" y="121.3056" style="stroke: #000000; stroke-width: 0.8"/>
      </g>
     </g>
     <g id="text_14">
      <!-- 2 -->
      <g transform="translate(44.2375 125.104819) scale(0.1 -0.1)">
       <use xlink:href="#DejaVuSans-32"/>
      </g>
     </g>
    </g>
    <g id="ytick_5">
     <g id="line2d_27">
      <path d="M 57.6 68.0832 
L 414.72 68.0832 
" clip-path="url(#p94f4065456)" style="fill: none; stroke: #b0b0b0; stroke-width: 0.8; stroke-linecap: square"/>
     </g>
     <g id="line2d_28">
      <g>
       <use xlink:href="#mf6a7a9bc25" x="57.6" y="68.0832" style="stroke: #000000; stroke-width: 0.8"/>
      </g>
     </g>
     <g id="text_15">
      <!-- 4 -->
      <g transform="translate(44.2375 71.882419) scale(0.1 -0.1)">
       <use xlink:href="#DejaVuSans-34"/>
      </g>
     </g>
    </g>
    <g id="text_16">
     <!-- y -->
     <g transform="translate(29.778125 177.487375) rotate(-90) scale(0.1 -0.1)">
      <defs>
       <path id="DejaVuSans-79" d="M 2059 -325 
Q 1816 -950 1584 -1140 
Q 1353 -1331 966 -1331 
L 506 -1331 
L 506 -850 
L 844 -850 
Q 1081 -850 1212 -737 
Q 1344 -625 1503 -206 
L 1606 56 
L 191 3500 
L 800 3500 
L 1894 763 
L 2988 3500 
L 3597 3500 
L 2059 -325 
z
" transform="scale(0.015625)"/>
      </defs>
      <use xlink:href="#DejaVuSans-79"/>
     </g>
    </g>
   </g>
   <g id="line2d_29">
    <path d="M 62.78031 346.6 
L 66.659324 336.548498 
L 70.88928 326.133003 
L 75.119236 316.263243 
L 79.349192 306.915314 
L 83.579148 298.065374 
L 87.809104 289.691028 
L 92.03906 281.771387 
L 96.269016 274.285628 
L 100.851469 266.642063 
L 105.433921 259.460416 
L 110.016373 252.718073 
L 114.598826 246.392421 
L 119.181278 240.461471 
L 123.763731 234.905928 
L 128.346183 229.707219 
L 132.928635 224.846772 
L 137.511088 220.306062 
L 142.09354 216.068175 
L 146.675992 212.118175 
L 151.610941 208.169286 
L 156.54589 204.518584 
L 161.480838 201.147679 
L 166.415787 198.040232 
L 171.350736 195.181624 
L 176.638181 192.378419 
L 181.925626 189.826237 
L 187.565567 187.36067 
L 193.205508 185.141641 
L 199.197946 183.034461 
L 205.190384 181.164831 
L 211.535318 179.42083 
L 218.232748 177.817114 
L 225.282675 176.364295 
L 232.685098 175.066448 
L 240.792514 173.872252 
L 249.957418 172.752923 
L 260.884805 171.65031 
L 279.919607 170.004981 
L 294.371956 168.645602 
L 303.889357 167.526876 
L 311.644277 166.399314 
L 318.694203 165.153959 
L 325.039137 163.81126 
L 331.031575 162.313394 
L 336.671516 160.669481 
L 341.958961 158.896082 
L 346.89391 157.013395 
L 351.828859 154.887286 
L 356.411311 152.6748 
L 360.993764 150.213575 
L 365.22372 147.702519 
L 369.453676 144.943614 
L 373.683632 141.919085 
L 377.913588 138.611089 
L 382.143544 135.000281 
L 386.021003 131.406587 
L 389.898463 127.524878 
L 393.775923 123.338916 
L 397.653382 118.831163 
L 401.530842 113.983441 
L 405.408302 108.77743 
L 409.285761 103.193702 
L 413.163221 97.212311 
L 414.22071 95.509384 
L 414.22071 95.509384 
" clip-path="url(#p94f4065456)" style="fill: none; stroke-dasharray: 18.5,8; stroke-dashoffset: 0; stroke: #1f77b4; stroke-width: 5"/>
   </g>
   <g id="line2d_30">
    <path d="M 57.6 229.89125 
L 412.9344 119.718383 
L 412.9344 119.718383 
" clip-path="url(#p94f4065456)" style="fill: none; stroke: #ff7f0e; stroke-width: 1.5; stroke-linecap: square"/>
   </g>
   <g id="line2d_31">
    <path d="M 57.6 182.683386 
L 66.528 185.138899 
L 75.456 187.368814 
L 84.384 189.37313 
L 93.312 191.151848 
L 102.24 192.704966 
L 111.168 194.032485 
L 120.096 195.134406 
L 129.024 196.010728 
L 137.952 196.661451 
L 146.88 197.086575 
L 155.808 197.2861 
L 164.736 197.260026 
L 173.664 197.008354 
L 182.592 196.531082 
L 191.52 195.828212 
L 200.448 194.899743 
L 209.376 193.745675 
L 218.304 192.366008 
L 227.232 190.760742 
L 236.16 188.929878 
L 245.088 186.873414 
L 254.016 184.591352 
L 262.944 182.083691 
L 271.872 179.350431 
L 280.8 176.391572 
L 289.728 173.207114 
L 298.656 169.797058 
L 307.584 166.161402 
L 316.512 162.300148 
L 325.44 158.213295 
L 334.368 153.900843 
L 343.296 149.362792 
L 352.224 144.599142 
L 361.152 139.609893 
L 370.08 134.395046 
L 379.008 128.9546 
L 387.936 123.288554 
L 396.864 117.39691 
L 405.792 111.279667 
L 412.9344 106.223442 
L 412.9344 106.223442 
" clip-path="url(#p94f4065456)" style="fill: none; stroke: #2ca02c; stroke-width: 1.5; stroke-linecap: square"/>
   </g>
   <g id="line2d_32">
    <path d="M 62.544127 346.6 
L 66.528 336.908711 
L 71.8848 324.474767 
L 77.2416 312.698493 
L 82.5984 301.561566 
L 87.9552 291.045665 
L 93.312 281.132467 
L 98.6688 271.803652 
L 104.0256 263.040896 
L 109.3824 254.825879 
L 114.7392 247.140278 
L 120.096 239.965772 
L 125.4528 233.284039 
L 130.8096 227.076757 
L 136.1664 221.325605 
L 141.5232 216.01226 
L 146.88 211.1184 
L 152.2368 206.625704 
L 157.5936 202.515851 
L 162.9504 198.770517 
L 168.3072 195.371382 
L 173.664 192.300124 
L 179.0208 189.53842 
L 184.3776 187.067949 
L 189.7344 184.87039 
L 195.0912 182.927419 
L 200.448 181.220717 
L 205.8048 179.73196 
L 211.1616 178.442827 
L 216.5184 177.334996 
L 223.6608 176.108246 
L 230.8032 175.12781 
L 237.9456 174.350257 
L 246.8736 173.59746 
L 259.3728 172.800607 
L 282.5856 171.381279 
L 291.5136 170.60187 
L 298.656 169.795364 
L 305.7984 168.779163 
L 312.9408 167.509835 
L 318.2976 166.3656 
L 323.6544 165.036231 
L 329.0112 163.503406 
L 334.368 161.748803 
L 339.7248 159.7541 
L 345.0816 157.500977 
L 350.4384 154.97111 
L 355.7952 152.146178 
L 361.152 149.007859 
L 366.5088 145.537832 
L 371.8656 141.717774 
L 377.2224 137.529364 
L 382.5792 132.95428 
L 387.936 127.9742 
L 393.2928 122.570803 
L 398.6496 116.725766 
L 404.0064 110.420768 
L 409.3632 103.637486 
L 412.9344 98.840538 
L 412.9344 98.840538 
" clip-path="url(#p94f4065456)" style="fill: none; stroke: #d62728; stroke-width: 1.5; stroke-linecap: square"/>
   </g>
   <g id="line2d_33">
    <path d="M 62.781993 346.6 
L 66.528 336.880428 
L 71.8848 323.76216 
L 77.2416 311.509496 
L 82.5984 300.074187 
L 87.9552 289.410282 
L 93.312 279.474057 
L 98.6688 270.223935 
L 104.0256 261.620408 
L 109.3824 253.625958 
L 114.7392 246.204984 
L 120.096 239.323719 
L 125.4528 232.950156 
L 130.8096 227.05397 
L 136.1664 221.606437 
L 141.5232 216.580363 
L 146.88 211.95 
L 152.2368 207.690971 
L 157.5936 203.780192 
L 162.9504 200.195796 
L 168.3072 196.917054 
L 173.664 193.924297 
L 179.0208 191.198838 
L 184.3776 188.722896 
L 189.7344 186.479519 
L 195.0912 184.452504 
L 200.448 182.62632 
L 205.8048 180.986032 
L 212.9472 179.063297 
L 220.0896 177.412465 
L 227.232 176.001604 
L 234.3744 174.799514 
L 243.3024 173.543596 
L 252.2304 172.505738 
L 264.7296 171.302913 
L 296.8704 168.374013 
L 305.7984 167.269012 
L 312.9408 166.187469 
L 320.0832 164.878686 
L 327.2256 163.291274 
L 332.5824 161.884793 
L 337.9392 160.265775 
L 343.296 158.407999 
L 348.6528 156.28377 
L 354.0096 153.863838 
L 359.3664 151.117325 
L 364.7232 148.011649 
L 368.2944 145.724765 
L 371.8656 143.252375 
L 375.4368 140.58346 
L 379.008 137.706615 
L 382.5792 134.610033 
L 386.1504 131.281502 
L 389.7216 127.708387 
L 393.2928 123.877628 
L 396.864 119.775722 
L 400.4352 115.388719 
L 404.0064 110.702207 
L 407.5776 105.701306 
L 411.1488 100.370654 
L 412.9344 97.576738 
L 412.9344 97.576738 
" clip-path="url(#p94f4065456)" style="fill: none; stroke: #9467bd; stroke-width: 1.5; stroke-linecap: square"/>
   </g>
   <g id="line2d_34">
    <path d="M 62.781993 346.6 
L 66.528 336.880428 
L 71.8848 323.76216 
L 77.2416 311.509496 
L 82.5984 300.074187 
L 87.9552 289.410282 
L 93.312 279.474057 
L 98.6688 270.223935 
L 104.0256 261.620408 
L 109.3824 253.625958 
L 114.7392 246.204984 
L 120.096 239.323719 
L 125.4528 232.950156 
L 130.8096 227.05397 
L 136.1664 221.606437 
L 141.5232 216.580363 
L 146.88 211.95 
L 152.2368 207.690971 
L 157.5936 203.780192 
L 162.9504 200.195796 
L 168.3072 196.917054 
L 173.664 193.924297 
L 179.0208 191.198838 
L 184.3776 188.722896 
L 189.7344 186.479519 
L 195.0912 184.452504 
L 200.448 182.62632 
L 205.8048 180.986032 
L 212.9472 179.063297 
L 220.0896 177.412465 
L 227.232 176.001604 
L 234.3744 174.799514 
L 243.3024 173.543596 
L 252.2304 172.505738 
L 264.7296 171.302913 
L 296.8704 168.374013 
L 305.7984 167.269012 
L 312.9408 166.187469 
L 320.0832 164.878686 
L 327.2256 163.291274 
L 332.5824 161.884793 
L 337.9392 160.265775 
L 343.296 158.407999 
L 348.6528 156.28377 
L 354.0096 153.863838 
L 359.3664 151.117325 
L 364.7232 148.011649 
L 368.2944 145.724765 
L 371.8656 143.252375 
L 375.4368 140.58346 
L 379.008 137.706615 
L 382.5792 134.610033 
L 386.1504 131.281502 
L 389.7216 127.708387 
L 393.2928 123.877628 
L 396.864 119.775722 
L 400.4352 115.388719 
L 404.0064 110.702207 
L 407.5776 105.701306 
L 411.1488 100.370654 
L 412.9344 97.576738 
L 412.9344 97.576738 
" clip-path="url(#p94f4065456)" style="fill: none; stroke: #8c564b; stroke-width: 1.5; stroke-linecap: square"/>
   </g>
   <g id="patch_3">
    <path d="M 57.6 307.584 
L 57.6 41.472 
" style="fill: none; stroke: #000000; stroke-width: 0.8; stroke-linejoin: miter; stroke-linecap: square"/>
   </g>
   <g id="patch_4">
    <path d="M 414.72 307.584 
L 414.72 41.472 
" style="fill: none; stroke: #000000; stroke-width: 0.8; stroke-linejoin: miter; stroke-linecap: square"/>
   </g>
   <g id="patch_5">
    <path d="M 57.6 307.584 
L 414.72 307.584 
" style="fill: none; stroke: #000000; stroke-width: 0.8; stroke-linejoin: miter; stroke-linecap: square"/>
   </g>
   <g id="patch_6">
    <path d="M 57.6 41.472 
L 414.72 41.472 
" style="fill: none; stroke: #000000; stroke-width: 0.8; stroke-linejoin: miter; stroke-linecap: square"/>
   </g>
   <g id="text_17">
    <!-- Wielomiany interpolacyjne dla funkcji -->
    <g transform="translate(123.610313 19.008375) scale(0.12 -0.12)">
     <defs>
      <path id="DejaVuSans-57" d="M 213 4666 
L 850 4666 
L 1831 722 
L 2809 4666 
L 3519 4666 
L 4500 722 
L 5478 4666 
L 6119 4666 
L 4947 0 
L 4153 0 
L 3169 4050 
L 2175 0 
L 1381 0 
L 213 4666 
z
" transform="scale(0.015625)"/>
      <path id="DejaVuSans-69" d="M 603 3500 
L 1178 3500 
L 1178 0 
L 603 0 
L 603 3500 
z
M 603 4863 
L 1178 4863 
L 1178 4134 
L 603 4134 
L 603 4863 
z
" transform="scale(0.015625)"/>
      <path id="DejaVuSans-65" d="M 3597 1894 
L 3597 1613 
L 953 1613 
Q 991 1019 1311 708 
Q 1631 397 2203 397 
Q 2534 397 2845 478 
Q 3156 559 3463 722 
L 3463 178 
Q 3153 47 2828 -22 
Q 2503 -91 2169 -91 
Q 1331 -91 842 396 
Q 353 884 353 1716 
Q 353 2575 817 3079 
Q 1281 3584 2069 3584 
Q 2775 3584 3186 3129 
Q 3597 2675 3597 1894 
z
M 3022 2063 
Q 3016 2534 2758 2815 
Q 2500 3097 2075 3097 
Q 1594 3097 1305 2825 
Q 1016 2553 972 2059 
L 3022 2063 
z
" transform="scale(0.015625)"/>
      <path id="DejaVuSans-6c" d="M 603 4863 
L 1178 4863 
L 1178 0 
L 603 0 
L 603 4863 
z
" transform="scale(0.015625)"/>
      <path id="DejaVuSans-6f" d="M 1959 3097 
Q 1497 3097 1228 2736 
Q 959 2375 959 1747 
Q 959 1119 1226 758 
Q 1494 397 1959 397 
Q 2419 397 2687 759 
Q 2956 1122 2956 1747 
Q 2956 2369 2687 2733 
Q 2419 3097 1959 3097 
z
M 1959 3584 
Q 2709 3584 3137 3096 
Q 3566 2609 3566 1747 
Q 3566 888 3137 398 
Q 2709 -91 1959 -91 
Q 1206 -91 779 398 
Q 353 888 353 1747 
Q 353 2609 779 3096 
Q 1206 3584 1959 3584 
z
" transform="scale(0.015625)"/>
      <path id="DejaVuSans-6d" d="M 3328 2828 
Q 3544 3216 3844 3400 
Q 4144 3584 4550 3584 
Q 5097 3584 5394 3201 
Q 5691 2819 5691 2113 
L 5691 0 
L 5113 0 
L 5113 2094 
Q 5113 2597 4934 2840 
Q 4756 3084 4391 3084 
Q 3944 3084 3684 2787 
Q 3425 2491 3425 1978 
L 3425 0 
L 2847 0 
L 2847 2094 
Q 2847 2600 2669 2842 
Q 2491 3084 2119 3084 
Q 1678 3084 1418 2786 
Q 1159 2488 1159 1978 
L 1159 0 
L 581 0 
L 581 3500 
L 1159 3500 
L 1159 2956 
Q 1356 3278 1631 3431 
Q 1906 3584 2284 3584 
Q 2666 3584 2933 3390 
Q 3200 3197 3328 2828 
z
" transform="scale(0.015625)"/>
      <path id="DejaVuSans-61" d="M 2194 1759 
Q 1497 1759 1228 1600 
Q 959 1441 959 1056 
Q 959 750 1161 570 
Q 1363 391 1709 391 
Q 2188 391 2477 730 
Q 2766 1069 2766 1631 
L 2766 1759 
L 2194 1759 
z
M 3341 1997 
L 3341 0 
L 2766 0 
L 2766 531 
Q 2569 213 2275 61 
Q 1981 -91 1556 -91 
Q 1019 -91 701 211 
Q 384 513 384 1019 
Q 384 1609 779 1909 
Q 1175 2209 1959 2209 
L 2766 2209 
L 2766 2266 
Q 2766 2663 2505 2880 
Q 2244 3097 1772 3097 
Q 1472 3097 1187 3025 
Q 903 2953 641 2809 
L 641 3341 
Q 956 3463 1253 3523 
Q 1550 3584 1831 3584 
Q 2591 3584 2966 3190 
Q 3341 2797 3341 1997 
z
" transform="scale(0.015625)"/>
      <path id="DejaVuSans-6e" d="M 3513 2113 
L 3513 0 
L 2938 0 
L 2938 2094 
Q 2938 2591 2744 2837 
Q 2550 3084 2163 3084 
Q 1697 3084 1428 2787 
Q 1159 2491 1159 1978 
L 1159 0 
L 581 0 
L 581 3500 
L 1159 3500 
L 1159 2956 
Q 1366 3272 1645 3428 
Q 1925 3584 2291 3584 
Q 2894 3584 3203 3211 
Q 3513 2838 3513 2113 
z
" transform="scale(0.015625)"/>
      <path id="DejaVuSans-20" transform="scale(0.015625)"/>
      <path id="DejaVuSans-74" d="M 1172 4494 
L 1172 3500 
L 2356 3500 
L 2356 3053 
L 1172 3053 
L 1172 1153 
Q 1172 725 1289 603 
Q 1406 481 1766 481 
L 2356 481 
L 2356 0 
L 1766 0 
Q 1100 0 847 248 
Q 594 497 594 1153 
L 594 3053 
L 172 3053 
L 172 3500 
L 594 3500 
L 594 4494 
L 1172 4494 
z
" transform="scale(0.015625)"/>
      <path id="DejaVuSans-72" d="M 2631 2963 
Q 2534 3019 2420 3045 
Q 2306 3072 2169 3072 
Q 1681 3072 1420 2755 
Q 1159 2438 1159 1844 
L 1159 0 
L 581 0 
L 581 3500 
L 1159 3500 
L 1159 2956 
Q 1341 3275 1631 3429 
Q 1922 3584 2338 3584 
Q 2397 3584 2469 3576 
Q 2541 3569 2628 3553 
L 2631 2963 
z
" transform="scale(0.015625)"/>
      <path id="DejaVuSans-70" d="M 1159 525 
L 1159 -1331 
L 581 -1331 
L 581 3500 
L 1159 3500 
L 1159 2969 
Q 1341 3281 1617 3432 
Q 1894 3584 2278 3584 
Q 2916 3584 3314 3078 
Q 3713 2572 3713 1747 
Q 3713 922 3314 415 
Q 2916 -91 2278 -91 
Q 1894 -91 1617 61 
Q 1341 213 1159 525 
z
M 3116 1747 
Q 3116 2381 2855 2742 
Q 2594 3103 2138 3103 
Q 1681 3103 1420 2742 
Q 1159 2381 1159 1747 
Q 1159 1113 1420 752 
Q 1681 391 2138 391 
Q 2594 391 2855 752 
Q 3116 1113 3116 1747 
z
" transform="scale(0.015625)"/>
      <path id="DejaVuSans-63" d="M 3122 3366 
L 3122 2828 
Q 2878 2963 2633 3030 
Q 2388 3097 2138 3097 
Q 1578 3097 1268 2742 
Q 959 2388 959 1747 
Q 959 1106 1268 751 
Q 1578 397 2138 397 
Q 2388 397 2633 464 
Q 2878 531 3122 666 
L 3122 134 
Q 2881 22 2623 -34 
Q 2366 -91 2075 -91 
Q 1284 -91 818 406 
Q 353 903 353 1747 
Q 353 2603 823 3093 
Q 1294 3584 2113 3584 
Q 2378 3584 2631 3529 
Q 2884 3475 3122 3366 
z
" transform="scale(0.015625)"/>
      <path id="DejaVuSans-6a" d="M 603 3500 
L 1178 3500 
L 1178 -63 
Q 1178 -731 923 -1031 
Q 669 -1331 103 -1331 
L -116 -1331 
L -116 -844 
L 38 -844 
Q 366 -844 484 -692 
Q 603 -541 603 -63 
L 603 3500 
z
M 603 4863 
L 1178 4863 
L 1178 4134 
L 603 4134 
L 603 4863 
z
" transform="scale(0.015625)"/>
      <path id="DejaVuSans-64" d="M 2906 2969 
L 2906 4863 
L 3481 4863 
L 3481 0 
L 2906 0 
L 2906 525 
Q 2725 213 2448 61 
Q 2172 -91 1784 -91 
Q 1150 -91 751 415 
Q 353 922 353 1747 
Q 353 2572 751 3078 
Q 1150 3584 1784 3584 
Q 2172 3584 2448 3432 
Q 2725 3281 2906 2969 
z
M 947 1747 
Q 947 1113 1208 752 
Q 1469 391 1925 391 
Q 2381 391 2643 752 
Q 2906 1113 2906 1747 
Q 2906 2381 2643 2742 
Q 2381 3103 1925 3103 
Q 1469 3103 1208 2742 
Q 947 2381 947 1747 
z
" transform="scale(0.015625)"/>
      <path id="DejaVuSans-66" d="M 2375 4863 
L 2375 4384 
L 1825 4384 
Q 1516 4384 1395 4259 
Q 1275 4134 1275 3809 
L 1275 3500 
L 2222 3500 
L 2222 3053 
L 1275 3053 
L 1275 0 
L 697 0 
L 697 3053 
L 147 3053 
L 147 3500 
L 697 3500 
L 697 3744 
Q 697 4328 969 4595 
Q 1241 4863 1831 4863 
L 2375 4863 
z
" transform="scale(0.015625)"/>
      <path id="DejaVuSans-75" d="M 544 1381 
L 544 3500 
L 1119 3500 
L 1119 1403 
Q 1119 906 1312 657 
Q 1506 409 1894 409 
Q 2359 409 2629 706 
Q 2900 1003 2900 1516 
L 2900 3500 
L 3475 3500 
L 3475 0 
L 2900 0 
L 2900 538 
Q 2691 219 2414 64 
Q 2138 -91 1772 -91 
Q 1169 -91 856 284 
Q 544 659 544 1381 
z
M 1991 3584 
L 1991 3584 
z
" transform="scale(0.015625)"/>
      <path id="DejaVuSans-6b" d="M 581 4863 
L 1159 4863 
L 1159 1991 
L 2875 3500 
L 3609 3500 
L 1753 1863 
L 3688 0 
L 2938 0 
L 1159 1709 
L 1159 0 
L 581 0 
L 581 4863 
z
" transform="scale(0.015625)"/>
     </defs>
     <use xlink:href="#DejaVuSans-57"/>
     <use xlink:href="#DejaVuSans-69" x="96.626953"/>
     <use xlink:href="#DejaVuSans-65" x="124.410156"/>
     <use xlink:href="#DejaVuSans-6c" x="185.933594"/>
     <use xlink:href="#DejaVuSans-6f" x="213.716797"/>
     <use xlink:href="#DejaVuSans-6d" x="274.898438"/>
     <use xlink:href="#DejaVuSans-69" x="372.310547"/>
     <use xlink:href="#DejaVuSans-61" x="400.09375"/>
     <use xlink:href="#DejaVuSans-6e" x="461.373047"/>
     <use xlink:href="#DejaVuSans-79" x="524.751953"/>
     <use xlink:href="#DejaVuSans-20" x="583.931641"/>
     <use xlink:href="#DejaVuSans-69" x="615.71875"/>
     <use xlink:href="#DejaVuSans-6e" x="643.501953"/>
     <use xlink:href="#DejaVuSans-74" x="706.880859"/>
     <use xlink:href="#DejaVuSans-65" x="746.089844"/>
     <use xlink:href="#DejaVuSans-72" x="807.613281"/>
     <use xlink:href="#DejaVuSans-70" x="848.726562"/>
     <use xlink:href="#DejaVuSans-6f" x="912.203125"/>
     <use xlink:href="#DejaVuSans-6c" x="973.384766"/>
     <use xlink:href="#DejaVuSans-61" x="1001.167969"/>
     <use xlink:href="#DejaVuSans-63" x="1062.447266"/>
     <use xlink:href="#DejaVuSans-79" x="1117.427734"/>
     <use xlink:href="#DejaVuSans-6a" x="1176.607422"/>
     <use xlink:href="#DejaVuSans-6e" x="1204.390625"/>
     <use xlink:href="#DejaVuSans-65" x="1267.769531"/>
     <use xlink:href="#DejaVuSans-20" x="1329.292969"/>
     <use xlink:href="#DejaVuSans-64" x="1361.080078"/>
     <use xlink:href="#DejaVuSans-6c" x="1424.556641"/>
     <use xlink:href="#DejaVuSans-61" x="1452.339844"/>
     <use xlink:href="#DejaVuSans-20" x="1513.619141"/>
     <use xlink:href="#DejaVuSans-66" x="1545.40625"/>
     <use xlink:href="#DejaVuSans-75" x="1580.611328"/>
     <use xlink:href="#DejaVuSans-6e" x="1643.990234"/>
     <use xlink:href="#DejaVuSans-6b" x="1707.369141"/>
     <use xlink:href="#DejaVuSans-63" x="1765.279297"/>
     <use xlink:href="#DejaVuSans-6a" x="1820.259766"/>
     <use xlink:href="#DejaVuSans-69" x="1848.042969"/>
    </g>
    <!-- $f(x)=5x^5 -4x^4 + 3x^3 - 2x^2 + x$ i siatki $x_i=\cos(\pi\frac{2i+1}{2(n+1)})$ -->
    <g transform="translate(72.36 35.472) scale(0.12 -0.12)">
     <defs>
      <path id="DejaVuSans-Oblique-66" d="M 3059 4863 
L 2969 4384 
L 2419 4384 
Q 2106 4384 1964 4261 
Q 1822 4138 1753 3809 
L 1691 3500 
L 2638 3500 
L 2553 3053 
L 1606 3053 
L 1013 0 
L 434 0 
L 1031 3053 
L 481 3053 
L 563 3500 
L 1113 3500 
L 1159 3744 
Q 1278 4363 1576 4613 
Q 1875 4863 2516 4863 
L 3059 4863 
z
" transform="scale(0.015625)"/>
      <path id="DejaVuSans-28" d="M 1984 4856 
Q 1566 4138 1362 3434 
Q 1159 2731 1159 2009 
Q 1159 1288 1364 580 
Q 1569 -128 1984 -844 
L 1484 -844 
Q 1016 -109 783 600 
Q 550 1309 550 2009 
Q 550 2706 781 3412 
Q 1013 4119 1484 4856 
L 1984 4856 
z
" transform="scale(0.015625)"/>
      <path id="DejaVuSans-Oblique-78" d="M 3841 3500 
L 2234 1784 
L 3219 0 
L 2559 0 
L 1819 1388 
L 531 0 
L -166 0 
L 1556 1844 
L 641 3500 
L 1300 3500 
L 1972 2234 
L 3144 3500 
L 3841 3500 
z
" transform="scale(0.015625)"/>
      <path id="DejaVuSans-29" d="M 513 4856 
L 1013 4856 
Q 1481 4119 1714 3412 
Q 1947 2706 1947 2009 
Q 1947 1309 1714 600 
Q 1481 -109 1013 -844 
L 513 -844 
Q 928 -128 1133 580 
Q 1338 1288 1338 2009 
Q 1338 2731 1133 3434 
Q 928 4138 513 4856 
z
" transform="scale(0.015625)"/>
      <path id="DejaVuSans-3d" d="M 678 2906 
L 4684 2906 
L 4684 2381 
L 678 2381 
L 678 2906 
z
M 678 1631 
L 4684 1631 
L 4684 1100 
L 678 1100 
L 678 1631 
z
" transform="scale(0.015625)"/>
      <path id="DejaVuSans-2b" d="M 2944 4013 
L 2944 2272 
L 4684 2272 
L 4684 1741 
L 2944 1741 
L 2944 0 
L 2419 0 
L 2419 1741 
L 678 1741 
L 678 2272 
L 2419 2272 
L 2419 4013 
L 2944 4013 
z
" transform="scale(0.015625)"/>
      <path id="DejaVuSans-33" d="M 2597 2516 
Q 3050 2419 3304 2112 
Q 3559 1806 3559 1356 
Q 3559 666 3084 287 
Q 2609 -91 1734 -91 
Q 1441 -91 1130 -33 
Q 819 25 488 141 
L 488 750 
Q 750 597 1062 519 
Q 1375 441 1716 441 
Q 2309 441 2620 675 
Q 2931 909 2931 1356 
Q 2931 1769 2642 2001 
Q 2353 2234 1838 2234 
L 1294 2234 
L 1294 2753 
L 1863 2753 
Q 2328 2753 2575 2939 
Q 2822 3125 2822 3475 
Q 2822 3834 2567 4026 
Q 2313 4219 1838 4219 
Q 1578 4219 1281 4162 
Q 984 4106 628 3988 
L 628 4550 
Q 988 4650 1302 4700 
Q 1616 4750 1894 4750 
Q 2613 4750 3031 4423 
Q 3450 4097 3450 3541 
Q 3450 3153 3228 2886 
Q 3006 2619 2597 2516 
z
" transform="scale(0.015625)"/>
      <path id="DejaVuSans-73" d="M 2834 3397 
L 2834 2853 
Q 2591 2978 2328 3040 
Q 2066 3103 1784 3103 
Q 1356 3103 1142 2972 
Q 928 2841 928 2578 
Q 928 2378 1081 2264 
Q 1234 2150 1697 2047 
L 1894 2003 
Q 2506 1872 2764 1633 
Q 3022 1394 3022 966 
Q 3022 478 2636 193 
Q 2250 -91 1575 -91 
Q 1294 -91 989 -36 
Q 684 19 347 128 
L 347 722 
Q 666 556 975 473 
Q 1284 391 1588 391 
Q 1994 391 2212 530 
Q 2431 669 2431 922 
Q 2431 1156 2273 1281 
Q 2116 1406 1581 1522 
L 1381 1569 
Q 847 1681 609 1914 
Q 372 2147 372 2553 
Q 372 3047 722 3315 
Q 1072 3584 1716 3584 
Q 2034 3584 2315 3537 
Q 2597 3491 2834 3397 
z
" transform="scale(0.015625)"/>
      <path id="DejaVuSans-Oblique-69" d="M 1172 4863 
L 1747 4863 
L 1606 4134 
L 1031 4134 
L 1172 4863 
z
M 909 3500 
L 1484 3500 
L 800 0 
L 225 0 
L 909 3500 
z
" transform="scale(0.015625)"/>
      <path id="DejaVuSans-Oblique-3c0" d="M 584 3500 
L 3938 3500 
L 3825 2925 
L 3384 2925 
L 2966 775 
Q 2922 550 2981 450 
Q 3038 353 3209 353 
Q 3256 353 3325 363 
Q 3397 369 3419 372 
L 3338 -44 
Q 3222 -84 3103 -103 
Q 2981 -122 2866 -122 
Q 2491 -122 2388 81 
Q 2284 288 2391 838 
L 2797 2925 
L 1506 2925 
L 938 0 
L 350 0 
L 919 2925 
L 472 2925 
L 584 3500 
z
" transform="scale(0.015625)"/>
      <path id="DejaVuSans-Oblique-6e" d="M 3566 2113 
L 3156 0 
L 2578 0 
L 2988 2091 
Q 3016 2238 3031 2350 
Q 3047 2463 3047 2528 
Q 3047 2791 2881 2937 
Q 2716 3084 2419 3084 
Q 1956 3084 1622 2776 
Q 1288 2469 1184 1941 
L 800 0 
L 225 0 
L 903 3500 
L 1478 3500 
L 1363 2950 
Q 1603 3253 1940 3418 
Q 2278 3584 2650 3584 
Q 3113 3584 3367 3334 
Q 3622 3084 3622 2631 
Q 3622 2519 3608 2391 
Q 3594 2263 3566 2113 
z
" transform="scale(0.015625)"/>
     </defs>
     <use xlink:href="#DejaVuSans-Oblique-66" transform="translate(0 0.014063)"/>
     <use xlink:href="#DejaVuSans-28" transform="translate(35.205078 0.014063)"/>
     <use xlink:href="#DejaVuSans-Oblique-78" transform="translate(74.21875 0.014063)"/>
     <use xlink:href="#DejaVuSans-29" transform="translate(133.398438 0.014063)"/>
     <use xlink:href="#DejaVuSans-3d" transform="translate(191.894531 0.014063)"/>
     <use xlink:href="#DejaVuSans-35" transform="translate(295.166016 0.014063)"/>
     <use xlink:href="#DejaVuSans-Oblique-78" transform="translate(358.789062 0.014063)"/>
     <use xlink:href="#DejaVuSans-35" transform="translate(422.434896 38.295313) scale(0.7)"/>
     <use xlink:href="#DejaVuSans-2212" transform="translate(489.187826 0.014063)"/>
     <use xlink:href="#DejaVuSans-34" transform="translate(592.45931 0.014063)"/>
     <use xlink:href="#DejaVuSans-Oblique-78" transform="translate(656.082357 0.014063)"/>
     <use xlink:href="#DejaVuSans-34" transform="translate(719.72819 38.295313) scale(0.7)"/>
     <use xlink:href="#DejaVuSans-2b" transform="translate(786.48112 0.014063)"/>
     <use xlink:href="#DejaVuSans-33" transform="translate(889.752604 0.014063)"/>
     <use xlink:href="#DejaVuSans-Oblique-78" transform="translate(953.375651 0.014063)"/>
     <use xlink:href="#DejaVuSans-33" transform="translate(1017.021484 38.295313) scale(0.7)"/>
     <use xlink:href="#DejaVuSans-2212" transform="translate(1083.774414 0.014063)"/>
     <use xlink:href="#DejaVuSans-32" transform="translate(1187.045898 0.014063)"/>
     <use xlink:href="#DejaVuSans-Oblique-78" transform="translate(1250.668945 0.014063)"/>
     <use xlink:href="#DejaVuSans-32" transform="translate(1314.314779 38.295313) scale(0.7)"/>
     <use xlink:href="#DejaVuSans-2b" transform="translate(1381.067708 0.014063)"/>
     <use xlink:href="#DejaVuSans-Oblique-78" transform="translate(1484.339193 0.014063)"/>
     <use xlink:href="#DejaVuSans-20" transform="translate(1543.51888 0.014063)"/>
     <use xlink:href="#DejaVuSans-69" transform="translate(1575.30599 0.014063)"/>
     <use xlink:href="#DejaVuSans-20" transform="translate(1603.089193 0.014063)"/>
     <use xlink:href="#DejaVuSans-73" transform="translate(1634.876302 0.014063)"/>
     <use xlink:href="#DejaVuSans-69" transform="translate(1686.975911 0.014063)"/>
     <use xlink:href="#DejaVuSans-61" transform="translate(1714.759115 0.014063)"/>
     <use xlink:href="#DejaVuSans-74" transform="translate(1776.038411 0.014063)"/>
     <use xlink:href="#DejaVuSans-6b" transform="translate(1815.247396 0.014063)"/>
     <use xlink:href="#DejaVuSans-69" transform="translate(1873.157552 0.014063)"/>
     <use xlink:href="#DejaVuSans-20" transform="translate(1900.940755 0.014063)"/>
     <use xlink:href="#DejaVuSans-Oblique-78" transform="translate(1932.727865 0.014063)"/>
     <use xlink:href="#DejaVuSans-Oblique-69" transform="translate(1991.907552 -16.392187) scale(0.7)"/>
     <use xlink:href="#DejaVuSans-3d" transform="translate(2033.572591 0.014063)"/>
     <use xlink:href="#DejaVuSans-63" transform="translate(2136.844076 0.014063)"/>
     <use xlink:href="#DejaVuSans-6f" transform="translate(2191.824544 0.014063)"/>
     <use xlink:href="#DejaVuSans-73" transform="translate(2253.006185 0.014063)"/>
     <use xlink:href="#DejaVuSans-28" transform="translate(2305.105794 0.014063)"/>
     <use xlink:href="#DejaVuSans-Oblique-3c0" transform="translate(2344.119466 0.014063)"/>
     <use xlink:href="#DejaVuSans-32" transform="translate(2444.324544 43.810938) scale(0.7)"/>
     <use xlink:href="#DejaVuSans-Oblique-69" transform="translate(2488.860677 43.810938) scale(0.7)"/>
     <use xlink:href="#DejaVuSans-2b" transform="translate(2521.946615 43.810938) scale(0.7)"/>
     <use xlink:href="#DejaVuSans-31" transform="translate(2594.236654 43.810938) scale(0.7)"/>
     <use xlink:href="#DejaVuSans-32" transform="translate(2404.324544 -40.551562) scale(0.7)"/>
     <use xlink:href="#DejaVuSans-28" transform="translate(2448.860677 -40.551562) scale(0.7)"/>
     <use xlink:href="#DejaVuSans-Oblique-6e" transform="translate(2476.170247 -40.551562) scale(0.7)"/>
     <use xlink:href="#DejaVuSans-2b" transform="translate(2534.173177 -40.551562) scale(0.7)"/>
     <use xlink:href="#DejaVuSans-31" transform="translate(2606.463216 -40.551562) scale(0.7)"/>
     <use xlink:href="#DejaVuSans-29" transform="translate(2650.999349 -40.551562) scale(0.7)"/>
     <use xlink:href="#DejaVuSans-29" transform="translate(2690.808919 0.014063)"/>
     <path d="M 2404.324544 18.810937 
L 2404.324544 25.060937 
L 2678.308919 25.060937 
L 2678.308919 18.810937 
L 2404.324544 18.810937 
z
"/>
    </g>
   </g>
   <g id="legend_1">
    <g id="patch_7">
     <path d="M 64.6 138.931375 
L 239.43125 138.931375 
Q 241.43125 138.931375 241.43125 136.931375 
L 241.43125 48.472 
Q 241.43125 46.472 239.43125 46.472 
L 64.6 46.472 
Q 62.6 46.472 62.6 48.472 
L 62.6 136.931375 
Q 62.6 138.931375 64.6 138.931375 
z
" style="fill: #ffffff; opacity: 0.8; stroke: #cccccc; stroke-linejoin: miter"/>
    </g>
    <g id="line2d_35">
     <path d="M 66.6 54.570438 
L 76.6 54.570438 
L 86.6 54.570438 
" style="fill: none; stroke-dasharray: 18.5,8; stroke-dashoffset: 0; stroke: #1f77b4; stroke-width: 5"/>
    </g>
    <g id="text_18">
     <!-- Dokladny wykres z biblioteki -->
     <g transform="translate(94.6 58.070438) scale(0.1 -0.1)">
      <defs>
       <path id="DejaVuSans-44" d="M 1259 4147 
L 1259 519 
L 2022 519 
Q 2988 519 3436 956 
Q 3884 1394 3884 2338 
Q 3884 3275 3436 3711 
Q 2988 4147 2022 4147 
L 1259 4147 
z
M 628 4666 
L 1925 4666 
Q 3281 4666 3915 4102 
Q 4550 3538 4550 2338 
Q 4550 1131 3912 565 
Q 3275 0 1925 0 
L 628 0 
L 628 4666 
z
" transform="scale(0.015625)"/>
       <path id="DejaVuSans-77" d="M 269 3500 
L 844 3500 
L 1563 769 
L 2278 3500 
L 2956 3500 
L 3675 769 
L 4391 3500 
L 4966 3500 
L 4050 0 
L 3372 0 
L 2619 2869 
L 1863 0 
L 1184 0 
L 269 3500 
z
" transform="scale(0.015625)"/>
       <path id="DejaVuSans-7a" d="M 353 3500 
L 3084 3500 
L 3084 2975 
L 922 459 
L 3084 459 
L 3084 0 
L 275 0 
L 275 525 
L 2438 3041 
L 353 3041 
L 353 3500 
z
" transform="scale(0.015625)"/>
       <path id="DejaVuSans-62" d="M 3116 1747 
Q 3116 2381 2855 2742 
Q 2594 3103 2138 3103 
Q 1681 3103 1420 2742 
Q 1159 2381 1159 1747 
Q 1159 1113 1420 752 
Q 1681 391 2138 391 
Q 2594 391 2855 752 
Q 3116 1113 3116 1747 
z
M 1159 2969 
Q 1341 3281 1617 3432 
Q 1894 3584 2278 3584 
Q 2916 3584 3314 3078 
Q 3713 2572 3713 1747 
Q 3713 922 3314 415 
Q 2916 -91 2278 -91 
Q 1894 -91 1617 61 
Q 1341 213 1159 525 
L 1159 0 
L 581 0 
L 581 4863 
L 1159 4863 
L 1159 2969 
z
" transform="scale(0.015625)"/>
      </defs>
      <use xlink:href="#DejaVuSans-44"/>
      <use xlink:href="#DejaVuSans-6f" x="77.001953"/>
      <use xlink:href="#DejaVuSans-6b" x="138.183594"/>
      <use xlink:href="#DejaVuSans-6c" x="196.09375"/>
      <use xlink:href="#DejaVuSans-61" x="223.876953"/>
      <use xlink:href="#DejaVuSans-64" x="285.15625"/>
      <use xlink:href="#DejaVuSans-6e" x="348.632812"/>
      <use xlink:href="#DejaVuSans-79" x="412.011719"/>
      <use xlink:href="#DejaVuSans-20" x="471.191406"/>
      <use xlink:href="#DejaVuSans-77" x="502.978516"/>
      <use xlink:href="#DejaVuSans-79" x="584.765625"/>
      <use xlink:href="#DejaVuSans-6b" x="643.945312"/>
      <use xlink:href="#DejaVuSans-72" x="701.855469"/>
      <use xlink:href="#DejaVuSans-65" x="740.71875"/>
      <use xlink:href="#DejaVuSans-73" x="802.242188"/>
      <use xlink:href="#DejaVuSans-20" x="854.341797"/>
      <use xlink:href="#DejaVuSans-7a" x="886.128906"/>
      <use xlink:href="#DejaVuSans-20" x="938.619141"/>
      <use xlink:href="#DejaVuSans-62" x="970.40625"/>
      <use xlink:href="#DejaVuSans-69" x="1033.882812"/>
      <use xlink:href="#DejaVuSans-62" x="1061.666016"/>
      <use xlink:href="#DejaVuSans-6c" x="1125.142578"/>
      <use xlink:href="#DejaVuSans-69" x="1152.925781"/>
      <use xlink:href="#DejaVuSans-6f" x="1180.708984"/>
      <use xlink:href="#DejaVuSans-74" x="1241.890625"/>
      <use xlink:href="#DejaVuSans-65" x="1281.099609"/>
      <use xlink:href="#DejaVuSans-6b" x="1342.623047"/>
      <use xlink:href="#DejaVuSans-69" x="1400.533203"/>
     </g>
    </g>
    <g id="line2d_36">
     <path d="M 66.6 69.248563 
L 76.6 69.248563 
L 86.6 69.248563 
" style="fill: none; stroke: #ff7f0e; stroke-width: 1.5; stroke-linecap: square"/>
    </g>
    <g id="text_19">
     <!-- W_2(x) -->
     <g transform="translate(94.6 72.748563) scale(0.1 -0.1)">
      <defs>
       <path id="DejaVuSans-5f" d="M 3263 -1063 
L 3263 -1509 
L -63 -1509 
L -63 -1063 
L 3263 -1063 
z
" transform="scale(0.015625)"/>
      </defs>
      <use xlink:href="#DejaVuSans-57"/>
      <use xlink:href="#DejaVuSans-5f" x="98.876953"/>
      <use xlink:href="#DejaVuSans-32" x="148.876953"/>
      <use xlink:href="#DejaVuSans-28" x="212.5"/>
      <use xlink:href="#DejaVuSans-78" x="251.513672"/>
      <use xlink:href="#DejaVuSans-29" x="310.693359"/>
     </g>
    </g>
    <g id="line2d_37">
     <path d="M 66.6 84.204813 
L 76.6 84.204813 
L 86.6 84.204813 
" style="fill: none; stroke: #2ca02c; stroke-width: 1.5; stroke-linecap: square"/>
    </g>
    <g id="text_20">
     <!-- W_3(x) -->
     <g transform="translate(94.6 87.704813) scale(0.1 -0.1)">
      <use xlink:href="#DejaVuSans-57"/>
      <use xlink:href="#DejaVuSans-5f" x="98.876953"/>
      <use xlink:href="#DejaVuSans-33" x="148.876953"/>
      <use xlink:href="#DejaVuSans-28" x="212.5"/>
      <use xlink:href="#DejaVuSans-78" x="251.513672"/>
      <use xlink:href="#DejaVuSans-29" x="310.693359"/>
     </g>
    </g>
    <g id="line2d_38">
     <path d="M 66.6 99.161063 
L 76.6 99.161063 
L 86.6 99.161063 
" style="fill: none; stroke: #d62728; stroke-width: 1.5; stroke-linecap: square"/>
    </g>
    <g id="text_21">
     <!-- W_4(x) -->
     <g transform="translate(94.6 102.661063) scale(0.1 -0.1)">
      <use xlink:href="#DejaVuSans-57"/>
      <use xlink:href="#DejaVuSans-5f" x="98.876953"/>
      <use xlink:href="#DejaVuSans-34" x="148.876953"/>
      <use xlink:href="#DejaVuSans-28" x="212.5"/>
      <use xlink:href="#DejaVuSans-78" x="251.513672"/>
      <use xlink:href="#DejaVuSans-29" x="310.693359"/>
     </g>
    </g>
    <g id="line2d_39">
     <path d="M 66.6 114.117313 
L 76.6 114.117313 
L 86.6 114.117313 
" style="fill: none; stroke: #9467bd; stroke-width: 1.5; stroke-linecap: square"/>
    </g>
    <g id="text_22">
     <!-- W_8(x) -->
     <g transform="translate(94.6 117.617313) scale(0.1 -0.1)">
      <defs>
       <path id="DejaVuSans-38" d="M 2034 2216 
Q 1584 2216 1326 1975 
Q 1069 1734 1069 1313 
Q 1069 891 1326 650 
Q 1584 409 2034 409 
Q 2484 409 2743 651 
Q 3003 894 3003 1313 
Q 3003 1734 2745 1975 
Q 2488 2216 2034 2216 
z
M 1403 2484 
Q 997 2584 770 2862 
Q 544 3141 544 3541 
Q 544 4100 942 4425 
Q 1341 4750 2034 4750 
Q 2731 4750 3128 4425 
Q 3525 4100 3525 3541 
Q 3525 3141 3298 2862 
Q 3072 2584 2669 2484 
Q 3125 2378 3379 2068 
Q 3634 1759 3634 1313 
Q 3634 634 3220 271 
Q 2806 -91 2034 -91 
Q 1263 -91 848 271 
Q 434 634 434 1313 
Q 434 1759 690 2068 
Q 947 2378 1403 2484 
z
M 1172 3481 
Q 1172 3119 1398 2916 
Q 1625 2713 2034 2713 
Q 2441 2713 2670 2916 
Q 2900 3119 2900 3481 
Q 2900 3844 2670 4047 
Q 2441 4250 2034 4250 
Q 1625 4250 1398 4047 
Q 1172 3844 1172 3481 
z
" transform="scale(0.015625)"/>
      </defs>
      <use xlink:href="#DejaVuSans-57"/>
      <use xlink:href="#DejaVuSans-5f" x="98.876953"/>
      <use xlink:href="#DejaVuSans-38" x="148.876953"/>
      <use xlink:href="#DejaVuSans-28" x="212.5"/>
      <use xlink:href="#DejaVuSans-78" x="251.513672"/>
      <use xlink:href="#DejaVuSans-29" x="310.693359"/>
     </g>
    </g>
    <g id="line2d_40">
     <path d="M 66.6 129.073563 
L 76.6 129.073563 
L 86.6 129.073563 
" style="fill: none; stroke: #8c564b; stroke-width: 1.5; stroke-linecap: square"/>
    </g>
    <g id="text_23">
     <!-- W_15(x) -->
     <g transform="translate(94.6 132.573563) scale(0.1 -0.1)">
      <use xlink:href="#DejaVuSans-57"/>
      <use xlink:href="#DejaVuSans-5f" x="98.876953"/>
      <use xlink:href="#DejaVuSans-31" x="148.876953"/>
      <use xlink:href="#DejaVuSans-35" x="212.5"/>
      <use xlink:href="#DejaVuSans-28" x="276.123047"/>
      <use xlink:href="#DejaVuSans-78" x="315.136719"/>
      <use xlink:href="#DejaVuSans-29" x="374.316406"/>
     </g>
    </g>
   </g>
  </g>
 </g>
 <defs>
  <clipPath id="p94f4065456">
   <rect x="57.6" y="41.472" width="357.12" height="266.112"/>
  </clipPath>
 </defs>
</svg>
