<?xml version="1.0" encoding="utf-8" standalone="no"?>
<!DOCTYPE svg PUBLIC "-//W3C//DTD SVG 1.1//EN"
  "http://www.w3.org/Graphics/SVG/1.1/DTD/svg11.dtd">
<svg xmlns:xlink="http://www.w3.org/1999/xlink" width="460.8pt" height="345.6pt" viewBox="0 0 460.8 345.6" xmlns="http://www.w3.org/2000/svg" version="1.1">
 <metadata>
  <rdf:RDF xmlns:dc="http://purl.org/dc/elements/1.1/" xmlns:cc="http://creativecommons.org/ns#" xmlns:rdf="http://www.w3.org/1999/02/22-rdf-syntax-ns#">
   <cc:Work>
    <dc:type rdf:resource="http://purl.org/dc/dcmitype/StillImage"/>
    <dc:date>2023-12-23T21:11:44.666542</dc:date>
    <dc:format>image/svg+xml</dc:format>
    <dc:creator>
     <cc:Agent>
      <dc:title>Matplotlib v3.8.1, https://matplotlib.org/</dc:title>
     </cc:Agent>
    </dc:creator>
   </cc:Work>
  </rdf:RDF>
 </metadata>
 <defs>
  <style type="text/css">*{stroke-linejoin: round; stroke-linecap: butt}</style>
 </defs>
 <g id="figure_1">
  <g id="patch_1">
   <path d="M 0 345.6 
L 460.8 345.6 
L 460.8 0 
L 0 0 
z
" style="fill: #ffffff"/>
  </g>
  <g id="axes_1">
   <g id="patch_2">
    <path d="M 57.6 307.584 
L 414.72 307.584 
L 414.72 41.472 
L 57.6 41.472 
z
" style="fill: #ffffff"/>
   </g>
   <g id="matplotlib.axis_1">
    <g id="xtick_1">
     <g id="line2d_1">
      <path d="M 57.6 307.584 
L 57.6 41.472 
" clip-path="url(#pc96cc0f4b6)" style="fill: none; stroke: #b0b0b0; stroke-width: 0.8; stroke-linecap: square"/>
     </g>
     <g id="line2d_2">
      <defs>
       <path id="m4344b0f220" d="M 0 0 
L 0 3.5 
" style="stroke: #000000; stroke-width: 0.8"/>
      </defs>
      <g>
       <use xlink:href="#m4344b0f220" x="57.6" y="307.584" style="stroke: #000000; stroke-width: 0.8"/>
      </g>
     </g>
     <g id="text_1">
      <!-- −1.00 -->
      <g transform="translate(42.277344 322.182437) scale(0.1 -0.1)">
       <defs>
        <path id="DejaVuSans-2212" d="M 678 2272 
L 4684 2272 
L 4684 1741 
L 678 1741 
L 678 2272 
z
" transform="scale(0.015625)"/>
        <path id="DejaVuSans-31" d="M 794 531 
L 1825 531 
L 1825 4091 
L 703 3866 
L 703 4441 
L 1819 4666 
L 2450 4666 
L 2450 531 
L 3481 531 
L 3481 0 
L 794 0 
L 794 531 
z
" transform="scale(0.015625)"/>
        <path id="DejaVuSans-2e" d="M 684 794 
L 1344 794 
L 1344 0 
L 684 0 
L 684 794 
z
" transform="scale(0.015625)"/>
        <path id="DejaVuSans-30" d="M 2034 4250 
Q 1547 4250 1301 3770 
Q 1056 3291 1056 2328 
Q 1056 1369 1301 889 
Q 1547 409 2034 409 
Q 2525 409 2770 889 
Q 3016 1369 3016 2328 
Q 3016 3291 2770 3770 
Q 2525 4250 2034 4250 
z
M 2034 4750 
Q 2819 4750 3233 4129 
Q 3647 3509 3647 2328 
Q 3647 1150 3233 529 
Q 2819 -91 2034 -91 
Q 1250 -91 836 529 
Q 422 1150 422 2328 
Q 422 3509 836 4129 
Q 1250 4750 2034 4750 
z
" transform="scale(0.015625)"/>
       </defs>
       <use xlink:href="#DejaVuSans-2212"/>
       <use xlink:href="#DejaVuSans-31" x="83.789062"/>
       <use xlink:href="#DejaVuSans-2e" x="147.412109"/>
       <use xlink:href="#DejaVuSans-30" x="179.199219"/>
       <use xlink:href="#DejaVuSans-30" x="242.822266"/>
      </g>
     </g>
    </g>
    <g id="xtick_2">
     <g id="line2d_3">
      <path d="M 102.24 307.584 
L 102.24 41.472 
" clip-path="url(#pc96cc0f4b6)" style="fill: none; stroke: #b0b0b0; stroke-width: 0.8; stroke-linecap: square"/>
     </g>
     <g id="line2d_4">
      <g>
       <use xlink:href="#m4344b0f220" x="102.24" y="307.584" style="stroke: #000000; stroke-width: 0.8"/>
      </g>
     </g>
     <g id="text_2">
      <!-- −0.75 -->
      <g transform="translate(86.917344 322.182437) scale(0.1 -0.1)">
       <defs>
        <path id="DejaVuSans-37" d="M 525 4666 
L 3525 4666 
L 3525 4397 
L 1831 0 
L 1172 0 
L 2766 4134 
L 525 4134 
L 525 4666 
z
" transform="scale(0.015625)"/>
        <path id="DejaVuSans-35" d="M 691 4666 
L 3169 4666 
L 3169 4134 
L 1269 4134 
L 1269 2991 
Q 1406 3038 1543 3061 
Q 1681 3084 1819 3084 
Q 2600 3084 3056 2656 
Q 3513 2228 3513 1497 
Q 3513 744 3044 326 
Q 2575 -91 1722 -91 
Q 1428 -91 1123 -41 
Q 819 9 494 109 
L 494 744 
Q 775 591 1075 516 
Q 1375 441 1709 441 
Q 2250 441 2565 725 
Q 2881 1009 2881 1497 
Q 2881 1984 2565 2268 
Q 2250 2553 1709 2553 
Q 1456 2553 1204 2497 
Q 953 2441 691 2322 
L 691 4666 
z
" transform="scale(0.015625)"/>
       </defs>
       <use xlink:href="#DejaVuSans-2212"/>
       <use xlink:href="#DejaVuSans-30" x="83.789062"/>
       <use xlink:href="#DejaVuSans-2e" x="147.412109"/>
       <use xlink:href="#DejaVuSans-37" x="179.199219"/>
       <use xlink:href="#DejaVuSans-35" x="242.822266"/>
      </g>
     </g>
    </g>
    <g id="xtick_3">
     <g id="line2d_5">
      <path d="M 146.88 307.584 
L 146.88 41.472 
" clip-path="url(#pc96cc0f4b6)" style="fill: none; stroke: #b0b0b0; stroke-width: 0.8; stroke-linecap: square"/>
     </g>
     <g id="line2d_6">
      <g>
       <use xlink:href="#m4344b0f220" x="146.88" y="307.584" style="stroke: #000000; stroke-width: 0.8"/>
      </g>
     </g>
     <g id="text_3">
      <!-- −0.50 -->
      <g transform="translate(131.557344 322.182437) scale(0.1 -0.1)">
       <use xlink:href="#DejaVuSans-2212"/>
       <use xlink:href="#DejaVuSans-30" x="83.789062"/>
       <use xlink:href="#DejaVuSans-2e" x="147.412109"/>
       <use xlink:href="#DejaVuSans-35" x="179.199219"/>
       <use xlink:href="#DejaVuSans-30" x="242.822266"/>
      </g>
     </g>
    </g>
    <g id="xtick_4">
     <g id="line2d_7">
      <path d="M 191.52 307.584 
L 191.52 41.472 
" clip-path="url(#pc96cc0f4b6)" style="fill: none; stroke: #b0b0b0; stroke-width: 0.8; stroke-linecap: square"/>
     </g>
     <g id="line2d_8">
      <g>
       <use xlink:href="#m4344b0f220" x="191.52" y="307.584" style="stroke: #000000; stroke-width: 0.8"/>
      </g>
     </g>
     <g id="text_4">
      <!-- −0.25 -->
      <g transform="translate(176.197344 322.182437) scale(0.1 -0.1)">
       <defs>
        <path id="DejaVuSans-32" d="M 1228 531 
L 3431 531 
L 3431 0 
L 469 0 
L 469 531 
Q 828 903 1448 1529 
Q 2069 2156 2228 2338 
Q 2531 2678 2651 2914 
Q 2772 3150 2772 3378 
Q 2772 3750 2511 3984 
Q 2250 4219 1831 4219 
Q 1534 4219 1204 4116 
Q 875 4013 500 3803 
L 500 4441 
Q 881 4594 1212 4672 
Q 1544 4750 1819 4750 
Q 2544 4750 2975 4387 
Q 3406 4025 3406 3419 
Q 3406 3131 3298 2873 
Q 3191 2616 2906 2266 
Q 2828 2175 2409 1742 
Q 1991 1309 1228 531 
z
" transform="scale(0.015625)"/>
       </defs>
       <use xlink:href="#DejaVuSans-2212"/>
       <use xlink:href="#DejaVuSans-30" x="83.789062"/>
       <use xlink:href="#DejaVuSans-2e" x="147.412109"/>
       <use xlink:href="#DejaVuSans-32" x="179.199219"/>
       <use xlink:href="#DejaVuSans-35" x="242.822266"/>
      </g>
     </g>
    </g>
    <g id="xtick_5">
     <g id="line2d_9">
      <path d="M 236.16 307.584 
L 236.16 41.472 
" clip-path="url(#pc96cc0f4b6)" style="fill: none; stroke: #b0b0b0; stroke-width: 0.8; stroke-linecap: square"/>
     </g>
     <g id="line2d_10">
      <g>
       <use xlink:href="#m4344b0f220" x="236.16" y="307.584" style="stroke: #000000; stroke-width: 0.8"/>
      </g>
     </g>
     <g id="text_5">
      <!-- 0.00 -->
      <g transform="translate(225.027187 322.182437) scale(0.1 -0.1)">
       <use xlink:href="#DejaVuSans-30"/>
       <use xlink:href="#DejaVuSans-2e" x="63.623047"/>
       <use xlink:href="#DejaVuSans-30" x="95.410156"/>
       <use xlink:href="#DejaVuSans-30" x="159.033203"/>
      </g>
     </g>
    </g>
    <g id="xtick_6">
     <g id="line2d_11">
      <path d="M 280.8 307.584 
L 280.8 41.472 
" clip-path="url(#pc96cc0f4b6)" style="fill: none; stroke: #b0b0b0; stroke-width: 0.8; stroke-linecap: square"/>
     </g>
     <g id="line2d_12">
      <g>
       <use xlink:href="#m4344b0f220" x="280.8" y="307.584" style="stroke: #000000; stroke-width: 0.8"/>
      </g>
     </g>
     <g id="text_6">
      <!-- 0.25 -->
      <g transform="translate(269.667188 322.182437) scale(0.1 -0.1)">
       <use xlink:href="#DejaVuSans-30"/>
       <use xlink:href="#DejaVuSans-2e" x="63.623047"/>
       <use xlink:href="#DejaVuSans-32" x="95.410156"/>
       <use xlink:href="#DejaVuSans-35" x="159.033203"/>
      </g>
     </g>
    </g>
    <g id="xtick_7">
     <g id="line2d_13">
      <path d="M 325.44 307.584 
L 325.44 41.472 
" clip-path="url(#pc96cc0f4b6)" style="fill: none; stroke: #b0b0b0; stroke-width: 0.8; stroke-linecap: square"/>
     </g>
     <g id="line2d_14">
      <g>
       <use xlink:href="#m4344b0f220" x="325.44" y="307.584" style="stroke: #000000; stroke-width: 0.8"/>
      </g>
     </g>
     <g id="text_7">
      <!-- 0.50 -->
      <g transform="translate(314.307187 322.182437) scale(0.1 -0.1)">
       <use xlink:href="#DejaVuSans-30"/>
       <use xlink:href="#DejaVuSans-2e" x="63.623047"/>
       <use xlink:href="#DejaVuSans-35" x="95.410156"/>
       <use xlink:href="#DejaVuSans-30" x="159.033203"/>
      </g>
     </g>
    </g>
    <g id="xtick_8">
     <g id="line2d_15">
      <path d="M 370.08 307.584 
L 370.08 41.472 
" clip-path="url(#pc96cc0f4b6)" style="fill: none; stroke: #b0b0b0; stroke-width: 0.8; stroke-linecap: square"/>
     </g>
     <g id="line2d_16">
      <g>
       <use xlink:href="#m4344b0f220" x="370.08" y="307.584" style="stroke: #000000; stroke-width: 0.8"/>
      </g>
     </g>
     <g id="text_8">
      <!-- 0.75 -->
      <g transform="translate(358.947188 322.182437) scale(0.1 -0.1)">
       <use xlink:href="#DejaVuSans-30"/>
       <use xlink:href="#DejaVuSans-2e" x="63.623047"/>
       <use xlink:href="#DejaVuSans-37" x="95.410156"/>
       <use xlink:href="#DejaVuSans-35" x="159.033203"/>
      </g>
     </g>
    </g>
    <g id="xtick_9">
     <g id="line2d_17">
      <path d="M 414.72 307.584 
L 414.72 41.472 
" clip-path="url(#pc96cc0f4b6)" style="fill: none; stroke: #b0b0b0; stroke-width: 0.8; stroke-linecap: square"/>
     </g>
     <g id="line2d_18">
      <g>
       <use xlink:href="#m4344b0f220" x="414.72" y="307.584" style="stroke: #000000; stroke-width: 0.8"/>
      </g>
     </g>
     <g id="text_9">
      <!-- 1.00 -->
      <g transform="translate(403.587188 322.182437) scale(0.1 -0.1)">
       <use xlink:href="#DejaVuSans-31"/>
       <use xlink:href="#DejaVuSans-2e" x="63.623047"/>
       <use xlink:href="#DejaVuSans-30" x="95.410156"/>
       <use xlink:href="#DejaVuSans-30" x="159.033203"/>
      </g>
     </g>
    </g>
    <g id="text_10">
     <!-- x -->
     <g transform="translate(233.200625 335.860562) scale(0.1 -0.1)">
      <defs>
       <path id="DejaVuSans-78" d="M 3513 3500 
L 2247 1797 
L 3578 0 
L 2900 0 
L 1881 1375 
L 863 0 
L 184 0 
L 1544 1831 
L 300 3500 
L 978 3500 
L 1906 2253 
L 2834 3500 
L 3513 3500 
z
" transform="scale(0.015625)"/>
      </defs>
      <use xlink:href="#DejaVuSans-78"/>
     </g>
    </g>
   </g>
   <g id="matplotlib.axis_2">
    <g id="ytick_1">
     <g id="line2d_19">
      <path d="M 57.6 280.9728 
L 414.72 280.9728 
" clip-path="url(#pc96cc0f4b6)" style="fill: none; stroke: #b0b0b0; stroke-width: 0.8; stroke-linecap: square"/>
     </g>
     <g id="line2d_20">
      <defs>
       <path id="m464e8dfd98" d="M 0 0 
L -3.5 0 
" style="stroke: #000000; stroke-width: 0.8"/>
      </defs>
      <g>
       <use xlink:href="#m464e8dfd98" x="57.6" y="280.9728" style="stroke: #000000; stroke-width: 0.8"/>
      </g>
     </g>
     <g id="text_11">
      <!-- −4 -->
      <g transform="translate(35.857813 284.772019) scale(0.1 -0.1)">
       <defs>
        <path id="DejaVuSans-34" d="M 2419 4116 
L 825 1625 
L 2419 1625 
L 2419 4116 
z
M 2253 4666 
L 3047 4666 
L 3047 1625 
L 3713 1625 
L 3713 1100 
L 3047 1100 
L 3047 0 
L 2419 0 
L 2419 1100 
L 313 1100 
L 313 1709 
L 2253 4666 
z
" transform="scale(0.015625)"/>
       </defs>
       <use xlink:href="#DejaVuSans-2212"/>
       <use xlink:href="#DejaVuSans-34" x="83.789062"/>
      </g>
     </g>
    </g>
    <g id="ytick_2">
     <g id="line2d_21">
      <path d="M 57.6 227.7504 
L 414.72 227.7504 
" clip-path="url(#pc96cc0f4b6)" style="fill: none; stroke: #b0b0b0; stroke-width: 0.8; stroke-linecap: square"/>
     </g>
     <g id="line2d_22">
      <g>
       <use xlink:href="#m464e8dfd98" x="57.6" y="227.7504" style="stroke: #000000; stroke-width: 0.8"/>
      </g>
     </g>
     <g id="text_12">
      <!-- −2 -->
      <g transform="translate(35.857813 231.549619) scale(0.1 -0.1)">
       <use xlink:href="#DejaVuSans-2212"/>
       <use xlink:href="#DejaVuSans-32" x="83.789062"/>
      </g>
     </g>
    </g>
    <g id="ytick_3">
     <g id="line2d_23">
      <path d="M 57.6 174.528 
L 414.72 174.528 
" clip-path="url(#pc96cc0f4b6)" style="fill: none; stroke: #b0b0b0; stroke-width: 0.8; stroke-linecap: square"/>
     </g>
     <g id="line2d_24">
      <g>
       <use xlink:href="#m464e8dfd98" x="57.6" y="174.528" style="stroke: #000000; stroke-width: 0.8"/>
      </g>
     </g>
     <g id="text_13">
      <!-- 0 -->
      <g transform="translate(44.2375 178.327219) scale(0.1 -0.1)">
       <use xlink:href="#DejaVuSans-30"/>
      </g>
     </g>
    </g>
    <g id="ytick_4">
     <g id="line2d_25">
      <path d="M 57.6 121.3056 
L 414.72 121.3056 
" clip-path="url(#pc96cc0f4b6)" style="fill: none; stroke: #b0b0b0; stroke-width: 0.8; stroke-linecap: square"/>
     </g>
     <g id="line2d_26">
      <g>
       <use xlink:href="#m464e8dfd98" x="57.6" y="121.3056" style="stroke: #000000; stroke-width: 0.8"/>
      </g>
     </g>
     <g id="text_14">
      <!-- 2 -->
      <g transform="translate(44.2375 125.104819) scale(0.1 -0.1)">
       <use xlink:href="#DejaVuSans-32"/>
      </g>
     </g>
    </g>
    <g id="ytick_5">
     <g id="line2d_27">
      <path d="M 57.6 68.0832 
L 414.72 68.0832 
" clip-path="url(#pc96cc0f4b6)" style="fill: none; stroke: #b0b0b0; stroke-width: 0.8; stroke-linecap: square"/>
     </g>
     <g id="line2d_28">
      <g>
       <use xlink:href="#m464e8dfd98" x="57.6" y="68.0832" style="stroke: #000000; stroke-width: 0.8"/>
      </g>
     </g>
     <g id="text_15">
      <!-- 4 -->
      <g transform="translate(44.2375 71.882419) scale(0.1 -0.1)">
       <use xlink:href="#DejaVuSans-34"/>
      </g>
     </g>
    </g>
    <g id="text_16">
     <!-- y -->
     <g transform="translate(29.778125 177.487375) rotate(-90) scale(0.1 -0.1)">
      <defs>
       <path id="DejaVuSans-79" d="M 2059 -325 
Q 1816 -950 1584 -1140 
Q 1353 -1331 966 -1331 
L 506 -1331 
L 506 -850 
L 844 -850 
Q 1081 -850 1212 -737 
Q 1344 -625 1503 -206 
L 1606 56 
L 191 3500 
L 800 3500 
L 1894 763 
L 2988 3500 
L 3597 3500 
L 2059 -325 
z
" transform="scale(0.015625)"/>
      </defs>
      <use xlink:href="#DejaVuSans-79"/>
     </g>
    </g>
   </g>
   <g id="line2d_29">
    <path d="M 57.6 174.006212 
L 99.424865 173.650199 
L 125.163243 173.219772 
L 142.67964 172.714391 
L 156.978739 172.081772 
L 166.273153 171.468847 
L 173.78018 170.761654 
L 180.92973 169.869873 
L 188.079279 168.755134 
L 194.156396 167.593738 
L 198.088649 166.619232 
L 201.305946 165.611338 
L 204.165766 164.510382 
L 207.025586 163.177825 
L 209.885405 161.5835 
L 213.46018 159.302739 
L 222.754595 153.211387 
L 225.614414 151.679851 
L 228.116757 150.610439 
L 230.261622 149.922267 
L 232.406486 149.44584 
L 234.551351 149.181159 
L 236.696216 149.128223 
L 238.841081 149.287032 
L 240.985946 149.657586 
L 243.130811 150.239885 
L 245.275676 151.033929 
L 247.778018 152.220138 
L 250.637838 153.852003 
L 254.57009 156.399986 
L 262.434595 161.5835 
L 265.294414 163.177825 
L 268.154234 164.510382 
L 271.014054 165.611338 
L 274.231351 166.619232 
L 277.806126 167.514552 
L 282.453333 168.440535 
L 289.602883 169.61242 
L 296.752432 170.55915 
L 304.259459 171.320499 
L 312.481441 171.917522 
L 323.563243 172.474866 
L 338.577297 173.002605 
L 357.166126 173.41761 
L 383.976937 173.773601 
L 414.72 174.006212 
L 414.72 174.006212 
" clip-path="url(#pc96cc0f4b6)" style="fill: none; stroke-dasharray: 18.5,8; stroke-dashoffset: 0; stroke: #1f77b4; stroke-width: 5"/>
   </g>
   <g id="line2d_30">
    <path d="M 57.6 174.006212 
L 70.0992 170.481532 
L 82.5984 167.212529 
L 95.0976 164.199202 
L 107.5968 161.441551 
L 120.096 158.939576 
L 132.5952 156.693278 
L 145.0944 154.702656 
L 157.5936 152.96771 
L 170.0928 151.48844 
L 182.592 150.264847 
L 195.0912 149.29693 
L 207.5904 148.584689 
L 220.0896 148.128124 
L 232.5888 147.927236 
L 245.088 147.982024 
L 257.5872 148.292488 
L 270.0864 148.858628 
L 282.5856 149.680444 
L 295.0848 150.757937 
L 307.584 152.091106 
L 320.0832 153.679951 
L 332.5824 155.524472 
L 345.0816 157.62467 
L 357.5808 159.980544 
L 370.08 162.592094 
L 382.5792 165.45932 
L 395.0784 168.582223 
L 407.5776 171.960802 
L 412.9344 173.487032 
L 412.9344 173.487032 
" clip-path="url(#pc96cc0f4b6)" style="fill: none; stroke: #ff7f0e; stroke-width: 1.5; stroke-linecap: square"/>
   </g>
   <g id="line2d_31">
    <path d="M 57.6 174.006212 
L 87.9552 172.768114 
L 118.3104 171.760046 
L 148.6656 170.982007 
L 179.0208 170.433996 
L 209.376 170.116015 
L 239.7312 170.028063 
L 270.0864 170.17014 
L 300.4416 170.542245 
L 330.7968 171.14438 
L 361.152 171.976544 
L 391.5072 173.038737 
L 412.9344 173.927015 
L 412.9344 173.927015 
" clip-path="url(#pc96cc0f4b6)" style="fill: none; stroke: #2ca02c; stroke-width: 1.5; stroke-linecap: square"/>
   </g>
   <g id="line2d_32">
    <path d="M 57.6 174.006212 
L 61.1712 176.647991 
L 64.7424 178.942468 
L 68.3136 180.907638 
L 71.8848 182.561127 
L 75.456 183.920188 
L 79.0272 185.001705 
L 82.5984 185.822188 
L 86.1696 186.397778 
L 89.7408 186.744245 
L 93.312 186.876988 
L 96.8832 186.811034 
L 100.4544 186.56104 
L 104.0256 186.14129 
L 109.3824 185.223711 
L 114.7392 184.000799 
L 120.096 182.516071 
L 125.4528 180.811165 
L 132.5952 178.263911 
L 141.5232 174.763596 
L 154.0224 169.557237 
L 168.3072 163.622301 
L 177.2352 160.134741 
L 184.3776 157.553861 
L 191.52 155.209153 
L 198.6624 153.140692 
L 204.0192 151.791391 
L 209.376 150.629012 
L 214.7328 149.663886 
L 220.0896 148.904467 
L 225.4464 148.357328 
L 230.8032 148.027167 
L 236.16 147.9168 
L 241.5168 148.027167 
L 246.8736 148.357328 
L 252.2304 148.904467 
L 257.5872 149.663886 
L 262.944 150.629012 
L 268.3008 151.791391 
L 273.6576 153.140692 
L 280.8 155.209153 
L 287.9424 157.553861 
L 295.0848 160.134741 
L 304.0128 163.622301 
L 316.512 168.804635 
L 332.5824 175.484751 
L 341.5104 178.925843 
L 348.6528 181.401438 
L 354.0096 183.037462 
L 359.3664 184.439637 
L 364.7232 185.5657 
L 368.2944 186.14129 
L 371.8656 186.56104 
L 375.4368 186.811034 
L 379.008 186.876988 
L 382.5792 186.744245 
L 386.1504 186.397778 
L 389.7216 185.822188 
L 393.2928 185.001705 
L 396.864 183.920188 
L 400.4352 182.561127 
L 404.0064 180.907638 
L 407.5776 178.942468 
L 411.1488 176.647991 
L 412.9344 175.371653 
L 412.9344 175.371653 
" clip-path="url(#pc96cc0f4b6)" style="fill: none; stroke: #d62728; stroke-width: 1.5; stroke-linecap: square"/>
   </g>
   <g id="line2d_33">
    <path d="M 57.6 174.006212 
L 59.3856 170.106534 
L 61.1712 166.702262 
L 62.9568 163.760215 
L 64.7424 161.248534 
L 66.528 159.136646 
L 68.3136 157.39524 
L 70.0992 155.996235 
L 71.8848 154.912749 
L 73.6704 154.119074 
L 75.456 153.590644 
L 77.2416 153.30401 
L 79.0272 153.236809 
L 80.8128 153.367738 
L 82.5984 153.676526 
L 84.384 154.14391 
L 86.1696 154.751603 
L 89.7408 156.319507 
L 93.312 158.252532 
L 96.8832 160.436974 
L 104.0256 165.170551 
L 111.168 169.860823 
L 116.5248 173.052749 
L 120.096 174.939534 
L 123.6672 176.593902 
L 127.2384 177.990904 
L 130.8096 179.112792 
L 134.3808 179.948416 
L 137.952 180.492625 
L 141.5232 180.745697 
L 145.0944 180.712789 
L 148.6656 180.403399 
L 152.2368 179.830855 
L 155.808 179.011822 
L 159.3792 177.965828 
L 162.9504 176.714809 
L 166.5216 175.282674 
L 171.8784 172.850926 
L 177.2352 170.159726 
L 186.1632 165.352324 
L 196.8768 159.581833 
L 202.2336 156.901031 
L 207.5904 154.462232 
L 212.9472 152.334381 
L 216.5184 151.118168 
L 220.0896 150.081455 
L 223.6608 149.23678 
L 227.232 148.59429 
L 230.8032 148.161666 
L 234.3744 147.944061 
L 237.9456 147.944061 
L 241.5168 148.161666 
L 245.088 148.59429 
L 248.6592 149.23678 
L 252.2304 150.081455 
L 255.8016 151.118168 
L 259.3728 152.334381 
L 264.7296 154.462232 
L 270.0864 156.901031 
L 275.4432 159.581833 
L 284.3712 164.373832 
L 295.0848 170.159726 
L 300.4416 172.850926 
L 305.7984 175.282674 
L 309.3696 176.714809 
L 312.9408 177.965828 
L 316.512 179.011822 
L 320.0832 179.830855 
L 323.6544 180.403399 
L 327.2256 180.712789 
L 330.7968 180.745697 
L 334.368 180.492625 
L 337.9392 179.948416 
L 341.5104 179.112792 
L 345.0816 177.990904 
L 348.6528 176.593902 
L 352.224 174.939534 
L 355.7952 173.052749 
L 359.3664 170.966338 
L 364.7232 167.555206 
L 377.2224 159.319907 
L 380.7936 157.247805 
L 384.3648 155.482271 
L 386.1504 154.751603 
L 387.936 154.14391 
L 389.7216 153.676526 
L 391.5072 153.367738 
L 393.2928 153.236809 
L 395.0784 153.30401 
L 396.864 153.590644 
L 398.6496 154.119074 
L 400.4352 154.912749 
L 402.2208 155.996235 
L 404.0064 157.39524 
L 405.792 159.136646 
L 407.5776 161.248534 
L 409.3632 163.760215 
L 411.1488 166.702262 
L 412.9344 170.106534 
L 412.9344 170.106534 
" clip-path="url(#pc96cc0f4b6)" style="fill: none; stroke: #9467bd; stroke-width: 1.5; stroke-linecap: square"/>
   </g>
   <g id="line2d_34">
    <path d="M 57.6 174.006212 
L 57.606922 346.6 
M 69.896351 346.6 
L 70.042238 -1 
M 81.309709 -1 
L 82.5984 224.056677 
L 84.031125 346.6 
M 89.030368 346.6 
L 89.7408 322.087147 
L 91.5264 256.27152 
L 93.312 201.497168 
L 95.0976 164.033405 
L 96.8832 144.031288 
L 98.6688 138.196382 
L 100.4544 141.893714 
L 102.24 150.574859 
L 104.0256 160.579649 
L 105.8112 169.444879 
L 107.5968 175.875663 
L 109.3824 179.523768 
L 111.168 180.688332 
L 112.9536 180.019758 
L 114.7392 178.274774 
L 118.3104 174.151652 
L 120.096 172.622506 
L 121.8816 171.689835 
L 123.6672 171.336 
L 125.4528 171.443859 
L 127.2384 171.848408 
L 130.8096 172.895498 
L 132.5952 173.294444 
L 134.3808 173.52487 
L 136.1664 173.578364 
L 139.7376 173.273953 
L 146.88 172.330086 
L 150.4512 172.148009 
L 161.1648 171.957701 
L 166.5216 171.48965 
L 184.3776 169.472234 
L 187.9488 168.864424 
L 193.3056 167.665347 
L 198.6624 166.160459 
L 204.0192 164.348179 
L 207.5904 162.894188 
L 211.1616 161.162243 
L 214.7328 159.110987 
L 218.304 156.773747 
L 225.4464 151.884433 
L 227.232 150.806576 
L 229.0176 149.861601 
L 230.8032 149.084767 
L 232.5888 148.506328 
L 234.3744 148.149505 
L 236.16 148.028903 
L 237.9456 148.149505 
L 239.7312 148.506328 
L 241.5168 149.084767 
L 243.3024 149.861601 
L 245.088 150.806576 
L 248.6592 153.057203 
L 257.5872 159.110987 
L 261.1584 161.162243 
L 264.7296 162.894188 
L 268.3008 164.348179 
L 271.872 165.595134 
L 277.2288 167.195083 
L 282.5856 168.502394 
L 286.1568 169.187289 
L 291.5136 169.945005 
L 307.584 171.671832 
L 312.9408 172.047483 
L 318.2976 172.12371 
L 323.6544 172.211027 
L 327.2256 172.511023 
L 336.1536 173.578364 
L 337.9392 173.52487 
L 339.7248 173.294444 
L 341.5104 172.895498 
L 346.8672 171.443859 
L 348.6528 171.336 
L 350.4384 171.689835 
L 352.224 172.622506 
L 354.0096 174.151652 
L 359.3664 180.019758 
L 361.152 180.688332 
L 362.9376 179.523768 
L 364.7232 175.875663 
L 366.5088 169.444879 
L 368.2944 160.579649 
L 370.08 150.574859 
L 371.8656 141.893714 
L 373.6512 138.196382 
L 375.4368 144.031288 
L 377.2224 164.033405 
L 379.008 201.497168 
L 380.7936 256.27152 
L 383.289632 346.6 
M 388.288875 346.6 
L 389.7216 224.056677 
L 391.010291 -1 
M 402.277762 -1 
L 402.423649 346.6 
L 402.423649 346.6 
" clip-path="url(#pc96cc0f4b6)" style="fill: none; stroke: #8c564b; stroke-width: 1.5; stroke-linecap: square"/>
   </g>
   <g id="patch_3">
    <path d="M 57.6 307.584 
L 57.6 41.472 
" style="fill: none; stroke: #000000; stroke-width: 0.8; stroke-linejoin: miter; stroke-linecap: square"/>
   </g>
   <g id="patch_4">
    <path d="M 414.72 307.584 
L 414.72 41.472 
" style="fill: none; stroke: #000000; stroke-width: 0.8; stroke-linejoin: miter; stroke-linecap: square"/>
   </g>
   <g id="patch_5">
    <path d="M 57.6 307.584 
L 414.72 307.584 
" style="fill: none; stroke: #000000; stroke-width: 0.8; stroke-linejoin: miter; stroke-linecap: square"/>
   </g>
   <g id="patch_6">
    <path d="M 57.6 41.472 
L 414.72 41.472 
" style="fill: none; stroke: #000000; stroke-width: 0.8; stroke-linejoin: miter; stroke-linecap: square"/>
   </g>
   <g id="text_17">
    <!-- Wielomiany interpolacyjne dla funkcji -->
    <g transform="translate(123.610313 18.768375) scale(0.12 -0.12)">
     <defs>
      <path id="DejaVuSans-57" d="M 213 4666 
L 850 4666 
L 1831 722 
L 2809 4666 
L 3519 4666 
L 4500 722 
L 5478 4666 
L 6119 4666 
L 4947 0 
L 4153 0 
L 3169 4050 
L 2175 0 
L 1381 0 
L 213 4666 
z
" transform="scale(0.015625)"/>
      <path id="DejaVuSans-69" d="M 603 3500 
L 1178 3500 
L 1178 0 
L 603 0 
L 603 3500 
z
M 603 4863 
L 1178 4863 
L 1178 4134 
L 603 4134 
L 603 4863 
z
" transform="scale(0.015625)"/>
      <path id="DejaVuSans-65" d="M 3597 1894 
L 3597 1613 
L 953 1613 
Q 991 1019 1311 708 
Q 1631 397 2203 397 
Q 2534 397 2845 478 
Q 3156 559 3463 722 
L 3463 178 
Q 3153 47 2828 -22 
Q 2503 -91 2169 -91 
Q 1331 -91 842 396 
Q 353 884 353 1716 
Q 353 2575 817 3079 
Q 1281 3584 2069 3584 
Q 2775 3584 3186 3129 
Q 3597 2675 3597 1894 
z
M 3022 2063 
Q 3016 2534 2758 2815 
Q 2500 3097 2075 3097 
Q 1594 3097 1305 2825 
Q 1016 2553 972 2059 
L 3022 2063 
z
" transform="scale(0.015625)"/>
      <path id="DejaVuSans-6c" d="M 603 4863 
L 1178 4863 
L 1178 0 
L 603 0 
L 603 4863 
z
" transform="scale(0.015625)"/>
      <path id="DejaVuSans-6f" d="M 1959 3097 
Q 1497 3097 1228 2736 
Q 959 2375 959 1747 
Q 959 1119 1226 758 
Q 1494 397 1959 397 
Q 2419 397 2687 759 
Q 2956 1122 2956 1747 
Q 2956 2369 2687 2733 
Q 2419 3097 1959 3097 
z
M 1959 3584 
Q 2709 3584 3137 3096 
Q 3566 2609 3566 1747 
Q 3566 888 3137 398 
Q 2709 -91 1959 -91 
Q 1206 -91 779 398 
Q 353 888 353 1747 
Q 353 2609 779 3096 
Q 1206 3584 1959 3584 
z
" transform="scale(0.015625)"/>
      <path id="DejaVuSans-6d" d="M 3328 2828 
Q 3544 3216 3844 3400 
Q 4144 3584 4550 3584 
Q 5097 3584 5394 3201 
Q 5691 2819 5691 2113 
L 5691 0 
L 5113 0 
L 5113 2094 
Q 5113 2597 4934 2840 
Q 4756 3084 4391 3084 
Q 3944 3084 3684 2787 
Q 3425 2491 3425 1978 
L 3425 0 
L 2847 0 
L 2847 2094 
Q 2847 2600 2669 2842 
Q 2491 3084 2119 3084 
Q 1678 3084 1418 2786 
Q 1159 2488 1159 1978 
L 1159 0 
L 581 0 
L 581 3500 
L 1159 3500 
L 1159 2956 
Q 1356 3278 1631 3431 
Q 1906 3584 2284 3584 
Q 2666 3584 2933 3390 
Q 3200 3197 3328 2828 
z
" transform="scale(0.015625)"/>
      <path id="DejaVuSans-61" d="M 2194 1759 
Q 1497 1759 1228 1600 
Q 959 1441 959 1056 
Q 959 750 1161 570 
Q 1363 391 1709 391 
Q 2188 391 2477 730 
Q 2766 1069 2766 1631 
L 2766 1759 
L 2194 1759 
z
M 3341 1997 
L 3341 0 
L 2766 0 
L 2766 531 
Q 2569 213 2275 61 
Q 1981 -91 1556 -91 
Q 1019 -91 701 211 
Q 384 513 384 1019 
Q 384 1609 779 1909 
Q 1175 2209 1959 2209 
L 2766 2209 
L 2766 2266 
Q 2766 2663 2505 2880 
Q 2244 3097 1772 3097 
Q 1472 3097 1187 3025 
Q 903 2953 641 2809 
L 641 3341 
Q 956 3463 1253 3523 
Q 1550 3584 1831 3584 
Q 2591 3584 2966 3190 
Q 3341 2797 3341 1997 
z
" transform="scale(0.015625)"/>
      <path id="DejaVuSans-6e" d="M 3513 2113 
L 3513 0 
L 2938 0 
L 2938 2094 
Q 2938 2591 2744 2837 
Q 2550 3084 2163 3084 
Q 1697 3084 1428 2787 
Q 1159 2491 1159 1978 
L 1159 0 
L 581 0 
L 581 3500 
L 1159 3500 
L 1159 2956 
Q 1366 3272 1645 3428 
Q 1925 3584 2291 3584 
Q 2894 3584 3203 3211 
Q 3513 2838 3513 2113 
z
" transform="scale(0.015625)"/>
      <path id="DejaVuSans-20" transform="scale(0.015625)"/>
      <path id="DejaVuSans-74" d="M 1172 4494 
L 1172 3500 
L 2356 3500 
L 2356 3053 
L 1172 3053 
L 1172 1153 
Q 1172 725 1289 603 
Q 1406 481 1766 481 
L 2356 481 
L 2356 0 
L 1766 0 
Q 1100 0 847 248 
Q 594 497 594 1153 
L 594 3053 
L 172 3053 
L 172 3500 
L 594 3500 
L 594 4494 
L 1172 4494 
z
" transform="scale(0.015625)"/>
      <path id="DejaVuSans-72" d="M 2631 2963 
Q 2534 3019 2420 3045 
Q 2306 3072 2169 3072 
Q 1681 3072 1420 2755 
Q 1159 2438 1159 1844 
L 1159 0 
L 581 0 
L 581 3500 
L 1159 3500 
L 1159 2956 
Q 1341 3275 1631 3429 
Q 1922 3584 2338 3584 
Q 2397 3584 2469 3576 
Q 2541 3569 2628 3553 
L 2631 2963 
z
" transform="scale(0.015625)"/>
      <path id="DejaVuSans-70" d="M 1159 525 
L 1159 -1331 
L 581 -1331 
L 581 3500 
L 1159 3500 
L 1159 2969 
Q 1341 3281 1617 3432 
Q 1894 3584 2278 3584 
Q 2916 3584 3314 3078 
Q 3713 2572 3713 1747 
Q 3713 922 3314 415 
Q 2916 -91 2278 -91 
Q 1894 -91 1617 61 
Q 1341 213 1159 525 
z
M 3116 1747 
Q 3116 2381 2855 2742 
Q 2594 3103 2138 3103 
Q 1681 3103 1420 2742 
Q 1159 2381 1159 1747 
Q 1159 1113 1420 752 
Q 1681 391 2138 391 
Q 2594 391 2855 752 
Q 3116 1113 3116 1747 
z
" transform="scale(0.015625)"/>
      <path id="DejaVuSans-63" d="M 3122 3366 
L 3122 2828 
Q 2878 2963 2633 3030 
Q 2388 3097 2138 3097 
Q 1578 3097 1268 2742 
Q 959 2388 959 1747 
Q 959 1106 1268 751 
Q 1578 397 2138 397 
Q 2388 397 2633 464 
Q 2878 531 3122 666 
L 3122 134 
Q 2881 22 2623 -34 
Q 2366 -91 2075 -91 
Q 1284 -91 818 406 
Q 353 903 353 1747 
Q 353 2603 823 3093 
Q 1294 3584 2113 3584 
Q 2378 3584 2631 3529 
Q 2884 3475 3122 3366 
z
" transform="scale(0.015625)"/>
      <path id="DejaVuSans-6a" d="M 603 3500 
L 1178 3500 
L 1178 -63 
Q 1178 -731 923 -1031 
Q 669 -1331 103 -1331 
L -116 -1331 
L -116 -844 
L 38 -844 
Q 366 -844 484 -692 
Q 603 -541 603 -63 
L 603 3500 
z
M 603 4863 
L 1178 4863 
L 1178 4134 
L 603 4134 
L 603 4863 
z
" transform="scale(0.015625)"/>
      <path id="DejaVuSans-64" d="M 2906 2969 
L 2906 4863 
L 3481 4863 
L 3481 0 
L 2906 0 
L 2906 525 
Q 2725 213 2448 61 
Q 2172 -91 1784 -91 
Q 1150 -91 751 415 
Q 353 922 353 1747 
Q 353 2572 751 3078 
Q 1150 3584 1784 3584 
Q 2172 3584 2448 3432 
Q 2725 3281 2906 2969 
z
M 947 1747 
Q 947 1113 1208 752 
Q 1469 391 1925 391 
Q 2381 391 2643 752 
Q 2906 1113 2906 1747 
Q 2906 2381 2643 2742 
Q 2381 3103 1925 3103 
Q 1469 3103 1208 2742 
Q 947 2381 947 1747 
z
" transform="scale(0.015625)"/>
      <path id="DejaVuSans-66" d="M 2375 4863 
L 2375 4384 
L 1825 4384 
Q 1516 4384 1395 4259 
Q 1275 4134 1275 3809 
L 1275 3500 
L 2222 3500 
L 2222 3053 
L 1275 3053 
L 1275 0 
L 697 0 
L 697 3053 
L 147 3053 
L 147 3500 
L 697 3500 
L 697 3744 
Q 697 4328 969 4595 
Q 1241 4863 1831 4863 
L 2375 4863 
z
" transform="scale(0.015625)"/>
      <path id="DejaVuSans-75" d="M 544 1381 
L 544 3500 
L 1119 3500 
L 1119 1403 
Q 1119 906 1312 657 
Q 1506 409 1894 409 
Q 2359 409 2629 706 
Q 2900 1003 2900 1516 
L 2900 3500 
L 3475 3500 
L 3475 0 
L 2900 0 
L 2900 538 
Q 2691 219 2414 64 
Q 2138 -91 1772 -91 
Q 1169 -91 856 284 
Q 544 659 544 1381 
z
M 1991 3584 
L 1991 3584 
z
" transform="scale(0.015625)"/>
      <path id="DejaVuSans-6b" d="M 581 4863 
L 1159 4863 
L 1159 1991 
L 2875 3500 
L 3609 3500 
L 1753 1863 
L 3688 0 
L 2938 0 
L 1159 1709 
L 1159 0 
L 581 0 
L 581 4863 
z
" transform="scale(0.015625)"/>
     </defs>
     <use xlink:href="#DejaVuSans-57"/>
     <use xlink:href="#DejaVuSans-69" x="96.626953"/>
     <use xlink:href="#DejaVuSans-65" x="124.410156"/>
     <use xlink:href="#DejaVuSans-6c" x="185.933594"/>
     <use xlink:href="#DejaVuSans-6f" x="213.716797"/>
     <use xlink:href="#DejaVuSans-6d" x="274.898438"/>
     <use xlink:href="#DejaVuSans-69" x="372.310547"/>
     <use xlink:href="#DejaVuSans-61" x="400.09375"/>
     <use xlink:href="#DejaVuSans-6e" x="461.373047"/>
     <use xlink:href="#DejaVuSans-79" x="524.751953"/>
     <use xlink:href="#DejaVuSans-20" x="583.931641"/>
     <use xlink:href="#DejaVuSans-69" x="615.71875"/>
     <use xlink:href="#DejaVuSans-6e" x="643.501953"/>
     <use xlink:href="#DejaVuSans-74" x="706.880859"/>
     <use xlink:href="#DejaVuSans-65" x="746.089844"/>
     <use xlink:href="#DejaVuSans-72" x="807.613281"/>
     <use xlink:href="#DejaVuSans-70" x="848.726562"/>
     <use xlink:href="#DejaVuSans-6f" x="912.203125"/>
     <use xlink:href="#DejaVuSans-6c" x="973.384766"/>
     <use xlink:href="#DejaVuSans-61" x="1001.167969"/>
     <use xlink:href="#DejaVuSans-63" x="1062.447266"/>
     <use xlink:href="#DejaVuSans-79" x="1117.427734"/>
     <use xlink:href="#DejaVuSans-6a" x="1176.607422"/>
     <use xlink:href="#DejaVuSans-6e" x="1204.390625"/>
     <use xlink:href="#DejaVuSans-65" x="1267.769531"/>
     <use xlink:href="#DejaVuSans-20" x="1329.292969"/>
     <use xlink:href="#DejaVuSans-64" x="1361.080078"/>
     <use xlink:href="#DejaVuSans-6c" x="1424.556641"/>
     <use xlink:href="#DejaVuSans-61" x="1452.339844"/>
     <use xlink:href="#DejaVuSans-20" x="1513.619141"/>
     <use xlink:href="#DejaVuSans-66" x="1545.40625"/>
     <use xlink:href="#DejaVuSans-75" x="1580.611328"/>
     <use xlink:href="#DejaVuSans-6e" x="1643.990234"/>
     <use xlink:href="#DejaVuSans-6b" x="1707.369141"/>
     <use xlink:href="#DejaVuSans-63" x="1765.279297"/>
     <use xlink:href="#DejaVuSans-6a" x="1820.259766"/>
     <use xlink:href="#DejaVuSans-69" x="1848.042969"/>
    </g>
    <!-- $f(x)=\frac{1}{1+50x^2}$ i siatki $x_i=-1 + 2\frac{i}{n+1}$ -->
    <g transform="translate(130.62 35.232) scale(0.12 -0.12)">
     <defs>
      <path id="DejaVuSans-Oblique-66" d="M 3059 4863 
L 2969 4384 
L 2419 4384 
Q 2106 4384 1964 4261 
Q 1822 4138 1753 3809 
L 1691 3500 
L 2638 3500 
L 2553 3053 
L 1606 3053 
L 1013 0 
L 434 0 
L 1031 3053 
L 481 3053 
L 563 3500 
L 1113 3500 
L 1159 3744 
Q 1278 4363 1576 4613 
Q 1875 4863 2516 4863 
L 3059 4863 
z
" transform="scale(0.015625)"/>
      <path id="DejaVuSans-28" d="M 1984 4856 
Q 1566 4138 1362 3434 
Q 1159 2731 1159 2009 
Q 1159 1288 1364 580 
Q 1569 -128 1984 -844 
L 1484 -844 
Q 1016 -109 783 600 
Q 550 1309 550 2009 
Q 550 2706 781 3412 
Q 1013 4119 1484 4856 
L 1984 4856 
z
" transform="scale(0.015625)"/>
      <path id="DejaVuSans-Oblique-78" d="M 3841 3500 
L 2234 1784 
L 3219 0 
L 2559 0 
L 1819 1388 
L 531 0 
L -166 0 
L 1556 1844 
L 641 3500 
L 1300 3500 
L 1972 2234 
L 3144 3500 
L 3841 3500 
z
" transform="scale(0.015625)"/>
      <path id="DejaVuSans-29" d="M 513 4856 
L 1013 4856 
Q 1481 4119 1714 3412 
Q 1947 2706 1947 2009 
Q 1947 1309 1714 600 
Q 1481 -109 1013 -844 
L 513 -844 
Q 928 -128 1133 580 
Q 1338 1288 1338 2009 
Q 1338 2731 1133 3434 
Q 928 4138 513 4856 
z
" transform="scale(0.015625)"/>
      <path id="DejaVuSans-3d" d="M 678 2906 
L 4684 2906 
L 4684 2381 
L 678 2381 
L 678 2906 
z
M 678 1631 
L 4684 1631 
L 4684 1100 
L 678 1100 
L 678 1631 
z
" transform="scale(0.015625)"/>
      <path id="DejaVuSans-2b" d="M 2944 4013 
L 2944 2272 
L 4684 2272 
L 4684 1741 
L 2944 1741 
L 2944 0 
L 2419 0 
L 2419 1741 
L 678 1741 
L 678 2272 
L 2419 2272 
L 2419 4013 
L 2944 4013 
z
" transform="scale(0.015625)"/>
      <path id="DejaVuSans-73" d="M 2834 3397 
L 2834 2853 
Q 2591 2978 2328 3040 
Q 2066 3103 1784 3103 
Q 1356 3103 1142 2972 
Q 928 2841 928 2578 
Q 928 2378 1081 2264 
Q 1234 2150 1697 2047 
L 1894 2003 
Q 2506 1872 2764 1633 
Q 3022 1394 3022 966 
Q 3022 478 2636 193 
Q 2250 -91 1575 -91 
Q 1294 -91 989 -36 
Q 684 19 347 128 
L 347 722 
Q 666 556 975 473 
Q 1284 391 1588 391 
Q 1994 391 2212 530 
Q 2431 669 2431 922 
Q 2431 1156 2273 1281 
Q 2116 1406 1581 1522 
L 1381 1569 
Q 847 1681 609 1914 
Q 372 2147 372 2553 
Q 372 3047 722 3315 
Q 1072 3584 1716 3584 
Q 2034 3584 2315 3537 
Q 2597 3491 2834 3397 
z
" transform="scale(0.015625)"/>
      <path id="DejaVuSans-Oblique-69" d="M 1172 4863 
L 1747 4863 
L 1606 4134 
L 1031 4134 
L 1172 4863 
z
M 909 3500 
L 1484 3500 
L 800 0 
L 225 0 
L 909 3500 
z
" transform="scale(0.015625)"/>
      <path id="DejaVuSans-Oblique-6e" d="M 3566 2113 
L 3156 0 
L 2578 0 
L 2988 2091 
Q 3016 2238 3031 2350 
Q 3047 2463 3047 2528 
Q 3047 2791 2881 2937 
Q 2716 3084 2419 3084 
Q 1956 3084 1622 2776 
Q 1288 2469 1184 1941 
L 800 0 
L 225 0 
L 903 3500 
L 1478 3500 
L 1363 2950 
Q 1603 3253 1940 3418 
Q 2278 3584 2650 3584 
Q 3113 3584 3367 3334 
Q 3622 3084 3622 2631 
Q 3622 2519 3608 2391 
Q 3594 2263 3566 2113 
z
" transform="scale(0.015625)"/>
     </defs>
     <use xlink:href="#DejaVuSans-Oblique-66" transform="translate(0 0.014063)"/>
     <use xlink:href="#DejaVuSans-28" transform="translate(35.205078 0.014063)"/>
     <use xlink:href="#DejaVuSans-Oblique-78" transform="translate(74.21875 0.014063)"/>
     <use xlink:href="#DejaVuSans-29" transform="translate(133.398438 0.014063)"/>
     <use xlink:href="#DejaVuSans-3d" transform="translate(191.894531 0.014063)"/>
     <use xlink:href="#DejaVuSans-31" transform="translate(421.166016 43.810938) scale(0.7)"/>
     <use xlink:href="#DejaVuSans-31" transform="translate(295.166016 -50.603125) scale(0.7)"/>
     <use xlink:href="#DejaVuSans-2b" transform="translate(353.339844 -50.603125) scale(0.7)"/>
     <use xlink:href="#DejaVuSans-35" transform="translate(425.629883 -50.603125) scale(0.7)"/>
     <use xlink:href="#DejaVuSans-30" transform="translate(470.166016 -50.603125) scale(0.7)"/>
     <use xlink:href="#DejaVuSans-Oblique-78" transform="translate(514.702148 -50.603125) scale(0.7)"/>
     <use xlink:href="#DejaVuSans-32" transform="translate(559.254232 -23.80625) scale(0.49)"/>
     <use xlink:href="#DejaVuSans-20" transform="translate(604.843587 0.014063)"/>
     <use xlink:href="#DejaVuSans-69" transform="translate(636.630697 0.014063)"/>
     <use xlink:href="#DejaVuSans-20" transform="translate(664.4139 0.014063)"/>
     <use xlink:href="#DejaVuSans-73" transform="translate(696.201009 0.014063)"/>
     <use xlink:href="#DejaVuSans-69" transform="translate(748.300618 0.014063)"/>
     <use xlink:href="#DejaVuSans-61" transform="translate(776.083822 0.014063)"/>
     <use xlink:href="#DejaVuSans-74" transform="translate(837.363118 0.014063)"/>
     <use xlink:href="#DejaVuSans-6b" transform="translate(876.572103 0.014063)"/>
     <use xlink:href="#DejaVuSans-69" transform="translate(934.482259 0.014063)"/>
     <use xlink:href="#DejaVuSans-20" transform="translate(962.265462 0.014063)"/>
     <use xlink:href="#DejaVuSans-Oblique-78" transform="translate(994.052572 0.014063)"/>
     <use xlink:href="#DejaVuSans-Oblique-69" transform="translate(1053.232259 -16.392187) scale(0.7)"/>
     <use xlink:href="#DejaVuSans-3d" transform="translate(1094.897298 0.014063)"/>
     <use xlink:href="#DejaVuSans-2212" transform="translate(1217.651204 0.014063)"/>
     <use xlink:href="#DejaVuSans-31" transform="translate(1320.922689 0.014063)"/>
     <use xlink:href="#DejaVuSans-2b" transform="translate(1404.028158 0.014063)"/>
     <use xlink:href="#DejaVuSans-32" transform="translate(1507.299642 0.014063)"/>
     <use xlink:href="#DejaVuSans-Oblique-69" transform="translate(1648.922689 43.810938) scale(0.7)"/>
     <use xlink:href="#DejaVuSans-Oblique-6e" transform="translate(1570.922689 -38.473437) scale(0.7)"/>
     <use xlink:href="#DejaVuSans-2b" transform="translate(1628.925618 -38.473437) scale(0.7)"/>
     <use xlink:href="#DejaVuSans-31" transform="translate(1701.215658 -38.473437) scale(0.7)"/>
     <path d="M 295.166016 18.810938 
L 295.166016 25.060938 
L 592.343587 25.060938 
L 592.343587 18.810938 
L 295.166016 18.810938 
z
"/>
     <path d="M 1570.922689 18.810937 
L 1570.922689 25.060937 
L 1745.75179 25.060937 
L 1745.75179 18.810937 
L 1570.922689 18.810937 
z
"/>
    </g>
   </g>
   <g id="legend_1">
    <g id="patch_7">
     <path d="M 148.744375 302.584 
L 323.575625 302.584 
Q 325.575625 302.584 325.575625 300.584 
L 325.575625 212.124625 
Q 325.575625 210.124625 323.575625 210.124625 
L 148.744375 210.124625 
Q 146.744375 210.124625 146.744375 212.124625 
L 146.744375 300.584 
Q 146.744375 302.584 148.744375 302.584 
z
" style="fill: #ffffff; opacity: 0.8; stroke: #cccccc; stroke-linejoin: miter"/>
    </g>
    <g id="line2d_35">
     <path d="M 150.744375 218.223062 
L 160.744375 218.223062 
L 170.744375 218.223062 
" style="fill: none; stroke-dasharray: 18.5,8; stroke-dashoffset: 0; stroke: #1f77b4; stroke-width: 5"/>
    </g>
    <g id="text_18">
     <!-- Dokladny wykres z biblioteki -->
     <g transform="translate(178.744375 221.723062) scale(0.1 -0.1)">
      <defs>
       <path id="DejaVuSans-44" d="M 1259 4147 
L 1259 519 
L 2022 519 
Q 2988 519 3436 956 
Q 3884 1394 3884 2338 
Q 3884 3275 3436 3711 
Q 2988 4147 2022 4147 
L 1259 4147 
z
M 628 4666 
L 1925 4666 
Q 3281 4666 3915 4102 
Q 4550 3538 4550 2338 
Q 4550 1131 3912 565 
Q 3275 0 1925 0 
L 628 0 
L 628 4666 
z
" transform="scale(0.015625)"/>
       <path id="DejaVuSans-77" d="M 269 3500 
L 844 3500 
L 1563 769 
L 2278 3500 
L 2956 3500 
L 3675 769 
L 4391 3500 
L 4966 3500 
L 4050 0 
L 3372 0 
L 2619 2869 
L 1863 0 
L 1184 0 
L 269 3500 
z
" transform="scale(0.015625)"/>
       <path id="DejaVuSans-7a" d="M 353 3500 
L 3084 3500 
L 3084 2975 
L 922 459 
L 3084 459 
L 3084 0 
L 275 0 
L 275 525 
L 2438 3041 
L 353 3041 
L 353 3500 
z
" transform="scale(0.015625)"/>
       <path id="DejaVuSans-62" d="M 3116 1747 
Q 3116 2381 2855 2742 
Q 2594 3103 2138 3103 
Q 1681 3103 1420 2742 
Q 1159 2381 1159 1747 
Q 1159 1113 1420 752 
Q 1681 391 2138 391 
Q 2594 391 2855 752 
Q 3116 1113 3116 1747 
z
M 1159 2969 
Q 1341 3281 1617 3432 
Q 1894 3584 2278 3584 
Q 2916 3584 3314 3078 
Q 3713 2572 3713 1747 
Q 3713 922 3314 415 
Q 2916 -91 2278 -91 
Q 1894 -91 1617 61 
Q 1341 213 1159 525 
L 1159 0 
L 581 0 
L 581 4863 
L 1159 4863 
L 1159 2969 
z
" transform="scale(0.015625)"/>
      </defs>
      <use xlink:href="#DejaVuSans-44"/>
      <use xlink:href="#DejaVuSans-6f" x="77.001953"/>
      <use xlink:href="#DejaVuSans-6b" x="138.183594"/>
      <use xlink:href="#DejaVuSans-6c" x="196.09375"/>
      <use xlink:href="#DejaVuSans-61" x="223.876953"/>
      <use xlink:href="#DejaVuSans-64" x="285.15625"/>
      <use xlink:href="#DejaVuSans-6e" x="348.632812"/>
      <use xlink:href="#DejaVuSans-79" x="412.011719"/>
      <use xlink:href="#DejaVuSans-20" x="471.191406"/>
      <use xlink:href="#DejaVuSans-77" x="502.978516"/>
      <use xlink:href="#DejaVuSans-79" x="584.765625"/>
      <use xlink:href="#DejaVuSans-6b" x="643.945312"/>
      <use xlink:href="#DejaVuSans-72" x="701.855469"/>
      <use xlink:href="#DejaVuSans-65" x="740.71875"/>
      <use xlink:href="#DejaVuSans-73" x="802.242188"/>
      <use xlink:href="#DejaVuSans-20" x="854.341797"/>
      <use xlink:href="#DejaVuSans-7a" x="886.128906"/>
      <use xlink:href="#DejaVuSans-20" x="938.619141"/>
      <use xlink:href="#DejaVuSans-62" x="970.40625"/>
      <use xlink:href="#DejaVuSans-69" x="1033.882812"/>
      <use xlink:href="#DejaVuSans-62" x="1061.666016"/>
      <use xlink:href="#DejaVuSans-6c" x="1125.142578"/>
      <use xlink:href="#DejaVuSans-69" x="1152.925781"/>
      <use xlink:href="#DejaVuSans-6f" x="1180.708984"/>
      <use xlink:href="#DejaVuSans-74" x="1241.890625"/>
      <use xlink:href="#DejaVuSans-65" x="1281.099609"/>
      <use xlink:href="#DejaVuSans-6b" x="1342.623047"/>
      <use xlink:href="#DejaVuSans-69" x="1400.533203"/>
     </g>
    </g>
    <g id="line2d_36">
     <path d="M 150.744375 232.901187 
L 160.744375 232.901187 
L 170.744375 232.901187 
" style="fill: none; stroke: #ff7f0e; stroke-width: 1.5; stroke-linecap: square"/>
    </g>
    <g id="text_19">
     <!-- W_3(x) -->
     <g transform="translate(178.744375 236.401187) scale(0.1 -0.1)">
      <defs>
       <path id="DejaVuSans-5f" d="M 3263 -1063 
L 3263 -1509 
L -63 -1509 
L -63 -1063 
L 3263 -1063 
z
" transform="scale(0.015625)"/>
       <path id="DejaVuSans-33" d="M 2597 2516 
Q 3050 2419 3304 2112 
Q 3559 1806 3559 1356 
Q 3559 666 3084 287 
Q 2609 -91 1734 -91 
Q 1441 -91 1130 -33 
Q 819 25 488 141 
L 488 750 
Q 750 597 1062 519 
Q 1375 441 1716 441 
Q 2309 441 2620 675 
Q 2931 909 2931 1356 
Q 2931 1769 2642 2001 
Q 2353 2234 1838 2234 
L 1294 2234 
L 1294 2753 
L 1863 2753 
Q 2328 2753 2575 2939 
Q 2822 3125 2822 3475 
Q 2822 3834 2567 4026 
Q 2313 4219 1838 4219 
Q 1578 4219 1281 4162 
Q 984 4106 628 3988 
L 628 4550 
Q 988 4650 1302 4700 
Q 1616 4750 1894 4750 
Q 2613 4750 3031 4423 
Q 3450 4097 3450 3541 
Q 3450 3153 3228 2886 
Q 3006 2619 2597 2516 
z
" transform="scale(0.015625)"/>
      </defs>
      <use xlink:href="#DejaVuSans-57"/>
      <use xlink:href="#DejaVuSans-5f" x="98.876953"/>
      <use xlink:href="#DejaVuSans-33" x="148.876953"/>
      <use xlink:href="#DejaVuSans-28" x="212.5"/>
      <use xlink:href="#DejaVuSans-78" x="251.513672"/>
      <use xlink:href="#DejaVuSans-29" x="310.693359"/>
     </g>
    </g>
    <g id="line2d_37">
     <path d="M 150.744375 247.857437 
L 160.744375 247.857437 
L 170.744375 247.857437 
" style="fill: none; stroke: #2ca02c; stroke-width: 1.5; stroke-linecap: square"/>
    </g>
    <g id="text_20">
     <!-- W_4(x) -->
     <g transform="translate(178.744375 251.357437) scale(0.1 -0.1)">
      <use xlink:href="#DejaVuSans-57"/>
      <use xlink:href="#DejaVuSans-5f" x="98.876953"/>
      <use xlink:href="#DejaVuSans-34" x="148.876953"/>
      <use xlink:href="#DejaVuSans-28" x="212.5"/>
      <use xlink:href="#DejaVuSans-78" x="251.513672"/>
      <use xlink:href="#DejaVuSans-29" x="310.693359"/>
     </g>
    </g>
    <g id="line2d_38">
     <path d="M 150.744375 262.813688 
L 160.744375 262.813688 
L 170.744375 262.813688 
" style="fill: none; stroke: #d62728; stroke-width: 1.5; stroke-linecap: square"/>
    </g>
    <g id="text_21">
     <!-- W_5(x) -->
     <g transform="translate(178.744375 266.313688) scale(0.1 -0.1)">
      <use xlink:href="#DejaVuSans-57"/>
      <use xlink:href="#DejaVuSans-5f" x="98.876953"/>
      <use xlink:href="#DejaVuSans-35" x="148.876953"/>
      <use xlink:href="#DejaVuSans-28" x="212.5"/>
      <use xlink:href="#DejaVuSans-78" x="251.513672"/>
      <use xlink:href="#DejaVuSans-29" x="310.693359"/>
     </g>
    </g>
    <g id="line2d_39">
     <path d="M 150.744375 277.769937 
L 160.744375 277.769937 
L 170.744375 277.769937 
" style="fill: none; stroke: #9467bd; stroke-width: 1.5; stroke-linecap: square"/>
    </g>
    <g id="text_22">
     <!-- W_7(x) -->
     <g transform="translate(178.744375 281.269937) scale(0.1 -0.1)">
      <use xlink:href="#DejaVuSans-57"/>
      <use xlink:href="#DejaVuSans-5f" x="98.876953"/>
      <use xlink:href="#DejaVuSans-37" x="148.876953"/>
      <use xlink:href="#DejaVuSans-28" x="212.5"/>
      <use xlink:href="#DejaVuSans-78" x="251.513672"/>
      <use xlink:href="#DejaVuSans-29" x="310.693359"/>
     </g>
    </g>
    <g id="line2d_40">
     <path d="M 150.744375 292.726187 
L 160.744375 292.726187 
L 170.744375 292.726187 
" style="fill: none; stroke: #8c564b; stroke-width: 1.5; stroke-linecap: square"/>
    </g>
    <g id="text_23">
     <!-- W_30(x) -->
     <g transform="translate(178.744375 296.226187) scale(0.1 -0.1)">
      <use xlink:href="#DejaVuSans-57"/>
      <use xlink:href="#DejaVuSans-5f" x="98.876953"/>
      <use xlink:href="#DejaVuSans-33" x="148.876953"/>
      <use xlink:href="#DejaVuSans-30" x="212.5"/>
      <use xlink:href="#DejaVuSans-28" x="276.123047"/>
      <use xlink:href="#DejaVuSans-78" x="315.136719"/>
      <use xlink:href="#DejaVuSans-29" x="374.316406"/>
     </g>
    </g>
   </g>
  </g>
 </g>
 <defs>
  <clipPath id="pc96cc0f4b6">
   <rect x="57.6" y="41.472" width="357.12" height="266.112"/>
  </clipPath>
 </defs>
</svg>
