<?xml version="1.0" encoding="utf-8" standalone="no"?>
<!DOCTYPE svg PUBLIC "-//W3C//DTD SVG 1.1//EN"
  "http://www.w3.org/Graphics/SVG/1.1/DTD/svg11.dtd">
<svg xmlns:xlink="http://www.w3.org/1999/xlink" width="460.8pt" height="345.6pt" viewBox="0 0 460.8 345.6" xmlns="http://www.w3.org/2000/svg" version="1.1">
 <metadata>
  <rdf:RDF xmlns:dc="http://purl.org/dc/elements/1.1/" xmlns:cc="http://creativecommons.org/ns#" xmlns:rdf="http://www.w3.org/1999/02/22-rdf-syntax-ns#">
   <cc:Work>
    <dc:type rdf:resource="http://purl.org/dc/dcmitype/StillImage"/>
    <dc:date>2023-12-18T13:39:52.109792</dc:date>
    <dc:format>image/svg+xml</dc:format>
    <dc:creator>
     <cc:Agent>
      <dc:title>Matplotlib v3.8.1, https://matplotlib.org/</dc:title>
     </cc:Agent>
    </dc:creator>
   </cc:Work>
  </rdf:RDF>
 </metadata>
 <defs>
  <style type="text/css">*{stroke-linejoin: round; stroke-linecap: butt}</style>
 </defs>
 <g id="figure_1">
  <g id="patch_1">
   <path d="M 0 345.6 
L 460.8 345.6 
L 460.8 0 
L 0 0 
z
" style="fill: #ffffff"/>
  </g>
  <g id="axes_1">
   <g id="patch_2">
    <path d="M 57.6 307.584 
L 414.72 307.584 
L 414.72 41.472 
L 57.6 41.472 
z
" style="fill: #ffffff"/>
   </g>
   <g id="matplotlib.axis_1">
    <g id="xtick_1">
     <g id="line2d_1">
      <path d="M 73.832727 307.584 
L 73.832727 41.472 
" clip-path="url(#p3ec3ab0635)" style="fill: none; stroke: #b0b0b0; stroke-width: 0.8; stroke-linecap: square"/>
     </g>
     <g id="line2d_2">
      <defs>
       <path id="m1269fd9b1e" d="M 0 0 
L 0 3.5 
" style="stroke: #000000; stroke-width: 0.8"/>
      </defs>
      <g>
       <use xlink:href="#m1269fd9b1e" x="73.832727" y="307.584" style="stroke: #000000; stroke-width: 0.8"/>
      </g>
     </g>
     <g id="text_1">
      <!-- 0 -->
      <g transform="translate(70.651477 322.182437) scale(0.1 -0.1)">
       <defs>
        <path id="DejaVuSans-30" d="M 2034 4250 
Q 1547 4250 1301 3770 
Q 1056 3291 1056 2328 
Q 1056 1369 1301 889 
Q 1547 409 2034 409 
Q 2525 409 2770 889 
Q 3016 1369 3016 2328 
Q 3016 3291 2770 3770 
Q 2525 4250 2034 4250 
z
M 2034 4750 
Q 2819 4750 3233 4129 
Q 3647 3509 3647 2328 
Q 3647 1150 3233 529 
Q 2819 -91 2034 -91 
Q 1250 -91 836 529 
Q 422 1150 422 2328 
Q 422 3509 836 4129 
Q 1250 4750 2034 4750 
z
" transform="scale(0.015625)"/>
       </defs>
       <use xlink:href="#DejaVuSans-30"/>
      </g>
     </g>
    </g>
    <g id="xtick_2">
     <g id="line2d_3">
      <path d="M 139.419504 307.584 
L 139.419504 41.472 
" clip-path="url(#p3ec3ab0635)" style="fill: none; stroke: #b0b0b0; stroke-width: 0.8; stroke-linecap: square"/>
     </g>
     <g id="line2d_4">
      <g>
       <use xlink:href="#m1269fd9b1e" x="139.419504" y="307.584" style="stroke: #000000; stroke-width: 0.8"/>
      </g>
     </g>
     <g id="text_2">
      <!-- 2 -->
      <g transform="translate(136.238254 322.182437) scale(0.1 -0.1)">
       <defs>
        <path id="DejaVuSans-32" d="M 1228 531 
L 3431 531 
L 3431 0 
L 469 0 
L 469 531 
Q 828 903 1448 1529 
Q 2069 2156 2228 2338 
Q 2531 2678 2651 2914 
Q 2772 3150 2772 3378 
Q 2772 3750 2511 3984 
Q 2250 4219 1831 4219 
Q 1534 4219 1204 4116 
Q 875 4013 500 3803 
L 500 4441 
Q 881 4594 1212 4672 
Q 1544 4750 1819 4750 
Q 2544 4750 2975 4387 
Q 3406 4025 3406 3419 
Q 3406 3131 3298 2873 
Q 3191 2616 2906 2266 
Q 2828 2175 2409 1742 
Q 1991 1309 1228 531 
z
" transform="scale(0.015625)"/>
       </defs>
       <use xlink:href="#DejaVuSans-32"/>
      </g>
     </g>
    </g>
    <g id="xtick_3">
     <g id="line2d_5">
      <path d="M 205.006281 307.584 
L 205.006281 41.472 
" clip-path="url(#p3ec3ab0635)" style="fill: none; stroke: #b0b0b0; stroke-width: 0.8; stroke-linecap: square"/>
     </g>
     <g id="line2d_6">
      <g>
       <use xlink:href="#m1269fd9b1e" x="205.006281" y="307.584" style="stroke: #000000; stroke-width: 0.8"/>
      </g>
     </g>
     <g id="text_3">
      <!-- 4 -->
      <g transform="translate(201.825031 322.182437) scale(0.1 -0.1)">
       <defs>
        <path id="DejaVuSans-34" d="M 2419 4116 
L 825 1625 
L 2419 1625 
L 2419 4116 
z
M 2253 4666 
L 3047 4666 
L 3047 1625 
L 3713 1625 
L 3713 1100 
L 3047 1100 
L 3047 0 
L 2419 0 
L 2419 1100 
L 313 1100 
L 313 1709 
L 2253 4666 
z
" transform="scale(0.015625)"/>
       </defs>
       <use xlink:href="#DejaVuSans-34"/>
      </g>
     </g>
    </g>
    <g id="xtick_4">
     <g id="line2d_7">
      <path d="M 270.593058 307.584 
L 270.593058 41.472 
" clip-path="url(#p3ec3ab0635)" style="fill: none; stroke: #b0b0b0; stroke-width: 0.8; stroke-linecap: square"/>
     </g>
     <g id="line2d_8">
      <g>
       <use xlink:href="#m1269fd9b1e" x="270.593058" y="307.584" style="stroke: #000000; stroke-width: 0.8"/>
      </g>
     </g>
     <g id="text_4">
      <!-- 6 -->
      <g transform="translate(267.411808 322.182437) scale(0.1 -0.1)">
       <defs>
        <path id="DejaVuSans-36" d="M 2113 2584 
Q 1688 2584 1439 2293 
Q 1191 2003 1191 1497 
Q 1191 994 1439 701 
Q 1688 409 2113 409 
Q 2538 409 2786 701 
Q 3034 994 3034 1497 
Q 3034 2003 2786 2293 
Q 2538 2584 2113 2584 
z
M 3366 4563 
L 3366 3988 
Q 3128 4100 2886 4159 
Q 2644 4219 2406 4219 
Q 1781 4219 1451 3797 
Q 1122 3375 1075 2522 
Q 1259 2794 1537 2939 
Q 1816 3084 2150 3084 
Q 2853 3084 3261 2657 
Q 3669 2231 3669 1497 
Q 3669 778 3244 343 
Q 2819 -91 2113 -91 
Q 1303 -91 875 529 
Q 447 1150 447 2328 
Q 447 3434 972 4092 
Q 1497 4750 2381 4750 
Q 2619 4750 2861 4703 
Q 3103 4656 3366 4563 
z
" transform="scale(0.015625)"/>
       </defs>
       <use xlink:href="#DejaVuSans-36"/>
      </g>
     </g>
    </g>
    <g id="xtick_5">
     <g id="line2d_9">
      <path d="M 336.179835 307.584 
L 336.179835 41.472 
" clip-path="url(#p3ec3ab0635)" style="fill: none; stroke: #b0b0b0; stroke-width: 0.8; stroke-linecap: square"/>
     </g>
     <g id="line2d_10">
      <g>
       <use xlink:href="#m1269fd9b1e" x="336.179835" y="307.584" style="stroke: #000000; stroke-width: 0.8"/>
      </g>
     </g>
     <g id="text_5">
      <!-- 8 -->
      <g transform="translate(332.998585 322.182437) scale(0.1 -0.1)">
       <defs>
        <path id="DejaVuSans-38" d="M 2034 2216 
Q 1584 2216 1326 1975 
Q 1069 1734 1069 1313 
Q 1069 891 1326 650 
Q 1584 409 2034 409 
Q 2484 409 2743 651 
Q 3003 894 3003 1313 
Q 3003 1734 2745 1975 
Q 2488 2216 2034 2216 
z
M 1403 2484 
Q 997 2584 770 2862 
Q 544 3141 544 3541 
Q 544 4100 942 4425 
Q 1341 4750 2034 4750 
Q 2731 4750 3128 4425 
Q 3525 4100 3525 3541 
Q 3525 3141 3298 2862 
Q 3072 2584 2669 2484 
Q 3125 2378 3379 2068 
Q 3634 1759 3634 1313 
Q 3634 634 3220 271 
Q 2806 -91 2034 -91 
Q 1263 -91 848 271 
Q 434 634 434 1313 
Q 434 1759 690 2068 
Q 947 2378 1403 2484 
z
M 1172 3481 
Q 1172 3119 1398 2916 
Q 1625 2713 2034 2713 
Q 2441 2713 2670 2916 
Q 2900 3119 2900 3481 
Q 2900 3844 2670 4047 
Q 2441 4250 2034 4250 
Q 1625 4250 1398 4047 
Q 1172 3844 1172 3481 
z
" transform="scale(0.015625)"/>
       </defs>
       <use xlink:href="#DejaVuSans-38"/>
      </g>
     </g>
    </g>
    <g id="xtick_6">
     <g id="line2d_11">
      <path d="M 401.766612 307.584 
L 401.766612 41.472 
" clip-path="url(#p3ec3ab0635)" style="fill: none; stroke: #b0b0b0; stroke-width: 0.8; stroke-linecap: square"/>
     </g>
     <g id="line2d_12">
      <g>
       <use xlink:href="#m1269fd9b1e" x="401.766612" y="307.584" style="stroke: #000000; stroke-width: 0.8"/>
      </g>
     </g>
     <g id="text_6">
      <!-- 10 -->
      <g transform="translate(395.404112 322.182437) scale(0.1 -0.1)">
       <defs>
        <path id="DejaVuSans-31" d="M 794 531 
L 1825 531 
L 1825 4091 
L 703 3866 
L 703 4441 
L 1819 4666 
L 2450 4666 
L 2450 531 
L 3481 531 
L 3481 0 
L 794 0 
L 794 531 
z
" transform="scale(0.015625)"/>
       </defs>
       <use xlink:href="#DejaVuSans-31"/>
       <use xlink:href="#DejaVuSans-30" x="63.623047"/>
      </g>
     </g>
    </g>
    <g id="text_7">
     <!-- x -->
     <g transform="translate(233.200625 335.860562) scale(0.1 -0.1)">
      <defs>
       <path id="DejaVuSans-78" d="M 3513 3500 
L 2247 1797 
L 3578 0 
L 2900 0 
L 1881 1375 
L 863 0 
L 184 0 
L 1544 1831 
L 300 3500 
L 978 3500 
L 1906 2253 
L 2834 3500 
L 3513 3500 
z
" transform="scale(0.015625)"/>
      </defs>
      <use xlink:href="#DejaVuSans-78"/>
     </g>
    </g>
   </g>
   <g id="matplotlib.axis_2">
    <g id="ytick_1">
     <g id="line2d_13">
      <path d="M 57.6 296.904133 
L 414.72 296.904133 
" clip-path="url(#p3ec3ab0635)" style="fill: none; stroke: #b0b0b0; stroke-width: 0.8; stroke-linecap: square"/>
     </g>
     <g id="line2d_14">
      <defs>
       <path id="m22c6450cfd" d="M 0 0 
L -3.5 0 
" style="stroke: #000000; stroke-width: 0.8"/>
      </defs>
      <g>
       <use xlink:href="#m22c6450cfd" x="57.6" y="296.904133" style="stroke: #000000; stroke-width: 0.8"/>
      </g>
     </g>
     <g id="text_8">
      <!-- −5.0 -->
      <g transform="translate(26.317187 300.703352) scale(0.1 -0.1)">
       <defs>
        <path id="DejaVuSans-2212" d="M 678 2272 
L 4684 2272 
L 4684 1741 
L 678 1741 
L 678 2272 
z
" transform="scale(0.015625)"/>
        <path id="DejaVuSans-35" d="M 691 4666 
L 3169 4666 
L 3169 4134 
L 1269 4134 
L 1269 2991 
Q 1406 3038 1543 3061 
Q 1681 3084 1819 3084 
Q 2600 3084 3056 2656 
Q 3513 2228 3513 1497 
Q 3513 744 3044 326 
Q 2575 -91 1722 -91 
Q 1428 -91 1123 -41 
Q 819 9 494 109 
L 494 744 
Q 775 591 1075 516 
Q 1375 441 1709 441 
Q 2250 441 2565 725 
Q 2881 1009 2881 1497 
Q 2881 1984 2565 2268 
Q 2250 2553 1709 2553 
Q 1456 2553 1204 2497 
Q 953 2441 691 2322 
L 691 4666 
z
" transform="scale(0.015625)"/>
        <path id="DejaVuSans-2e" d="M 684 794 
L 1344 794 
L 1344 0 
L 684 0 
L 684 794 
z
" transform="scale(0.015625)"/>
       </defs>
       <use xlink:href="#DejaVuSans-2212"/>
       <use xlink:href="#DejaVuSans-35" x="83.789062"/>
       <use xlink:href="#DejaVuSans-2e" x="147.412109"/>
       <use xlink:href="#DejaVuSans-30" x="179.199219"/>
      </g>
     </g>
    </g>
    <g id="ytick_2">
     <g id="line2d_15">
      <path d="M 57.6 263.586062 
L 414.72 263.586062 
" clip-path="url(#p3ec3ab0635)" style="fill: none; stroke: #b0b0b0; stroke-width: 0.8; stroke-linecap: square"/>
     </g>
     <g id="line2d_16">
      <g>
       <use xlink:href="#m22c6450cfd" x="57.6" y="263.586062" style="stroke: #000000; stroke-width: 0.8"/>
      </g>
     </g>
     <g id="text_9">
      <!-- −2.5 -->
      <g transform="translate(26.317187 267.385281) scale(0.1 -0.1)">
       <use xlink:href="#DejaVuSans-2212"/>
       <use xlink:href="#DejaVuSans-32" x="83.789062"/>
       <use xlink:href="#DejaVuSans-2e" x="147.412109"/>
       <use xlink:href="#DejaVuSans-35" x="179.199219"/>
      </g>
     </g>
    </g>
    <g id="ytick_3">
     <g id="line2d_17">
      <path d="M 57.6 230.267992 
L 414.72 230.267992 
" clip-path="url(#p3ec3ab0635)" style="fill: none; stroke: #b0b0b0; stroke-width: 0.8; stroke-linecap: square"/>
     </g>
     <g id="line2d_18">
      <g>
       <use xlink:href="#m22c6450cfd" x="57.6" y="230.267992" style="stroke: #000000; stroke-width: 0.8"/>
      </g>
     </g>
     <g id="text_10">
      <!-- 0.0 -->
      <g transform="translate(34.696875 234.067211) scale(0.1 -0.1)">
       <use xlink:href="#DejaVuSans-30"/>
       <use xlink:href="#DejaVuSans-2e" x="63.623047"/>
       <use xlink:href="#DejaVuSans-30" x="95.410156"/>
      </g>
     </g>
    </g>
    <g id="ytick_4">
     <g id="line2d_19">
      <path d="M 57.6 196.949921 
L 414.72 196.949921 
" clip-path="url(#p3ec3ab0635)" style="fill: none; stroke: #b0b0b0; stroke-width: 0.8; stroke-linecap: square"/>
     </g>
     <g id="line2d_20">
      <g>
       <use xlink:href="#m22c6450cfd" x="57.6" y="196.949921" style="stroke: #000000; stroke-width: 0.8"/>
      </g>
     </g>
     <g id="text_11">
      <!-- 2.5 -->
      <g transform="translate(34.696875 200.74914) scale(0.1 -0.1)">
       <use xlink:href="#DejaVuSans-32"/>
       <use xlink:href="#DejaVuSans-2e" x="63.623047"/>
       <use xlink:href="#DejaVuSans-35" x="95.410156"/>
      </g>
     </g>
    </g>
    <g id="ytick_5">
     <g id="line2d_21">
      <path d="M 57.6 163.631851 
L 414.72 163.631851 
" clip-path="url(#p3ec3ab0635)" style="fill: none; stroke: #b0b0b0; stroke-width: 0.8; stroke-linecap: square"/>
     </g>
     <g id="line2d_22">
      <g>
       <use xlink:href="#m22c6450cfd" x="57.6" y="163.631851" style="stroke: #000000; stroke-width: 0.8"/>
      </g>
     </g>
     <g id="text_12">
      <!-- 5.0 -->
      <g transform="translate(34.696875 167.431069) scale(0.1 -0.1)">
       <use xlink:href="#DejaVuSans-35"/>
       <use xlink:href="#DejaVuSans-2e" x="63.623047"/>
       <use xlink:href="#DejaVuSans-30" x="95.410156"/>
      </g>
     </g>
    </g>
    <g id="ytick_6">
     <g id="line2d_23">
      <path d="M 57.6 130.31378 
L 414.72 130.31378 
" clip-path="url(#p3ec3ab0635)" style="fill: none; stroke: #b0b0b0; stroke-width: 0.8; stroke-linecap: square"/>
     </g>
     <g id="line2d_24">
      <g>
       <use xlink:href="#m22c6450cfd" x="57.6" y="130.31378" style="stroke: #000000; stroke-width: 0.8"/>
      </g>
     </g>
     <g id="text_13">
      <!-- 7.5 -->
      <g transform="translate(34.696875 134.112999) scale(0.1 -0.1)">
       <defs>
        <path id="DejaVuSans-37" d="M 525 4666 
L 3525 4666 
L 3525 4397 
L 1831 0 
L 1172 0 
L 2766 4134 
L 525 4134 
L 525 4666 
z
" transform="scale(0.015625)"/>
       </defs>
       <use xlink:href="#DejaVuSans-37"/>
       <use xlink:href="#DejaVuSans-2e" x="63.623047"/>
       <use xlink:href="#DejaVuSans-35" x="95.410156"/>
      </g>
     </g>
    </g>
    <g id="ytick_7">
     <g id="line2d_25">
      <path d="M 57.6 96.99571 
L 414.72 96.99571 
" clip-path="url(#p3ec3ab0635)" style="fill: none; stroke: #b0b0b0; stroke-width: 0.8; stroke-linecap: square"/>
     </g>
     <g id="line2d_26">
      <g>
       <use xlink:href="#m22c6450cfd" x="57.6" y="96.99571" style="stroke: #000000; stroke-width: 0.8"/>
      </g>
     </g>
     <g id="text_14">
      <!-- 10.0 -->
      <g transform="translate(28.334375 100.794928) scale(0.1 -0.1)">
       <use xlink:href="#DejaVuSans-31"/>
       <use xlink:href="#DejaVuSans-30" x="63.623047"/>
       <use xlink:href="#DejaVuSans-2e" x="127.246094"/>
       <use xlink:href="#DejaVuSans-30" x="159.033203"/>
      </g>
     </g>
    </g>
    <g id="ytick_8">
     <g id="line2d_27">
      <path d="M 57.6 63.677639 
L 414.72 63.677639 
" clip-path="url(#p3ec3ab0635)" style="fill: none; stroke: #b0b0b0; stroke-width: 0.8; stroke-linecap: square"/>
     </g>
     <g id="line2d_28">
      <g>
       <use xlink:href="#m22c6450cfd" x="57.6" y="63.677639" style="stroke: #000000; stroke-width: 0.8"/>
      </g>
     </g>
     <g id="text_15">
      <!-- 12.5 -->
      <g transform="translate(28.334375 67.476858) scale(0.1 -0.1)">
       <use xlink:href="#DejaVuSans-31"/>
       <use xlink:href="#DejaVuSans-32" x="63.623047"/>
       <use xlink:href="#DejaVuSans-2e" x="127.246094"/>
       <use xlink:href="#DejaVuSans-35" x="159.033203"/>
      </g>
     </g>
    </g>
    <g id="text_16">
     <!-- y -->
     <g transform="translate(20.2375 177.487375) rotate(-90) scale(0.1 -0.1)">
      <defs>
       <path id="DejaVuSans-79" d="M 2059 -325 
Q 1816 -950 1584 -1140 
Q 1353 -1331 966 -1331 
L 506 -1331 
L 506 -850 
L 844 -850 
Q 1081 -850 1212 -737 
Q 1344 -625 1503 -206 
L 1606 56 
L 191 3500 
L 800 3500 
L 1894 763 
L 2988 3500 
L 3597 3500 
L 2059 -325 
z
" transform="scale(0.015625)"/>
      </defs>
      <use xlink:href="#DejaVuSans-79"/>
     </g>
    </g>
   </g>
   <g id="line2d_29">
    <defs>
     <path id="m8d01c5531c" d="M 0 3 
C 0.795609 3 1.55874 2.683901 2.12132 2.12132 
C 2.683901 1.55874 3 0.795609 3 0 
C 3 -0.795609 2.683901 -1.55874 2.12132 -2.12132 
C 1.55874 -2.683901 0.795609 -3 0 -3 
C -0.795609 -3 -1.55874 -2.683901 -2.12132 -2.12132 
C -2.683901 -1.55874 -3 -0.795609 -3 0 
C -3 0.795609 -2.683901 1.55874 -2.12132 2.12132 
C -1.55874 2.683901 -0.795609 3 0 3 
z
" style="stroke: #1f77b4"/>
    </defs>
    <g clip-path="url(#p3ec3ab0635)">
     <use xlink:href="#m8d01c5531c" x="73.832727" y="113.879876" style="fill: #1f77b4; stroke: #1f77b4"/>
     <use xlink:href="#m8d01c5531c" x="77.112066" y="121.073424" style="fill: #1f77b4; stroke: #1f77b4"/>
     <use xlink:href="#m8d01c5531c" x="80.391405" y="140.722388" style="fill: #1f77b4; stroke: #1f77b4"/>
     <use xlink:href="#m8d01c5531c" x="83.670744" y="160.984375" style="fill: #1f77b4; stroke: #1f77b4"/>
     <use xlink:href="#m8d01c5531c" x="86.950083" y="166.978538" style="fill: #1f77b4; stroke: #1f77b4"/>
     <use xlink:href="#m8d01c5531c" x="90.229421" y="205.077593" style="fill: #1f77b4; stroke: #1f77b4"/>
     <use xlink:href="#m8d01c5531c" x="93.50876" y="198.883957" style="fill: #1f77b4; stroke: #1f77b4"/>
     <use xlink:href="#m8d01c5531c" x="96.788099" y="189.801304" style="fill: #1f77b4; stroke: #1f77b4"/>
     <use xlink:href="#m8d01c5531c" x="100.067438" y="175.015252" style="fill: #1f77b4; stroke: #1f77b4"/>
     <use xlink:href="#m8d01c5531c" x="103.346777" y="155.061469" style="fill: #1f77b4; stroke: #1f77b4"/>
     <use xlink:href="#m8d01c5531c" x="106.626116" y="145.394415" style="fill: #1f77b4; stroke: #1f77b4"/>
     <use xlink:href="#m8d01c5531c" x="109.905455" y="118.732705" style="fill: #1f77b4; stroke: #1f77b4"/>
     <use xlink:href="#m8d01c5531c" x="113.184793" y="110.709492" style="fill: #1f77b4; stroke: #1f77b4"/>
     <use xlink:href="#m8d01c5531c" x="116.464132" y="123.435194" style="fill: #1f77b4; stroke: #1f77b4"/>
     <use xlink:href="#m8d01c5531c" x="119.743471" y="128.78343" style="fill: #1f77b4; stroke: #1f77b4"/>
     <use xlink:href="#m8d01c5531c" x="123.02281" y="140.867777" style="fill: #1f77b4; stroke: #1f77b4"/>
     <use xlink:href="#m8d01c5531c" x="126.302149" y="165.663259" style="fill: #1f77b4; stroke: #1f77b4"/>
     <use xlink:href="#m8d01c5531c" x="129.581488" y="186.456493" style="fill: #1f77b4; stroke: #1f77b4"/>
     <use xlink:href="#m8d01c5531c" x="132.860826" y="205.872021" style="fill: #1f77b4; stroke: #1f77b4"/>
     <use xlink:href="#m8d01c5531c" x="136.140165" y="209.333494" style="fill: #1f77b4; stroke: #1f77b4"/>
     <use xlink:href="#m8d01c5531c" x="139.419504" y="197.187732" style="fill: #1f77b4; stroke: #1f77b4"/>
     <use xlink:href="#m8d01c5531c" x="142.698843" y="190.135011" style="fill: #1f77b4; stroke: #1f77b4"/>
     <use xlink:href="#m8d01c5531c" x="145.978182" y="165.041449" style="fill: #1f77b4; stroke: #1f77b4"/>
     <use xlink:href="#m8d01c5531c" x="149.257521" y="153.87867" style="fill: #1f77b4; stroke: #1f77b4"/>
     <use xlink:href="#m8d01c5531c" x="152.53686" y="154.001002" style="fill: #1f77b4; stroke: #1f77b4"/>
     <use xlink:href="#m8d01c5531c" x="155.816198" y="146.419889" style="fill: #1f77b4; stroke: #1f77b4"/>
     <use xlink:href="#m8d01c5531c" x="159.095537" y="141.801672" style="fill: #1f77b4; stroke: #1f77b4"/>
     <use xlink:href="#m8d01c5531c" x="162.374876" y="174.09156" style="fill: #1f77b4; stroke: #1f77b4"/>
     <use xlink:href="#m8d01c5531c" x="165.654215" y="185.904205" style="fill: #1f77b4; stroke: #1f77b4"/>
     <use xlink:href="#m8d01c5531c" x="168.933554" y="218.087557" style="fill: #1f77b4; stroke: #1f77b4"/>
     <use xlink:href="#m8d01c5531c" x="172.212893" y="237.872074" style="fill: #1f77b4; stroke: #1f77b4"/>
     <use xlink:href="#m8d01c5531c" x="175.492231" y="259.776139" style="fill: #1f77b4; stroke: #1f77b4"/>
     <use xlink:href="#m8d01c5531c" x="178.77157" y="263.581469" style="fill: #1f77b4; stroke: #1f77b4"/>
     <use xlink:href="#m8d01c5531c" x="182.050909" y="258.293183" style="fill: #1f77b4; stroke: #1f77b4"/>
     <use xlink:href="#m8d01c5531c" x="185.330248" y="234.699455" style="fill: #1f77b4; stroke: #1f77b4"/>
     <use xlink:href="#m8d01c5531c" x="188.609587" y="223.130376" style="fill: #1f77b4; stroke: #1f77b4"/>
     <use xlink:href="#m8d01c5531c" x="191.888926" y="210.112597" style="fill: #1f77b4; stroke: #1f77b4"/>
     <use xlink:href="#m8d01c5531c" x="195.168264" y="199.183227" style="fill: #1f77b4; stroke: #1f77b4"/>
     <use xlink:href="#m8d01c5531c" x="198.447603" y="201.675489" style="fill: #1f77b4; stroke: #1f77b4"/>
     <use xlink:href="#m8d01c5531c" x="201.726942" y="219.354376" style="fill: #1f77b4; stroke: #1f77b4"/>
     <use xlink:href="#m8d01c5531c" x="205.006281" y="237.053032" style="fill: #1f77b4; stroke: #1f77b4"/>
     <use xlink:href="#m8d01c5531c" x="208.28562" y="256.417422" style="fill: #1f77b4; stroke: #1f77b4"/>
     <use xlink:href="#m8d01c5531c" x="211.564959" y="275.275091" style="fill: #1f77b4; stroke: #1f77b4"/>
     <use xlink:href="#m8d01c5531c" x="214.844298" y="284.430019" style="fill: #1f77b4; stroke: #1f77b4"/>
     <use xlink:href="#m8d01c5531c" x="218.123636" y="289.272892" style="fill: #1f77b4; stroke: #1f77b4"/>
     <use xlink:href="#m8d01c5531c" x="221.402975" y="289.704712" style="fill: #1f77b4; stroke: #1f77b4"/>
     <use xlink:href="#m8d01c5531c" x="224.682314" y="269.863895" style="fill: #1f77b4; stroke: #1f77b4"/>
     <use xlink:href="#m8d01c5531c" x="227.961653" y="250.420895" style="fill: #1f77b4; stroke: #1f77b4"/>
     <use xlink:href="#m8d01c5531c" x="231.240992" y="227.166689" style="fill: #1f77b4; stroke: #1f77b4"/>
     <use xlink:href="#m8d01c5531c" x="234.520331" y="221.492549" style="fill: #1f77b4; stroke: #1f77b4"/>
     <use xlink:href="#m8d01c5531c" x="237.799669" y="199.923779" style="fill: #1f77b4; stroke: #1f77b4"/>
     <use xlink:href="#m8d01c5531c" x="241.079008" y="210.634913" style="fill: #1f77b4; stroke: #1f77b4"/>
     <use xlink:href="#m8d01c5531c" x="244.358347" y="208.225868" style="fill: #1f77b4; stroke: #1f77b4"/>
     <use xlink:href="#m8d01c5531c" x="247.637686" y="232.259825" style="fill: #1f77b4; stroke: #1f77b4"/>
     <use xlink:href="#m8d01c5531c" x="250.917025" y="249.789616" style="fill: #1f77b4; stroke: #1f77b4"/>
     <use xlink:href="#m8d01c5531c" x="254.196364" y="261.188734" style="fill: #1f77b4; stroke: #1f77b4"/>
     <use xlink:href="#m8d01c5531c" x="257.475702" y="263.401807" style="fill: #1f77b4; stroke: #1f77b4"/>
     <use xlink:href="#m8d01c5531c" x="260.755041" y="256.231507" style="fill: #1f77b4; stroke: #1f77b4"/>
     <use xlink:href="#m8d01c5531c" x="264.03438" y="236.879385" style="fill: #1f77b4; stroke: #1f77b4"/>
     <use xlink:href="#m8d01c5531c" x="267.313719" y="214.223601" style="fill: #1f77b4; stroke: #1f77b4"/>
     <use xlink:href="#m8d01c5531c" x="270.593058" y="193.691975" style="fill: #1f77b4; stroke: #1f77b4"/>
     <use xlink:href="#m8d01c5531c" x="273.872397" y="155.57223" style="fill: #1f77b4; stroke: #1f77b4"/>
     <use xlink:href="#m8d01c5531c" x="277.151736" y="139.713417" style="fill: #1f77b4; stroke: #1f77b4"/>
     <use xlink:href="#m8d01c5531c" x="280.431074" y="126.027793" style="fill: #1f77b4; stroke: #1f77b4"/>
     <use xlink:href="#m8d01c5531c" x="283.710413" y="152.864374" style="fill: #1f77b4; stroke: #1f77b4"/>
     <use xlink:href="#m8d01c5531c" x="286.989752" y="142.569356" style="fill: #1f77b4; stroke: #1f77b4"/>
     <use xlink:href="#m8d01c5531c" x="290.269091" y="161.571901" style="fill: #1f77b4; stroke: #1f77b4"/>
     <use xlink:href="#m8d01c5531c" x="293.54843" y="167.964431" style="fill: #1f77b4; stroke: #1f77b4"/>
     <use xlink:href="#m8d01c5531c" x="296.827769" y="165.544876" style="fill: #1f77b4; stroke: #1f77b4"/>
     <use xlink:href="#m8d01c5531c" x="300.107107" y="178.025321" style="fill: #1f77b4; stroke: #1f77b4"/>
     <use xlink:href="#m8d01c5531c" x="303.386446" y="162.383437" style="fill: #1f77b4; stroke: #1f77b4"/>
     <use xlink:href="#m8d01c5531c" x="306.665785" y="139.803327" style="fill: #1f77b4; stroke: #1f77b4"/>
     <use xlink:href="#m8d01c5531c" x="309.945124" y="126.699192" style="fill: #1f77b4; stroke: #1f77b4"/>
     <use xlink:href="#m8d01c5531c" x="313.224463" y="100.743314" style="fill: #1f77b4; stroke: #1f77b4"/>
     <use xlink:href="#m8d01c5531c" x="316.503802" y="69.401508" style="fill: #1f77b4; stroke: #1f77b4"/>
     <use xlink:href="#m8d01c5531c" x="319.78314" y="65.720516" style="fill: #1f77b4; stroke: #1f77b4"/>
     <use xlink:href="#m8d01c5531c" x="323.062479" y="63.764495" style="fill: #1f77b4; stroke: #1f77b4"/>
     <use xlink:href="#m8d01c5531c" x="326.341818" y="69.233306" style="fill: #1f77b4; stroke: #1f77b4"/>
     <use xlink:href="#m8d01c5531c" x="329.621157" y="83.441262" style="fill: #1f77b4; stroke: #1f77b4"/>
     <use xlink:href="#m8d01c5531c" x="332.900496" y="108.328584" style="fill: #1f77b4; stroke: #1f77b4"/>
     <use xlink:href="#m8d01c5531c" x="336.179835" y="113.151626" style="fill: #1f77b4; stroke: #1f77b4"/>
     <use xlink:href="#m8d01c5531c" x="339.459174" y="138.910294" style="fill: #1f77b4; stroke: #1f77b4"/>
     <use xlink:href="#m8d01c5531c" x="342.738512" y="128.863962" style="fill: #1f77b4; stroke: #1f77b4"/>
     <use xlink:href="#m8d01c5531c" x="346.017851" y="115.656009" style="fill: #1f77b4; stroke: #1f77b4"/>
     <use xlink:href="#m8d01c5531c" x="349.29719" y="112.561927" style="fill: #1f77b4; stroke: #1f77b4"/>
     <use xlink:href="#m8d01c5531c" x="352.576529" y="74.530381" style="fill: #1f77b4; stroke: #1f77b4"/>
     <use xlink:href="#m8d01c5531c" x="355.855868" y="60.950849" style="fill: #1f77b4; stroke: #1f77b4"/>
     <use xlink:href="#m8d01c5531c" x="359.135207" y="58.680227" style="fill: #1f77b4; stroke: #1f77b4"/>
     <use xlink:href="#m8d01c5531c" x="362.414545" y="53.745513" style="fill: #1f77b4; stroke: #1f77b4"/>
     <use xlink:href="#m8d01c5531c" x="365.693884" y="58.794627" style="fill: #1f77b4; stroke: #1f77b4"/>
     <use xlink:href="#m8d01c5531c" x="368.973223" y="80.055006" style="fill: #1f77b4; stroke: #1f77b4"/>
     <use xlink:href="#m8d01c5531c" x="372.252562" y="97.3141" style="fill: #1f77b4; stroke: #1f77b4"/>
     <use xlink:href="#m8d01c5531c" x="375.531901" y="132.772857" style="fill: #1f77b4; stroke: #1f77b4"/>
     <use xlink:href="#m8d01c5531c" x="378.81124" y="152.191605" style="fill: #1f77b4; stroke: #1f77b4"/>
     <use xlink:href="#m8d01c5531c" x="382.090579" y="156.991514" style="fill: #1f77b4; stroke: #1f77b4"/>
     <use xlink:href="#m8d01c5531c" x="385.369917" y="142.510681" style="fill: #1f77b4; stroke: #1f77b4"/>
     <use xlink:href="#m8d01c5531c" x="388.649256" y="126.150727" style="fill: #1f77b4; stroke: #1f77b4"/>
     <use xlink:href="#m8d01c5531c" x="391.928595" y="132.390096" style="fill: #1f77b4; stroke: #1f77b4"/>
     <use xlink:href="#m8d01c5531c" x="395.207934" y="119.921626" style="fill: #1f77b4; stroke: #1f77b4"/>
     <use xlink:href="#m8d01c5531c" x="398.487273" y="87.58746" style="fill: #1f77b4; stroke: #1f77b4"/>
    </g>
   </g>
   <g id="line2d_30">
    <path d="M 73.832727 114.033465 
L 77.112066 120.850429 
L 80.391405 135.858839 
L 83.670744 155.777065 
L 86.950083 175.98303 
L 90.229421 191.672953 
L 93.50876 199.062797 
L 96.788099 196.338272 
L 100.067438 184.120805 
L 103.346777 165.335408 
L 106.626116 144.512781 
L 109.905455 126.696525 
L 113.184793 116.223016 
L 116.464132 115.672671 
L 119.743471 125.249372 
L 123.02281 142.740003 
L 126.302149 164.064016 
L 129.581488 184.278504 
L 132.860826 198.79272 
L 136.140165 204.494739 
L 139.419504 200.514451 
L 142.698843 188.436139 
L 145.978182 171.908666 
L 149.257521 155.748769 
L 152.53686 144.757103 
L 155.816198 142.536995 
L 159.095537 150.605208 
L 162.374876 168.012559 
L 165.654215 191.567362 
L 168.933554 216.607134 
L 172.212893 238.129736 
L 175.492231 252.007131 
L 178.77157 255.98473 
L 182.050909 250.221779 
L 185.330248 237.240613 
L 188.609587 221.297345 
L 191.888926 207.328186 
L 195.168264 199.729517 
L 198.447603 201.270508 
L 201.726942 212.404643 
L 205.006281 231.148822 
L 208.28562 253.559752 
L 211.564959 274.691084 
L 214.844298 289.797052 
L 218.123636 295.488 
L 221.402975 290.554949 
L 224.682314 276.26139 
L 227.961653 256.030893 
L 231.240992 234.607074 
L 234.520331 216.891586 
L 237.799669 206.744664 
L 241.079008 206.041881 
L 244.358347 214.218036 
L 247.637686 228.409824 
L 250.917025 244.162314 
L 254.196364 256.526211 
L 257.475702 261.277193 
L 260.755041 255.958712 
L 264.03438 240.492863 
L 267.313719 217.20966 
L 270.593058 190.287462 
L 273.872397 164.74143 
L 277.151736 145.207579 
L 280.431074 134.819999 
L 283.710413 134.456022 
L 286.989752 142.534032 
L 290.269091 155.413277 
L 293.54843 168.297684 
L 296.827769 176.422266 
L 300.107107 176.231516 
L 303.386446 166.261174 
L 306.665785 147.50736 
L 309.945124 123.192587 
L 313.224463 97.985852 
L 316.503802 76.867653 
L 319.78314 63.917752 
L 323.062479 61.322387 
L 326.341818 68.843961 
L 329.621157 83.882987 
L 332.900496 102.117092 
L 336.179835 118.560596 
L 339.459174 128.785239 
L 342.738512 130.003175 
L 346.017851 121.747088 
L 349.29719 105.980949 
L 352.576529 86.614316 
L 355.855868 68.539162 
L 359.135207 56.425092 
L 362.414545 53.568 
L 365.693884 61.074139 
L 368.973223 77.579453 
L 372.252562 99.572996 
L 375.531901 122.245347 
L 378.81124 140.654429 
L 382.090579 150.923396 
L 385.369917 151.17744 
L 388.649256 141.990268 
L 391.928595 126.231072 
L 395.207934 108.349572 
L 398.487273 93.274314 
" clip-path="url(#p3ec3ab0635)" style="fill: none; stroke: #ff7f0e; stroke-width: 1.5; stroke-linecap: square"/>
    <defs>
     <path id="m1bda91587a" d="M 0 3 
C 0.795609 3 1.55874 2.683901 2.12132 2.12132 
C 2.683901 1.55874 3 0.795609 3 0 
C 3 -0.795609 2.683901 -1.55874 2.12132 -2.12132 
C 1.55874 -2.683901 0.795609 -3 0 -3 
C -0.795609 -3 -1.55874 -2.683901 -2.12132 -2.12132 
C -2.683901 -1.55874 -3 -0.795609 -3 0 
C -3 0.795609 -2.683901 1.55874 -2.12132 2.12132 
C -1.55874 2.683901 -0.795609 3 0 3 
z
" style="stroke: #ff7f0e"/>
    </defs>
    <g clip-path="url(#p3ec3ab0635)">
     <use xlink:href="#m1bda91587a" x="73.832727" y="114.033465" style="fill: #ff7f0e; stroke: #ff7f0e"/>
     <use xlink:href="#m1bda91587a" x="77.112066" y="120.850429" style="fill: #ff7f0e; stroke: #ff7f0e"/>
     <use xlink:href="#m1bda91587a" x="80.391405" y="135.858839" style="fill: #ff7f0e; stroke: #ff7f0e"/>
     <use xlink:href="#m1bda91587a" x="83.670744" y="155.777065" style="fill: #ff7f0e; stroke: #ff7f0e"/>
     <use xlink:href="#m1bda91587a" x="86.950083" y="175.98303" style="fill: #ff7f0e; stroke: #ff7f0e"/>
     <use xlink:href="#m1bda91587a" x="90.229421" y="191.672953" style="fill: #ff7f0e; stroke: #ff7f0e"/>
     <use xlink:href="#m1bda91587a" x="93.50876" y="199.062797" style="fill: #ff7f0e; stroke: #ff7f0e"/>
     <use xlink:href="#m1bda91587a" x="96.788099" y="196.338272" style="fill: #ff7f0e; stroke: #ff7f0e"/>
     <use xlink:href="#m1bda91587a" x="100.067438" y="184.120805" style="fill: #ff7f0e; stroke: #ff7f0e"/>
     <use xlink:href="#m1bda91587a" x="103.346777" y="165.335408" style="fill: #ff7f0e; stroke: #ff7f0e"/>
     <use xlink:href="#m1bda91587a" x="106.626116" y="144.512781" style="fill: #ff7f0e; stroke: #ff7f0e"/>
     <use xlink:href="#m1bda91587a" x="109.905455" y="126.696525" style="fill: #ff7f0e; stroke: #ff7f0e"/>
     <use xlink:href="#m1bda91587a" x="113.184793" y="116.223016" style="fill: #ff7f0e; stroke: #ff7f0e"/>
     <use xlink:href="#m1bda91587a" x="116.464132" y="115.672671" style="fill: #ff7f0e; stroke: #ff7f0e"/>
     <use xlink:href="#m1bda91587a" x="119.743471" y="125.249372" style="fill: #ff7f0e; stroke: #ff7f0e"/>
     <use xlink:href="#m1bda91587a" x="123.02281" y="142.740003" style="fill: #ff7f0e; stroke: #ff7f0e"/>
     <use xlink:href="#m1bda91587a" x="126.302149" y="164.064016" style="fill: #ff7f0e; stroke: #ff7f0e"/>
     <use xlink:href="#m1bda91587a" x="129.581488" y="184.278504" style="fill: #ff7f0e; stroke: #ff7f0e"/>
     <use xlink:href="#m1bda91587a" x="132.860826" y="198.79272" style="fill: #ff7f0e; stroke: #ff7f0e"/>
     <use xlink:href="#m1bda91587a" x="136.140165" y="204.494739" style="fill: #ff7f0e; stroke: #ff7f0e"/>
     <use xlink:href="#m1bda91587a" x="139.419504" y="200.514451" style="fill: #ff7f0e; stroke: #ff7f0e"/>
     <use xlink:href="#m1bda91587a" x="142.698843" y="188.436139" style="fill: #ff7f0e; stroke: #ff7f0e"/>
     <use xlink:href="#m1bda91587a" x="145.978182" y="171.908666" style="fill: #ff7f0e; stroke: #ff7f0e"/>
     <use xlink:href="#m1bda91587a" x="149.257521" y="155.748769" style="fill: #ff7f0e; stroke: #ff7f0e"/>
     <use xlink:href="#m1bda91587a" x="152.53686" y="144.757103" style="fill: #ff7f0e; stroke: #ff7f0e"/>
     <use xlink:href="#m1bda91587a" x="155.816198" y="142.536995" style="fill: #ff7f0e; stroke: #ff7f0e"/>
     <use xlink:href="#m1bda91587a" x="159.095537" y="150.605208" style="fill: #ff7f0e; stroke: #ff7f0e"/>
     <use xlink:href="#m1bda91587a" x="162.374876" y="168.012559" style="fill: #ff7f0e; stroke: #ff7f0e"/>
     <use xlink:href="#m1bda91587a" x="165.654215" y="191.567362" style="fill: #ff7f0e; stroke: #ff7f0e"/>
     <use xlink:href="#m1bda91587a" x="168.933554" y="216.607134" style="fill: #ff7f0e; stroke: #ff7f0e"/>
     <use xlink:href="#m1bda91587a" x="172.212893" y="238.129736" style="fill: #ff7f0e; stroke: #ff7f0e"/>
     <use xlink:href="#m1bda91587a" x="175.492231" y="252.007131" style="fill: #ff7f0e; stroke: #ff7f0e"/>
     <use xlink:href="#m1bda91587a" x="178.77157" y="255.98473" style="fill: #ff7f0e; stroke: #ff7f0e"/>
     <use xlink:href="#m1bda91587a" x="182.050909" y="250.221779" style="fill: #ff7f0e; stroke: #ff7f0e"/>
     <use xlink:href="#m1bda91587a" x="185.330248" y="237.240613" style="fill: #ff7f0e; stroke: #ff7f0e"/>
     <use xlink:href="#m1bda91587a" x="188.609587" y="221.297345" style="fill: #ff7f0e; stroke: #ff7f0e"/>
     <use xlink:href="#m1bda91587a" x="191.888926" y="207.328186" style="fill: #ff7f0e; stroke: #ff7f0e"/>
     <use xlink:href="#m1bda91587a" x="195.168264" y="199.729517" style="fill: #ff7f0e; stroke: #ff7f0e"/>
     <use xlink:href="#m1bda91587a" x="198.447603" y="201.270508" style="fill: #ff7f0e; stroke: #ff7f0e"/>
     <use xlink:href="#m1bda91587a" x="201.726942" y="212.404643" style="fill: #ff7f0e; stroke: #ff7f0e"/>
     <use xlink:href="#m1bda91587a" x="205.006281" y="231.148822" style="fill: #ff7f0e; stroke: #ff7f0e"/>
     <use xlink:href="#m1bda91587a" x="208.28562" y="253.559752" style="fill: #ff7f0e; stroke: #ff7f0e"/>
     <use xlink:href="#m1bda91587a" x="211.564959" y="274.691084" style="fill: #ff7f0e; stroke: #ff7f0e"/>
     <use xlink:href="#m1bda91587a" x="214.844298" y="289.797052" style="fill: #ff7f0e; stroke: #ff7f0e"/>
     <use xlink:href="#m1bda91587a" x="218.123636" y="295.488" style="fill: #ff7f0e; stroke: #ff7f0e"/>
     <use xlink:href="#m1bda91587a" x="221.402975" y="290.554949" style="fill: #ff7f0e; stroke: #ff7f0e"/>
     <use xlink:href="#m1bda91587a" x="224.682314" y="276.26139" style="fill: #ff7f0e; stroke: #ff7f0e"/>
     <use xlink:href="#m1bda91587a" x="227.961653" y="256.030893" style="fill: #ff7f0e; stroke: #ff7f0e"/>
     <use xlink:href="#m1bda91587a" x="231.240992" y="234.607074" style="fill: #ff7f0e; stroke: #ff7f0e"/>
     <use xlink:href="#m1bda91587a" x="234.520331" y="216.891586" style="fill: #ff7f0e; stroke: #ff7f0e"/>
     <use xlink:href="#m1bda91587a" x="237.799669" y="206.744664" style="fill: #ff7f0e; stroke: #ff7f0e"/>
     <use xlink:href="#m1bda91587a" x="241.079008" y="206.041881" style="fill: #ff7f0e; stroke: #ff7f0e"/>
     <use xlink:href="#m1bda91587a" x="244.358347" y="214.218036" style="fill: #ff7f0e; stroke: #ff7f0e"/>
     <use xlink:href="#m1bda91587a" x="247.637686" y="228.409824" style="fill: #ff7f0e; stroke: #ff7f0e"/>
     <use xlink:href="#m1bda91587a" x="250.917025" y="244.162314" style="fill: #ff7f0e; stroke: #ff7f0e"/>
     <use xlink:href="#m1bda91587a" x="254.196364" y="256.526211" style="fill: #ff7f0e; stroke: #ff7f0e"/>
     <use xlink:href="#m1bda91587a" x="257.475702" y="261.277193" style="fill: #ff7f0e; stroke: #ff7f0e"/>
     <use xlink:href="#m1bda91587a" x="260.755041" y="255.958712" style="fill: #ff7f0e; stroke: #ff7f0e"/>
     <use xlink:href="#m1bda91587a" x="264.03438" y="240.492863" style="fill: #ff7f0e; stroke: #ff7f0e"/>
     <use xlink:href="#m1bda91587a" x="267.313719" y="217.20966" style="fill: #ff7f0e; stroke: #ff7f0e"/>
     <use xlink:href="#m1bda91587a" x="270.593058" y="190.287462" style="fill: #ff7f0e; stroke: #ff7f0e"/>
     <use xlink:href="#m1bda91587a" x="273.872397" y="164.74143" style="fill: #ff7f0e; stroke: #ff7f0e"/>
     <use xlink:href="#m1bda91587a" x="277.151736" y="145.207579" style="fill: #ff7f0e; stroke: #ff7f0e"/>
     <use xlink:href="#m1bda91587a" x="280.431074" y="134.819999" style="fill: #ff7f0e; stroke: #ff7f0e"/>
     <use xlink:href="#m1bda91587a" x="283.710413" y="134.456022" style="fill: #ff7f0e; stroke: #ff7f0e"/>
     <use xlink:href="#m1bda91587a" x="286.989752" y="142.534032" style="fill: #ff7f0e; stroke: #ff7f0e"/>
     <use xlink:href="#m1bda91587a" x="290.269091" y="155.413277" style="fill: #ff7f0e; stroke: #ff7f0e"/>
     <use xlink:href="#m1bda91587a" x="293.54843" y="168.297684" style="fill: #ff7f0e; stroke: #ff7f0e"/>
     <use xlink:href="#m1bda91587a" x="296.827769" y="176.422266" style="fill: #ff7f0e; stroke: #ff7f0e"/>
     <use xlink:href="#m1bda91587a" x="300.107107" y="176.231516" style="fill: #ff7f0e; stroke: #ff7f0e"/>
     <use xlink:href="#m1bda91587a" x="303.386446" y="166.261174" style="fill: #ff7f0e; stroke: #ff7f0e"/>
     <use xlink:href="#m1bda91587a" x="306.665785" y="147.50736" style="fill: #ff7f0e; stroke: #ff7f0e"/>
     <use xlink:href="#m1bda91587a" x="309.945124" y="123.192587" style="fill: #ff7f0e; stroke: #ff7f0e"/>
     <use xlink:href="#m1bda91587a" x="313.224463" y="97.985852" style="fill: #ff7f0e; stroke: #ff7f0e"/>
     <use xlink:href="#m1bda91587a" x="316.503802" y="76.867653" style="fill: #ff7f0e; stroke: #ff7f0e"/>
     <use xlink:href="#m1bda91587a" x="319.78314" y="63.917752" style="fill: #ff7f0e; stroke: #ff7f0e"/>
     <use xlink:href="#m1bda91587a" x="323.062479" y="61.322387" style="fill: #ff7f0e; stroke: #ff7f0e"/>
     <use xlink:href="#m1bda91587a" x="326.341818" y="68.843961" style="fill: #ff7f0e; stroke: #ff7f0e"/>
     <use xlink:href="#m1bda91587a" x="329.621157" y="83.882987" style="fill: #ff7f0e; stroke: #ff7f0e"/>
     <use xlink:href="#m1bda91587a" x="332.900496" y="102.117092" style="fill: #ff7f0e; stroke: #ff7f0e"/>
     <use xlink:href="#m1bda91587a" x="336.179835" y="118.560596" style="fill: #ff7f0e; stroke: #ff7f0e"/>
     <use xlink:href="#m1bda91587a" x="339.459174" y="128.785239" style="fill: #ff7f0e; stroke: #ff7f0e"/>
     <use xlink:href="#m1bda91587a" x="342.738512" y="130.003175" style="fill: #ff7f0e; stroke: #ff7f0e"/>
     <use xlink:href="#m1bda91587a" x="346.017851" y="121.747088" style="fill: #ff7f0e; stroke: #ff7f0e"/>
     <use xlink:href="#m1bda91587a" x="349.29719" y="105.980949" style="fill: #ff7f0e; stroke: #ff7f0e"/>
     <use xlink:href="#m1bda91587a" x="352.576529" y="86.614316" style="fill: #ff7f0e; stroke: #ff7f0e"/>
     <use xlink:href="#m1bda91587a" x="355.855868" y="68.539162" style="fill: #ff7f0e; stroke: #ff7f0e"/>
     <use xlink:href="#m1bda91587a" x="359.135207" y="56.425092" style="fill: #ff7f0e; stroke: #ff7f0e"/>
     <use xlink:href="#m1bda91587a" x="362.414545" y="53.568" style="fill: #ff7f0e; stroke: #ff7f0e"/>
     <use xlink:href="#m1bda91587a" x="365.693884" y="61.074139" style="fill: #ff7f0e; stroke: #ff7f0e"/>
     <use xlink:href="#m1bda91587a" x="368.973223" y="77.579453" style="fill: #ff7f0e; stroke: #ff7f0e"/>
     <use xlink:href="#m1bda91587a" x="372.252562" y="99.572996" style="fill: #ff7f0e; stroke: #ff7f0e"/>
     <use xlink:href="#m1bda91587a" x="375.531901" y="122.245347" style="fill: #ff7f0e; stroke: #ff7f0e"/>
     <use xlink:href="#m1bda91587a" x="378.81124" y="140.654429" style="fill: #ff7f0e; stroke: #ff7f0e"/>
     <use xlink:href="#m1bda91587a" x="382.090579" y="150.923396" style="fill: #ff7f0e; stroke: #ff7f0e"/>
     <use xlink:href="#m1bda91587a" x="385.369917" y="151.17744" style="fill: #ff7f0e; stroke: #ff7f0e"/>
     <use xlink:href="#m1bda91587a" x="388.649256" y="141.990268" style="fill: #ff7f0e; stroke: #ff7f0e"/>
     <use xlink:href="#m1bda91587a" x="391.928595" y="126.231072" style="fill: #ff7f0e; stroke: #ff7f0e"/>
     <use xlink:href="#m1bda91587a" x="395.207934" y="108.349572" style="fill: #ff7f0e; stroke: #ff7f0e"/>
     <use xlink:href="#m1bda91587a" x="398.487273" y="93.274314" style="fill: #ff7f0e; stroke: #ff7f0e"/>
    </g>
   </g>
   <g id="line2d_31">
    <path d="M 73.832727 114.033465 
L 77.112066 120.850429 
L 80.391405 135.858839 
L 83.670744 155.777065 
L 86.950083 175.98303 
L 90.229421 191.672953 
L 93.50876 199.062797 
L 96.788099 196.338272 
L 100.067438 184.120805 
L 103.346777 165.335408 
L 106.626116 144.512781 
L 109.905455 126.696525 
L 113.184793 116.223016 
L 116.464132 115.672671 
L 119.743471 125.249372 
L 123.02281 142.740003 
L 126.302149 164.064016 
L 129.581488 184.278504 
L 132.860826 198.79272 
L 136.140165 204.494739 
L 139.419504 200.514451 
L 142.698843 188.436139 
L 145.978182 171.908666 
L 149.257521 155.748769 
L 152.53686 144.757103 
L 155.816198 142.536995 
L 159.095537 150.605208 
L 162.374876 168.012559 
L 165.654215 191.567362 
L 168.933554 216.607134 
L 172.212893 238.129736 
L 175.492231 252.007131 
L 178.77157 255.98473 
L 182.050909 250.221779 
L 185.330248 237.240613 
L 188.609587 221.297345 
L 191.888926 207.328186 
L 195.168264 199.729517 
L 198.447603 201.270508 
L 201.726942 212.404643 
L 205.006281 231.148822 
L 208.28562 253.559752 
L 211.564959 274.691084 
L 214.844298 289.797052 
L 218.123636 295.488 
L 221.402975 290.554949 
L 224.682314 276.26139 
L 227.961653 256.030893 
L 231.240992 234.607074 
L 234.520331 216.891586 
L 237.799669 206.744664 
L 241.079008 206.041881 
L 244.358347 214.218036 
L 247.637686 228.409824 
L 250.917025 244.162314 
L 254.196364 256.526211 
L 257.475702 261.277193 
L 260.755041 255.958712 
L 264.03438 240.492863 
L 267.313719 217.20966 
L 270.593058 190.287462 
L 273.872397 164.74143 
L 277.151736 145.207579 
L 280.431074 134.819999 
L 283.710413 134.456022 
L 286.989752 142.534032 
L 290.269091 155.413277 
L 293.54843 168.297684 
L 296.827769 176.422266 
L 300.107107 176.231516 
L 303.386446 166.261174 
L 306.665785 147.50736 
L 309.945124 123.192587 
L 313.224463 97.985852 
L 316.503802 76.867653 
L 319.78314 63.917752 
L 323.062479 61.322387 
L 326.341818 68.843961 
L 329.621157 83.882987 
L 332.900496 102.117092 
L 336.179835 118.560596 
L 339.459174 128.785239 
L 342.738512 130.003175 
L 346.017851 121.747088 
L 349.29719 105.980949 
L 352.576529 86.614316 
L 355.855868 68.539162 
L 359.135207 56.425092 
L 362.414545 53.568 
L 365.693884 61.074139 
L 368.973223 77.579453 
L 372.252562 99.572996 
L 375.531901 122.245347 
L 378.81124 140.654429 
L 382.090579 150.923396 
L 385.369917 151.17744 
L 388.649256 141.990268 
L 391.928595 126.231072 
L 395.207934 108.349572 
L 398.487273 93.274314 
" clip-path="url(#p3ec3ab0635)" style="fill: none; stroke: #ff0000; stroke-width: 1.5; stroke-linecap: square"/>
    <defs>
     <path id="mabd21a03c5" d="M 0 -3 
L -0.673542 -0.927051 
L -2.85317 -0.927051 
L -1.089814 0.354102 
L -1.763356 2.427051 
L -0 1.145898 
L 1.763356 2.427051 
L 1.089814 0.354102 
L 2.85317 -0.927051 
L 0.673542 -0.927051 
z
" style="stroke: #ff0000; stroke-linejoin: bevel"/>
    </defs>
    <g clip-path="url(#p3ec3ab0635)">
     <use xlink:href="#mabd21a03c5" x="73.832727" y="114.033465" style="fill: #ff0000; stroke: #ff0000; stroke-linejoin: bevel"/>
     <use xlink:href="#mabd21a03c5" x="77.112066" y="120.850429" style="fill: #ff0000; stroke: #ff0000; stroke-linejoin: bevel"/>
     <use xlink:href="#mabd21a03c5" x="80.391405" y="135.858839" style="fill: #ff0000; stroke: #ff0000; stroke-linejoin: bevel"/>
     <use xlink:href="#mabd21a03c5" x="83.670744" y="155.777065" style="fill: #ff0000; stroke: #ff0000; stroke-linejoin: bevel"/>
     <use xlink:href="#mabd21a03c5" x="86.950083" y="175.98303" style="fill: #ff0000; stroke: #ff0000; stroke-linejoin: bevel"/>
     <use xlink:href="#mabd21a03c5" x="90.229421" y="191.672953" style="fill: #ff0000; stroke: #ff0000; stroke-linejoin: bevel"/>
     <use xlink:href="#mabd21a03c5" x="93.50876" y="199.062797" style="fill: #ff0000; stroke: #ff0000; stroke-linejoin: bevel"/>
     <use xlink:href="#mabd21a03c5" x="96.788099" y="196.338272" style="fill: #ff0000; stroke: #ff0000; stroke-linejoin: bevel"/>
     <use xlink:href="#mabd21a03c5" x="100.067438" y="184.120805" style="fill: #ff0000; stroke: #ff0000; stroke-linejoin: bevel"/>
     <use xlink:href="#mabd21a03c5" x="103.346777" y="165.335408" style="fill: #ff0000; stroke: #ff0000; stroke-linejoin: bevel"/>
     <use xlink:href="#mabd21a03c5" x="106.626116" y="144.512781" style="fill: #ff0000; stroke: #ff0000; stroke-linejoin: bevel"/>
     <use xlink:href="#mabd21a03c5" x="109.905455" y="126.696525" style="fill: #ff0000; stroke: #ff0000; stroke-linejoin: bevel"/>
     <use xlink:href="#mabd21a03c5" x="113.184793" y="116.223016" style="fill: #ff0000; stroke: #ff0000; stroke-linejoin: bevel"/>
     <use xlink:href="#mabd21a03c5" x="116.464132" y="115.672671" style="fill: #ff0000; stroke: #ff0000; stroke-linejoin: bevel"/>
     <use xlink:href="#mabd21a03c5" x="119.743471" y="125.249372" style="fill: #ff0000; stroke: #ff0000; stroke-linejoin: bevel"/>
     <use xlink:href="#mabd21a03c5" x="123.02281" y="142.740003" style="fill: #ff0000; stroke: #ff0000; stroke-linejoin: bevel"/>
     <use xlink:href="#mabd21a03c5" x="126.302149" y="164.064016" style="fill: #ff0000; stroke: #ff0000; stroke-linejoin: bevel"/>
     <use xlink:href="#mabd21a03c5" x="129.581488" y="184.278504" style="fill: #ff0000; stroke: #ff0000; stroke-linejoin: bevel"/>
     <use xlink:href="#mabd21a03c5" x="132.860826" y="198.79272" style="fill: #ff0000; stroke: #ff0000; stroke-linejoin: bevel"/>
     <use xlink:href="#mabd21a03c5" x="136.140165" y="204.494739" style="fill: #ff0000; stroke: #ff0000; stroke-linejoin: bevel"/>
     <use xlink:href="#mabd21a03c5" x="139.419504" y="200.514451" style="fill: #ff0000; stroke: #ff0000; stroke-linejoin: bevel"/>
     <use xlink:href="#mabd21a03c5" x="142.698843" y="188.436139" style="fill: #ff0000; stroke: #ff0000; stroke-linejoin: bevel"/>
     <use xlink:href="#mabd21a03c5" x="145.978182" y="171.908666" style="fill: #ff0000; stroke: #ff0000; stroke-linejoin: bevel"/>
     <use xlink:href="#mabd21a03c5" x="149.257521" y="155.748769" style="fill: #ff0000; stroke: #ff0000; stroke-linejoin: bevel"/>
     <use xlink:href="#mabd21a03c5" x="152.53686" y="144.757103" style="fill: #ff0000; stroke: #ff0000; stroke-linejoin: bevel"/>
     <use xlink:href="#mabd21a03c5" x="155.816198" y="142.536995" style="fill: #ff0000; stroke: #ff0000; stroke-linejoin: bevel"/>
     <use xlink:href="#mabd21a03c5" x="159.095537" y="150.605208" style="fill: #ff0000; stroke: #ff0000; stroke-linejoin: bevel"/>
     <use xlink:href="#mabd21a03c5" x="162.374876" y="168.012559" style="fill: #ff0000; stroke: #ff0000; stroke-linejoin: bevel"/>
     <use xlink:href="#mabd21a03c5" x="165.654215" y="191.567362" style="fill: #ff0000; stroke: #ff0000; stroke-linejoin: bevel"/>
     <use xlink:href="#mabd21a03c5" x="168.933554" y="216.607134" style="fill: #ff0000; stroke: #ff0000; stroke-linejoin: bevel"/>
     <use xlink:href="#mabd21a03c5" x="172.212893" y="238.129736" style="fill: #ff0000; stroke: #ff0000; stroke-linejoin: bevel"/>
     <use xlink:href="#mabd21a03c5" x="175.492231" y="252.007131" style="fill: #ff0000; stroke: #ff0000; stroke-linejoin: bevel"/>
     <use xlink:href="#mabd21a03c5" x="178.77157" y="255.98473" style="fill: #ff0000; stroke: #ff0000; stroke-linejoin: bevel"/>
     <use xlink:href="#mabd21a03c5" x="182.050909" y="250.221779" style="fill: #ff0000; stroke: #ff0000; stroke-linejoin: bevel"/>
     <use xlink:href="#mabd21a03c5" x="185.330248" y="237.240613" style="fill: #ff0000; stroke: #ff0000; stroke-linejoin: bevel"/>
     <use xlink:href="#mabd21a03c5" x="188.609587" y="221.297345" style="fill: #ff0000; stroke: #ff0000; stroke-linejoin: bevel"/>
     <use xlink:href="#mabd21a03c5" x="191.888926" y="207.328186" style="fill: #ff0000; stroke: #ff0000; stroke-linejoin: bevel"/>
     <use xlink:href="#mabd21a03c5" x="195.168264" y="199.729517" style="fill: #ff0000; stroke: #ff0000; stroke-linejoin: bevel"/>
     <use xlink:href="#mabd21a03c5" x="198.447603" y="201.270508" style="fill: #ff0000; stroke: #ff0000; stroke-linejoin: bevel"/>
     <use xlink:href="#mabd21a03c5" x="201.726942" y="212.404643" style="fill: #ff0000; stroke: #ff0000; stroke-linejoin: bevel"/>
     <use xlink:href="#mabd21a03c5" x="205.006281" y="231.148822" style="fill: #ff0000; stroke: #ff0000; stroke-linejoin: bevel"/>
     <use xlink:href="#mabd21a03c5" x="208.28562" y="253.559752" style="fill: #ff0000; stroke: #ff0000; stroke-linejoin: bevel"/>
     <use xlink:href="#mabd21a03c5" x="211.564959" y="274.691084" style="fill: #ff0000; stroke: #ff0000; stroke-linejoin: bevel"/>
     <use xlink:href="#mabd21a03c5" x="214.844298" y="289.797052" style="fill: #ff0000; stroke: #ff0000; stroke-linejoin: bevel"/>
     <use xlink:href="#mabd21a03c5" x="218.123636" y="295.488" style="fill: #ff0000; stroke: #ff0000; stroke-linejoin: bevel"/>
     <use xlink:href="#mabd21a03c5" x="221.402975" y="290.554949" style="fill: #ff0000; stroke: #ff0000; stroke-linejoin: bevel"/>
     <use xlink:href="#mabd21a03c5" x="224.682314" y="276.26139" style="fill: #ff0000; stroke: #ff0000; stroke-linejoin: bevel"/>
     <use xlink:href="#mabd21a03c5" x="227.961653" y="256.030893" style="fill: #ff0000; stroke: #ff0000; stroke-linejoin: bevel"/>
     <use xlink:href="#mabd21a03c5" x="231.240992" y="234.607074" style="fill: #ff0000; stroke: #ff0000; stroke-linejoin: bevel"/>
     <use xlink:href="#mabd21a03c5" x="234.520331" y="216.891586" style="fill: #ff0000; stroke: #ff0000; stroke-linejoin: bevel"/>
     <use xlink:href="#mabd21a03c5" x="237.799669" y="206.744664" style="fill: #ff0000; stroke: #ff0000; stroke-linejoin: bevel"/>
     <use xlink:href="#mabd21a03c5" x="241.079008" y="206.041881" style="fill: #ff0000; stroke: #ff0000; stroke-linejoin: bevel"/>
     <use xlink:href="#mabd21a03c5" x="244.358347" y="214.218036" style="fill: #ff0000; stroke: #ff0000; stroke-linejoin: bevel"/>
     <use xlink:href="#mabd21a03c5" x="247.637686" y="228.409824" style="fill: #ff0000; stroke: #ff0000; stroke-linejoin: bevel"/>
     <use xlink:href="#mabd21a03c5" x="250.917025" y="244.162314" style="fill: #ff0000; stroke: #ff0000; stroke-linejoin: bevel"/>
     <use xlink:href="#mabd21a03c5" x="254.196364" y="256.526211" style="fill: #ff0000; stroke: #ff0000; stroke-linejoin: bevel"/>
     <use xlink:href="#mabd21a03c5" x="257.475702" y="261.277193" style="fill: #ff0000; stroke: #ff0000; stroke-linejoin: bevel"/>
     <use xlink:href="#mabd21a03c5" x="260.755041" y="255.958712" style="fill: #ff0000; stroke: #ff0000; stroke-linejoin: bevel"/>
     <use xlink:href="#mabd21a03c5" x="264.03438" y="240.492863" style="fill: #ff0000; stroke: #ff0000; stroke-linejoin: bevel"/>
     <use xlink:href="#mabd21a03c5" x="267.313719" y="217.20966" style="fill: #ff0000; stroke: #ff0000; stroke-linejoin: bevel"/>
     <use xlink:href="#mabd21a03c5" x="270.593058" y="190.287462" style="fill: #ff0000; stroke: #ff0000; stroke-linejoin: bevel"/>
     <use xlink:href="#mabd21a03c5" x="273.872397" y="164.74143" style="fill: #ff0000; stroke: #ff0000; stroke-linejoin: bevel"/>
     <use xlink:href="#mabd21a03c5" x="277.151736" y="145.207579" style="fill: #ff0000; stroke: #ff0000; stroke-linejoin: bevel"/>
     <use xlink:href="#mabd21a03c5" x="280.431074" y="134.819999" style="fill: #ff0000; stroke: #ff0000; stroke-linejoin: bevel"/>
     <use xlink:href="#mabd21a03c5" x="283.710413" y="134.456022" style="fill: #ff0000; stroke: #ff0000; stroke-linejoin: bevel"/>
     <use xlink:href="#mabd21a03c5" x="286.989752" y="142.534032" style="fill: #ff0000; stroke: #ff0000; stroke-linejoin: bevel"/>
     <use xlink:href="#mabd21a03c5" x="290.269091" y="155.413277" style="fill: #ff0000; stroke: #ff0000; stroke-linejoin: bevel"/>
     <use xlink:href="#mabd21a03c5" x="293.54843" y="168.297684" style="fill: #ff0000; stroke: #ff0000; stroke-linejoin: bevel"/>
     <use xlink:href="#mabd21a03c5" x="296.827769" y="176.422266" style="fill: #ff0000; stroke: #ff0000; stroke-linejoin: bevel"/>
     <use xlink:href="#mabd21a03c5" x="300.107107" y="176.231516" style="fill: #ff0000; stroke: #ff0000; stroke-linejoin: bevel"/>
     <use xlink:href="#mabd21a03c5" x="303.386446" y="166.261174" style="fill: #ff0000; stroke: #ff0000; stroke-linejoin: bevel"/>
     <use xlink:href="#mabd21a03c5" x="306.665785" y="147.50736" style="fill: #ff0000; stroke: #ff0000; stroke-linejoin: bevel"/>
     <use xlink:href="#mabd21a03c5" x="309.945124" y="123.192587" style="fill: #ff0000; stroke: #ff0000; stroke-linejoin: bevel"/>
     <use xlink:href="#mabd21a03c5" x="313.224463" y="97.985852" style="fill: #ff0000; stroke: #ff0000; stroke-linejoin: bevel"/>
     <use xlink:href="#mabd21a03c5" x="316.503802" y="76.867653" style="fill: #ff0000; stroke: #ff0000; stroke-linejoin: bevel"/>
     <use xlink:href="#mabd21a03c5" x="319.78314" y="63.917752" style="fill: #ff0000; stroke: #ff0000; stroke-linejoin: bevel"/>
     <use xlink:href="#mabd21a03c5" x="323.062479" y="61.322387" style="fill: #ff0000; stroke: #ff0000; stroke-linejoin: bevel"/>
     <use xlink:href="#mabd21a03c5" x="326.341818" y="68.843961" style="fill: #ff0000; stroke: #ff0000; stroke-linejoin: bevel"/>
     <use xlink:href="#mabd21a03c5" x="329.621157" y="83.882987" style="fill: #ff0000; stroke: #ff0000; stroke-linejoin: bevel"/>
     <use xlink:href="#mabd21a03c5" x="332.900496" y="102.117092" style="fill: #ff0000; stroke: #ff0000; stroke-linejoin: bevel"/>
     <use xlink:href="#mabd21a03c5" x="336.179835" y="118.560596" style="fill: #ff0000; stroke: #ff0000; stroke-linejoin: bevel"/>
     <use xlink:href="#mabd21a03c5" x="339.459174" y="128.785239" style="fill: #ff0000; stroke: #ff0000; stroke-linejoin: bevel"/>
     <use xlink:href="#mabd21a03c5" x="342.738512" y="130.003175" style="fill: #ff0000; stroke: #ff0000; stroke-linejoin: bevel"/>
     <use xlink:href="#mabd21a03c5" x="346.017851" y="121.747088" style="fill: #ff0000; stroke: #ff0000; stroke-linejoin: bevel"/>
     <use xlink:href="#mabd21a03c5" x="349.29719" y="105.980949" style="fill: #ff0000; stroke: #ff0000; stroke-linejoin: bevel"/>
     <use xlink:href="#mabd21a03c5" x="352.576529" y="86.614316" style="fill: #ff0000; stroke: #ff0000; stroke-linejoin: bevel"/>
     <use xlink:href="#mabd21a03c5" x="355.855868" y="68.539162" style="fill: #ff0000; stroke: #ff0000; stroke-linejoin: bevel"/>
     <use xlink:href="#mabd21a03c5" x="359.135207" y="56.425092" style="fill: #ff0000; stroke: #ff0000; stroke-linejoin: bevel"/>
     <use xlink:href="#mabd21a03c5" x="362.414545" y="53.568" style="fill: #ff0000; stroke: #ff0000; stroke-linejoin: bevel"/>
     <use xlink:href="#mabd21a03c5" x="365.693884" y="61.074139" style="fill: #ff0000; stroke: #ff0000; stroke-linejoin: bevel"/>
     <use xlink:href="#mabd21a03c5" x="368.973223" y="77.579453" style="fill: #ff0000; stroke: #ff0000; stroke-linejoin: bevel"/>
     <use xlink:href="#mabd21a03c5" x="372.252562" y="99.572996" style="fill: #ff0000; stroke: #ff0000; stroke-linejoin: bevel"/>
     <use xlink:href="#mabd21a03c5" x="375.531901" y="122.245347" style="fill: #ff0000; stroke: #ff0000; stroke-linejoin: bevel"/>
     <use xlink:href="#mabd21a03c5" x="378.81124" y="140.654429" style="fill: #ff0000; stroke: #ff0000; stroke-linejoin: bevel"/>
     <use xlink:href="#mabd21a03c5" x="382.090579" y="150.923396" style="fill: #ff0000; stroke: #ff0000; stroke-linejoin: bevel"/>
     <use xlink:href="#mabd21a03c5" x="385.369917" y="151.17744" style="fill: #ff0000; stroke: #ff0000; stroke-linejoin: bevel"/>
     <use xlink:href="#mabd21a03c5" x="388.649256" y="141.990268" style="fill: #ff0000; stroke: #ff0000; stroke-linejoin: bevel"/>
     <use xlink:href="#mabd21a03c5" x="391.928595" y="126.231072" style="fill: #ff0000; stroke: #ff0000; stroke-linejoin: bevel"/>
     <use xlink:href="#mabd21a03c5" x="395.207934" y="108.349572" style="fill: #ff0000; stroke: #ff0000; stroke-linejoin: bevel"/>
     <use xlink:href="#mabd21a03c5" x="398.487273" y="93.274314" style="fill: #ff0000; stroke: #ff0000; stroke-linejoin: bevel"/>
    </g>
   </g>
   <g id="patch_3">
    <path d="M 57.6 307.584 
L 57.6 41.472 
" style="fill: none; stroke: #000000; stroke-width: 0.8; stroke-linejoin: miter; stroke-linecap: square"/>
   </g>
   <g id="patch_4">
    <path d="M 414.72 307.584 
L 414.72 41.472 
" style="fill: none; stroke: #000000; stroke-width: 0.8; stroke-linejoin: miter; stroke-linecap: square"/>
   </g>
   <g id="patch_5">
    <path d="M 57.6 307.584 
L 414.72 307.584 
" style="fill: none; stroke: #000000; stroke-width: 0.8; stroke-linejoin: miter; stroke-linecap: square"/>
   </g>
   <g id="patch_6">
    <path d="M 57.6 41.472 
L 414.72 41.472 
" style="fill: none; stroke: #000000; stroke-width: 0.8; stroke-linejoin: miter; stroke-linecap: square"/>
   </g>
   <g id="text_17">
    <!-- Wykres dla funkcji -->
    <g transform="translate(181.366875 18.864375) scale(0.12 -0.12)">
     <defs>
      <path id="DejaVuSans-57" d="M 213 4666 
L 850 4666 
L 1831 722 
L 2809 4666 
L 3519 4666 
L 4500 722 
L 5478 4666 
L 6119 4666 
L 4947 0 
L 4153 0 
L 3169 4050 
L 2175 0 
L 1381 0 
L 213 4666 
z
" transform="scale(0.015625)"/>
      <path id="DejaVuSans-6b" d="M 581 4863 
L 1159 4863 
L 1159 1991 
L 2875 3500 
L 3609 3500 
L 1753 1863 
L 3688 0 
L 2938 0 
L 1159 1709 
L 1159 0 
L 581 0 
L 581 4863 
z
" transform="scale(0.015625)"/>
      <path id="DejaVuSans-72" d="M 2631 2963 
Q 2534 3019 2420 3045 
Q 2306 3072 2169 3072 
Q 1681 3072 1420 2755 
Q 1159 2438 1159 1844 
L 1159 0 
L 581 0 
L 581 3500 
L 1159 3500 
L 1159 2956 
Q 1341 3275 1631 3429 
Q 1922 3584 2338 3584 
Q 2397 3584 2469 3576 
Q 2541 3569 2628 3553 
L 2631 2963 
z
" transform="scale(0.015625)"/>
      <path id="DejaVuSans-65" d="M 3597 1894 
L 3597 1613 
L 953 1613 
Q 991 1019 1311 708 
Q 1631 397 2203 397 
Q 2534 397 2845 478 
Q 3156 559 3463 722 
L 3463 178 
Q 3153 47 2828 -22 
Q 2503 -91 2169 -91 
Q 1331 -91 842 396 
Q 353 884 353 1716 
Q 353 2575 817 3079 
Q 1281 3584 2069 3584 
Q 2775 3584 3186 3129 
Q 3597 2675 3597 1894 
z
M 3022 2063 
Q 3016 2534 2758 2815 
Q 2500 3097 2075 3097 
Q 1594 3097 1305 2825 
Q 1016 2553 972 2059 
L 3022 2063 
z
" transform="scale(0.015625)"/>
      <path id="DejaVuSans-73" d="M 2834 3397 
L 2834 2853 
Q 2591 2978 2328 3040 
Q 2066 3103 1784 3103 
Q 1356 3103 1142 2972 
Q 928 2841 928 2578 
Q 928 2378 1081 2264 
Q 1234 2150 1697 2047 
L 1894 2003 
Q 2506 1872 2764 1633 
Q 3022 1394 3022 966 
Q 3022 478 2636 193 
Q 2250 -91 1575 -91 
Q 1294 -91 989 -36 
Q 684 19 347 128 
L 347 722 
Q 666 556 975 473 
Q 1284 391 1588 391 
Q 1994 391 2212 530 
Q 2431 669 2431 922 
Q 2431 1156 2273 1281 
Q 2116 1406 1581 1522 
L 1381 1569 
Q 847 1681 609 1914 
Q 372 2147 372 2553 
Q 372 3047 722 3315 
Q 1072 3584 1716 3584 
Q 2034 3584 2315 3537 
Q 2597 3491 2834 3397 
z
" transform="scale(0.015625)"/>
      <path id="DejaVuSans-20" transform="scale(0.015625)"/>
      <path id="DejaVuSans-64" d="M 2906 2969 
L 2906 4863 
L 3481 4863 
L 3481 0 
L 2906 0 
L 2906 525 
Q 2725 213 2448 61 
Q 2172 -91 1784 -91 
Q 1150 -91 751 415 
Q 353 922 353 1747 
Q 353 2572 751 3078 
Q 1150 3584 1784 3584 
Q 2172 3584 2448 3432 
Q 2725 3281 2906 2969 
z
M 947 1747 
Q 947 1113 1208 752 
Q 1469 391 1925 391 
Q 2381 391 2643 752 
Q 2906 1113 2906 1747 
Q 2906 2381 2643 2742 
Q 2381 3103 1925 3103 
Q 1469 3103 1208 2742 
Q 947 2381 947 1747 
z
" transform="scale(0.015625)"/>
      <path id="DejaVuSans-6c" d="M 603 4863 
L 1178 4863 
L 1178 0 
L 603 0 
L 603 4863 
z
" transform="scale(0.015625)"/>
      <path id="DejaVuSans-61" d="M 2194 1759 
Q 1497 1759 1228 1600 
Q 959 1441 959 1056 
Q 959 750 1161 570 
Q 1363 391 1709 391 
Q 2188 391 2477 730 
Q 2766 1069 2766 1631 
L 2766 1759 
L 2194 1759 
z
M 3341 1997 
L 3341 0 
L 2766 0 
L 2766 531 
Q 2569 213 2275 61 
Q 1981 -91 1556 -91 
Q 1019 -91 701 211 
Q 384 513 384 1019 
Q 384 1609 779 1909 
Q 1175 2209 1959 2209 
L 2766 2209 
L 2766 2266 
Q 2766 2663 2505 2880 
Q 2244 3097 1772 3097 
Q 1472 3097 1187 3025 
Q 903 2953 641 2809 
L 641 3341 
Q 956 3463 1253 3523 
Q 1550 3584 1831 3584 
Q 2591 3584 2966 3190 
Q 3341 2797 3341 1997 
z
" transform="scale(0.015625)"/>
      <path id="DejaVuSans-66" d="M 2375 4863 
L 2375 4384 
L 1825 4384 
Q 1516 4384 1395 4259 
Q 1275 4134 1275 3809 
L 1275 3500 
L 2222 3500 
L 2222 3053 
L 1275 3053 
L 1275 0 
L 697 0 
L 697 3053 
L 147 3053 
L 147 3500 
L 697 3500 
L 697 3744 
Q 697 4328 969 4595 
Q 1241 4863 1831 4863 
L 2375 4863 
z
" transform="scale(0.015625)"/>
      <path id="DejaVuSans-75" d="M 544 1381 
L 544 3500 
L 1119 3500 
L 1119 1403 
Q 1119 906 1312 657 
Q 1506 409 1894 409 
Q 2359 409 2629 706 
Q 2900 1003 2900 1516 
L 2900 3500 
L 3475 3500 
L 3475 0 
L 2900 0 
L 2900 538 
Q 2691 219 2414 64 
Q 2138 -91 1772 -91 
Q 1169 -91 856 284 
Q 544 659 544 1381 
z
M 1991 3584 
L 1991 3584 
z
" transform="scale(0.015625)"/>
      <path id="DejaVuSans-6e" d="M 3513 2113 
L 3513 0 
L 2938 0 
L 2938 2094 
Q 2938 2591 2744 2837 
Q 2550 3084 2163 3084 
Q 1697 3084 1428 2787 
Q 1159 2491 1159 1978 
L 1159 0 
L 581 0 
L 581 3500 
L 1159 3500 
L 1159 2956 
Q 1366 3272 1645 3428 
Q 1925 3584 2291 3584 
Q 2894 3584 3203 3211 
Q 3513 2838 3513 2113 
z
" transform="scale(0.015625)"/>
      <path id="DejaVuSans-63" d="M 3122 3366 
L 3122 2828 
Q 2878 2963 2633 3030 
Q 2388 3097 2138 3097 
Q 1578 3097 1268 2742 
Q 959 2388 959 1747 
Q 959 1106 1268 751 
Q 1578 397 2138 397 
Q 2388 397 2633 464 
Q 2878 531 3122 666 
L 3122 134 
Q 2881 22 2623 -34 
Q 2366 -91 2075 -91 
Q 1284 -91 818 406 
Q 353 903 353 1747 
Q 353 2603 823 3093 
Q 1294 3584 2113 3584 
Q 2378 3584 2631 3529 
Q 2884 3475 3122 3366 
z
" transform="scale(0.015625)"/>
      <path id="DejaVuSans-6a" d="M 603 3500 
L 1178 3500 
L 1178 -63 
Q 1178 -731 923 -1031 
Q 669 -1331 103 -1331 
L -116 -1331 
L -116 -844 
L 38 -844 
Q 366 -844 484 -692 
Q 603 -541 603 -63 
L 603 3500 
z
M 603 4863 
L 1178 4863 
L 1178 4134 
L 603 4134 
L 603 4863 
z
" transform="scale(0.015625)"/>
      <path id="DejaVuSans-69" d="M 603 3500 
L 1178 3500 
L 1178 0 
L 603 0 
L 603 3500 
z
M 603 4863 
L 1178 4863 
L 1178 4134 
L 603 4134 
L 603 4863 
z
" transform="scale(0.015625)"/>
     </defs>
     <use xlink:href="#DejaVuSans-57"/>
     <use xlink:href="#DejaVuSans-79" x="97.126953"/>
     <use xlink:href="#DejaVuSans-6b" x="156.306641"/>
     <use xlink:href="#DejaVuSans-72" x="214.216797"/>
     <use xlink:href="#DejaVuSans-65" x="253.080078"/>
     <use xlink:href="#DejaVuSans-73" x="314.603516"/>
     <use xlink:href="#DejaVuSans-20" x="366.703125"/>
     <use xlink:href="#DejaVuSans-64" x="398.490234"/>
     <use xlink:href="#DejaVuSans-6c" x="461.966797"/>
     <use xlink:href="#DejaVuSans-61" x="489.75"/>
     <use xlink:href="#DejaVuSans-20" x="551.029297"/>
     <use xlink:href="#DejaVuSans-66" x="582.816406"/>
     <use xlink:href="#DejaVuSans-75" x="618.021484"/>
     <use xlink:href="#DejaVuSans-6e" x="681.400391"/>
     <use xlink:href="#DejaVuSans-6b" x="744.779297"/>
     <use xlink:href="#DejaVuSans-63" x="802.689453"/>
     <use xlink:href="#DejaVuSans-6a" x="857.669922"/>
     <use xlink:href="#DejaVuSans-69" x="885.453125"/>
    </g>
    <!-- $F(x)=ax^2 + b\sin(x)+c\cos(5x) + \frac{d}{e^x}$ -->
    <g transform="translate(133.2 35.472) scale(0.12 -0.12)">
     <defs>
      <path id="DejaVuSans-Oblique-46" d="M 1081 4666 
L 3756 4666 
L 3653 4134 
L 1606 4134 
L 1338 2759 
L 3188 2759 
L 3084 2228 
L 1234 2228 
L 800 0 
L 172 0 
L 1081 4666 
z
" transform="scale(0.015625)"/>
      <path id="DejaVuSans-28" d="M 1984 4856 
Q 1566 4138 1362 3434 
Q 1159 2731 1159 2009 
Q 1159 1288 1364 580 
Q 1569 -128 1984 -844 
L 1484 -844 
Q 1016 -109 783 600 
Q 550 1309 550 2009 
Q 550 2706 781 3412 
Q 1013 4119 1484 4856 
L 1984 4856 
z
" transform="scale(0.015625)"/>
      <path id="DejaVuSans-Oblique-78" d="M 3841 3500 
L 2234 1784 
L 3219 0 
L 2559 0 
L 1819 1388 
L 531 0 
L -166 0 
L 1556 1844 
L 641 3500 
L 1300 3500 
L 1972 2234 
L 3144 3500 
L 3841 3500 
z
" transform="scale(0.015625)"/>
      <path id="DejaVuSans-29" d="M 513 4856 
L 1013 4856 
Q 1481 4119 1714 3412 
Q 1947 2706 1947 2009 
Q 1947 1309 1714 600 
Q 1481 -109 1013 -844 
L 513 -844 
Q 928 -128 1133 580 
Q 1338 1288 1338 2009 
Q 1338 2731 1133 3434 
Q 928 4138 513 4856 
z
" transform="scale(0.015625)"/>
      <path id="DejaVuSans-3d" d="M 678 2906 
L 4684 2906 
L 4684 2381 
L 678 2381 
L 678 2906 
z
M 678 1631 
L 4684 1631 
L 4684 1100 
L 678 1100 
L 678 1631 
z
" transform="scale(0.015625)"/>
      <path id="DejaVuSans-Oblique-61" d="M 3438 1997 
L 3047 0 
L 2472 0 
L 2578 531 
Q 2325 219 2001 64 
Q 1678 -91 1281 -91 
Q 834 -91 548 182 
Q 263 456 263 884 
Q 263 1497 752 1853 
Q 1241 2209 2100 2209 
L 2900 2209 
L 2931 2363 
Q 2938 2388 2941 2417 
Q 2944 2447 2944 2509 
Q 2944 2788 2717 2942 
Q 2491 3097 2081 3097 
Q 1800 3097 1504 3025 
Q 1209 2953 897 2809 
L 997 3341 
Q 1322 3463 1633 3523 
Q 1944 3584 2234 3584 
Q 2853 3584 3176 3315 
Q 3500 3047 3500 2534 
Q 3500 2431 3484 2292 
Q 3469 2153 3438 1997 
z
M 2816 1759 
L 2241 1759 
Q 1534 1759 1195 1570 
Q 856 1381 856 984 
Q 856 709 1029 553 
Q 1203 397 1509 397 
Q 1978 397 2328 733 
Q 2678 1069 2791 1631 
L 2816 1759 
z
" transform="scale(0.015625)"/>
      <path id="DejaVuSans-2b" d="M 2944 4013 
L 2944 2272 
L 4684 2272 
L 4684 1741 
L 2944 1741 
L 2944 0 
L 2419 0 
L 2419 1741 
L 678 1741 
L 678 2272 
L 2419 2272 
L 2419 4013 
L 2944 4013 
z
" transform="scale(0.015625)"/>
      <path id="DejaVuSans-Oblique-62" d="M 3169 2138 
Q 3169 2591 2961 2847 
Q 2753 3103 2388 3103 
Q 2122 3103 1889 2973 
Q 1656 2844 1484 2597 
Q 1303 2338 1198 1995 
Q 1094 1653 1094 1313 
Q 1094 881 1298 636 
Q 1503 391 1863 391 
Q 2134 391 2365 517 
Q 2597 644 2772 891 
Q 2950 1147 3059 1487 
Q 3169 1828 3169 2138 
z
M 1381 2969 
Q 1594 3256 1914 3420 
Q 2234 3584 2584 3584 
Q 3122 3584 3439 3221 
Q 3756 2859 3756 2241 
Q 3756 1734 3570 1259 
Q 3384 784 3041 416 
Q 2816 172 2522 40 
Q 2228 -91 1906 -91 
Q 1566 -91 1316 65 
Q 1066 222 909 531 
L 806 0 
L 231 0 
L 1178 4863 
L 1753 4863 
L 1381 2969 
z
" transform="scale(0.015625)"/>
      <path id="DejaVuSans-Oblique-63" d="M 3431 3366 
L 3316 2797 
Q 3109 2947 2876 3022 
Q 2644 3097 2394 3097 
Q 2119 3097 1870 3000 
Q 1622 2903 1453 2725 
Q 1184 2453 1037 2087 
Q 891 1722 891 1331 
Q 891 859 1127 628 
Q 1363 397 1844 397 
Q 2081 397 2348 469 
Q 2616 541 2906 684 
L 2797 116 
Q 2547 13 2283 -39 
Q 2019 -91 1741 -91 
Q 1044 -91 669 257 
Q 294 606 294 1253 
Q 294 1797 489 2255 
Q 684 2713 1069 3078 
Q 1331 3328 1684 3456 
Q 2038 3584 2456 3584 
Q 2700 3584 2940 3529 
Q 3181 3475 3431 3366 
z
" transform="scale(0.015625)"/>
      <path id="DejaVuSans-6f" d="M 1959 3097 
Q 1497 3097 1228 2736 
Q 959 2375 959 1747 
Q 959 1119 1226 758 
Q 1494 397 1959 397 
Q 2419 397 2687 759 
Q 2956 1122 2956 1747 
Q 2956 2369 2687 2733 
Q 2419 3097 1959 3097 
z
M 1959 3584 
Q 2709 3584 3137 3096 
Q 3566 2609 3566 1747 
Q 3566 888 3137 398 
Q 2709 -91 1959 -91 
Q 1206 -91 779 398 
Q 353 888 353 1747 
Q 353 2609 779 3096 
Q 1206 3584 1959 3584 
z
" transform="scale(0.015625)"/>
      <path id="DejaVuSans-Oblique-64" d="M 2675 525 
Q 2444 222 2128 65 
Q 1813 -91 1428 -91 
Q 903 -91 598 267 
Q 294 625 294 1247 
Q 294 1766 478 2236 
Q 663 2706 1013 3078 
Q 1244 3325 1534 3454 
Q 1825 3584 2144 3584 
Q 2481 3584 2739 3421 
Q 2997 3259 3138 2956 
L 3513 4863 
L 4091 4863 
L 3144 0 
L 2566 0 
L 2675 525 
z
M 891 1350 
Q 891 897 1095 644 
Q 1300 391 1663 391 
Q 1931 391 2161 520 
Q 2391 650 2566 903 
Q 2750 1166 2856 1509 
Q 2963 1853 2963 2188 
Q 2963 2622 2758 2865 
Q 2553 3109 2194 3109 
Q 1922 3109 1687 2981 
Q 1453 2853 1288 2613 
Q 1106 2353 998 2009 
Q 891 1666 891 1350 
z
" transform="scale(0.015625)"/>
      <path id="DejaVuSans-Oblique-65" d="M 3078 2063 
Q 3088 2113 3092 2166 
Q 3097 2219 3097 2272 
Q 3097 2653 2873 2875 
Q 2650 3097 2266 3097 
Q 1838 3097 1509 2826 
Q 1181 2556 1013 2059 
L 3078 2063 
z
M 3578 1613 
L 903 1613 
Q 884 1494 878 1425 
Q 872 1356 872 1306 
Q 872 872 1139 634 
Q 1406 397 1894 397 
Q 2269 397 2603 481 
Q 2938 566 3225 728 
L 3116 159 
Q 2806 34 2476 -28 
Q 2147 -91 1806 -91 
Q 1078 -91 686 257 
Q 294 606 294 1247 
Q 294 1794 489 2264 
Q 684 2734 1063 3103 
Q 1306 3334 1642 3459 
Q 1978 3584 2356 3584 
Q 2950 3584 3301 3228 
Q 3653 2872 3653 2272 
Q 3653 2128 3634 1964 
Q 3616 1800 3578 1613 
z
" transform="scale(0.015625)"/>
     </defs>
     <use xlink:href="#DejaVuSans-Oblique-46" transform="translate(0 0.01875)"/>
     <use xlink:href="#DejaVuSans-28" transform="translate(57.519531 0.01875)"/>
     <use xlink:href="#DejaVuSans-Oblique-78" transform="translate(96.533203 0.01875)"/>
     <use xlink:href="#DejaVuSans-29" transform="translate(155.712891 0.01875)"/>
     <use xlink:href="#DejaVuSans-3d" transform="translate(214.208984 0.01875)"/>
     <use xlink:href="#DejaVuSans-Oblique-61" transform="translate(317.480469 0.01875)"/>
     <use xlink:href="#DejaVuSans-Oblique-78" transform="translate(378.759766 0.01875)"/>
     <use xlink:href="#DejaVuSans-32" transform="translate(442.405599 38.3) scale(0.7)"/>
     <use xlink:href="#DejaVuSans-2b" transform="translate(509.158529 0.01875)"/>
     <use xlink:href="#DejaVuSans-Oblique-62" transform="translate(612.430013 0.01875)"/>
     <use xlink:href="#DejaVuSans-73" transform="translate(675.906576 0.01875)"/>
     <use xlink:href="#DejaVuSans-69" transform="translate(728.006185 0.01875)"/>
     <use xlink:href="#DejaVuSans-6e" transform="translate(755.789388 0.01875)"/>
     <use xlink:href="#DejaVuSans-28" transform="translate(819.168294 0.01875)"/>
     <use xlink:href="#DejaVuSans-Oblique-78" transform="translate(858.181966 0.01875)"/>
     <use xlink:href="#DejaVuSans-29" transform="translate(917.361654 0.01875)"/>
     <use xlink:href="#DejaVuSans-2b" transform="translate(975.857747 0.01875)"/>
     <use xlink:href="#DejaVuSans-Oblique-63" transform="translate(1079.129232 0.01875)"/>
     <use xlink:href="#DejaVuSans-63" transform="translate(1134.109701 0.01875)"/>
     <use xlink:href="#DejaVuSans-6f" transform="translate(1189.090169 0.01875)"/>
     <use xlink:href="#DejaVuSans-73" transform="translate(1250.27181 0.01875)"/>
     <use xlink:href="#DejaVuSans-28" transform="translate(1302.371419 0.01875)"/>
     <use xlink:href="#DejaVuSans-35" transform="translate(1341.385091 0.01875)"/>
     <use xlink:href="#DejaVuSans-Oblique-78" transform="translate(1405.008138 0.01875)"/>
     <use xlink:href="#DejaVuSans-29" transform="translate(1464.187826 0.01875)"/>
     <use xlink:href="#DejaVuSans-2b" transform="translate(1522.683919 0.01875)"/>
     <use xlink:href="#DejaVuSans-Oblique-64" transform="translate(1641.955404 44.810938) scale(0.7)"/>
     <use xlink:href="#DejaVuSans-Oblique-65" transform="translate(1625.955404 -41.028125) scale(0.7)"/>
     <use xlink:href="#DejaVuSans-Oblique-78" transform="translate(1672.276737 -14.23125) scale(0.49)"/>
     <path d="M 1625.955404 18.815625 
L 1625.955404 25.065625 
L 1703.188846 25.065625 
L 1703.188846 18.815625 
L 1625.955404 18.815625 
z
"/>
    </g>
   </g>
   <g id="legend_1">
    <g id="patch_7">
     <path d="M 64.6 93.506375 
L 225.70625 93.506375 
Q 227.70625 93.506375 227.70625 91.506375 
L 227.70625 48.472 
Q 227.70625 46.472 225.70625 46.472 
L 64.6 46.472 
Q 62.6 46.472 62.6 48.472 
L 62.6 91.506375 
Q 62.6 93.506375 64.6 93.506375 
z
" style="fill: #ffffff; opacity: 0.8; stroke: #cccccc; stroke-linejoin: miter"/>
    </g>
    <g id="line2d_32">
     <g>
      <use xlink:href="#m8d01c5531c" x="76.6" y="54.570438" style="fill: #1f77b4; stroke: #1f77b4"/>
     </g>
    </g>
    <g id="text_18">
     <!-- Wykres z biblioteki -->
     <g transform="translate(94.6 58.070438) scale(0.1 -0.1)">
      <defs>
       <path id="DejaVuSans-7a" d="M 353 3500 
L 3084 3500 
L 3084 2975 
L 922 459 
L 3084 459 
L 3084 0 
L 275 0 
L 275 525 
L 2438 3041 
L 353 3041 
L 353 3500 
z
" transform="scale(0.015625)"/>
       <path id="DejaVuSans-62" d="M 3116 1747 
Q 3116 2381 2855 2742 
Q 2594 3103 2138 3103 
Q 1681 3103 1420 2742 
Q 1159 2381 1159 1747 
Q 1159 1113 1420 752 
Q 1681 391 2138 391 
Q 2594 391 2855 752 
Q 3116 1113 3116 1747 
z
M 1159 2969 
Q 1341 3281 1617 3432 
Q 1894 3584 2278 3584 
Q 2916 3584 3314 3078 
Q 3713 2572 3713 1747 
Q 3713 922 3314 415 
Q 2916 -91 2278 -91 
Q 1894 -91 1617 61 
Q 1341 213 1159 525 
L 1159 0 
L 581 0 
L 581 4863 
L 1159 4863 
L 1159 2969 
z
" transform="scale(0.015625)"/>
       <path id="DejaVuSans-74" d="M 1172 4494 
L 1172 3500 
L 2356 3500 
L 2356 3053 
L 1172 3053 
L 1172 1153 
Q 1172 725 1289 603 
Q 1406 481 1766 481 
L 2356 481 
L 2356 0 
L 1766 0 
Q 1100 0 847 248 
Q 594 497 594 1153 
L 594 3053 
L 172 3053 
L 172 3500 
L 594 3500 
L 594 4494 
L 1172 4494 
z
" transform="scale(0.015625)"/>
      </defs>
      <use xlink:href="#DejaVuSans-57"/>
      <use xlink:href="#DejaVuSans-79" x="97.126953"/>
      <use xlink:href="#DejaVuSans-6b" x="156.306641"/>
      <use xlink:href="#DejaVuSans-72" x="214.216797"/>
      <use xlink:href="#DejaVuSans-65" x="253.080078"/>
      <use xlink:href="#DejaVuSans-73" x="314.603516"/>
      <use xlink:href="#DejaVuSans-20" x="366.703125"/>
      <use xlink:href="#DejaVuSans-7a" x="398.490234"/>
      <use xlink:href="#DejaVuSans-20" x="450.980469"/>
      <use xlink:href="#DejaVuSans-62" x="482.767578"/>
      <use xlink:href="#DejaVuSans-69" x="546.244141"/>
      <use xlink:href="#DejaVuSans-62" x="574.027344"/>
      <use xlink:href="#DejaVuSans-6c" x="637.503906"/>
      <use xlink:href="#DejaVuSans-69" x="665.287109"/>
      <use xlink:href="#DejaVuSans-6f" x="693.070312"/>
      <use xlink:href="#DejaVuSans-74" x="754.251953"/>
      <use xlink:href="#DejaVuSans-65" x="793.460938"/>
      <use xlink:href="#DejaVuSans-6b" x="854.984375"/>
      <use xlink:href="#DejaVuSans-69" x="912.894531"/>
     </g>
    </g>
    <g id="line2d_33">
     <path d="M 66.6 69.248563 
L 76.6 69.248563 
L 86.6 69.248563 
" style="fill: none; stroke: #ff7f0e; stroke-width: 1.5; stroke-linecap: square"/>
     <g>
      <use xlink:href="#m1bda91587a" x="76.6" y="69.248563" style="fill: #ff7f0e; stroke: #ff7f0e"/>
     </g>
    </g>
    <g id="text_19">
     <!-- Wlasna metoda -->
     <g transform="translate(94.6 72.748563) scale(0.1 -0.1)">
      <defs>
       <path id="DejaVuSans-6d" d="M 3328 2828 
Q 3544 3216 3844 3400 
Q 4144 3584 4550 3584 
Q 5097 3584 5394 3201 
Q 5691 2819 5691 2113 
L 5691 0 
L 5113 0 
L 5113 2094 
Q 5113 2597 4934 2840 
Q 4756 3084 4391 3084 
Q 3944 3084 3684 2787 
Q 3425 2491 3425 1978 
L 3425 0 
L 2847 0 
L 2847 2094 
Q 2847 2600 2669 2842 
Q 2491 3084 2119 3084 
Q 1678 3084 1418 2786 
Q 1159 2488 1159 1978 
L 1159 0 
L 581 0 
L 581 3500 
L 1159 3500 
L 1159 2956 
Q 1356 3278 1631 3431 
Q 1906 3584 2284 3584 
Q 2666 3584 2933 3390 
Q 3200 3197 3328 2828 
z
" transform="scale(0.015625)"/>
      </defs>
      <use xlink:href="#DejaVuSans-57"/>
      <use xlink:href="#DejaVuSans-6c" x="98.876953"/>
      <use xlink:href="#DejaVuSans-61" x="126.660156"/>
      <use xlink:href="#DejaVuSans-73" x="187.939453"/>
      <use xlink:href="#DejaVuSans-6e" x="240.039062"/>
      <use xlink:href="#DejaVuSans-61" x="303.417969"/>
      <use xlink:href="#DejaVuSans-20" x="364.697266"/>
      <use xlink:href="#DejaVuSans-6d" x="396.484375"/>
      <use xlink:href="#DejaVuSans-65" x="493.896484"/>
      <use xlink:href="#DejaVuSans-74" x="555.419922"/>
      <use xlink:href="#DejaVuSans-6f" x="594.628906"/>
      <use xlink:href="#DejaVuSans-64" x="655.810547"/>
      <use xlink:href="#DejaVuSans-61" x="719.287109"/>
     </g>
    </g>
    <g id="line2d_34">
     <path d="M 66.6 83.926688 
L 76.6 83.926688 
L 86.6 83.926688 
" style="fill: none; stroke: #ff0000; stroke-width: 1.5; stroke-linecap: square"/>
     <g>
      <use xlink:href="#mabd21a03c5" x="76.6" y="83.926688" style="fill: #ff0000; stroke: #ff0000; stroke-linejoin: bevel"/>
     </g>
    </g>
    <g id="text_20">
     <!-- punkty podane w zadaniu -->
     <g transform="translate(94.6 87.426688) scale(0.1 -0.1)">
      <defs>
       <path id="DejaVuSans-70" d="M 1159 525 
L 1159 -1331 
L 581 -1331 
L 581 3500 
L 1159 3500 
L 1159 2969 
Q 1341 3281 1617 3432 
Q 1894 3584 2278 3584 
Q 2916 3584 3314 3078 
Q 3713 2572 3713 1747 
Q 3713 922 3314 415 
Q 2916 -91 2278 -91 
Q 1894 -91 1617 61 
Q 1341 213 1159 525 
z
M 3116 1747 
Q 3116 2381 2855 2742 
Q 2594 3103 2138 3103 
Q 1681 3103 1420 2742 
Q 1159 2381 1159 1747 
Q 1159 1113 1420 752 
Q 1681 391 2138 391 
Q 2594 391 2855 752 
Q 3116 1113 3116 1747 
z
" transform="scale(0.015625)"/>
       <path id="DejaVuSans-77" d="M 269 3500 
L 844 3500 
L 1563 769 
L 2278 3500 
L 2956 3500 
L 3675 769 
L 4391 3500 
L 4966 3500 
L 4050 0 
L 3372 0 
L 2619 2869 
L 1863 0 
L 1184 0 
L 269 3500 
z
" transform="scale(0.015625)"/>
      </defs>
      <use xlink:href="#DejaVuSans-70"/>
      <use xlink:href="#DejaVuSans-75" x="63.476562"/>
      <use xlink:href="#DejaVuSans-6e" x="126.855469"/>
      <use xlink:href="#DejaVuSans-6b" x="190.234375"/>
      <use xlink:href="#DejaVuSans-74" x="248.144531"/>
      <use xlink:href="#DejaVuSans-79" x="287.353516"/>
      <use xlink:href="#DejaVuSans-20" x="346.533203"/>
      <use xlink:href="#DejaVuSans-70" x="378.320312"/>
      <use xlink:href="#DejaVuSans-6f" x="441.796875"/>
      <use xlink:href="#DejaVuSans-64" x="502.978516"/>
      <use xlink:href="#DejaVuSans-61" x="566.455078"/>
      <use xlink:href="#DejaVuSans-6e" x="627.734375"/>
      <use xlink:href="#DejaVuSans-65" x="691.113281"/>
      <use xlink:href="#DejaVuSans-20" x="752.636719"/>
      <use xlink:href="#DejaVuSans-77" x="784.423828"/>
      <use xlink:href="#DejaVuSans-20" x="866.210938"/>
      <use xlink:href="#DejaVuSans-7a" x="897.998047"/>
      <use xlink:href="#DejaVuSans-61" x="950.488281"/>
      <use xlink:href="#DejaVuSans-64" x="1011.767578"/>
      <use xlink:href="#DejaVuSans-61" x="1075.244141"/>
      <use xlink:href="#DejaVuSans-6e" x="1136.523438"/>
      <use xlink:href="#DejaVuSans-69" x="1199.902344"/>
      <use xlink:href="#DejaVuSans-75" x="1227.685547"/>
     </g>
    </g>
   </g>
  </g>
 </g>
 <defs>
  <clipPath id="p3ec3ab0635">
   <rect x="57.6" y="41.472" width="357.12" height="266.112"/>
  </clipPath>
 </defs>
</svg>
