<?xml version="1.0" encoding="utf-8" standalone="no"?>
<!DOCTYPE svg PUBLIC "-//W3C//DTD SVG 1.1//EN"
  "http://www.w3.org/Graphics/SVG/1.1/DTD/svg11.dtd">
<svg xmlns:xlink="http://www.w3.org/1999/xlink" width="460.8pt" height="345.6pt" viewBox="0 0 460.8 345.6" xmlns="http://www.w3.org/2000/svg" version="1.1">
 <metadata>
  <rdf:RDF xmlns:dc="http://purl.org/dc/elements/1.1/" xmlns:cc="http://creativecommons.org/ns#" xmlns:rdf="http://www.w3.org/1999/02/22-rdf-syntax-ns#">
   <cc:Work>
    <dc:type rdf:resource="http://purl.org/dc/dcmitype/StillImage"/>
    <dc:date>2023-12-18T13:39:52.424858</dc:date>
    <dc:format>image/svg+xml</dc:format>
    <dc:creator>
     <cc:Agent>
      <dc:title>Matplotlib v3.8.1, https://matplotlib.org/</dc:title>
     </cc:Agent>
    </dc:creator>
   </cc:Work>
  </rdf:RDF>
 </metadata>
 <defs>
  <style type="text/css">*{stroke-linejoin: round; stroke-linecap: butt}</style>
 </defs>
 <g id="figure_1">
  <g id="patch_1">
   <path d="M 0 345.6 
L 460.8 345.6 
L 460.8 0 
L 0 0 
z
" style="fill: #ffffff"/>
  </g>
  <g id="axes_1">
   <g id="patch_2">
    <path d="M 57.6 307.584 
L 414.72 307.584 
L 414.72 41.472 
L 57.6 41.472 
z
" style="fill: #ffffff"/>
   </g>
   <g id="matplotlib.axis_1">
    <g id="xtick_1">
     <g id="line2d_1">
      <path d="M 109.905455 307.584 
L 109.905455 41.472 
" clip-path="url(#pc6597818fc)" style="fill: none; stroke: #b0b0b0; stroke-width: 0.8; stroke-linecap: square"/>
     </g>
     <g id="line2d_2">
      <defs>
       <path id="m3749acf265" d="M 0 0 
L 0 3.5 
" style="stroke: #000000; stroke-width: 0.8"/>
      </defs>
      <g>
       <use xlink:href="#m3749acf265" x="109.905455" y="307.584" style="stroke: #000000; stroke-width: 0.8"/>
      </g>
     </g>
     <g id="text_1">
      <!-- −4 -->
      <g transform="translate(102.534361 322.182437) scale(0.1 -0.1)">
       <defs>
        <path id="DejaVuSans-2212" d="M 678 2272 
L 4684 2272 
L 4684 1741 
L 678 1741 
L 678 2272 
z
" transform="scale(0.015625)"/>
        <path id="DejaVuSans-34" d="M 2419 4116 
L 825 1625 
L 2419 1625 
L 2419 4116 
z
M 2253 4666 
L 3047 4666 
L 3047 1625 
L 3713 1625 
L 3713 1100 
L 3047 1100 
L 3047 0 
L 2419 0 
L 2419 1100 
L 313 1100 
L 313 1709 
L 2253 4666 
z
" transform="scale(0.015625)"/>
       </defs>
       <use xlink:href="#DejaVuSans-2212"/>
       <use xlink:href="#DejaVuSans-34" x="83.789062"/>
      </g>
     </g>
    </g>
    <g id="xtick_2">
     <g id="line2d_3">
      <path d="M 182.050909 307.584 
L 182.050909 41.472 
" clip-path="url(#pc6597818fc)" style="fill: none; stroke: #b0b0b0; stroke-width: 0.8; stroke-linecap: square"/>
     </g>
     <g id="line2d_4">
      <g>
       <use xlink:href="#m3749acf265" x="182.050909" y="307.584" style="stroke: #000000; stroke-width: 0.8"/>
      </g>
     </g>
     <g id="text_2">
      <!-- −2 -->
      <g transform="translate(174.679815 322.182437) scale(0.1 -0.1)">
       <defs>
        <path id="DejaVuSans-32" d="M 1228 531 
L 3431 531 
L 3431 0 
L 469 0 
L 469 531 
Q 828 903 1448 1529 
Q 2069 2156 2228 2338 
Q 2531 2678 2651 2914 
Q 2772 3150 2772 3378 
Q 2772 3750 2511 3984 
Q 2250 4219 1831 4219 
Q 1534 4219 1204 4116 
Q 875 4013 500 3803 
L 500 4441 
Q 881 4594 1212 4672 
Q 1544 4750 1819 4750 
Q 2544 4750 2975 4387 
Q 3406 4025 3406 3419 
Q 3406 3131 3298 2873 
Q 3191 2616 2906 2266 
Q 2828 2175 2409 1742 
Q 1991 1309 1228 531 
z
" transform="scale(0.015625)"/>
       </defs>
       <use xlink:href="#DejaVuSans-2212"/>
       <use xlink:href="#DejaVuSans-32" x="83.789062"/>
      </g>
     </g>
    </g>
    <g id="xtick_3">
     <g id="line2d_5">
      <path d="M 254.196364 307.584 
L 254.196364 41.472 
" clip-path="url(#pc6597818fc)" style="fill: none; stroke: #b0b0b0; stroke-width: 0.8; stroke-linecap: square"/>
     </g>
     <g id="line2d_6">
      <g>
       <use xlink:href="#m3749acf265" x="254.196364" y="307.584" style="stroke: #000000; stroke-width: 0.8"/>
      </g>
     </g>
     <g id="text_3">
      <!-- 0 -->
      <g transform="translate(251.015114 322.182437) scale(0.1 -0.1)">
       <defs>
        <path id="DejaVuSans-30" d="M 2034 4250 
Q 1547 4250 1301 3770 
Q 1056 3291 1056 2328 
Q 1056 1369 1301 889 
Q 1547 409 2034 409 
Q 2525 409 2770 889 
Q 3016 1369 3016 2328 
Q 3016 3291 2770 3770 
Q 2525 4250 2034 4250 
z
M 2034 4750 
Q 2819 4750 3233 4129 
Q 3647 3509 3647 2328 
Q 3647 1150 3233 529 
Q 2819 -91 2034 -91 
Q 1250 -91 836 529 
Q 422 1150 422 2328 
Q 422 3509 836 4129 
Q 1250 4750 2034 4750 
z
" transform="scale(0.015625)"/>
       </defs>
       <use xlink:href="#DejaVuSans-30"/>
      </g>
     </g>
    </g>
    <g id="xtick_4">
     <g id="line2d_7">
      <path d="M 326.341818 307.584 
L 326.341818 41.472 
" clip-path="url(#pc6597818fc)" style="fill: none; stroke: #b0b0b0; stroke-width: 0.8; stroke-linecap: square"/>
     </g>
     <g id="line2d_8">
      <g>
       <use xlink:href="#m3749acf265" x="326.341818" y="307.584" style="stroke: #000000; stroke-width: 0.8"/>
      </g>
     </g>
     <g id="text_4">
      <!-- 2 -->
      <g transform="translate(323.160568 322.182437) scale(0.1 -0.1)">
       <use xlink:href="#DejaVuSans-32"/>
      </g>
     </g>
    </g>
    <g id="xtick_5">
     <g id="line2d_9">
      <path d="M 398.487273 307.584 
L 398.487273 41.472 
" clip-path="url(#pc6597818fc)" style="fill: none; stroke: #b0b0b0; stroke-width: 0.8; stroke-linecap: square"/>
     </g>
     <g id="line2d_10">
      <g>
       <use xlink:href="#m3749acf265" x="398.487273" y="307.584" style="stroke: #000000; stroke-width: 0.8"/>
      </g>
     </g>
     <g id="text_5">
      <!-- 4 -->
      <g transform="translate(395.306023 322.182437) scale(0.1 -0.1)">
       <use xlink:href="#DejaVuSans-34"/>
      </g>
     </g>
    </g>
    <g id="text_6">
     <!-- Zaburzenie jest rowne 1,Punktow jest 100                                     x -->
     <g transform="translate(69.256875 335.860562) scale(0.1 -0.1)">
      <defs>
       <path id="DejaVuSans-5a" d="M 359 4666 
L 4025 4666 
L 4025 4184 
L 1075 531 
L 4097 531 
L 4097 0 
L 288 0 
L 288 481 
L 3238 4134 
L 359 4134 
L 359 4666 
z
" transform="scale(0.015625)"/>
       <path id="DejaVuSans-61" d="M 2194 1759 
Q 1497 1759 1228 1600 
Q 959 1441 959 1056 
Q 959 750 1161 570 
Q 1363 391 1709 391 
Q 2188 391 2477 730 
Q 2766 1069 2766 1631 
L 2766 1759 
L 2194 1759 
z
M 3341 1997 
L 3341 0 
L 2766 0 
L 2766 531 
Q 2569 213 2275 61 
Q 1981 -91 1556 -91 
Q 1019 -91 701 211 
Q 384 513 384 1019 
Q 384 1609 779 1909 
Q 1175 2209 1959 2209 
L 2766 2209 
L 2766 2266 
Q 2766 2663 2505 2880 
Q 2244 3097 1772 3097 
Q 1472 3097 1187 3025 
Q 903 2953 641 2809 
L 641 3341 
Q 956 3463 1253 3523 
Q 1550 3584 1831 3584 
Q 2591 3584 2966 3190 
Q 3341 2797 3341 1997 
z
" transform="scale(0.015625)"/>
       <path id="DejaVuSans-62" d="M 3116 1747 
Q 3116 2381 2855 2742 
Q 2594 3103 2138 3103 
Q 1681 3103 1420 2742 
Q 1159 2381 1159 1747 
Q 1159 1113 1420 752 
Q 1681 391 2138 391 
Q 2594 391 2855 752 
Q 3116 1113 3116 1747 
z
M 1159 2969 
Q 1341 3281 1617 3432 
Q 1894 3584 2278 3584 
Q 2916 3584 3314 3078 
Q 3713 2572 3713 1747 
Q 3713 922 3314 415 
Q 2916 -91 2278 -91 
Q 1894 -91 1617 61 
Q 1341 213 1159 525 
L 1159 0 
L 581 0 
L 581 4863 
L 1159 4863 
L 1159 2969 
z
" transform="scale(0.015625)"/>
       <path id="DejaVuSans-75" d="M 544 1381 
L 544 3500 
L 1119 3500 
L 1119 1403 
Q 1119 906 1312 657 
Q 1506 409 1894 409 
Q 2359 409 2629 706 
Q 2900 1003 2900 1516 
L 2900 3500 
L 3475 3500 
L 3475 0 
L 2900 0 
L 2900 538 
Q 2691 219 2414 64 
Q 2138 -91 1772 -91 
Q 1169 -91 856 284 
Q 544 659 544 1381 
z
M 1991 3584 
L 1991 3584 
z
" transform="scale(0.015625)"/>
       <path id="DejaVuSans-72" d="M 2631 2963 
Q 2534 3019 2420 3045 
Q 2306 3072 2169 3072 
Q 1681 3072 1420 2755 
Q 1159 2438 1159 1844 
L 1159 0 
L 581 0 
L 581 3500 
L 1159 3500 
L 1159 2956 
Q 1341 3275 1631 3429 
Q 1922 3584 2338 3584 
Q 2397 3584 2469 3576 
Q 2541 3569 2628 3553 
L 2631 2963 
z
" transform="scale(0.015625)"/>
       <path id="DejaVuSans-7a" d="M 353 3500 
L 3084 3500 
L 3084 2975 
L 922 459 
L 3084 459 
L 3084 0 
L 275 0 
L 275 525 
L 2438 3041 
L 353 3041 
L 353 3500 
z
" transform="scale(0.015625)"/>
       <path id="DejaVuSans-65" d="M 3597 1894 
L 3597 1613 
L 953 1613 
Q 991 1019 1311 708 
Q 1631 397 2203 397 
Q 2534 397 2845 478 
Q 3156 559 3463 722 
L 3463 178 
Q 3153 47 2828 -22 
Q 2503 -91 2169 -91 
Q 1331 -91 842 396 
Q 353 884 353 1716 
Q 353 2575 817 3079 
Q 1281 3584 2069 3584 
Q 2775 3584 3186 3129 
Q 3597 2675 3597 1894 
z
M 3022 2063 
Q 3016 2534 2758 2815 
Q 2500 3097 2075 3097 
Q 1594 3097 1305 2825 
Q 1016 2553 972 2059 
L 3022 2063 
z
" transform="scale(0.015625)"/>
       <path id="DejaVuSans-6e" d="M 3513 2113 
L 3513 0 
L 2938 0 
L 2938 2094 
Q 2938 2591 2744 2837 
Q 2550 3084 2163 3084 
Q 1697 3084 1428 2787 
Q 1159 2491 1159 1978 
L 1159 0 
L 581 0 
L 581 3500 
L 1159 3500 
L 1159 2956 
Q 1366 3272 1645 3428 
Q 1925 3584 2291 3584 
Q 2894 3584 3203 3211 
Q 3513 2838 3513 2113 
z
" transform="scale(0.015625)"/>
       <path id="DejaVuSans-69" d="M 603 3500 
L 1178 3500 
L 1178 0 
L 603 0 
L 603 3500 
z
M 603 4863 
L 1178 4863 
L 1178 4134 
L 603 4134 
L 603 4863 
z
" transform="scale(0.015625)"/>
       <path id="DejaVuSans-20" transform="scale(0.015625)"/>
       <path id="DejaVuSans-6a" d="M 603 3500 
L 1178 3500 
L 1178 -63 
Q 1178 -731 923 -1031 
Q 669 -1331 103 -1331 
L -116 -1331 
L -116 -844 
L 38 -844 
Q 366 -844 484 -692 
Q 603 -541 603 -63 
L 603 3500 
z
M 603 4863 
L 1178 4863 
L 1178 4134 
L 603 4134 
L 603 4863 
z
" transform="scale(0.015625)"/>
       <path id="DejaVuSans-73" d="M 2834 3397 
L 2834 2853 
Q 2591 2978 2328 3040 
Q 2066 3103 1784 3103 
Q 1356 3103 1142 2972 
Q 928 2841 928 2578 
Q 928 2378 1081 2264 
Q 1234 2150 1697 2047 
L 1894 2003 
Q 2506 1872 2764 1633 
Q 3022 1394 3022 966 
Q 3022 478 2636 193 
Q 2250 -91 1575 -91 
Q 1294 -91 989 -36 
Q 684 19 347 128 
L 347 722 
Q 666 556 975 473 
Q 1284 391 1588 391 
Q 1994 391 2212 530 
Q 2431 669 2431 922 
Q 2431 1156 2273 1281 
Q 2116 1406 1581 1522 
L 1381 1569 
Q 847 1681 609 1914 
Q 372 2147 372 2553 
Q 372 3047 722 3315 
Q 1072 3584 1716 3584 
Q 2034 3584 2315 3537 
Q 2597 3491 2834 3397 
z
" transform="scale(0.015625)"/>
       <path id="DejaVuSans-74" d="M 1172 4494 
L 1172 3500 
L 2356 3500 
L 2356 3053 
L 1172 3053 
L 1172 1153 
Q 1172 725 1289 603 
Q 1406 481 1766 481 
L 2356 481 
L 2356 0 
L 1766 0 
Q 1100 0 847 248 
Q 594 497 594 1153 
L 594 3053 
L 172 3053 
L 172 3500 
L 594 3500 
L 594 4494 
L 1172 4494 
z
" transform="scale(0.015625)"/>
       <path id="DejaVuSans-6f" d="M 1959 3097 
Q 1497 3097 1228 2736 
Q 959 2375 959 1747 
Q 959 1119 1226 758 
Q 1494 397 1959 397 
Q 2419 397 2687 759 
Q 2956 1122 2956 1747 
Q 2956 2369 2687 2733 
Q 2419 3097 1959 3097 
z
M 1959 3584 
Q 2709 3584 3137 3096 
Q 3566 2609 3566 1747 
Q 3566 888 3137 398 
Q 2709 -91 1959 -91 
Q 1206 -91 779 398 
Q 353 888 353 1747 
Q 353 2609 779 3096 
Q 1206 3584 1959 3584 
z
" transform="scale(0.015625)"/>
       <path id="DejaVuSans-77" d="M 269 3500 
L 844 3500 
L 1563 769 
L 2278 3500 
L 2956 3500 
L 3675 769 
L 4391 3500 
L 4966 3500 
L 4050 0 
L 3372 0 
L 2619 2869 
L 1863 0 
L 1184 0 
L 269 3500 
z
" transform="scale(0.015625)"/>
       <path id="DejaVuSans-31" d="M 794 531 
L 1825 531 
L 1825 4091 
L 703 3866 
L 703 4441 
L 1819 4666 
L 2450 4666 
L 2450 531 
L 3481 531 
L 3481 0 
L 794 0 
L 794 531 
z
" transform="scale(0.015625)"/>
       <path id="DejaVuSans-2c" d="M 750 794 
L 1409 794 
L 1409 256 
L 897 -744 
L 494 -744 
L 750 256 
L 750 794 
z
" transform="scale(0.015625)"/>
       <path id="DejaVuSans-50" d="M 1259 4147 
L 1259 2394 
L 2053 2394 
Q 2494 2394 2734 2622 
Q 2975 2850 2975 3272 
Q 2975 3691 2734 3919 
Q 2494 4147 2053 4147 
L 1259 4147 
z
M 628 4666 
L 2053 4666 
Q 2838 4666 3239 4311 
Q 3641 3956 3641 3272 
Q 3641 2581 3239 2228 
Q 2838 1875 2053 1875 
L 1259 1875 
L 1259 0 
L 628 0 
L 628 4666 
z
" transform="scale(0.015625)"/>
       <path id="DejaVuSans-6b" d="M 581 4863 
L 1159 4863 
L 1159 1991 
L 2875 3500 
L 3609 3500 
L 1753 1863 
L 3688 0 
L 2938 0 
L 1159 1709 
L 1159 0 
L 581 0 
L 581 4863 
z
" transform="scale(0.015625)"/>
       <path id="DejaVuSans-78" d="M 3513 3500 
L 2247 1797 
L 3578 0 
L 2900 0 
L 1881 1375 
L 863 0 
L 184 0 
L 1544 1831 
L 300 3500 
L 978 3500 
L 1906 2253 
L 2834 3500 
L 3513 3500 
z
" transform="scale(0.015625)"/>
      </defs>
      <use xlink:href="#DejaVuSans-5a"/>
      <use xlink:href="#DejaVuSans-61" x="68.505859"/>
      <use xlink:href="#DejaVuSans-62" x="129.785156"/>
      <use xlink:href="#DejaVuSans-75" x="193.261719"/>
      <use xlink:href="#DejaVuSans-72" x="256.640625"/>
      <use xlink:href="#DejaVuSans-7a" x="297.753906"/>
      <use xlink:href="#DejaVuSans-65" x="350.244141"/>
      <use xlink:href="#DejaVuSans-6e" x="411.767578"/>
      <use xlink:href="#DejaVuSans-69" x="475.146484"/>
      <use xlink:href="#DejaVuSans-65" x="502.929688"/>
      <use xlink:href="#DejaVuSans-20" x="564.453125"/>
      <use xlink:href="#DejaVuSans-6a" x="596.240234"/>
      <use xlink:href="#DejaVuSans-65" x="624.023438"/>
      <use xlink:href="#DejaVuSans-73" x="685.546875"/>
      <use xlink:href="#DejaVuSans-74" x="737.646484"/>
      <use xlink:href="#DejaVuSans-20" x="776.855469"/>
      <use xlink:href="#DejaVuSans-72" x="808.642578"/>
      <use xlink:href="#DejaVuSans-6f" x="847.505859"/>
      <use xlink:href="#DejaVuSans-77" x="908.6875"/>
      <use xlink:href="#DejaVuSans-6e" x="990.474609"/>
      <use xlink:href="#DejaVuSans-65" x="1053.853516"/>
      <use xlink:href="#DejaVuSans-20" x="1115.376953"/>
      <use xlink:href="#DejaVuSans-31" x="1147.164062"/>
      <use xlink:href="#DejaVuSans-2c" x="1210.787109"/>
      <use xlink:href="#DejaVuSans-50" x="1242.574219"/>
      <use xlink:href="#DejaVuSans-75" x="1301.126953"/>
      <use xlink:href="#DejaVuSans-6e" x="1364.505859"/>
      <use xlink:href="#DejaVuSans-6b" x="1427.884766"/>
      <use xlink:href="#DejaVuSans-74" x="1485.794922"/>
      <use xlink:href="#DejaVuSans-6f" x="1525.003906"/>
      <use xlink:href="#DejaVuSans-77" x="1586.185547"/>
      <use xlink:href="#DejaVuSans-20" x="1667.972656"/>
      <use xlink:href="#DejaVuSans-6a" x="1699.759766"/>
      <use xlink:href="#DejaVuSans-65" x="1727.542969"/>
      <use xlink:href="#DejaVuSans-73" x="1789.066406"/>
      <use xlink:href="#DejaVuSans-74" x="1841.166016"/>
      <use xlink:href="#DejaVuSans-20" x="1880.375"/>
      <use xlink:href="#DejaVuSans-31" x="1912.162109"/>
      <use xlink:href="#DejaVuSans-30" x="1975.785156"/>
      <use xlink:href="#DejaVuSans-30" x="2039.408203"/>
      <use xlink:href="#DejaVuSans-20" x="2103.03125"/>
      <use xlink:href="#DejaVuSans-20" x="2134.818359"/>
      <use xlink:href="#DejaVuSans-20" x="2166.605469"/>
      <use xlink:href="#DejaVuSans-20" x="2198.392578"/>
      <use xlink:href="#DejaVuSans-20" x="2230.179688"/>
      <use xlink:href="#DejaVuSans-20" x="2261.966797"/>
      <use xlink:href="#DejaVuSans-20" x="2293.753906"/>
      <use xlink:href="#DejaVuSans-20" x="2325.541016"/>
      <use xlink:href="#DejaVuSans-20" x="2357.328125"/>
      <use xlink:href="#DejaVuSans-20" x="2389.115234"/>
      <use xlink:href="#DejaVuSans-20" x="2420.902344"/>
      <use xlink:href="#DejaVuSans-20" x="2452.689453"/>
      <use xlink:href="#DejaVuSans-20" x="2484.476562"/>
      <use xlink:href="#DejaVuSans-20" x="2516.263672"/>
      <use xlink:href="#DejaVuSans-20" x="2548.050781"/>
      <use xlink:href="#DejaVuSans-20" x="2579.837891"/>
      <use xlink:href="#DejaVuSans-20" x="2611.625"/>
      <use xlink:href="#DejaVuSans-20" x="2643.412109"/>
      <use xlink:href="#DejaVuSans-20" x="2675.199219"/>
      <use xlink:href="#DejaVuSans-20" x="2706.986328"/>
      <use xlink:href="#DejaVuSans-20" x="2738.773438"/>
      <use xlink:href="#DejaVuSans-20" x="2770.560547"/>
      <use xlink:href="#DejaVuSans-20" x="2802.347656"/>
      <use xlink:href="#DejaVuSans-20" x="2834.134766"/>
      <use xlink:href="#DejaVuSans-20" x="2865.921875"/>
      <use xlink:href="#DejaVuSans-20" x="2897.708984"/>
      <use xlink:href="#DejaVuSans-20" x="2929.496094"/>
      <use xlink:href="#DejaVuSans-20" x="2961.283203"/>
      <use xlink:href="#DejaVuSans-20" x="2993.070312"/>
      <use xlink:href="#DejaVuSans-20" x="3024.857422"/>
      <use xlink:href="#DejaVuSans-20" x="3056.644531"/>
      <use xlink:href="#DejaVuSans-20" x="3088.431641"/>
      <use xlink:href="#DejaVuSans-20" x="3120.21875"/>
      <use xlink:href="#DejaVuSans-20" x="3152.005859"/>
      <use xlink:href="#DejaVuSans-20" x="3183.792969"/>
      <use xlink:href="#DejaVuSans-20" x="3215.580078"/>
      <use xlink:href="#DejaVuSans-20" x="3247.367188"/>
      <use xlink:href="#DejaVuSans-78" x="3279.154297"/>
     </g>
    </g>
   </g>
   <g id="matplotlib.axis_2">
    <g id="ytick_1">
     <g id="line2d_11">
      <path d="M 57.6 273.4878 
L 414.72 273.4878 
" clip-path="url(#pc6597818fc)" style="fill: none; stroke: #b0b0b0; stroke-width: 0.8; stroke-linecap: square"/>
     </g>
     <g id="line2d_12">
      <defs>
       <path id="m2eac4378d8" d="M 0 0 
L -3.5 0 
" style="stroke: #000000; stroke-width: 0.8"/>
      </defs>
      <g>
       <use xlink:href="#m2eac4378d8" x="57.6" y="273.4878" style="stroke: #000000; stroke-width: 0.8"/>
      </g>
     </g>
     <g id="text_7">
      <!-- −2.5 -->
      <g transform="translate(26.317187 277.287019) scale(0.1 -0.1)">
       <defs>
        <path id="DejaVuSans-2e" d="M 684 794 
L 1344 794 
L 1344 0 
L 684 0 
L 684 794 
z
" transform="scale(0.015625)"/>
        <path id="DejaVuSans-35" d="M 691 4666 
L 3169 4666 
L 3169 4134 
L 1269 4134 
L 1269 2991 
Q 1406 3038 1543 3061 
Q 1681 3084 1819 3084 
Q 2600 3084 3056 2656 
Q 3513 2228 3513 1497 
Q 3513 744 3044 326 
Q 2575 -91 1722 -91 
Q 1428 -91 1123 -41 
Q 819 9 494 109 
L 494 744 
Q 775 591 1075 516 
Q 1375 441 1709 441 
Q 2250 441 2565 725 
Q 2881 1009 2881 1497 
Q 2881 1984 2565 2268 
Q 2250 2553 1709 2553 
Q 1456 2553 1204 2497 
Q 953 2441 691 2322 
L 691 4666 
z
" transform="scale(0.015625)"/>
       </defs>
       <use xlink:href="#DejaVuSans-2212"/>
       <use xlink:href="#DejaVuSans-32" x="83.789062"/>
       <use xlink:href="#DejaVuSans-2e" x="147.412109"/>
       <use xlink:href="#DejaVuSans-35" x="179.199219"/>
      </g>
     </g>
    </g>
    <g id="ytick_2">
     <g id="line2d_13">
      <path d="M 57.6 238.926845 
L 414.72 238.926845 
" clip-path="url(#pc6597818fc)" style="fill: none; stroke: #b0b0b0; stroke-width: 0.8; stroke-linecap: square"/>
     </g>
     <g id="line2d_14">
      <g>
       <use xlink:href="#m2eac4378d8" x="57.6" y="238.926845" style="stroke: #000000; stroke-width: 0.8"/>
      </g>
     </g>
     <g id="text_8">
      <!-- 0.0 -->
      <g transform="translate(34.696875 242.726064) scale(0.1 -0.1)">
       <use xlink:href="#DejaVuSans-30"/>
       <use xlink:href="#DejaVuSans-2e" x="63.623047"/>
       <use xlink:href="#DejaVuSans-30" x="95.410156"/>
      </g>
     </g>
    </g>
    <g id="ytick_3">
     <g id="line2d_15">
      <path d="M 57.6 204.36589 
L 414.72 204.36589 
" clip-path="url(#pc6597818fc)" style="fill: none; stroke: #b0b0b0; stroke-width: 0.8; stroke-linecap: square"/>
     </g>
     <g id="line2d_16">
      <g>
       <use xlink:href="#m2eac4378d8" x="57.6" y="204.36589" style="stroke: #000000; stroke-width: 0.8"/>
      </g>
     </g>
     <g id="text_9">
      <!-- 2.5 -->
      <g transform="translate(34.696875 208.165109) scale(0.1 -0.1)">
       <use xlink:href="#DejaVuSans-32"/>
       <use xlink:href="#DejaVuSans-2e" x="63.623047"/>
       <use xlink:href="#DejaVuSans-35" x="95.410156"/>
      </g>
     </g>
    </g>
    <g id="ytick_4">
     <g id="line2d_17">
      <path d="M 57.6 169.804935 
L 414.72 169.804935 
" clip-path="url(#pc6597818fc)" style="fill: none; stroke: #b0b0b0; stroke-width: 0.8; stroke-linecap: square"/>
     </g>
     <g id="line2d_18">
      <g>
       <use xlink:href="#m2eac4378d8" x="57.6" y="169.804935" style="stroke: #000000; stroke-width: 0.8"/>
      </g>
     </g>
     <g id="text_10">
      <!-- 5.0 -->
      <g transform="translate(34.696875 173.604154) scale(0.1 -0.1)">
       <use xlink:href="#DejaVuSans-35"/>
       <use xlink:href="#DejaVuSans-2e" x="63.623047"/>
       <use xlink:href="#DejaVuSans-30" x="95.410156"/>
      </g>
     </g>
    </g>
    <g id="ytick_5">
     <g id="line2d_19">
      <path d="M 57.6 135.24398 
L 414.72 135.24398 
" clip-path="url(#pc6597818fc)" style="fill: none; stroke: #b0b0b0; stroke-width: 0.8; stroke-linecap: square"/>
     </g>
     <g id="line2d_20">
      <g>
       <use xlink:href="#m2eac4378d8" x="57.6" y="135.24398" style="stroke: #000000; stroke-width: 0.8"/>
      </g>
     </g>
     <g id="text_11">
      <!-- 7.5 -->
      <g transform="translate(34.696875 139.043199) scale(0.1 -0.1)">
       <defs>
        <path id="DejaVuSans-37" d="M 525 4666 
L 3525 4666 
L 3525 4397 
L 1831 0 
L 1172 0 
L 2766 4134 
L 525 4134 
L 525 4666 
z
" transform="scale(0.015625)"/>
       </defs>
       <use xlink:href="#DejaVuSans-37"/>
       <use xlink:href="#DejaVuSans-2e" x="63.623047"/>
       <use xlink:href="#DejaVuSans-35" x="95.410156"/>
      </g>
     </g>
    </g>
    <g id="ytick_6">
     <g id="line2d_21">
      <path d="M 57.6 100.683025 
L 414.72 100.683025 
" clip-path="url(#pc6597818fc)" style="fill: none; stroke: #b0b0b0; stroke-width: 0.8; stroke-linecap: square"/>
     </g>
     <g id="line2d_22">
      <g>
       <use xlink:href="#m2eac4378d8" x="57.6" y="100.683025" style="stroke: #000000; stroke-width: 0.8"/>
      </g>
     </g>
     <g id="text_12">
      <!-- 10.0 -->
      <g transform="translate(28.334375 104.482244) scale(0.1 -0.1)">
       <use xlink:href="#DejaVuSans-31"/>
       <use xlink:href="#DejaVuSans-30" x="63.623047"/>
       <use xlink:href="#DejaVuSans-2e" x="127.246094"/>
       <use xlink:href="#DejaVuSans-30" x="159.033203"/>
      </g>
     </g>
    </g>
    <g id="ytick_7">
     <g id="line2d_23">
      <path d="M 57.6 66.12207 
L 414.72 66.12207 
" clip-path="url(#pc6597818fc)" style="fill: none; stroke: #b0b0b0; stroke-width: 0.8; stroke-linecap: square"/>
     </g>
     <g id="line2d_24">
      <g>
       <use xlink:href="#m2eac4378d8" x="57.6" y="66.12207" style="stroke: #000000; stroke-width: 0.8"/>
      </g>
     </g>
     <g id="text_13">
      <!-- 12.5 -->
      <g transform="translate(28.334375 69.921289) scale(0.1 -0.1)">
       <use xlink:href="#DejaVuSans-31"/>
       <use xlink:href="#DejaVuSans-32" x="63.623047"/>
       <use xlink:href="#DejaVuSans-2e" x="127.246094"/>
       <use xlink:href="#DejaVuSans-35" x="159.033203"/>
      </g>
     </g>
    </g>
    <g id="text_14">
     <!-- y -->
     <g transform="translate(20.2375 177.487375) rotate(-90) scale(0.1 -0.1)">
      <defs>
       <path id="DejaVuSans-79" d="M 2059 -325 
Q 1816 -950 1584 -1140 
Q 1353 -1331 966 -1331 
L 506 -1331 
L 506 -850 
L 844 -850 
Q 1081 -850 1212 -737 
Q 1344 -625 1503 -206 
L 1606 56 
L 191 3500 
L 800 3500 
L 1894 763 
L 2988 3500 
L 3597 3500 
L 2059 -325 
z
" transform="scale(0.015625)"/>
      </defs>
      <use xlink:href="#DejaVuSans-79"/>
     </g>
    </g>
   </g>
   <g id="line2d_25">
    <path d="M 73.832727 71.43834 
L 77.112066 84.952913 
L 80.391405 96.013917 
L 83.670744 104.340982 
L 86.950083 109.819301 
L 90.229421 112.507518 
L 93.50876 112.633719 
L 96.788099 110.579802 
L 100.067438 106.85536 
L 103.346777 102.062917 
L 106.626116 96.857008 
L 109.905455 91.900001 
L 113.184793 87.817789 
L 116.464132 85.158478 
L 119.743471 84.356954 
L 123.02281 85.707793 
L 126.302149 89.348338 
L 129.581488 95.253041 
L 132.860826 103.239338 
L 136.140165 112.984498 
L 139.419504 124.052074 
L 142.698843 135.925942 
L 145.978182 148.049319 
L 149.257521 159.865885 
L 152.53686 170.859941 
L 155.816198 180.592679 
L 159.095537 188.731949 
L 162.374876 195.073398 
L 165.654215 199.551541 
L 168.933554 202.24008 
L 172.212893 203.341587 
L 175.492231 203.167484 
L 178.77157 202.109959 
L 182.050909 200.608073 
L 185.330248 199.110709 
L 188.609587 198.039263 
L 191.888926 197.752978 
L 195.168264 198.51958 
L 198.447603 200.493502 
L 201.726942 203.70335 
L 205.006281 208.049596 
L 208.28562 213.312659 
L 211.564959 219.170755 
L 214.844298 225.22615 
L 218.123636 231.037797 
L 221.402975 236.157819 
L 224.682314 240.169037 
L 227.961653 242.72061 
L 231.240992 243.558994 
L 234.520331 242.55177 
L 237.799669 239.702419 
L 241.079008 235.154766 
L 244.358347 229.186637 
L 247.637686 222.193036 
L 250.917025 214.659971 
L 254.196364 207.130767 
L 257.475702 200.167275 
L 260.755041 194.308811 
L 264.03438 190.031828 
L 267.313719 187.713334 
L 270.593058 187.600797 
L 273.872397 189.790835 
L 277.151736 194.21837 
L 280.431074 200.657163 
L 283.710413 208.731838 
L 286.989752 217.940665 
L 290.269091 227.687563 
L 293.54843 237.321151 
L 296.827769 246.178107 
L 300.107107 253.627791 
L 303.386446 259.114984 
L 306.665785 262.197715 
L 309.945124 262.577469 
L 313.224463 260.119644 
L 316.503802 254.86279 
L 319.78314 247.015962 
L 323.062479 236.944392 
L 326.341818 225.144495 
L 329.621157 212.209981 
L 332.900496 198.791506 
L 336.179835 185.55271 
L 339.459174 173.12576 
L 342.738512 162.069544 
L 346.017851 152.833427 
L 349.29719 145.72909 
L 352.576529 140.912371 
L 355.855868 138.37628 
L 359.135207 137.955561 
L 362.414545 139.342333 
L 365.693884 142.111528 
L 368.973223 145.754178 
L 372.252562 149.716011 
L 375.531901 153.438475 
L 378.81124 156.399166 
L 382.090579 158.14869 
L 385.369917 158.341286 
L 388.649256 156.757056 
L 391.928595 153.314239 
L 395.207934 148.070776 
L 398.487273 141.215183 
" clip-path="url(#pc6597818fc)" style="fill: none; stroke: #1f77b4; stroke-width: 1.5; stroke-linecap: square"/>
    <defs>
     <path id="mbfd8216c58" d="M 0 3 
C 0.795609 3 1.55874 2.683901 2.12132 2.12132 
C 2.683901 1.55874 3 0.795609 3 0 
C 3 -0.795609 2.683901 -1.55874 2.12132 -2.12132 
C 1.55874 -2.683901 0.795609 -3 0 -3 
C -0.795609 -3 -1.55874 -2.683901 -2.12132 -2.12132 
C -2.683901 -1.55874 -3 -0.795609 -3 0 
C -3 0.795609 -2.683901 1.55874 -2.12132 2.12132 
C -1.55874 2.683901 -0.795609 3 0 3 
z
" style="stroke: #1f77b4"/>
    </defs>
    <g clip-path="url(#pc6597818fc)">
     <use xlink:href="#mbfd8216c58" x="73.832727" y="71.43834" style="fill: #1f77b4; stroke: #1f77b4"/>
     <use xlink:href="#mbfd8216c58" x="77.112066" y="84.952913" style="fill: #1f77b4; stroke: #1f77b4"/>
     <use xlink:href="#mbfd8216c58" x="80.391405" y="96.013917" style="fill: #1f77b4; stroke: #1f77b4"/>
     <use xlink:href="#mbfd8216c58" x="83.670744" y="104.340982" style="fill: #1f77b4; stroke: #1f77b4"/>
     <use xlink:href="#mbfd8216c58" x="86.950083" y="109.819301" style="fill: #1f77b4; stroke: #1f77b4"/>
     <use xlink:href="#mbfd8216c58" x="90.229421" y="112.507518" style="fill: #1f77b4; stroke: #1f77b4"/>
     <use xlink:href="#mbfd8216c58" x="93.50876" y="112.633719" style="fill: #1f77b4; stroke: #1f77b4"/>
     <use xlink:href="#mbfd8216c58" x="96.788099" y="110.579802" style="fill: #1f77b4; stroke: #1f77b4"/>
     <use xlink:href="#mbfd8216c58" x="100.067438" y="106.85536" style="fill: #1f77b4; stroke: #1f77b4"/>
     <use xlink:href="#mbfd8216c58" x="103.346777" y="102.062917" style="fill: #1f77b4; stroke: #1f77b4"/>
     <use xlink:href="#mbfd8216c58" x="106.626116" y="96.857008" style="fill: #1f77b4; stroke: #1f77b4"/>
     <use xlink:href="#mbfd8216c58" x="109.905455" y="91.900001" style="fill: #1f77b4; stroke: #1f77b4"/>
     <use xlink:href="#mbfd8216c58" x="113.184793" y="87.817789" style="fill: #1f77b4; stroke: #1f77b4"/>
     <use xlink:href="#mbfd8216c58" x="116.464132" y="85.158478" style="fill: #1f77b4; stroke: #1f77b4"/>
     <use xlink:href="#mbfd8216c58" x="119.743471" y="84.356954" style="fill: #1f77b4; stroke: #1f77b4"/>
     <use xlink:href="#mbfd8216c58" x="123.02281" y="85.707793" style="fill: #1f77b4; stroke: #1f77b4"/>
     <use xlink:href="#mbfd8216c58" x="126.302149" y="89.348338" style="fill: #1f77b4; stroke: #1f77b4"/>
     <use xlink:href="#mbfd8216c58" x="129.581488" y="95.253041" style="fill: #1f77b4; stroke: #1f77b4"/>
     <use xlink:href="#mbfd8216c58" x="132.860826" y="103.239338" style="fill: #1f77b4; stroke: #1f77b4"/>
     <use xlink:href="#mbfd8216c58" x="136.140165" y="112.984498" style="fill: #1f77b4; stroke: #1f77b4"/>
     <use xlink:href="#mbfd8216c58" x="139.419504" y="124.052074" style="fill: #1f77b4; stroke: #1f77b4"/>
     <use xlink:href="#mbfd8216c58" x="142.698843" y="135.925942" style="fill: #1f77b4; stroke: #1f77b4"/>
     <use xlink:href="#mbfd8216c58" x="145.978182" y="148.049319" style="fill: #1f77b4; stroke: #1f77b4"/>
     <use xlink:href="#mbfd8216c58" x="149.257521" y="159.865885" style="fill: #1f77b4; stroke: #1f77b4"/>
     <use xlink:href="#mbfd8216c58" x="152.53686" y="170.859941" style="fill: #1f77b4; stroke: #1f77b4"/>
     <use xlink:href="#mbfd8216c58" x="155.816198" y="180.592679" style="fill: #1f77b4; stroke: #1f77b4"/>
     <use xlink:href="#mbfd8216c58" x="159.095537" y="188.731949" style="fill: #1f77b4; stroke: #1f77b4"/>
     <use xlink:href="#mbfd8216c58" x="162.374876" y="195.073398" style="fill: #1f77b4; stroke: #1f77b4"/>
     <use xlink:href="#mbfd8216c58" x="165.654215" y="199.551541" style="fill: #1f77b4; stroke: #1f77b4"/>
     <use xlink:href="#mbfd8216c58" x="168.933554" y="202.24008" style="fill: #1f77b4; stroke: #1f77b4"/>
     <use xlink:href="#mbfd8216c58" x="172.212893" y="203.341587" style="fill: #1f77b4; stroke: #1f77b4"/>
     <use xlink:href="#mbfd8216c58" x="175.492231" y="203.167484" style="fill: #1f77b4; stroke: #1f77b4"/>
     <use xlink:href="#mbfd8216c58" x="178.77157" y="202.109959" style="fill: #1f77b4; stroke: #1f77b4"/>
     <use xlink:href="#mbfd8216c58" x="182.050909" y="200.608073" style="fill: #1f77b4; stroke: #1f77b4"/>
     <use xlink:href="#mbfd8216c58" x="185.330248" y="199.110709" style="fill: #1f77b4; stroke: #1f77b4"/>
     <use xlink:href="#mbfd8216c58" x="188.609587" y="198.039263" style="fill: #1f77b4; stroke: #1f77b4"/>
     <use xlink:href="#mbfd8216c58" x="191.888926" y="197.752978" style="fill: #1f77b4; stroke: #1f77b4"/>
     <use xlink:href="#mbfd8216c58" x="195.168264" y="198.51958" style="fill: #1f77b4; stroke: #1f77b4"/>
     <use xlink:href="#mbfd8216c58" x="198.447603" y="200.493502" style="fill: #1f77b4; stroke: #1f77b4"/>
     <use xlink:href="#mbfd8216c58" x="201.726942" y="203.70335" style="fill: #1f77b4; stroke: #1f77b4"/>
     <use xlink:href="#mbfd8216c58" x="205.006281" y="208.049596" style="fill: #1f77b4; stroke: #1f77b4"/>
     <use xlink:href="#mbfd8216c58" x="208.28562" y="213.312659" style="fill: #1f77b4; stroke: #1f77b4"/>
     <use xlink:href="#mbfd8216c58" x="211.564959" y="219.170755" style="fill: #1f77b4; stroke: #1f77b4"/>
     <use xlink:href="#mbfd8216c58" x="214.844298" y="225.22615" style="fill: #1f77b4; stroke: #1f77b4"/>
     <use xlink:href="#mbfd8216c58" x="218.123636" y="231.037797" style="fill: #1f77b4; stroke: #1f77b4"/>
     <use xlink:href="#mbfd8216c58" x="221.402975" y="236.157819" style="fill: #1f77b4; stroke: #1f77b4"/>
     <use xlink:href="#mbfd8216c58" x="224.682314" y="240.169037" style="fill: #1f77b4; stroke: #1f77b4"/>
     <use xlink:href="#mbfd8216c58" x="227.961653" y="242.72061" style="fill: #1f77b4; stroke: #1f77b4"/>
     <use xlink:href="#mbfd8216c58" x="231.240992" y="243.558994" style="fill: #1f77b4; stroke: #1f77b4"/>
     <use xlink:href="#mbfd8216c58" x="234.520331" y="242.55177" style="fill: #1f77b4; stroke: #1f77b4"/>
     <use xlink:href="#mbfd8216c58" x="237.799669" y="239.702419" style="fill: #1f77b4; stroke: #1f77b4"/>
     <use xlink:href="#mbfd8216c58" x="241.079008" y="235.154766" style="fill: #1f77b4; stroke: #1f77b4"/>
     <use xlink:href="#mbfd8216c58" x="244.358347" y="229.186637" style="fill: #1f77b4; stroke: #1f77b4"/>
     <use xlink:href="#mbfd8216c58" x="247.637686" y="222.193036" style="fill: #1f77b4; stroke: #1f77b4"/>
     <use xlink:href="#mbfd8216c58" x="250.917025" y="214.659971" style="fill: #1f77b4; stroke: #1f77b4"/>
     <use xlink:href="#mbfd8216c58" x="254.196364" y="207.130767" style="fill: #1f77b4; stroke: #1f77b4"/>
     <use xlink:href="#mbfd8216c58" x="257.475702" y="200.167275" style="fill: #1f77b4; stroke: #1f77b4"/>
     <use xlink:href="#mbfd8216c58" x="260.755041" y="194.308811" style="fill: #1f77b4; stroke: #1f77b4"/>
     <use xlink:href="#mbfd8216c58" x="264.03438" y="190.031828" style="fill: #1f77b4; stroke: #1f77b4"/>
     <use xlink:href="#mbfd8216c58" x="267.313719" y="187.713334" style="fill: #1f77b4; stroke: #1f77b4"/>
     <use xlink:href="#mbfd8216c58" x="270.593058" y="187.600797" style="fill: #1f77b4; stroke: #1f77b4"/>
     <use xlink:href="#mbfd8216c58" x="273.872397" y="189.790835" style="fill: #1f77b4; stroke: #1f77b4"/>
     <use xlink:href="#mbfd8216c58" x="277.151736" y="194.21837" style="fill: #1f77b4; stroke: #1f77b4"/>
     <use xlink:href="#mbfd8216c58" x="280.431074" y="200.657163" style="fill: #1f77b4; stroke: #1f77b4"/>
     <use xlink:href="#mbfd8216c58" x="283.710413" y="208.731838" style="fill: #1f77b4; stroke: #1f77b4"/>
     <use xlink:href="#mbfd8216c58" x="286.989752" y="217.940665" style="fill: #1f77b4; stroke: #1f77b4"/>
     <use xlink:href="#mbfd8216c58" x="290.269091" y="227.687563" style="fill: #1f77b4; stroke: #1f77b4"/>
     <use xlink:href="#mbfd8216c58" x="293.54843" y="237.321151" style="fill: #1f77b4; stroke: #1f77b4"/>
     <use xlink:href="#mbfd8216c58" x="296.827769" y="246.178107" style="fill: #1f77b4; stroke: #1f77b4"/>
     <use xlink:href="#mbfd8216c58" x="300.107107" y="253.627791" style="fill: #1f77b4; stroke: #1f77b4"/>
     <use xlink:href="#mbfd8216c58" x="303.386446" y="259.114984" style="fill: #1f77b4; stroke: #1f77b4"/>
     <use xlink:href="#mbfd8216c58" x="306.665785" y="262.197715" style="fill: #1f77b4; stroke: #1f77b4"/>
     <use xlink:href="#mbfd8216c58" x="309.945124" y="262.577469" style="fill: #1f77b4; stroke: #1f77b4"/>
     <use xlink:href="#mbfd8216c58" x="313.224463" y="260.119644" style="fill: #1f77b4; stroke: #1f77b4"/>
     <use xlink:href="#mbfd8216c58" x="316.503802" y="254.86279" style="fill: #1f77b4; stroke: #1f77b4"/>
     <use xlink:href="#mbfd8216c58" x="319.78314" y="247.015962" style="fill: #1f77b4; stroke: #1f77b4"/>
     <use xlink:href="#mbfd8216c58" x="323.062479" y="236.944392" style="fill: #1f77b4; stroke: #1f77b4"/>
     <use xlink:href="#mbfd8216c58" x="326.341818" y="225.144495" style="fill: #1f77b4; stroke: #1f77b4"/>
     <use xlink:href="#mbfd8216c58" x="329.621157" y="212.209981" style="fill: #1f77b4; stroke: #1f77b4"/>
     <use xlink:href="#mbfd8216c58" x="332.900496" y="198.791506" style="fill: #1f77b4; stroke: #1f77b4"/>
     <use xlink:href="#mbfd8216c58" x="336.179835" y="185.55271" style="fill: #1f77b4; stroke: #1f77b4"/>
     <use xlink:href="#mbfd8216c58" x="339.459174" y="173.12576" style="fill: #1f77b4; stroke: #1f77b4"/>
     <use xlink:href="#mbfd8216c58" x="342.738512" y="162.069544" style="fill: #1f77b4; stroke: #1f77b4"/>
     <use xlink:href="#mbfd8216c58" x="346.017851" y="152.833427" style="fill: #1f77b4; stroke: #1f77b4"/>
     <use xlink:href="#mbfd8216c58" x="349.29719" y="145.72909" style="fill: #1f77b4; stroke: #1f77b4"/>
     <use xlink:href="#mbfd8216c58" x="352.576529" y="140.912371" style="fill: #1f77b4; stroke: #1f77b4"/>
     <use xlink:href="#mbfd8216c58" x="355.855868" y="138.37628" style="fill: #1f77b4; stroke: #1f77b4"/>
     <use xlink:href="#mbfd8216c58" x="359.135207" y="137.955561" style="fill: #1f77b4; stroke: #1f77b4"/>
     <use xlink:href="#mbfd8216c58" x="362.414545" y="139.342333" style="fill: #1f77b4; stroke: #1f77b4"/>
     <use xlink:href="#mbfd8216c58" x="365.693884" y="142.111528" style="fill: #1f77b4; stroke: #1f77b4"/>
     <use xlink:href="#mbfd8216c58" x="368.973223" y="145.754178" style="fill: #1f77b4; stroke: #1f77b4"/>
     <use xlink:href="#mbfd8216c58" x="372.252562" y="149.716011" style="fill: #1f77b4; stroke: #1f77b4"/>
     <use xlink:href="#mbfd8216c58" x="375.531901" y="153.438475" style="fill: #1f77b4; stroke: #1f77b4"/>
     <use xlink:href="#mbfd8216c58" x="378.81124" y="156.399166" style="fill: #1f77b4; stroke: #1f77b4"/>
     <use xlink:href="#mbfd8216c58" x="382.090579" y="158.14869" style="fill: #1f77b4; stroke: #1f77b4"/>
     <use xlink:href="#mbfd8216c58" x="385.369917" y="158.341286" style="fill: #1f77b4; stroke: #1f77b4"/>
     <use xlink:href="#mbfd8216c58" x="388.649256" y="156.757056" style="fill: #1f77b4; stroke: #1f77b4"/>
     <use xlink:href="#mbfd8216c58" x="391.928595" y="153.314239" style="fill: #1f77b4; stroke: #1f77b4"/>
     <use xlink:href="#mbfd8216c58" x="395.207934" y="148.070776" style="fill: #1f77b4; stroke: #1f77b4"/>
     <use xlink:href="#mbfd8216c58" x="398.487273" y="141.215183" style="fill: #1f77b4; stroke: #1f77b4"/>
    </g>
   </g>
   <g id="line2d_26">
    <path d="M 73.832727 68.746316 
L 77.112066 82.600334 
L 80.391405 93.917029 
L 83.670744 102.404494 
L 86.950083 107.943193 
L 90.229421 110.59419 
L 93.50876 110.594967 
L 96.788099 108.343107 
L 100.067438 104.369021 
L 103.346777 99.29966 
L 106.626116 93.815805 
L 109.905455 88.605964 
L 113.184793 84.320153 
L 116.464132 81.526815 
L 119.743471 80.675912 
L 123.02281 82.070737 
L 126.302149 85.850362 
L 129.581488 91.983877 
L 132.860826 100.276677 
L 136.140165 110.388207 
L 139.419504 121.859752 
L 142.698843 134.150119 
L 145.978182 146.676522 
L 149.257521 158.857619 
L 152.53686 170.155518 
L 155.816198 180.113684 
L 159.095537 188.388002 
L 162.374876 194.76879 
L 165.654215 199.192251 
L 168.933554 201.740644 
L 172.212893 202.631322 
L 175.492231 202.195595 
L 178.77157 200.849162 
L 182.050909 199.056456 
L 185.330248 197.291701 
L 188.609587 195.999721 
L 191.888926 195.559517 
L 195.168264 196.253443 
L 198.447603 198.244332 
L 201.726942 201.562348 
L 205.006281 206.102552 
L 208.28562 211.633392 
L 211.564959 217.815444 
L 214.844298 224.228981 
L 218.123636 230.408243 
L 221.402975 235.879769 
L 224.682314 240.201828 
L 227.961653 243.001895 
L 231.240992 244.009234 
L 234.520331 243.080018 
L 237.799669 240.212962 
L 241.079008 235.554142 
L 244.358347 229.390503 
L 247.637686 222.132374 
L 250.917025 214.286173 
L 254.196364 206.419225 
L 257.475702 199.119198 
L 260.755041 192.951136 
L 264.03438 188.415231 
L 267.313719 185.908476 
L 270.593058 185.693091 
L 273.872397 187.874103 
L 277.151736 192.387871 
L 280.431074 199.002493 
L 283.710413 207.330238 
L 286.989752 216.851214 
L 290.269091 226.9467 
L 293.54843 236.93985 
L 296.827769 246.140914 
L 300.107107 253.8938 
L 303.386446 259.620679 
L 306.665785 262.86147 
L 309.945124 263.305379 
L 313.224463 260.812255 
L 316.503802 255.422237 
L 319.78314 247.352995 
L 323.062479 236.984766 
L 326.341818 224.834254 
L 329.621157 211.519266 
L 332.900496 197.716583 
L 336.179835 184.116089 
L 339.459174 171.374395 
L 342.738512 160.071238 
L 346.017851 150.671721 
L 349.29719 143.497009 
L 352.576529 138.705483 
L 355.855868 136.285591 
L 359.135207 136.06076 
L 362.414545 137.705886 
L 365.693884 140.774058 
L 368.973223 144.731468 
L 372.252562 148.99784 
L 375.531901 152.989389 
L 378.81124 156.1611 
L 382.090579 158.045256 
L 385.369917 158.283415 
L 388.649256 156.64955 
L 391.928595 153.062775 
L 395.207934 147.588816 
L 398.487273 140.430299 
" clip-path="url(#pc6597818fc)" style="fill: none; stroke: #ff7f0e; stroke-width: 1.5; stroke-linecap: square"/>
    <defs>
     <path id="m65e1852756" d="M 0 -3 
L -0.673542 -0.927051 
L -2.85317 -0.927051 
L -1.089814 0.354102 
L -1.763356 2.427051 
L -0 1.145898 
L 1.763356 2.427051 
L 1.089814 0.354102 
L 2.85317 -0.927051 
L 0.673542 -0.927051 
z
" style="stroke: #ff7f0e; stroke-linejoin: bevel"/>
    </defs>
    <g clip-path="url(#pc6597818fc)">
     <use xlink:href="#m65e1852756" x="73.832727" y="68.746316" style="fill: #ff7f0e; stroke: #ff7f0e; stroke-linejoin: bevel"/>
     <use xlink:href="#m65e1852756" x="77.112066" y="82.600334" style="fill: #ff7f0e; stroke: #ff7f0e; stroke-linejoin: bevel"/>
     <use xlink:href="#m65e1852756" x="80.391405" y="93.917029" style="fill: #ff7f0e; stroke: #ff7f0e; stroke-linejoin: bevel"/>
     <use xlink:href="#m65e1852756" x="83.670744" y="102.404494" style="fill: #ff7f0e; stroke: #ff7f0e; stroke-linejoin: bevel"/>
     <use xlink:href="#m65e1852756" x="86.950083" y="107.943193" style="fill: #ff7f0e; stroke: #ff7f0e; stroke-linejoin: bevel"/>
     <use xlink:href="#m65e1852756" x="90.229421" y="110.59419" style="fill: #ff7f0e; stroke: #ff7f0e; stroke-linejoin: bevel"/>
     <use xlink:href="#m65e1852756" x="93.50876" y="110.594967" style="fill: #ff7f0e; stroke: #ff7f0e; stroke-linejoin: bevel"/>
     <use xlink:href="#m65e1852756" x="96.788099" y="108.343107" style="fill: #ff7f0e; stroke: #ff7f0e; stroke-linejoin: bevel"/>
     <use xlink:href="#m65e1852756" x="100.067438" y="104.369021" style="fill: #ff7f0e; stroke: #ff7f0e; stroke-linejoin: bevel"/>
     <use xlink:href="#m65e1852756" x="103.346777" y="99.29966" style="fill: #ff7f0e; stroke: #ff7f0e; stroke-linejoin: bevel"/>
     <use xlink:href="#m65e1852756" x="106.626116" y="93.815805" style="fill: #ff7f0e; stroke: #ff7f0e; stroke-linejoin: bevel"/>
     <use xlink:href="#m65e1852756" x="109.905455" y="88.605964" style="fill: #ff7f0e; stroke: #ff7f0e; stroke-linejoin: bevel"/>
     <use xlink:href="#m65e1852756" x="113.184793" y="84.320153" style="fill: #ff7f0e; stroke: #ff7f0e; stroke-linejoin: bevel"/>
     <use xlink:href="#m65e1852756" x="116.464132" y="81.526815" style="fill: #ff7f0e; stroke: #ff7f0e; stroke-linejoin: bevel"/>
     <use xlink:href="#m65e1852756" x="119.743471" y="80.675912" style="fill: #ff7f0e; stroke: #ff7f0e; stroke-linejoin: bevel"/>
     <use xlink:href="#m65e1852756" x="123.02281" y="82.070737" style="fill: #ff7f0e; stroke: #ff7f0e; stroke-linejoin: bevel"/>
     <use xlink:href="#m65e1852756" x="126.302149" y="85.850362" style="fill: #ff7f0e; stroke: #ff7f0e; stroke-linejoin: bevel"/>
     <use xlink:href="#m65e1852756" x="129.581488" y="91.983877" style="fill: #ff7f0e; stroke: #ff7f0e; stroke-linejoin: bevel"/>
     <use xlink:href="#m65e1852756" x="132.860826" y="100.276677" style="fill: #ff7f0e; stroke: #ff7f0e; stroke-linejoin: bevel"/>
     <use xlink:href="#m65e1852756" x="136.140165" y="110.388207" style="fill: #ff7f0e; stroke: #ff7f0e; stroke-linejoin: bevel"/>
     <use xlink:href="#m65e1852756" x="139.419504" y="121.859752" style="fill: #ff7f0e; stroke: #ff7f0e; stroke-linejoin: bevel"/>
     <use xlink:href="#m65e1852756" x="142.698843" y="134.150119" style="fill: #ff7f0e; stroke: #ff7f0e; stroke-linejoin: bevel"/>
     <use xlink:href="#m65e1852756" x="145.978182" y="146.676522" style="fill: #ff7f0e; stroke: #ff7f0e; stroke-linejoin: bevel"/>
     <use xlink:href="#m65e1852756" x="149.257521" y="158.857619" style="fill: #ff7f0e; stroke: #ff7f0e; stroke-linejoin: bevel"/>
     <use xlink:href="#m65e1852756" x="152.53686" y="170.155518" style="fill: #ff7f0e; stroke: #ff7f0e; stroke-linejoin: bevel"/>
     <use xlink:href="#m65e1852756" x="155.816198" y="180.113684" style="fill: #ff7f0e; stroke: #ff7f0e; stroke-linejoin: bevel"/>
     <use xlink:href="#m65e1852756" x="159.095537" y="188.388002" style="fill: #ff7f0e; stroke: #ff7f0e; stroke-linejoin: bevel"/>
     <use xlink:href="#m65e1852756" x="162.374876" y="194.76879" style="fill: #ff7f0e; stroke: #ff7f0e; stroke-linejoin: bevel"/>
     <use xlink:href="#m65e1852756" x="165.654215" y="199.192251" style="fill: #ff7f0e; stroke: #ff7f0e; stroke-linejoin: bevel"/>
     <use xlink:href="#m65e1852756" x="168.933554" y="201.740644" style="fill: #ff7f0e; stroke: #ff7f0e; stroke-linejoin: bevel"/>
     <use xlink:href="#m65e1852756" x="172.212893" y="202.631322" style="fill: #ff7f0e; stroke: #ff7f0e; stroke-linejoin: bevel"/>
     <use xlink:href="#m65e1852756" x="175.492231" y="202.195595" style="fill: #ff7f0e; stroke: #ff7f0e; stroke-linejoin: bevel"/>
     <use xlink:href="#m65e1852756" x="178.77157" y="200.849162" style="fill: #ff7f0e; stroke: #ff7f0e; stroke-linejoin: bevel"/>
     <use xlink:href="#m65e1852756" x="182.050909" y="199.056456" style="fill: #ff7f0e; stroke: #ff7f0e; stroke-linejoin: bevel"/>
     <use xlink:href="#m65e1852756" x="185.330248" y="197.291701" style="fill: #ff7f0e; stroke: #ff7f0e; stroke-linejoin: bevel"/>
     <use xlink:href="#m65e1852756" x="188.609587" y="195.999721" style="fill: #ff7f0e; stroke: #ff7f0e; stroke-linejoin: bevel"/>
     <use xlink:href="#m65e1852756" x="191.888926" y="195.559517" style="fill: #ff7f0e; stroke: #ff7f0e; stroke-linejoin: bevel"/>
     <use xlink:href="#m65e1852756" x="195.168264" y="196.253443" style="fill: #ff7f0e; stroke: #ff7f0e; stroke-linejoin: bevel"/>
     <use xlink:href="#m65e1852756" x="198.447603" y="198.244332" style="fill: #ff7f0e; stroke: #ff7f0e; stroke-linejoin: bevel"/>
     <use xlink:href="#m65e1852756" x="201.726942" y="201.562348" style="fill: #ff7f0e; stroke: #ff7f0e; stroke-linejoin: bevel"/>
     <use xlink:href="#m65e1852756" x="205.006281" y="206.102552" style="fill: #ff7f0e; stroke: #ff7f0e; stroke-linejoin: bevel"/>
     <use xlink:href="#m65e1852756" x="208.28562" y="211.633392" style="fill: #ff7f0e; stroke: #ff7f0e; stroke-linejoin: bevel"/>
     <use xlink:href="#m65e1852756" x="211.564959" y="217.815444" style="fill: #ff7f0e; stroke: #ff7f0e; stroke-linejoin: bevel"/>
     <use xlink:href="#m65e1852756" x="214.844298" y="224.228981" style="fill: #ff7f0e; stroke: #ff7f0e; stroke-linejoin: bevel"/>
     <use xlink:href="#m65e1852756" x="218.123636" y="230.408243" style="fill: #ff7f0e; stroke: #ff7f0e; stroke-linejoin: bevel"/>
     <use xlink:href="#m65e1852756" x="221.402975" y="235.879769" style="fill: #ff7f0e; stroke: #ff7f0e; stroke-linejoin: bevel"/>
     <use xlink:href="#m65e1852756" x="224.682314" y="240.201828" style="fill: #ff7f0e; stroke: #ff7f0e; stroke-linejoin: bevel"/>
     <use xlink:href="#m65e1852756" x="227.961653" y="243.001895" style="fill: #ff7f0e; stroke: #ff7f0e; stroke-linejoin: bevel"/>
     <use xlink:href="#m65e1852756" x="231.240992" y="244.009234" style="fill: #ff7f0e; stroke: #ff7f0e; stroke-linejoin: bevel"/>
     <use xlink:href="#m65e1852756" x="234.520331" y="243.080018" style="fill: #ff7f0e; stroke: #ff7f0e; stroke-linejoin: bevel"/>
     <use xlink:href="#m65e1852756" x="237.799669" y="240.212962" style="fill: #ff7f0e; stroke: #ff7f0e; stroke-linejoin: bevel"/>
     <use xlink:href="#m65e1852756" x="241.079008" y="235.554142" style="fill: #ff7f0e; stroke: #ff7f0e; stroke-linejoin: bevel"/>
     <use xlink:href="#m65e1852756" x="244.358347" y="229.390503" style="fill: #ff7f0e; stroke: #ff7f0e; stroke-linejoin: bevel"/>
     <use xlink:href="#m65e1852756" x="247.637686" y="222.132374" style="fill: #ff7f0e; stroke: #ff7f0e; stroke-linejoin: bevel"/>
     <use xlink:href="#m65e1852756" x="250.917025" y="214.286173" style="fill: #ff7f0e; stroke: #ff7f0e; stroke-linejoin: bevel"/>
     <use xlink:href="#m65e1852756" x="254.196364" y="206.419225" style="fill: #ff7f0e; stroke: #ff7f0e; stroke-linejoin: bevel"/>
     <use xlink:href="#m65e1852756" x="257.475702" y="199.119198" style="fill: #ff7f0e; stroke: #ff7f0e; stroke-linejoin: bevel"/>
     <use xlink:href="#m65e1852756" x="260.755041" y="192.951136" style="fill: #ff7f0e; stroke: #ff7f0e; stroke-linejoin: bevel"/>
     <use xlink:href="#m65e1852756" x="264.03438" y="188.415231" style="fill: #ff7f0e; stroke: #ff7f0e; stroke-linejoin: bevel"/>
     <use xlink:href="#m65e1852756" x="267.313719" y="185.908476" style="fill: #ff7f0e; stroke: #ff7f0e; stroke-linejoin: bevel"/>
     <use xlink:href="#m65e1852756" x="270.593058" y="185.693091" style="fill: #ff7f0e; stroke: #ff7f0e; stroke-linejoin: bevel"/>
     <use xlink:href="#m65e1852756" x="273.872397" y="187.874103" style="fill: #ff7f0e; stroke: #ff7f0e; stroke-linejoin: bevel"/>
     <use xlink:href="#m65e1852756" x="277.151736" y="192.387871" style="fill: #ff7f0e; stroke: #ff7f0e; stroke-linejoin: bevel"/>
     <use xlink:href="#m65e1852756" x="280.431074" y="199.002493" style="fill: #ff7f0e; stroke: #ff7f0e; stroke-linejoin: bevel"/>
     <use xlink:href="#m65e1852756" x="283.710413" y="207.330238" style="fill: #ff7f0e; stroke: #ff7f0e; stroke-linejoin: bevel"/>
     <use xlink:href="#m65e1852756" x="286.989752" y="216.851214" style="fill: #ff7f0e; stroke: #ff7f0e; stroke-linejoin: bevel"/>
     <use xlink:href="#m65e1852756" x="290.269091" y="226.9467" style="fill: #ff7f0e; stroke: #ff7f0e; stroke-linejoin: bevel"/>
     <use xlink:href="#m65e1852756" x="293.54843" y="236.93985" style="fill: #ff7f0e; stroke: #ff7f0e; stroke-linejoin: bevel"/>
     <use xlink:href="#m65e1852756" x="296.827769" y="246.140914" style="fill: #ff7f0e; stroke: #ff7f0e; stroke-linejoin: bevel"/>
     <use xlink:href="#m65e1852756" x="300.107107" y="253.8938" style="fill: #ff7f0e; stroke: #ff7f0e; stroke-linejoin: bevel"/>
     <use xlink:href="#m65e1852756" x="303.386446" y="259.620679" style="fill: #ff7f0e; stroke: #ff7f0e; stroke-linejoin: bevel"/>
     <use xlink:href="#m65e1852756" x="306.665785" y="262.86147" style="fill: #ff7f0e; stroke: #ff7f0e; stroke-linejoin: bevel"/>
     <use xlink:href="#m65e1852756" x="309.945124" y="263.305379" style="fill: #ff7f0e; stroke: #ff7f0e; stroke-linejoin: bevel"/>
     <use xlink:href="#m65e1852756" x="313.224463" y="260.812255" style="fill: #ff7f0e; stroke: #ff7f0e; stroke-linejoin: bevel"/>
     <use xlink:href="#m65e1852756" x="316.503802" y="255.422237" style="fill: #ff7f0e; stroke: #ff7f0e; stroke-linejoin: bevel"/>
     <use xlink:href="#m65e1852756" x="319.78314" y="247.352995" style="fill: #ff7f0e; stroke: #ff7f0e; stroke-linejoin: bevel"/>
     <use xlink:href="#m65e1852756" x="323.062479" y="236.984766" style="fill: #ff7f0e; stroke: #ff7f0e; stroke-linejoin: bevel"/>
     <use xlink:href="#m65e1852756" x="326.341818" y="224.834254" style="fill: #ff7f0e; stroke: #ff7f0e; stroke-linejoin: bevel"/>
     <use xlink:href="#m65e1852756" x="329.621157" y="211.519266" style="fill: #ff7f0e; stroke: #ff7f0e; stroke-linejoin: bevel"/>
     <use xlink:href="#m65e1852756" x="332.900496" y="197.716583" style="fill: #ff7f0e; stroke: #ff7f0e; stroke-linejoin: bevel"/>
     <use xlink:href="#m65e1852756" x="336.179835" y="184.116089" style="fill: #ff7f0e; stroke: #ff7f0e; stroke-linejoin: bevel"/>
     <use xlink:href="#m65e1852756" x="339.459174" y="171.374395" style="fill: #ff7f0e; stroke: #ff7f0e; stroke-linejoin: bevel"/>
     <use xlink:href="#m65e1852756" x="342.738512" y="160.071238" style="fill: #ff7f0e; stroke: #ff7f0e; stroke-linejoin: bevel"/>
     <use xlink:href="#m65e1852756" x="346.017851" y="150.671721" style="fill: #ff7f0e; stroke: #ff7f0e; stroke-linejoin: bevel"/>
     <use xlink:href="#m65e1852756" x="349.29719" y="143.497009" style="fill: #ff7f0e; stroke: #ff7f0e; stroke-linejoin: bevel"/>
     <use xlink:href="#m65e1852756" x="352.576529" y="138.705483" style="fill: #ff7f0e; stroke: #ff7f0e; stroke-linejoin: bevel"/>
     <use xlink:href="#m65e1852756" x="355.855868" y="136.285591" style="fill: #ff7f0e; stroke: #ff7f0e; stroke-linejoin: bevel"/>
     <use xlink:href="#m65e1852756" x="359.135207" y="136.06076" style="fill: #ff7f0e; stroke: #ff7f0e; stroke-linejoin: bevel"/>
     <use xlink:href="#m65e1852756" x="362.414545" y="137.705886" style="fill: #ff7f0e; stroke: #ff7f0e; stroke-linejoin: bevel"/>
     <use xlink:href="#m65e1852756" x="365.693884" y="140.774058" style="fill: #ff7f0e; stroke: #ff7f0e; stroke-linejoin: bevel"/>
     <use xlink:href="#m65e1852756" x="368.973223" y="144.731468" style="fill: #ff7f0e; stroke: #ff7f0e; stroke-linejoin: bevel"/>
     <use xlink:href="#m65e1852756" x="372.252562" y="148.99784" style="fill: #ff7f0e; stroke: #ff7f0e; stroke-linejoin: bevel"/>
     <use xlink:href="#m65e1852756" x="375.531901" y="152.989389" style="fill: #ff7f0e; stroke: #ff7f0e; stroke-linejoin: bevel"/>
     <use xlink:href="#m65e1852756" x="378.81124" y="156.1611" style="fill: #ff7f0e; stroke: #ff7f0e; stroke-linejoin: bevel"/>
     <use xlink:href="#m65e1852756" x="382.090579" y="158.045256" style="fill: #ff7f0e; stroke: #ff7f0e; stroke-linejoin: bevel"/>
     <use xlink:href="#m65e1852756" x="385.369917" y="158.283415" style="fill: #ff7f0e; stroke: #ff7f0e; stroke-linejoin: bevel"/>
     <use xlink:href="#m65e1852756" x="388.649256" y="156.64955" style="fill: #ff7f0e; stroke: #ff7f0e; stroke-linejoin: bevel"/>
     <use xlink:href="#m65e1852756" x="391.928595" y="153.062775" style="fill: #ff7f0e; stroke: #ff7f0e; stroke-linejoin: bevel"/>
     <use xlink:href="#m65e1852756" x="395.207934" y="147.588816" style="fill: #ff7f0e; stroke: #ff7f0e; stroke-linejoin: bevel"/>
     <use xlink:href="#m65e1852756" x="398.487273" y="140.430299" style="fill: #ff7f0e; stroke: #ff7f0e; stroke-linejoin: bevel"/>
    </g>
   </g>
   <g id="line2d_27">
    <defs>
     <path id="mbbe476b5bd" d="M 0 3 
C 0.795609 3 1.55874 2.683901 2.12132 2.12132 
C 2.683901 1.55874 3 0.795609 3 0 
C 3 -0.795609 2.683901 -1.55874 2.12132 -2.12132 
C 1.55874 -2.683901 0.795609 -3 0 -3 
C -0.795609 -3 -1.55874 -2.683901 -2.12132 -2.12132 
C -2.683901 -1.55874 -3 -0.795609 -3 0 
C -3 0.795609 -2.683901 1.55874 -2.12132 2.12132 
C -1.55874 2.683901 -0.795609 3 0 3 
z
" style="stroke: #2ca02c"/>
    </defs>
    <g clip-path="url(#pc6597818fc)">
     <use xlink:href="#mbbe476b5bd" x="73.832727" y="53.568" style="fill: #2ca02c; stroke: #2ca02c"/>
     <use xlink:href="#mbbe476b5bd" x="77.112066" y="84.448079" style="fill: #2ca02c; stroke: #2ca02c"/>
     <use xlink:href="#mbbe476b5bd" x="80.391405" y="73.514749" style="fill: #2ca02c; stroke: #2ca02c"/>
     <use xlink:href="#mbbe476b5bd" x="83.670744" y="106.972945" style="fill: #2ca02c; stroke: #2ca02c"/>
     <use xlink:href="#mbbe476b5bd" x="86.950083" y="111.16306" style="fill: #2ca02c; stroke: #2ca02c"/>
     <use xlink:href="#mbbe476b5bd" x="90.229421" y="99.121182" style="fill: #2ca02c; stroke: #2ca02c"/>
     <use xlink:href="#mbbe476b5bd" x="93.50876" y="124.974335" style="fill: #2ca02c; stroke: #2ca02c"/>
     <use xlink:href="#mbbe476b5bd" x="96.788099" y="92.707355" style="fill: #2ca02c; stroke: #2ca02c"/>
     <use xlink:href="#mbbe476b5bd" x="100.067438" y="118.296275" style="fill: #2ca02c; stroke: #2ca02c"/>
     <use xlink:href="#mbbe476b5bd" x="103.346777" y="77.790893" style="fill: #2ca02c; stroke: #2ca02c"/>
     <use xlink:href="#mbbe476b5bd" x="106.626116" y="96.611338" style="fill: #2ca02c; stroke: #2ca02c"/>
     <use xlink:href="#mbbe476b5bd" x="109.905455" y="88.443898" style="fill: #2ca02c; stroke: #2ca02c"/>
     <use xlink:href="#mbbe476b5bd" x="113.184793" y="119.083641" style="fill: #2ca02c; stroke: #2ca02c"/>
     <use xlink:href="#mbbe476b5bd" x="116.464132" y="79.636891" style="fill: #2ca02c; stroke: #2ca02c"/>
     <use xlink:href="#mbbe476b5bd" x="119.743471" y="82.116547" style="fill: #2ca02c; stroke: #2ca02c"/>
     <use xlink:href="#mbbe476b5bd" x="123.02281" y="84.370871" style="fill: #2ca02c; stroke: #2ca02c"/>
     <use xlink:href="#mbbe476b5bd" x="126.302149" y="84.391921" style="fill: #2ca02c; stroke: #2ca02c"/>
     <use xlink:href="#mbbe476b5bd" x="129.581488" y="105.325562" style="fill: #2ca02c; stroke: #2ca02c"/>
     <use xlink:href="#mbbe476b5bd" x="132.860826" y="86.726881" style="fill: #2ca02c; stroke: #2ca02c"/>
     <use xlink:href="#mbbe476b5bd" x="136.140165" y="98.899703" style="fill: #2ca02c; stroke: #2ca02c"/>
     <use xlink:href="#mbbe476b5bd" x="139.419504" y="127.47783" style="fill: #2ca02c; stroke: #2ca02c"/>
     <use xlink:href="#mbbe476b5bd" x="142.698843" y="119.332435" style="fill: #2ca02c; stroke: #2ca02c"/>
     <use xlink:href="#mbbe476b5bd" x="145.978182" y="146.58306" style="fill: #2ca02c; stroke: #2ca02c"/>
     <use xlink:href="#mbbe476b5bd" x="149.257521" y="161.193955" style="fill: #2ca02c; stroke: #2ca02c"/>
     <use xlink:href="#mbbe476b5bd" x="152.53686" y="176.382598" style="fill: #2ca02c; stroke: #2ca02c"/>
     <use xlink:href="#mbbe476b5bd" x="155.816198" y="194.114497" style="fill: #2ca02c; stroke: #2ca02c"/>
     <use xlink:href="#mbbe476b5bd" x="159.095537" y="166.551582" style="fill: #2ca02c; stroke: #2ca02c"/>
     <use xlink:href="#mbbe476b5bd" x="162.374876" y="197.634759" style="fill: #2ca02c; stroke: #2ca02c"/>
     <use xlink:href="#mbbe476b5bd" x="165.654215" y="186.99775" style="fill: #2ca02c; stroke: #2ca02c"/>
     <use xlink:href="#mbbe476b5bd" x="168.933554" y="217.00663" style="fill: #2ca02c; stroke: #2ca02c"/>
     <use xlink:href="#mbbe476b5bd" x="172.212893" y="195.806777" style="fill: #2ca02c; stroke: #2ca02c"/>
     <use xlink:href="#mbbe476b5bd" x="175.492231" y="212.662894" style="fill: #2ca02c; stroke: #2ca02c"/>
     <use xlink:href="#mbbe476b5bd" x="178.77157" y="194.037885" style="fill: #2ca02c; stroke: #2ca02c"/>
     <use xlink:href="#mbbe476b5bd" x="182.050909" y="191.237449" style="fill: #2ca02c; stroke: #2ca02c"/>
     <use xlink:href="#mbbe476b5bd" x="185.330248" y="184.009185" style="fill: #2ca02c; stroke: #2ca02c"/>
     <use xlink:href="#mbbe476b5bd" x="188.609587" y="193.522852" style="fill: #2ca02c; stroke: #2ca02c"/>
     <use xlink:href="#mbbe476b5bd" x="191.888926" y="203.958912" style="fill: #2ca02c; stroke: #2ca02c"/>
     <use xlink:href="#mbbe476b5bd" x="195.168264" y="180.166178" style="fill: #2ca02c; stroke: #2ca02c"/>
     <use xlink:href="#mbbe476b5bd" x="198.447603" y="194.897563" style="fill: #2ca02c; stroke: #2ca02c"/>
     <use xlink:href="#mbbe476b5bd" x="201.726942" y="215.153255" style="fill: #2ca02c; stroke: #2ca02c"/>
     <use xlink:href="#mbbe476b5bd" x="205.006281" y="214.381197" style="fill: #2ca02c; stroke: #2ca02c"/>
     <use xlink:href="#mbbe476b5bd" x="208.28562" y="227.642969" style="fill: #2ca02c; stroke: #2ca02c"/>
     <use xlink:href="#mbbe476b5bd" x="211.564959" y="197.185482" style="fill: #2ca02c; stroke: #2ca02c"/>
     <use xlink:href="#mbbe476b5bd" x="214.844298" y="221.016935" style="fill: #2ca02c; stroke: #2ca02c"/>
     <use xlink:href="#mbbe476b5bd" x="218.123636" y="231.110185" style="fill: #2ca02c; stroke: #2ca02c"/>
     <use xlink:href="#mbbe476b5bd" x="221.402975" y="255.57235" style="fill: #2ca02c; stroke: #2ca02c"/>
     <use xlink:href="#mbbe476b5bd" x="224.682314" y="240.708867" style="fill: #2ca02c; stroke: #2ca02c"/>
     <use xlink:href="#mbbe476b5bd" x="227.961653" y="256.400517" style="fill: #2ca02c; stroke: #2ca02c"/>
     <use xlink:href="#mbbe476b5bd" x="231.240992" y="220.316941" style="fill: #2ca02c; stroke: #2ca02c"/>
     <use xlink:href="#mbbe476b5bd" x="234.520331" y="233.147661" style="fill: #2ca02c; stroke: #2ca02c"/>
     <use xlink:href="#mbbe476b5bd" x="237.799669" y="250.871705" style="fill: #2ca02c; stroke: #2ca02c"/>
     <use xlink:href="#mbbe476b5bd" x="241.079008" y="252.331018" style="fill: #2ca02c; stroke: #2ca02c"/>
     <use xlink:href="#mbbe476b5bd" x="244.358347" y="216.1298" style="fill: #2ca02c; stroke: #2ca02c"/>
     <use xlink:href="#mbbe476b5bd" x="247.637686" y="217.194438" style="fill: #2ca02c; stroke: #2ca02c"/>
     <use xlink:href="#mbbe476b5bd" x="250.917025" y="204.420028" style="fill: #2ca02c; stroke: #2ca02c"/>
     <use xlink:href="#mbbe476b5bd" x="254.196364" y="212.621101" style="fill: #2ca02c; stroke: #2ca02c"/>
     <use xlink:href="#mbbe476b5bd" x="257.475702" y="189.275986" style="fill: #2ca02c; stroke: #2ca02c"/>
     <use xlink:href="#mbbe476b5bd" x="260.755041" y="202.049428" style="fill: #2ca02c; stroke: #2ca02c"/>
     <use xlink:href="#mbbe476b5bd" x="264.03438" y="225.726351" style="fill: #2ca02c; stroke: #2ca02c"/>
     <use xlink:href="#mbbe476b5bd" x="267.313719" y="188.639528" style="fill: #2ca02c; stroke: #2ca02c"/>
     <use xlink:href="#mbbe476b5bd" x="270.593058" y="159.957868" style="fill: #2ca02c; stroke: #2ca02c"/>
     <use xlink:href="#mbbe476b5bd" x="273.872397" y="183.018307" style="fill: #2ca02c; stroke: #2ca02c"/>
     <use xlink:href="#mbbe476b5bd" x="277.151736" y="205.324077" style="fill: #2ca02c; stroke: #2ca02c"/>
     <use xlink:href="#mbbe476b5bd" x="280.431074" y="180.19092" style="fill: #2ca02c; stroke: #2ca02c"/>
     <use xlink:href="#mbbe476b5bd" x="283.710413" y="196.847715" style="fill: #2ca02c; stroke: #2ca02c"/>
     <use xlink:href="#mbbe476b5bd" x="286.989752" y="210.316854" style="fill: #2ca02c; stroke: #2ca02c"/>
     <use xlink:href="#mbbe476b5bd" x="290.269091" y="236.289127" style="fill: #2ca02c; stroke: #2ca02c"/>
     <use xlink:href="#mbbe476b5bd" x="293.54843" y="234.384771" style="fill: #2ca02c; stroke: #2ca02c"/>
     <use xlink:href="#mbbe476b5bd" x="296.827769" y="245.453146" style="fill: #2ca02c; stroke: #2ca02c"/>
     <use xlink:href="#mbbe476b5bd" x="300.107107" y="263.267716" style="fill: #2ca02c; stroke: #2ca02c"/>
     <use xlink:href="#mbbe476b5bd" x="303.386446" y="268.454433" style="fill: #2ca02c; stroke: #2ca02c"/>
     <use xlink:href="#mbbe476b5bd" x="306.665785" y="275.57994" style="fill: #2ca02c; stroke: #2ca02c"/>
     <use xlink:href="#mbbe476b5bd" x="309.945124" y="250.122994" style="fill: #2ca02c; stroke: #2ca02c"/>
     <use xlink:href="#mbbe476b5bd" x="313.224463" y="295.488" style="fill: #2ca02c; stroke: #2ca02c"/>
     <use xlink:href="#mbbe476b5bd" x="316.503802" y="273.019256" style="fill: #2ca02c; stroke: #2ca02c"/>
     <use xlink:href="#mbbe476b5bd" x="319.78314" y="248.724283" style="fill: #2ca02c; stroke: #2ca02c"/>
     <use xlink:href="#mbbe476b5bd" x="323.062479" y="226.620095" style="fill: #2ca02c; stroke: #2ca02c"/>
     <use xlink:href="#mbbe476b5bd" x="326.341818" y="228.549241" style="fill: #2ca02c; stroke: #2ca02c"/>
     <use xlink:href="#mbbe476b5bd" x="329.621157" y="215.780156" style="fill: #2ca02c; stroke: #2ca02c"/>
     <use xlink:href="#mbbe476b5bd" x="332.900496" y="195.516355" style="fill: #2ca02c; stroke: #2ca02c"/>
     <use xlink:href="#mbbe476b5bd" x="336.179835" y="197.384369" style="fill: #2ca02c; stroke: #2ca02c"/>
     <use xlink:href="#mbbe476b5bd" x="339.459174" y="185.867494" style="fill: #2ca02c; stroke: #2ca02c"/>
     <use xlink:href="#mbbe476b5bd" x="342.738512" y="183.023049" style="fill: #2ca02c; stroke: #2ca02c"/>
     <use xlink:href="#mbbe476b5bd" x="346.017851" y="164.903994" style="fill: #2ca02c; stroke: #2ca02c"/>
     <use xlink:href="#mbbe476b5bd" x="349.29719" y="137.772975" style="fill: #2ca02c; stroke: #2ca02c"/>
     <use xlink:href="#mbbe476b5bd" x="352.576529" y="110.091912" style="fill: #2ca02c; stroke: #2ca02c"/>
     <use xlink:href="#mbbe476b5bd" x="355.855868" y="148.322269" style="fill: #2ca02c; stroke: #2ca02c"/>
     <use xlink:href="#mbbe476b5bd" x="359.135207" y="155.007471" style="fill: #2ca02c; stroke: #2ca02c"/>
     <use xlink:href="#mbbe476b5bd" x="362.414545" y="134.16488" style="fill: #2ca02c; stroke: #2ca02c"/>
     <use xlink:href="#mbbe476b5bd" x="365.693884" y="138.98129" style="fill: #2ca02c; stroke: #2ca02c"/>
     <use xlink:href="#mbbe476b5bd" x="368.973223" y="136.89527" style="fill: #2ca02c; stroke: #2ca02c"/>
     <use xlink:href="#mbbe476b5bd" x="372.252562" y="167.897954" style="fill: #2ca02c; stroke: #2ca02c"/>
     <use xlink:href="#mbbe476b5bd" x="375.531901" y="144.22089" style="fill: #2ca02c; stroke: #2ca02c"/>
     <use xlink:href="#mbbe476b5bd" x="378.81124" y="170.574605" style="fill: #2ca02c; stroke: #2ca02c"/>
     <use xlink:href="#mbbe476b5bd" x="382.090579" y="149.089978" style="fill: #2ca02c; stroke: #2ca02c"/>
     <use xlink:href="#mbbe476b5bd" x="385.369917" y="173.012616" style="fill: #2ca02c; stroke: #2ca02c"/>
     <use xlink:href="#mbbe476b5bd" x="388.649256" y="167.692001" style="fill: #2ca02c; stroke: #2ca02c"/>
     <use xlink:href="#mbbe476b5bd" x="391.928595" y="155.81009" style="fill: #2ca02c; stroke: #2ca02c"/>
     <use xlink:href="#mbbe476b5bd" x="395.207934" y="153.919053" style="fill: #2ca02c; stroke: #2ca02c"/>
     <use xlink:href="#mbbe476b5bd" x="398.487273" y="115.825147" style="fill: #2ca02c; stroke: #2ca02c"/>
    </g>
   </g>
   <g id="patch_3">
    <path d="M 57.6 307.584 
L 57.6 41.472 
" style="fill: none; stroke: #000000; stroke-width: 0.8; stroke-linejoin: miter; stroke-linecap: square"/>
   </g>
   <g id="patch_4">
    <path d="M 414.72 307.584 
L 414.72 41.472 
" style="fill: none; stroke: #000000; stroke-width: 0.8; stroke-linejoin: miter; stroke-linecap: square"/>
   </g>
   <g id="patch_5">
    <path d="M 57.6 307.584 
L 414.72 307.584 
" style="fill: none; stroke: #000000; stroke-width: 0.8; stroke-linejoin: miter; stroke-linecap: square"/>
   </g>
   <g id="patch_6">
    <path d="M 57.6 41.472 
L 414.72 41.472 
" style="fill: none; stroke: #000000; stroke-width: 0.8; stroke-linejoin: miter; stroke-linecap: square"/>
   </g>
   <g id="text_15">
    <!-- Wykres dla funkcji -->
    <g transform="translate(181.366875 18.624375) scale(0.12 -0.12)">
     <defs>
      <path id="DejaVuSans-57" d="M 213 4666 
L 850 4666 
L 1831 722 
L 2809 4666 
L 3519 4666 
L 4500 722 
L 5478 4666 
L 6119 4666 
L 4947 0 
L 4153 0 
L 3169 4050 
L 2175 0 
L 1381 0 
L 213 4666 
z
" transform="scale(0.015625)"/>
      <path id="DejaVuSans-64" d="M 2906 2969 
L 2906 4863 
L 3481 4863 
L 3481 0 
L 2906 0 
L 2906 525 
Q 2725 213 2448 61 
Q 2172 -91 1784 -91 
Q 1150 -91 751 415 
Q 353 922 353 1747 
Q 353 2572 751 3078 
Q 1150 3584 1784 3584 
Q 2172 3584 2448 3432 
Q 2725 3281 2906 2969 
z
M 947 1747 
Q 947 1113 1208 752 
Q 1469 391 1925 391 
Q 2381 391 2643 752 
Q 2906 1113 2906 1747 
Q 2906 2381 2643 2742 
Q 2381 3103 1925 3103 
Q 1469 3103 1208 2742 
Q 947 2381 947 1747 
z
" transform="scale(0.015625)"/>
      <path id="DejaVuSans-6c" d="M 603 4863 
L 1178 4863 
L 1178 0 
L 603 0 
L 603 4863 
z
" transform="scale(0.015625)"/>
      <path id="DejaVuSans-66" d="M 2375 4863 
L 2375 4384 
L 1825 4384 
Q 1516 4384 1395 4259 
Q 1275 4134 1275 3809 
L 1275 3500 
L 2222 3500 
L 2222 3053 
L 1275 3053 
L 1275 0 
L 697 0 
L 697 3053 
L 147 3053 
L 147 3500 
L 697 3500 
L 697 3744 
Q 697 4328 969 4595 
Q 1241 4863 1831 4863 
L 2375 4863 
z
" transform="scale(0.015625)"/>
      <path id="DejaVuSans-63" d="M 3122 3366 
L 3122 2828 
Q 2878 2963 2633 3030 
Q 2388 3097 2138 3097 
Q 1578 3097 1268 2742 
Q 959 2388 959 1747 
Q 959 1106 1268 751 
Q 1578 397 2138 397 
Q 2388 397 2633 464 
Q 2878 531 3122 666 
L 3122 134 
Q 2881 22 2623 -34 
Q 2366 -91 2075 -91 
Q 1284 -91 818 406 
Q 353 903 353 1747 
Q 353 2603 823 3093 
Q 1294 3584 2113 3584 
Q 2378 3584 2631 3529 
Q 2884 3475 3122 3366 
z
" transform="scale(0.015625)"/>
     </defs>
     <use xlink:href="#DejaVuSans-57"/>
     <use xlink:href="#DejaVuSans-79" x="97.126953"/>
     <use xlink:href="#DejaVuSans-6b" x="156.306641"/>
     <use xlink:href="#DejaVuSans-72" x="214.216797"/>
     <use xlink:href="#DejaVuSans-65" x="253.080078"/>
     <use xlink:href="#DejaVuSans-73" x="314.603516"/>
     <use xlink:href="#DejaVuSans-20" x="366.703125"/>
     <use xlink:href="#DejaVuSans-64" x="398.490234"/>
     <use xlink:href="#DejaVuSans-6c" x="461.966797"/>
     <use xlink:href="#DejaVuSans-61" x="489.75"/>
     <use xlink:href="#DejaVuSans-20" x="551.029297"/>
     <use xlink:href="#DejaVuSans-66" x="582.816406"/>
     <use xlink:href="#DejaVuSans-75" x="618.021484"/>
     <use xlink:href="#DejaVuSans-6e" x="681.400391"/>
     <use xlink:href="#DejaVuSans-6b" x="744.779297"/>
     <use xlink:href="#DejaVuSans-63" x="802.689453"/>
     <use xlink:href="#DejaVuSans-6a" x="857.669922"/>
     <use xlink:href="#DejaVuSans-69" x="885.453125"/>
    </g>
    <!-- $F(x)=a*sin(3x) + b\cos(2x) + cx^2) + \frac{d}{0.8e^{-0.2x}}$ -->
    <g transform="translate(108.12 35.232) scale(0.12 -0.12)">
     <defs>
      <path id="DejaVuSans-Oblique-46" d="M 1081 4666 
L 3756 4666 
L 3653 4134 
L 1606 4134 
L 1338 2759 
L 3188 2759 
L 3084 2228 
L 1234 2228 
L 800 0 
L 172 0 
L 1081 4666 
z
" transform="scale(0.015625)"/>
      <path id="DejaVuSans-28" d="M 1984 4856 
Q 1566 4138 1362 3434 
Q 1159 2731 1159 2009 
Q 1159 1288 1364 580 
Q 1569 -128 1984 -844 
L 1484 -844 
Q 1016 -109 783 600 
Q 550 1309 550 2009 
Q 550 2706 781 3412 
Q 1013 4119 1484 4856 
L 1984 4856 
z
" transform="scale(0.015625)"/>
      <path id="DejaVuSans-Oblique-78" d="M 3841 3500 
L 2234 1784 
L 3219 0 
L 2559 0 
L 1819 1388 
L 531 0 
L -166 0 
L 1556 1844 
L 641 3500 
L 1300 3500 
L 1972 2234 
L 3144 3500 
L 3841 3500 
z
" transform="scale(0.015625)"/>
      <path id="DejaVuSans-29" d="M 513 4856 
L 1013 4856 
Q 1481 4119 1714 3412 
Q 1947 2706 1947 2009 
Q 1947 1309 1714 600 
Q 1481 -109 1013 -844 
L 513 -844 
Q 928 -128 1133 580 
Q 1338 1288 1338 2009 
Q 1338 2731 1133 3434 
Q 928 4138 513 4856 
z
" transform="scale(0.015625)"/>
      <path id="DejaVuSans-3d" d="M 678 2906 
L 4684 2906 
L 4684 2381 
L 678 2381 
L 678 2906 
z
M 678 1631 
L 4684 1631 
L 4684 1100 
L 678 1100 
L 678 1631 
z
" transform="scale(0.015625)"/>
      <path id="DejaVuSans-Oblique-61" d="M 3438 1997 
L 3047 0 
L 2472 0 
L 2578 531 
Q 2325 219 2001 64 
Q 1678 -91 1281 -91 
Q 834 -91 548 182 
Q 263 456 263 884 
Q 263 1497 752 1853 
Q 1241 2209 2100 2209 
L 2900 2209 
L 2931 2363 
Q 2938 2388 2941 2417 
Q 2944 2447 2944 2509 
Q 2944 2788 2717 2942 
Q 2491 3097 2081 3097 
Q 1800 3097 1504 3025 
Q 1209 2953 897 2809 
L 997 3341 
Q 1322 3463 1633 3523 
Q 1944 3584 2234 3584 
Q 2853 3584 3176 3315 
Q 3500 3047 3500 2534 
Q 3500 2431 3484 2292 
Q 3469 2153 3438 1997 
z
M 2816 1759 
L 2241 1759 
Q 1534 1759 1195 1570 
Q 856 1381 856 984 
Q 856 709 1029 553 
Q 1203 397 1509 397 
Q 1978 397 2328 733 
Q 2678 1069 2791 1631 
L 2816 1759 
z
" transform="scale(0.015625)"/>
      <path id="DejaVuSans-2a" d="M 3009 3897 
L 1888 3291 
L 3009 2681 
L 2828 2375 
L 1778 3009 
L 1778 1831 
L 1422 1831 
L 1422 3009 
L 372 2375 
L 191 2681 
L 1313 3291 
L 191 3897 
L 372 4206 
L 1422 3572 
L 1422 4750 
L 1778 4750 
L 1778 3572 
L 2828 4206 
L 3009 3897 
z
" transform="scale(0.015625)"/>
      <path id="DejaVuSans-Oblique-73" d="M 3200 3397 
L 3091 2853 
Q 2863 2978 2609 3040 
Q 2356 3103 2088 3103 
Q 1634 3103 1373 2948 
Q 1113 2794 1113 2528 
Q 1113 2219 1719 2053 
Q 1766 2041 1788 2034 
L 1972 1978 
Q 2547 1819 2739 1644 
Q 2931 1469 2931 1166 
Q 2931 609 2489 259 
Q 2047 -91 1331 -91 
Q 1053 -91 747 -37 
Q 441 16 72 128 
L 184 722 
Q 500 559 806 475 
Q 1113 391 1394 391 
Q 1816 391 2080 572 
Q 2344 753 2344 1031 
Q 2344 1331 1650 1516 
L 1591 1531 
L 1394 1581 
Q 956 1697 753 1886 
Q 550 2075 550 2369 
Q 550 2928 970 3256 
Q 1391 3584 2113 3584 
Q 2397 3584 2667 3537 
Q 2938 3491 3200 3397 
z
" transform="scale(0.015625)"/>
      <path id="DejaVuSans-Oblique-69" d="M 1172 4863 
L 1747 4863 
L 1606 4134 
L 1031 4134 
L 1172 4863 
z
M 909 3500 
L 1484 3500 
L 800 0 
L 225 0 
L 909 3500 
z
" transform="scale(0.015625)"/>
      <path id="DejaVuSans-Oblique-6e" d="M 3566 2113 
L 3156 0 
L 2578 0 
L 2988 2091 
Q 3016 2238 3031 2350 
Q 3047 2463 3047 2528 
Q 3047 2791 2881 2937 
Q 2716 3084 2419 3084 
Q 1956 3084 1622 2776 
Q 1288 2469 1184 1941 
L 800 0 
L 225 0 
L 903 3500 
L 1478 3500 
L 1363 2950 
Q 1603 3253 1940 3418 
Q 2278 3584 2650 3584 
Q 3113 3584 3367 3334 
Q 3622 3084 3622 2631 
Q 3622 2519 3608 2391 
Q 3594 2263 3566 2113 
z
" transform="scale(0.015625)"/>
      <path id="DejaVuSans-33" d="M 2597 2516 
Q 3050 2419 3304 2112 
Q 3559 1806 3559 1356 
Q 3559 666 3084 287 
Q 2609 -91 1734 -91 
Q 1441 -91 1130 -33 
Q 819 25 488 141 
L 488 750 
Q 750 597 1062 519 
Q 1375 441 1716 441 
Q 2309 441 2620 675 
Q 2931 909 2931 1356 
Q 2931 1769 2642 2001 
Q 2353 2234 1838 2234 
L 1294 2234 
L 1294 2753 
L 1863 2753 
Q 2328 2753 2575 2939 
Q 2822 3125 2822 3475 
Q 2822 3834 2567 4026 
Q 2313 4219 1838 4219 
Q 1578 4219 1281 4162 
Q 984 4106 628 3988 
L 628 4550 
Q 988 4650 1302 4700 
Q 1616 4750 1894 4750 
Q 2613 4750 3031 4423 
Q 3450 4097 3450 3541 
Q 3450 3153 3228 2886 
Q 3006 2619 2597 2516 
z
" transform="scale(0.015625)"/>
      <path id="DejaVuSans-2b" d="M 2944 4013 
L 2944 2272 
L 4684 2272 
L 4684 1741 
L 2944 1741 
L 2944 0 
L 2419 0 
L 2419 1741 
L 678 1741 
L 678 2272 
L 2419 2272 
L 2419 4013 
L 2944 4013 
z
" transform="scale(0.015625)"/>
      <path id="DejaVuSans-Oblique-62" d="M 3169 2138 
Q 3169 2591 2961 2847 
Q 2753 3103 2388 3103 
Q 2122 3103 1889 2973 
Q 1656 2844 1484 2597 
Q 1303 2338 1198 1995 
Q 1094 1653 1094 1313 
Q 1094 881 1298 636 
Q 1503 391 1863 391 
Q 2134 391 2365 517 
Q 2597 644 2772 891 
Q 2950 1147 3059 1487 
Q 3169 1828 3169 2138 
z
M 1381 2969 
Q 1594 3256 1914 3420 
Q 2234 3584 2584 3584 
Q 3122 3584 3439 3221 
Q 3756 2859 3756 2241 
Q 3756 1734 3570 1259 
Q 3384 784 3041 416 
Q 2816 172 2522 40 
Q 2228 -91 1906 -91 
Q 1566 -91 1316 65 
Q 1066 222 909 531 
L 806 0 
L 231 0 
L 1178 4863 
L 1753 4863 
L 1381 2969 
z
" transform="scale(0.015625)"/>
      <path id="DejaVuSans-Oblique-63" d="M 3431 3366 
L 3316 2797 
Q 3109 2947 2876 3022 
Q 2644 3097 2394 3097 
Q 2119 3097 1870 3000 
Q 1622 2903 1453 2725 
Q 1184 2453 1037 2087 
Q 891 1722 891 1331 
Q 891 859 1127 628 
Q 1363 397 1844 397 
Q 2081 397 2348 469 
Q 2616 541 2906 684 
L 2797 116 
Q 2547 13 2283 -39 
Q 2019 -91 1741 -91 
Q 1044 -91 669 257 
Q 294 606 294 1253 
Q 294 1797 489 2255 
Q 684 2713 1069 3078 
Q 1331 3328 1684 3456 
Q 2038 3584 2456 3584 
Q 2700 3584 2940 3529 
Q 3181 3475 3431 3366 
z
" transform="scale(0.015625)"/>
      <path id="DejaVuSans-Oblique-64" d="M 2675 525 
Q 2444 222 2128 65 
Q 1813 -91 1428 -91 
Q 903 -91 598 267 
Q 294 625 294 1247 
Q 294 1766 478 2236 
Q 663 2706 1013 3078 
Q 1244 3325 1534 3454 
Q 1825 3584 2144 3584 
Q 2481 3584 2739 3421 
Q 2997 3259 3138 2956 
L 3513 4863 
L 4091 4863 
L 3144 0 
L 2566 0 
L 2675 525 
z
M 891 1350 
Q 891 897 1095 644 
Q 1300 391 1663 391 
Q 1931 391 2161 520 
Q 2391 650 2566 903 
Q 2750 1166 2856 1509 
Q 2963 1853 2963 2188 
Q 2963 2622 2758 2865 
Q 2553 3109 2194 3109 
Q 1922 3109 1687 2981 
Q 1453 2853 1288 2613 
Q 1106 2353 998 2009 
Q 891 1666 891 1350 
z
" transform="scale(0.015625)"/>
      <path id="DejaVuSans-38" d="M 2034 2216 
Q 1584 2216 1326 1975 
Q 1069 1734 1069 1313 
Q 1069 891 1326 650 
Q 1584 409 2034 409 
Q 2484 409 2743 651 
Q 3003 894 3003 1313 
Q 3003 1734 2745 1975 
Q 2488 2216 2034 2216 
z
M 1403 2484 
Q 997 2584 770 2862 
Q 544 3141 544 3541 
Q 544 4100 942 4425 
Q 1341 4750 2034 4750 
Q 2731 4750 3128 4425 
Q 3525 4100 3525 3541 
Q 3525 3141 3298 2862 
Q 3072 2584 2669 2484 
Q 3125 2378 3379 2068 
Q 3634 1759 3634 1313 
Q 3634 634 3220 271 
Q 2806 -91 2034 -91 
Q 1263 -91 848 271 
Q 434 634 434 1313 
Q 434 1759 690 2068 
Q 947 2378 1403 2484 
z
M 1172 3481 
Q 1172 3119 1398 2916 
Q 1625 2713 2034 2713 
Q 2441 2713 2670 2916 
Q 2900 3119 2900 3481 
Q 2900 3844 2670 4047 
Q 2441 4250 2034 4250 
Q 1625 4250 1398 4047 
Q 1172 3844 1172 3481 
z
" transform="scale(0.015625)"/>
      <path id="DejaVuSans-Oblique-65" d="M 3078 2063 
Q 3088 2113 3092 2166 
Q 3097 2219 3097 2272 
Q 3097 2653 2873 2875 
Q 2650 3097 2266 3097 
Q 1838 3097 1509 2826 
Q 1181 2556 1013 2059 
L 3078 2063 
z
M 3578 1613 
L 903 1613 
Q 884 1494 878 1425 
Q 872 1356 872 1306 
Q 872 872 1139 634 
Q 1406 397 1894 397 
Q 2269 397 2603 481 
Q 2938 566 3225 728 
L 3116 159 
Q 2806 34 2476 -28 
Q 2147 -91 1806 -91 
Q 1078 -91 686 257 
Q 294 606 294 1247 
Q 294 1794 489 2264 
Q 684 2734 1063 3103 
Q 1306 3334 1642 3459 
Q 1978 3584 2356 3584 
Q 2950 3584 3301 3228 
Q 3653 2872 3653 2272 
Q 3653 2128 3634 1964 
Q 3616 1800 3578 1613 
z
" transform="scale(0.015625)"/>
     </defs>
     <use xlink:href="#DejaVuSans-Oblique-46" transform="translate(0 0.01875)"/>
     <use xlink:href="#DejaVuSans-28" transform="translate(57.519531 0.01875)"/>
     <use xlink:href="#DejaVuSans-Oblique-78" transform="translate(96.533203 0.01875)"/>
     <use xlink:href="#DejaVuSans-29" transform="translate(155.712891 0.01875)"/>
     <use xlink:href="#DejaVuSans-3d" transform="translate(214.208984 0.01875)"/>
     <use xlink:href="#DejaVuSans-Oblique-61" transform="translate(317.480469 0.01875)"/>
     <use xlink:href="#DejaVuSans-2a" transform="translate(398.242188 0.01875)"/>
     <use xlink:href="#DejaVuSans-Oblique-73" transform="translate(467.724609 0.01875)"/>
     <use xlink:href="#DejaVuSans-Oblique-69" transform="translate(519.824219 0.01875)"/>
     <use xlink:href="#DejaVuSans-Oblique-6e" transform="translate(547.607422 0.01875)"/>
     <use xlink:href="#DejaVuSans-28" transform="translate(610.986328 0.01875)"/>
     <use xlink:href="#DejaVuSans-33" transform="translate(650 0.01875)"/>
     <use xlink:href="#DejaVuSans-Oblique-78" transform="translate(713.623047 0.01875)"/>
     <use xlink:href="#DejaVuSans-29" transform="translate(772.802734 0.01875)"/>
     <use xlink:href="#DejaVuSans-2b" transform="translate(831.298828 0.01875)"/>
     <use xlink:href="#DejaVuSans-Oblique-62" transform="translate(934.570312 0.01875)"/>
     <use xlink:href="#DejaVuSans-63" transform="translate(998.046875 0.01875)"/>
     <use xlink:href="#DejaVuSans-6f" transform="translate(1053.027344 0.01875)"/>
     <use xlink:href="#DejaVuSans-73" transform="translate(1114.208984 0.01875)"/>
     <use xlink:href="#DejaVuSans-28" transform="translate(1166.308594 0.01875)"/>
     <use xlink:href="#DejaVuSans-32" transform="translate(1205.322266 0.01875)"/>
     <use xlink:href="#DejaVuSans-Oblique-78" transform="translate(1268.945312 0.01875)"/>
     <use xlink:href="#DejaVuSans-29" transform="translate(1328.125 0.01875)"/>
     <use xlink:href="#DejaVuSans-2b" transform="translate(1386.621094 0.01875)"/>
     <use xlink:href="#DejaVuSans-Oblique-63" transform="translate(1489.892578 0.01875)"/>
     <use xlink:href="#DejaVuSans-Oblique-78" transform="translate(1544.873047 0.01875)"/>
     <use xlink:href="#DejaVuSans-32" transform="translate(1608.51888 38.3) scale(0.7)"/>
     <use xlink:href="#DejaVuSans-29" transform="translate(1655.789388 0.01875)"/>
     <use xlink:href="#DejaVuSans-2b" transform="translate(1714.285482 0.01875)"/>
     <use xlink:href="#DejaVuSans-Oblique-64" transform="translate(1946.556966 44.810938) scale(0.7)"/>
     <use xlink:href="#DejaVuSans-30" transform="translate(1817.556966 -50.598437) scale(0.7)"/>
     <use xlink:href="#DejaVuSans-2e" transform="translate(1862.093099 -50.598437) scale(0.7)"/>
     <use xlink:href="#DejaVuSans-38" transform="translate(1882.506576 -50.598437) scale(0.7)"/>
     <use xlink:href="#DejaVuSans-Oblique-65" transform="translate(1927.042708 -50.598437) scale(0.7)"/>
     <use xlink:href="#DejaVuSans-2212" transform="translate(1973.364042 -23.801562) scale(0.49)"/>
     <use xlink:href="#DejaVuSans-30" transform="translate(2014.420682 -23.801562) scale(0.49)"/>
     <use xlink:href="#DejaVuSans-2e" transform="translate(2045.595975 -23.801562) scale(0.49)"/>
     <use xlink:href="#DejaVuSans-32" transform="translate(2058.476659 -23.801562) scale(0.49)"/>
     <use xlink:href="#DejaVuSans-Oblique-78" transform="translate(2089.651952 -23.801562) scale(0.49)"/>
     <path d="M 1817.556966 18.815625 
L 1817.556966 25.065625 
L 2120.564061 25.065625 
L 2120.564061 18.815625 
L 1817.556966 18.815625 
z
"/>
    </g>
   </g>
   <g id="legend_1">
    <g id="patch_7">
     <path d="M 246.42 93.506375 
L 407.72 93.506375 
Q 409.72 93.506375 409.72 91.506375 
L 409.72 48.472 
Q 409.72 46.472 407.72 46.472 
L 246.42 46.472 
Q 244.42 46.472 244.42 48.472 
L 244.42 91.506375 
Q 244.42 93.506375 246.42 93.506375 
z
" style="fill: #ffffff; opacity: 0.8; stroke: #cccccc; stroke-linejoin: miter"/>
    </g>
    <g id="line2d_28">
     <path d="M 248.42 54.570438 
L 258.42 54.570438 
L 268.42 54.570438 
" style="fill: none; stroke: #1f77b4; stroke-width: 1.5; stroke-linecap: square"/>
     <g>
      <use xlink:href="#mbfd8216c58" x="258.42" y="54.570438" style="fill: #1f77b4; stroke: #1f77b4"/>
     </g>
    </g>
    <g id="text_16">
     <!-- Wykres z biblioteki -->
     <g transform="translate(276.42 58.070438) scale(0.1 -0.1)">
      <use xlink:href="#DejaVuSans-57"/>
      <use xlink:href="#DejaVuSans-79" x="97.126953"/>
      <use xlink:href="#DejaVuSans-6b" x="156.306641"/>
      <use xlink:href="#DejaVuSans-72" x="214.216797"/>
      <use xlink:href="#DejaVuSans-65" x="253.080078"/>
      <use xlink:href="#DejaVuSans-73" x="314.603516"/>
      <use xlink:href="#DejaVuSans-20" x="366.703125"/>
      <use xlink:href="#DejaVuSans-7a" x="398.490234"/>
      <use xlink:href="#DejaVuSans-20" x="450.980469"/>
      <use xlink:href="#DejaVuSans-62" x="482.767578"/>
      <use xlink:href="#DejaVuSans-69" x="546.244141"/>
      <use xlink:href="#DejaVuSans-62" x="574.027344"/>
      <use xlink:href="#DejaVuSans-6c" x="637.503906"/>
      <use xlink:href="#DejaVuSans-69" x="665.287109"/>
      <use xlink:href="#DejaVuSans-6f" x="693.070312"/>
      <use xlink:href="#DejaVuSans-74" x="754.251953"/>
      <use xlink:href="#DejaVuSans-65" x="793.460938"/>
      <use xlink:href="#DejaVuSans-6b" x="854.984375"/>
      <use xlink:href="#DejaVuSans-69" x="912.894531"/>
     </g>
    </g>
    <g id="line2d_29">
     <path d="M 248.42 69.248563 
L 258.42 69.248563 
L 268.42 69.248563 
" style="fill: none; stroke: #ff7f0e; stroke-width: 1.5; stroke-linecap: square"/>
     <g>
      <use xlink:href="#m65e1852756" x="258.42" y="69.248563" style="fill: #ff7f0e; stroke: #ff7f0e; stroke-linejoin: bevel"/>
     </g>
    </g>
    <g id="text_17">
     <!-- Wlasna metoda -->
     <g transform="translate(276.42 72.748563) scale(0.1 -0.1)">
      <defs>
       <path id="DejaVuSans-6d" d="M 3328 2828 
Q 3544 3216 3844 3400 
Q 4144 3584 4550 3584 
Q 5097 3584 5394 3201 
Q 5691 2819 5691 2113 
L 5691 0 
L 5113 0 
L 5113 2094 
Q 5113 2597 4934 2840 
Q 4756 3084 4391 3084 
Q 3944 3084 3684 2787 
Q 3425 2491 3425 1978 
L 3425 0 
L 2847 0 
L 2847 2094 
Q 2847 2600 2669 2842 
Q 2491 3084 2119 3084 
Q 1678 3084 1418 2786 
Q 1159 2488 1159 1978 
L 1159 0 
L 581 0 
L 581 3500 
L 1159 3500 
L 1159 2956 
Q 1356 3278 1631 3431 
Q 1906 3584 2284 3584 
Q 2666 3584 2933 3390 
Q 3200 3197 3328 2828 
z
" transform="scale(0.015625)"/>
      </defs>
      <use xlink:href="#DejaVuSans-57"/>
      <use xlink:href="#DejaVuSans-6c" x="98.876953"/>
      <use xlink:href="#DejaVuSans-61" x="126.660156"/>
      <use xlink:href="#DejaVuSans-73" x="187.939453"/>
      <use xlink:href="#DejaVuSans-6e" x="240.039062"/>
      <use xlink:href="#DejaVuSans-61" x="303.417969"/>
      <use xlink:href="#DejaVuSans-20" x="364.697266"/>
      <use xlink:href="#DejaVuSans-6d" x="396.484375"/>
      <use xlink:href="#DejaVuSans-65" x="493.896484"/>
      <use xlink:href="#DejaVuSans-74" x="555.419922"/>
      <use xlink:href="#DejaVuSans-6f" x="594.628906"/>
      <use xlink:href="#DejaVuSans-64" x="655.810547"/>
      <use xlink:href="#DejaVuSans-61" x="719.287109"/>
     </g>
    </g>
    <g id="line2d_30">
     <g>
      <use xlink:href="#mbbe476b5bd" x="258.42" y="83.926688" style="fill: #2ca02c; stroke: #2ca02c"/>
     </g>
    </g>
    <g id="text_18">
     <!-- punkty podane z szumem -->
     <g transform="translate(276.42 87.426688) scale(0.1 -0.1)">
      <defs>
       <path id="DejaVuSans-70" d="M 1159 525 
L 1159 -1331 
L 581 -1331 
L 581 3500 
L 1159 3500 
L 1159 2969 
Q 1341 3281 1617 3432 
Q 1894 3584 2278 3584 
Q 2916 3584 3314 3078 
Q 3713 2572 3713 1747 
Q 3713 922 3314 415 
Q 2916 -91 2278 -91 
Q 1894 -91 1617 61 
Q 1341 213 1159 525 
z
M 3116 1747 
Q 3116 2381 2855 2742 
Q 2594 3103 2138 3103 
Q 1681 3103 1420 2742 
Q 1159 2381 1159 1747 
Q 1159 1113 1420 752 
Q 1681 391 2138 391 
Q 2594 391 2855 752 
Q 3116 1113 3116 1747 
z
" transform="scale(0.015625)"/>
      </defs>
      <use xlink:href="#DejaVuSans-70"/>
      <use xlink:href="#DejaVuSans-75" x="63.476562"/>
      <use xlink:href="#DejaVuSans-6e" x="126.855469"/>
      <use xlink:href="#DejaVuSans-6b" x="190.234375"/>
      <use xlink:href="#DejaVuSans-74" x="248.144531"/>
      <use xlink:href="#DejaVuSans-79" x="287.353516"/>
      <use xlink:href="#DejaVuSans-20" x="346.533203"/>
      <use xlink:href="#DejaVuSans-70" x="378.320312"/>
      <use xlink:href="#DejaVuSans-6f" x="441.796875"/>
      <use xlink:href="#DejaVuSans-64" x="502.978516"/>
      <use xlink:href="#DejaVuSans-61" x="566.455078"/>
      <use xlink:href="#DejaVuSans-6e" x="627.734375"/>
      <use xlink:href="#DejaVuSans-65" x="691.113281"/>
      <use xlink:href="#DejaVuSans-20" x="752.636719"/>
      <use xlink:href="#DejaVuSans-7a" x="784.423828"/>
      <use xlink:href="#DejaVuSans-20" x="836.914062"/>
      <use xlink:href="#DejaVuSans-73" x="868.701172"/>
      <use xlink:href="#DejaVuSans-7a" x="920.800781"/>
      <use xlink:href="#DejaVuSans-75" x="973.291016"/>
      <use xlink:href="#DejaVuSans-6d" x="1036.669922"/>
      <use xlink:href="#DejaVuSans-65" x="1134.082031"/>
      <use xlink:href="#DejaVuSans-6d" x="1195.605469"/>
     </g>
    </g>
   </g>
  </g>
 </g>
 <defs>
  <clipPath id="pc6597818fc">
   <rect x="57.6" y="41.472" width="357.12" height="266.112"/>
  </clipPath>
 </defs>
</svg>
